<svg width="109" height="28" viewBox="0 0 109 28" fill="none" xmlns="http://www.w3.org/2000/svg">
<path d="M74.6646 19.5629H68.9213L74.4148 11.7823V9.13098H66.1744C65.1755 9.13098 64.801 9.52747 64.801 10.4815V12.8231H66.1744V12.5629C66.1744 11.8567 66.549 11.5717 67.2981 11.5717H70.2947L64.6761 19.3522V22.0284H74.6646" fill="#163055"/>
<path fill-rule="evenodd" clip-rule="evenodd" d="M96.764 21.3221V6.72742C96.764 5.55043 96.2647 5.16635 95.141 5.16635H91.7698V6.77703H92.1444C92.7687 6.77703 93.0183 7.01238 93.0183 7.73096V21.3221H96.764ZM98.7617 21.3221H102.383V10.308C102.383 9.19293 101.883 8.7469 100.76 8.7469H98.7617V21.3221ZM91.0207 21.3221V8.7469H89.023C87.8993 8.7469 87.3998 9.19293 87.3998 10.308V21.3221H91.0207ZM106.628 13.9877C106.628 20.8142 101.633 25.7947 94.8912 25.7947C88.149 25.7947 83.1547 20.8142 83.1547 13.9877C83.1547 7.16111 88.149 2.18054 94.8912 2.18054C101.633 2.18054 106.628 7.16111 106.628 13.9877ZM109 13.9877C109 5.99651 103.007 0 94.8912 0C86.9004 0 80.7825 5.99651 80.7825 13.9877C80.7825 22.0036 86.9004 28 94.8912 28C103.007 28 109 22.0036 109 13.9877Z" fill="#163055"/>
<path fill-rule="evenodd" clip-rule="evenodd" d="M9.86363 15.1035H5.86823L7.99079 8.25218L9.86363 15.1035ZM3.99539 22.0292L5.24396 17.854H10.3631L11.6116 22.0292H15.8567L11.3619 6.18316C11.1122 5.14245 10.6128 4.80794 9.48906 4.80794H3.24626V6.23271H3.74568C4.49482 6.23271 4.86939 6.46811 4.86939 7.03803C4.86939 7.39732 4.86939 7.63272 4.49482 8.48758L0 22.0292" fill="#163055"/>
<path d="M21.2256 22.0292V6.07165C21.2256 5.24156 20.7262 4.80794 19.8522 4.80794H15.9816V6.23271H16.2313C16.9805 6.23271 17.355 6.54245 17.355 7.21148V22.0292" fill="#163055"/>
<path d="M28.2175 22.0292V6.07165C28.2175 5.24156 27.7181 4.80794 26.8441 4.80794H22.9736V6.23271H23.2233C23.9724 6.23271 24.347 6.54245 24.347 7.21148V22.0292" fill="#163055"/>
<path fill-rule="evenodd" clip-rule="evenodd" d="M35.3343 6.33181C35.3343 5.19199 34.4603 4.52296 33.0869 4.52296C31.5886 4.52296 30.8395 5.19199 30.8395 6.33181C30.8395 7.49642 31.5886 8.17783 33.0869 8.17783C34.4603 8.17783 35.3343 7.49642 35.3343 6.33181ZM35.2094 22.0292V10.4079C35.2094 9.60261 34.71 9.13181 33.9609 9.13181H30.0903V10.5318H30.34C31.0892 10.5318 31.3389 10.8415 31.3389 11.5477V22.0292" fill="#163055"/>
<path fill-rule="evenodd" clip-rule="evenodd" d="M44.4488 15.7725V18.3495C43.6996 19.0929 42.8256 19.5141 42.0765 19.5141C41.3274 19.5141 40.9528 19.1548 40.9528 18.1884C40.9528 17.123 41.2025 16.7141 42.0765 16.3796C42.7008 16.1194 43.3251 15.9584 44.4488 15.7725ZM38.9551 12.6876L39.3297 12.5389C40.3285 12.1424 40.9528 11.9938 41.7019 11.8575C42.0765 11.8079 42.5759 11.7584 42.8256 11.7584C44.0742 11.7584 44.4488 12.1672 44.4488 13.307V13.6292C42.7008 13.9141 42.2014 14.0132 41.2025 14.2238C40.7031 14.3477 40.2037 14.5088 39.7042 14.7194C38.0811 15.3637 37.332 16.6026 37.332 18.5477C37.332 20.9884 38.3308 22.153 40.5782 22.153C41.4522 22.153 42.3262 21.9548 42.9505 21.5584C43.5748 21.2734 43.8245 21.1247 44.5736 20.4433V20.8398C44.5736 21.6451 44.9482 22.0292 45.6973 22.0292H49.443V20.7035H49.3182C48.569 20.7035 48.1944 20.369 48.1944 19.6999V13.369C48.1944 10.0734 47.0707 8.95836 43.8245 8.95836C42.7008 8.95836 41.7019 9.08225 40.7031 9.31765C39.7042 9.55305 39.2048 9.7265 38.0811 10.3088" fill="#163055"/>
<path fill-rule="evenodd" clip-rule="evenodd" d="M55.3112 22.0292V13.2823C56.1852 12.4769 56.8095 12.1672 57.6835 12.1672C58.5575 12.1672 58.8072 12.5389 58.8072 13.8522V22.0292H62.6777V13.2327C62.6777 11.4238 62.428 10.6433 61.9286 9.96189C61.3043 9.29287 60.5552 8.98314 59.4315 8.98314C57.9332 8.98314 56.8095 9.52827 55.0615 11.0274V10.3336C55.0615 9.52827 54.687 9.13181 53.9378 9.13181H50.1921V10.5318H50.317C51.0661 10.5318 51.4407 10.8415 51.4407 11.5477V22.0292" fill="#163055"/>
</svg>
