<svg width="145" height="26" viewBox="0 0 145 26" fill="none" xmlns="http://www.w3.org/2000/svg">
<path d="M28.7172 13.8069C28.6878 13.6874 28.6878 13.508 28.6878 13.269C28.6878 11.7448 29.1885 10.5494 30.1899 9.71264C31.1913 8.84598 32.2811 8.42759 33.4887 8.42759C35.0792 8.42759 36.1985 9.02529 36.817 10.2506L28.7172 13.8069ZM40.322 11.6552C40.2925 9.86207 39.6445 8.3977 38.3191 7.26207C36.9937 6.12644 35.3443 5.58851 33.3415 5.58851C32.075 5.58851 30.8674 5.85747 29.7481 6.42529C28.5994 6.9931 27.6569 7.85977 26.8911 9.08506C26.1253 10.2805 25.7424 11.6552 25.7424 13.2391C25.7424 15.5103 26.4788 17.3632 27.9515 18.7379C29.4241 20.1425 31.2208 20.8299 33.2826 20.8299C35.6388 20.8299 37.7006 19.9333 39.4383 18.1103L37.6417 16.0782C36.5814 17.3632 35.2265 18.0207 33.6065 18.0207C31.9866 18.0207 30.6612 17.423 29.7187 16.2276L40.3514 11.6851L40.322 11.6552Z" fill="#163055"/>
<path d="M22.208 6.48506C21.3538 7.08276 20.6764 7.82988 20.2052 8.75632V5.76782H17.1125V20.5908H20.1757V14.2552C20.1757 12.5816 20.5586 11.2069 21.3244 10.2207C22.0902 9.2046 23.2389 8.72644 24.741 8.72644H24.9177L24.8883 5.58851C23.9752 5.58851 23.0622 5.88736 22.208 6.48506Z" fill="#163055"/>
<path d="M51.3081 13.0598C50.8074 12.731 50.3656 12.4621 49.9238 12.2828C49.482 12.1034 49.0402 11.9241 48.5984 11.7747C48.1272 11.6253 47.6264 11.4759 47.0079 11.3264C46.4189 11.177 45.9476 11.0276 45.6236 10.8483C45.1523 10.6391 44.9167 10.2805 44.9167 9.8023C44.9167 9.26437 45.1523 8.84598 45.5941 8.57701C46.0654 8.30805 46.6545 8.15862 47.3908 8.15862C48.7751 8.15862 50.0711 8.54713 51.2492 9.35402L52.3979 7.05287C50.8958 6.03678 49.3053 5.55862 47.6264 5.55862C45.9476 5.55862 44.5633 5.97701 43.5324 6.78391C42.4721 7.62069 41.9419 8.69655 41.9419 10.0713C41.9419 12.0138 43.4735 13.4184 46.5072 14.2552C46.5661 14.2851 46.6839 14.3149 46.8312 14.3747C48.7751 14.9724 49.7471 15.6299 49.7471 16.377C49.7471 16.8851 49.5409 17.3034 49.158 17.6023C48.7457 17.931 48.2155 18.0805 47.5086 18.0805C45.9181 18.0805 44.2687 17.423 42.5604 16.1379L41.0878 18.5586C41.9714 19.2759 42.9728 19.8138 44.1215 20.2023C45.2702 20.5908 46.3599 20.8 47.4203 20.8C48.9813 20.8 50.2773 20.3816 51.2787 19.5448C52.2801 18.708 52.7808 17.5724 52.7808 16.1678C52.8103 14.7632 52.3096 13.7471 51.3081 13.0598Z" fill="#163055"/>
<path d="M10.6622 10.8782C10.0142 11.5655 8.77717 11.9241 7.00995 11.9241H3.23989V4.12414H6.5387C8.30591 4.12414 9.57241 4.3931 10.3971 4.96092C11.2218 5.52874 11.6342 6.45517 11.6342 7.8C11.6342 9.14483 11.3102 10.1908 10.6622 10.8782ZM12.9596 2.83908C11.6342 1.70345 9.51351 1.13563 6.5976 1.13563H0V20.5908H3.23989V14.8828H6.65651C9.48405 14.8828 11.5753 14.3448 12.9301 13.2391C14.285 12.1333 14.9624 10.4299 14.9624 8.06897C14.9624 5.70805 14.285 3.97471 12.9596 2.83908Z" fill="#163055"/>
<path d="M59.997 18.1402C59.349 18.1402 58.8188 17.931 58.4654 17.5126C58.1119 17.0943 57.9057 16.5264 57.9057 15.8391V8.30805H61.7347V5.7977H57.9057V1.13563H54.8426V15.7195C54.8426 17.2736 55.3138 18.5287 56.2269 19.4253C57.14 20.3517 58.2592 20.8 59.5846 20.8C60.91 20.8 62.0882 20.3218 63.1779 19.3356L61.9114 17.1241C61.2929 17.8115 60.6449 18.1402 59.997 18.1402Z" fill="#163055"/>
<path d="M74.0463 16.7356C73.1922 17.6322 72.1907 18.0805 70.9831 18.0805C69.7755 18.0805 68.7152 17.6322 67.8316 16.7356C66.948 15.8391 66.4767 14.7034 66.4767 13.269C66.4767 11.8345 66.9185 10.669 67.8022 9.71264C68.6858 8.75632 69.7166 8.27816 70.9537 8.27816C72.1907 8.27816 73.2216 8.75632 74.0463 9.71264C74.9005 10.669 75.3128 11.8345 75.3128 13.2391C75.3128 14.6437 74.9005 15.8391 74.0463 16.7356ZM75.2539 8.36782C74.0169 6.51494 72.4264 5.58851 70.5119 5.58851C68.5974 5.58851 66.9185 6.27586 65.5048 7.65057C64.091 9.02529 63.3841 10.8483 63.3841 13.1494C63.3841 15.4506 64.0615 17.3034 65.4459 18.708C66.8302 20.1126 68.4207 20.8299 70.2763 20.8299C71.1893 20.8299 72.1024 20.5908 73.0154 20.1425C73.9285 19.6943 74.6648 19.0368 75.2539 18.1701V20.5908H78.3171V5.76782H75.2539V8.36782Z" fill="#163055"/>
<path d="M123.882 16.7057C122.998 17.6023 121.908 18.0506 120.583 18.0506C119.258 18.0506 118.138 17.6023 117.284 16.7057C116.401 15.8092 115.988 14.6437 115.988 13.2092C115.988 11.7747 116.43 10.6092 117.284 9.71264C118.138 8.81609 119.258 8.36782 120.583 8.36782C121.908 8.36782 123.028 8.81609 123.882 9.71264C124.736 10.6092 125.178 11.7747 125.178 13.2092C125.178 14.6437 124.765 15.8092 123.882 16.7057ZM120.583 5.58851C118.374 5.58851 116.548 6.33563 115.105 7.8C113.632 9.26437 112.896 11.0874 112.896 13.2092C112.896 15.331 113.632 17.154 115.105 18.6184C116.577 20.0828 118.403 20.8299 120.583 20.8299C122.763 20.8299 124.618 20.0828 126.061 18.6184C127.534 17.154 128.27 15.331 128.27 13.2092C128.27 11.0874 127.534 9.26437 126.061 7.8C124.589 6.30575 122.763 5.58851 120.583 5.58851Z" fill="#163055"/>
<path d="M140.582 16.7057C139.698 17.6023 138.638 18.0506 137.43 18.0506C136.223 18.0506 135.192 17.6023 134.367 16.7057C133.513 15.8092 133.101 14.6437 133.101 13.2391C133.101 11.8345 133.513 10.669 134.367 9.71264C135.221 8.78621 136.252 8.30805 137.46 8.30805C138.667 8.30805 139.728 8.78621 140.611 9.71264C141.495 10.6391 141.937 11.8345 141.937 13.2391C141.907 14.6736 141.466 15.8092 140.582 16.7057ZM142.909 7.65057C141.524 6.27586 139.846 5.58851 137.902 5.58851C135.958 5.58851 134.367 6.51494 133.16 8.3977V5.7977H130.096V26H133.16V18.3793C134.632 20.023 136.282 20.8299 138.108 20.8299C139.934 20.8299 141.554 20.1126 142.938 18.6782C144.323 17.2437 145 15.3908 145 13.1195C145 10.8483 144.293 8.9954 142.909 7.65057Z" fill="#163055"/>
<path d="M105.738 5.58851C104.707 5.58851 103.765 5.85747 102.881 6.36552C101.998 6.87356 101.32 7.5908 100.879 8.51724V0H97.8154V20.6207H100.879V12.6115C100.879 11.2368 101.261 10.1908 102.057 9.47356C102.852 8.75632 103.765 8.3977 104.825 8.3977C107.064 8.3977 108.183 9.77241 108.183 12.492V20.6207H111.246V11.5356C111.246 9.5931 110.745 8.12874 109.715 7.11264C108.713 6.09655 107.388 5.58851 105.738 5.58851Z" fill="#163055"/>
<path d="M94.1337 11.2667C93.1322 10.4 91.6596 9.71264 89.6862 9.23448C87.7128 8.75632 86.4463 8.30805 85.8277 7.88965C85.2387 7.47126 84.9147 6.87356 84.9147 6.06667C84.9147 5.25977 85.2092 4.69195 85.8277 4.30345C86.4168 3.91494 87.2121 3.70575 88.1546 3.70575C89.0971 3.70575 90.0396 3.88506 91.0116 4.21379C91.9835 4.54253 92.7493 4.96092 93.309 5.49885L95.0467 3.01839C94.1631 2.27126 93.1322 1.70345 91.9246 1.28506C90.717 0.866667 89.5094 0.687356 88.2724 0.687356C86.3579 0.687356 84.7674 1.16552 83.4715 2.15172C82.1755 3.13793 81.5275 4.51264 81.5275 6.30575C81.5275 8.09885 82.0871 9.44368 83.2358 10.3103C83.7954 10.7885 84.4434 11.1471 85.1798 11.446C85.9161 11.7448 86.9764 12.0437 88.3902 12.4023C89.804 12.731 90.776 13.1195 91.365 13.5379C91.9541 13.9563 92.2192 14.554 92.2192 15.3011C92.2192 16.0483 91.9246 16.646 91.3061 17.1241C90.6876 17.5724 89.8629 17.8115 88.832 17.8115C86.7408 17.8115 84.738 16.9448 82.794 15.2414L80.7617 17.7218C83.0886 19.8138 85.7394 20.8598 88.7436 20.8598C90.8054 20.8598 92.4548 20.3218 93.7213 19.2759C94.9878 18.2299 95.6063 16.8552 95.6063 15.1517C95.6063 13.4483 95.1351 12.1333 94.1337 11.2667Z" fill="#163055"/>
</svg>
