<?xml version="1.0" encoding="UTF-8"?>
<svg width="24px" height="22px" viewBox="0 0 24 22" version="1.1" xmlns="http://www.w3.org/2000/svg" xmlns:xlink="http://www.w3.org/1999/xlink">
    <title>iconmonstr-favorite-4</title>
    <g id="Page-1" stroke="none" stroke-width="1" fill="none" fill-rule="evenodd">
        <g id="iconmonstr-favorite-4" fill="#FFFFFF" fill-rule="nonzero">
            <path d="M6.28,1.99999951 C9.516,2.001 11.253,5.491 12,7.031 C12.75,5.484 14.469,2.01 17.726,2.01 C19.784,2.01 22,3.319 22,6.192 C22,9.634 17.256,14.043 12,19.192 C6.742,14.041 2,9.633 2,6.192 C2,3.516 3.965,1.999 6.28,1.99999951 Z M6.281,-8.8817842e-16 C3.098,-8.8817842e-16 8.8817842e-16,2.187 8.8817842e-16,6.192 C8.8817842e-16,10.853 5.57,15.619 12,22 C18.43,15.619 24,10.853 24,6.192 C24,2.181 20.903,0.01 17.726,0.01 C15.522,0.01 13.28,1.052 12,3.248 C10.715,1.042 8.478,-8.8817842e-16 6.281,-8.8817842e-16 Z" id="Shape"></path>
        </g>
    </g>
</svg>