<?xml version="1.0" encoding="UTF-8"?>
<svg width="16px" height="16px" viewBox="0 0 16 16" version="1.1" xmlns="http://www.w3.org/2000/svg" xmlns:xlink="http://www.w3.org/1999/xlink">
    <title>iconmonstr-calendar-6</title>
    <g id="Page-1" stroke="none" stroke-width="1" fill="none" fill-rule="evenodd" opacity="0.5">
        <g id="iconmonstr-calendar-6" fill="#737370" fill-rule="nonzero">
            <path d="M16,1.33333333 L16,16 L0,16 L0,1.33333333 L2,1.33333333 L2,2 C2,2.73533333 2.598,3.33333333 3.33333333,3.33333333 C4.06866667,3.33333333 4.66666667,2.73533333 4.66666667,2 L4.66666667,1.33333333 L11.3333333,1.33333333 L11.3333333,2 C11.3333333,2.73533333 11.9313333,3.33333333 12.6666667,3.33333333 C13.402,3.33333333 14,2.73533333 14,2 L14,1.33333333 L16,1.33333333 Z M14.6666667,5.33333333 L1.33333333,5.33333333 L1.33333333,14.6666667 L14.6666667,14.6666667 L14.6666667,5.33333333 Z M13.3333333,0.666666667 C13.3333333,0.298666667 13.0353333,0 12.6666667,0 C12.298,0 12,0.298666667 12,0.666666667 L12,2 C12,2.368 12.298,2.66666667 12.6666667,2.66666667 C13.0353333,2.66666667 13.3333333,2.368 13.3333333,2 L13.3333333,0.666666667 Z M4,2 C4,2.368 3.702,2.66666667 3.33333333,2.66666667 C2.96466667,2.66666667 2.66666667,2.368 2.66666667,2 L2.66666667,0.666666667 C2.66666667,0.298666667 2.96466667,0 3.33333333,0 C3.702,0 4,0.298666667 4,0.666666667 L4,2 Z M4.66666667,9.81933333 L5.23666667,9.292 C5.90333333,9.61466667 6.32666667,9.86 7.07666667,10.3946667 C8.48533333,8.79533333 9.41733333,7.984 11.1473333,6.90733333 L11.3333333,7.334 C9.906,8.58 8.86066667,9.96666667 7.35533333,12.6666667 C6.42666667,11.5733333 5.80733333,10.876 4.66666667,9.81933333 Z" id="Shape"></path>
        </g>
    </g>
</svg>