<?xml version="1.0" encoding="UTF-8"?>
<svg width="24px" height="24px" viewBox="0 0 24 24" version="1.1" xmlns="http://www.w3.org/2000/svg" xmlns:xlink="http://www.w3.org/1999/xlink">
    <title>icon-link copy 2</title>
    <g id="Page-1" stroke="none" stroke-width="1" fill="none" fill-rule="evenodd">
        <g id="icon-link-copy-2" transform="translate(0.000750, 0.000500)" fill="#FFFFFF" fill-rule="nonzero">
            <path d="M6.18725,8.7185 C6.62625,8.2795 7.11325,7.9175 7.63125,7.6315 C10.51825,6.0405 14.22025,6.8865 16.07625,9.7005 L13.83025,11.9455 C13.18625,10.4765 11.58725,9.6405 9.99625,9.9965 C9.39725,10.1305 8.82825,10.4295 8.36325,10.8945 L4.05925,15.2005 C2.75225,16.5075 2.75225,18.6335 4.05925,19.9405 C5.36625,21.2475 7.49225,21.2475 8.79925,19.9405 L10.12625,18.6135 C11.33325,19.0925 12.62725,19.2835 13.90525,19.1885 L10.97625,22.1175 C8.46525,24.6285 4.39425,24.6285 1.88325,22.1175 C-0.62775,19.6065 -0.62775,15.5355 1.88325,13.0245 L6.18725,8.7185 Z M13.02325,1.8825 L10.09425,4.8115 C11.37125,4.7155 12.66625,4.9075 13.87325,5.3855 L15.19925,4.0595 C16.50625,2.7525 18.63225,2.7525 19.93925,4.0595 C21.24625,5.3665 21.24625,7.4925 19.93925,8.7995 L15.63425,13.1045 C14.32325,14.4155 12.19425,14.4045 10.89425,13.1045 C10.59125,12.8015 10.33025,12.4245 10.16725,12.0535 L7.92125,14.2985 C8.15725,14.6565 8.40225,14.9655 8.71725,15.2805 C9.52925,16.0925 10.56325,16.6975 11.75325,16.9845 C13.29525,17.3555 14.94725,17.1505 16.36625,16.3675 C16.88425,16.0815 17.37125,15.7195 17.81025,15.2805 L22.11425,10.9755 C24.62625,8.4645 24.62625,4.3935 22.11525,1.8825 C19.60425,-0.6275 15.53425,-0.6275 13.02325,1.8825 Z" id="Shape"></path>
        </g>
    </g>
</svg>