<svg xmlns="http://www.w3.org/2000/svg" width="135.007" height="95.69" viewBox="0 0 135.007 95.69">
  <g id="undraw_startup_life_re_8ow9" transform="translate(0 0)">
    <path id="Path_1573" data-name="Path 1573" d="M85.754,528.419H88l1.066-8.643H85.754Z" transform="translate(-71.791 -435.142)" fill="#ffb6b6"/>
    <path id="Path_1574" data-name="Path 1574" d="M270.706,724.227H277.6v-.087a2.682,2.682,0,0,0-2.682-2.682h0l-1.259-.955-2.349.955h-.6Z" transform="translate(-256.821 -628.613)" fill="#2f2e41"/>
    <path id="Path_1575" data-name="Path 1575" d="M107.98,473.651l1.764,1.382,6.169-6.147-2.6-2.039Z" transform="translate(-90.398 -390.831)" fill="#ffb6b6"/>
    <path id="Path_1576" data-name="Path 1576" d="M284.179,664.591l5.425,4.249.054-.069a2.682,2.682,0,0,0-.457-3.765h0l-.4-1.528-2.438-.7-.474-.371Z" transform="translate(-268.101 -579.98)" fill="#2f2e41"/>
    <path id="Path_1577" data-name="Path 1577" d="M255.7,422.937s2.974,3.084,1.652,10.244l1.11,12.259.286.567a1.8,1.8,0,0,1-.334,2.083h0l-.236.732-.22,1.432-8.206,12.337-3.139-3.3,5.067-11.566-1.377-2.974-3.194-10.354-2.2,18.946.441,16.3H241.13l-2.613-18.175-2.754-25.555,1.432-2.974Z" transform="translate(-227.569 -379.499)" fill="#2f2e41"/>
    <path id="Path_1578" data-name="Path 1578" d="M224.723,272.51l-.03-.042c-1.6-2.247.809-7.646,1.173-8.429h0a1.965,1.965,0,0,1-1.345-2.1l.157-1.334.164-1.309-1.172-1.172,0-.029-.674-5.9-.981-3.92a8.605,8.605,0,0,1,2.442-8.34l2.267-.36,2.755-2.654h4.442l1.523,1.455c2.843.5,3.332.336,5.774,3.267l-1.11,9.112-.277,1.254v1.7l.7.782a2.434,2.434,0,0,1,.577,2.106l-.093.463h0c.726.311,1.419,5.84,1.584,6.612l.247,1.154a10.721,10.721,0,0,1,1.608,2.649c0,.076-.056.15-.177.232-.951.644-4.744,5.214-7.072,4.283-2.479-.991-12.334.5-12.433.511Z" transform="translate(-215.841 -223.773)" fill="#3f3d56"/>
    <path id="Path_1579" data-name="Path 1579" d="M212.832,344.794s1.141-6.447-.008-8.872l-4.559.326.694,9.2,3.986,10.212a1.816,1.816,0,1,0,2.944-1.052Z" transform="translate(-204.546 -306.653)" fill="#ffb6b6"/>
    <path id="Path_1580" data-name="Path 1580" d="M204.078,263.854l.282-3.073a8.81,8.81,0,0,1,3.159-5.984h0a3.857,3.857,0,0,1,4.036-.533h0a3.848,3.848,0,0,1,1.987,4.863c-1.054,2.764-.673,5.686-2.728,6.043l.223,1.062-2.02,6.593-5.754-.667Z" transform="translate(-200.361 -238.005)" fill="#3f3d56"/>
    <path id="Path_1581" data-name="Path 1581" d="M348.183,337.089s-3.34-5.632-5.792-6.72l-3.244,3.22,6.524,6.52,9.681,5.143a1.816,1.816,0,1,0,1.545-2.717Z" transform="translate(-314.118 -302.005)" fill="#ffb6b6"/>
    <path id="Path_1582" data-name="Path 1582" d="M306.546,269.489l-1.79-2.514a8.81,8.81,0,0,1-1.507-6.6h0a3.857,3.857,0,0,1,2.712-3.036h0a3.848,3.848,0,0,1,4.678,2.391c1,2.782,4.663,7.355,3.338,8.965l.862.66,1.3,3.71-4.8,3.247Z" transform="translate(-283.959 -240.744)" fill="#3f3d56"/>
    <circle id="Ellipse_308" data-name="Ellipse 308" cx="4.934" cy="4.934" r="4.934" transform="translate(10.622 1.999)" fill="#ffb6b6"/>
    <path id="Path_1583" data-name="Path 1583" d="M258.313,219.5c-.043-.038-.084-.078-.126-.117,0,0,0,.008,0,.012Z" transform="translate(-246.338 -209.094)" fill="#2f2e41"/>
    <path id="Path_1584" data-name="Path 1584" d="M253.792,157.9a2.8,2.8,0,0,0-.988-.953,4.132,4.132,0,0,0-.864-.306l-.781-.213a6.188,6.188,0,0,0-1.228-.247,3.162,3.162,0,0,0-2.888,1.567c-.236.418-.425.94-.88,1.093-.367.123-.768-.051-1.153-.017a1.389,1.389,0,0,0-1.054.777,2.993,2.993,0,0,0-.277,1.326,7.428,7.428,0,0,0,2.365,5.544c.127-.336-.082-.7-.248-1.019s-.271-.778.01-1.012c.313-.26.814-.008,1.183-.178a.826.826,0,0,0,.413-.664c.036-.27,0-.544.015-.816a2.042,2.042,0,0,1,2.184-1.91c.842.06,1.658.635,2.468.4a7.325,7.325,0,0,1,1.1-.441,1.936,1.936,0,0,1,1.215.429A4.331,4.331,0,0,0,253.792,157.9Z" transform="translate(-234.194 -156.173)" fill="#2f2e41"/>
    <path id="Path_1585" data-name="Path 1585" d="M379.164,707.868l-1.255-2.017L377.657,707c-.044.2-.088.407-.129.611-.357-.3-.736-.586-1.107-.857q-1.71-1.241-3.418-2.485l.357,2.068a14.672,14.672,0,0,0,.993,3.737c.06.132.125.262.2.389h5.3a1.707,1.707,0,0,0,.088-.365.124.124,0,0,0,0-.024A3.659,3.659,0,0,0,379.164,707.868Z" transform="translate(-342.462 -615.026)" fill="#f0f0f0"/>
    <path id="Path_1586" data-name="Path 1586" d="M917.471,679.443l-2.277-3.659-.455,2.091c-.08.366-.16.738-.233,1.107-.647-.552-1.335-1.063-2.008-1.554q-3.1-2.251-6.2-4.507l.647,3.751a26.616,26.616,0,0,0,1.8,6.778c.109.239.227.476.354.706h9.611a3.091,3.091,0,0,0,.16-.662.224.224,0,0,0,0-.044A6.637,6.637,0,0,0,917.471,679.443Z" transform="translate(-788.919 -588.78)" fill="#f0f0f0"/>
    <path id="Path_1587" data-name="Path 1587" d="M320.248,741.537l-134.62.05a.194.194,0,0,1,0-.388l134.62-.05a.194.194,0,0,1,0,.388Z" transform="translate(-185.434 -645.898)" fill="#cacaca"/>
    <path id="Path_1588" data-name="Path 1588" d="M444.832,382.923V429.66a2.248,2.248,0,0,0,2.246,2.246h69.258a2.248,2.248,0,0,0,2.246-2.246V382.923a2.249,2.249,0,0,0-2.246-2.244H447.078A2.249,2.249,0,0,0,444.832,382.923Z" transform="translate(-402.595 -344.123)" fill="#3f3d56"/>
    <path id="Path_1589" data-name="Path 1589" d="M454.81,391.846v45.578a1.2,1.2,0,0,0,1.2,1.2h68.1a1.2,1.2,0,0,0,1.2-1.2V391.846a1.2,1.2,0,0,0-1.2-1.2h-68.1A1.2,1.2,0,0,0,454.81,391.846Z" transform="translate(-410.948 -352.464)" fill="#fff"/>
    <path id="Path_1590" data-name="Path 1590" d="M434.359,697.933a1.347,1.347,0,0,0,1.06.507h74.159a1.365,1.365,0,0,0,1.334-1.645l-1.151-5.468a1.367,1.367,0,0,0-.85-.991,1.321,1.321,0,0,0-.484-.091H436.566a1.32,1.32,0,0,0-.484.091,1.367,1.367,0,0,0-.85.991l-1.151,5.468A1.364,1.364,0,0,0,434.359,697.933Z" transform="translate(-393.57 -603.282)" fill="#2f2e41"/>
    <rect id="Rectangle_465" data-name="Rectangle 465" width="2.284" height="1.37" rx="0.488" transform="translate(114.33 89.318) rotate(180)" fill="#3f3d56"/>
    <rect id="Rectangle_466" data-name="Rectangle 466" width="2.284" height="1.37" rx="0.488" transform="translate(109.762 89.318) rotate(180)" fill="#3f3d56"/>
    <rect id="Rectangle_467" data-name="Rectangle 467" width="2.284" height="1.37" rx="0.488" transform="translate(105.194 89.318) rotate(180)" fill="#3f3d56"/>
    <rect id="Rectangle_468" data-name="Rectangle 468" width="2.284" height="1.37" rx="0.488" transform="translate(100.626 89.318) rotate(180)" fill="#3f3d56"/>
    <rect id="Rectangle_469" data-name="Rectangle 469" width="2.284" height="1.37" rx="0.488" transform="translate(96.058 89.318) rotate(180)" fill="#3f3d56"/>
    <rect id="Rectangle_470" data-name="Rectangle 470" width="2.284" height="1.37" rx="0.488" transform="translate(91.49 89.318) rotate(180)" fill="#3f3d56"/>
    <rect id="Rectangle_471" data-name="Rectangle 471" width="2.284" height="1.37" rx="0.488" transform="translate(86.922 89.318) rotate(180)" fill="#3f3d56"/>
    <rect id="Rectangle_472" data-name="Rectangle 472" width="2.284" height="1.37" rx="0.488" transform="translate(82.353 89.318) rotate(180)" fill="#3f3d56"/>
    <rect id="Rectangle_473" data-name="Rectangle 473" width="2.284" height="1.37" rx="0.488" transform="translate(77.785 89.318) rotate(180)" fill="#3f3d56"/>
    <rect id="Rectangle_474" data-name="Rectangle 474" width="2.284" height="1.37" rx="0.488" transform="translate(73.217 89.318) rotate(180)" fill="#3f3d56"/>
    <rect id="Rectangle_475" data-name="Rectangle 475" width="2.284" height="1.37" rx="0.488" transform="translate(68.649 89.318) rotate(180)" fill="#3f3d56"/>
    <rect id="Rectangle_476" data-name="Rectangle 476" width="2.284" height="1.37" rx="0.488" transform="translate(64.081 89.318) rotate(180)" fill="#3f3d56"/>
    <rect id="Rectangle_477" data-name="Rectangle 477" width="2.284" height="1.37" rx="0.488" transform="translate(59.513 89.318) rotate(180)" fill="#3f3d56"/>
    <rect id="Rectangle_478" data-name="Rectangle 478" width="2.284" height="1.37" rx="0.488" transform="translate(54.945 89.318) rotate(180)" fill="#3f3d56"/>
    <rect id="Rectangle_479" data-name="Rectangle 479" width="2.284" height="1.37" rx="0.488" transform="translate(50.376 89.318) rotate(180)" fill="#3f3d56"/>
    <rect id="Rectangle_480" data-name="Rectangle 480" width="2.284" height="1.37" rx="0.488" transform="translate(45.808 89.318) rotate(180)" fill="#3f3d56"/>
    <rect id="Rectangle_481" data-name="Rectangle 481" width="2.284" height="1.37" rx="0.488" transform="translate(114.384 91.602) rotate(180)" fill="#3f3d56"/>
    <rect id="Rectangle_482" data-name="Rectangle 482" width="2.284" height="1.37" rx="0.488" transform="translate(109.816 91.602) rotate(180)" fill="#3f3d56"/>
    <rect id="Rectangle_483" data-name="Rectangle 483" width="2.284" height="1.37" rx="0.488" transform="translate(105.248 91.602) rotate(180)" fill="#3f3d56"/>
    <rect id="Rectangle_484" data-name="Rectangle 484" width="2.284" height="1.37" rx="0.488" transform="translate(100.68 91.602) rotate(180)" fill="#3f3d56"/>
    <rect id="Rectangle_485" data-name="Rectangle 485" width="2.284" height="1.37" rx="0.488" transform="translate(96.112 91.602) rotate(180)" fill="#3f3d56"/>
    <rect id="Rectangle_486" data-name="Rectangle 486" width="2.284" height="1.37" rx="0.488" transform="translate(91.544 91.602) rotate(180)" fill="#3f3d56"/>
    <rect id="Rectangle_487" data-name="Rectangle 487" width="2.284" height="1.37" rx="0.488" transform="translate(86.976 91.602) rotate(180)" fill="#3f3d56"/>
    <rect id="Rectangle_488" data-name="Rectangle 488" width="2.284" height="1.37" rx="0.488" transform="translate(82.407 91.602) rotate(180)" fill="#3f3d56"/>
    <rect id="Rectangle_489" data-name="Rectangle 489" width="2.284" height="1.37" rx="0.488" transform="translate(77.839 91.602) rotate(180)" fill="#3f3d56"/>
    <rect id="Rectangle_490" data-name="Rectangle 490" width="2.284" height="1.37" rx="0.488" transform="translate(73.271 91.602) rotate(180)" fill="#3f3d56"/>
    <rect id="Rectangle_491" data-name="Rectangle 491" width="2.284" height="1.37" rx="0.488" transform="translate(68.703 91.602) rotate(180)" fill="#3f3d56"/>
    <rect id="Rectangle_492" data-name="Rectangle 492" width="2.284" height="1.37" rx="0.488" transform="translate(64.135 91.602) rotate(180)" fill="#3f3d56"/>
    <rect id="Rectangle_493" data-name="Rectangle 493" width="2.284" height="1.37" rx="0.488" transform="translate(59.567 91.602) rotate(180)" fill="#3f3d56"/>
    <rect id="Rectangle_494" data-name="Rectangle 494" width="2.284" height="1.37" rx="0.488" transform="translate(54.999 91.602) rotate(180)" fill="#3f3d56"/>
    <rect id="Rectangle_495" data-name="Rectangle 495" width="2.284" height="1.37" rx="0.488" transform="translate(50.43 91.602) rotate(180)" fill="#3f3d56"/>
    <rect id="Rectangle_496" data-name="Rectangle 496" width="2.284" height="1.37" rx="0.488" transform="translate(45.862 91.602) rotate(180)" fill="#3f3d56"/>
    <rect id="Rectangle_497" data-name="Rectangle 497" width="18.273" height="1.37" rx="0.488" transform="translate(87.41 94.343) rotate(180)" fill="#3f3d56"/>
    <path id="Path_1591" data-name="Path 1591" d="M608.111,480.8a15.41,15.41,0,1,1-.976-5.427c.034.091.066.181.1.272h0q.213.6.376,1.227a15.521,15.521,0,0,1,.5,3.926Z" transform="translate(-513.483 -415.012)" fill="#3f3d56"/>
    <path id="Path_1592" data-name="Path 1592" d="M629.545,492.7a5.205,5.205,0,0,0-4.57-.187,2.465,2.465,0,0,0-1.525,1.678c.862-.509,1.978.3,2.2,1.585l-.052.014a3.153,3.153,0,0,0,.651,2.419,1.7,1.7,0,0,1,.817-1.211,3.237,3.237,0,0,0,1.068-.843,5.4,5.4,0,0,0,.556-1.891C628.823,493.6,629.077,492.881,629.545,492.7Z" transform="translate(-552.128 -437.375)" fill="#77e96f"/>
    <path id="Path_1593" data-name="Path 1593" d="M589.084,498.4a5.487,5.487,0,0,1-.844.864,1.942,1.942,0,0,0-.614,1.147c-.036.312.02.629.012.945s-.113.671-.328.749c-.339.122-.6-.507-.945-.551-.277-.034-.526.4-.446.778s.457.545.673.3c.2.328.058.924-.236,1.025-.031.207-.062.413-.092.62a10.193,10.193,0,0,1-2.125-1.809,5.492,5.492,0,0,1-1.252-2.958,6.456,6.456,0,0,0-.362-2.549,1.382,1.382,0,0,0-1.37-.624c-.091.006-.182.016-.272.028a15.346,15.346,0,0,1,1.111-2.543,1.089,1.089,0,0,0,.278-.173c.462-.392.667-1.186,1.042-1.735.024-.035.049-.07.075-.1a3.573,3.573,0,0,1,1.394-1,7.047,7.047,0,0,1,3.39-1l-.33.032-1.157,3.237q-.088.248-.178.5a5.117,5.117,0,0,0-.411,1.954,1.192,1.192,0,0,0,.43.981c.251.129.525-.029.767-.186l.307-.2c.368-.237.776-.48,1.164-.322a1.374,1.374,0,0,1,.669,1.15,2.3,2.3,0,0,1-.352,1.444Z" transform="translate(-516.493 -435.476)" fill="#77e96f"/>
    <path id="Path_1594" data-name="Path 1594" d="M623.786,577.392l-3.225-1.985.018-.047c-.668.255-.946,1.443-.835,2.414s.485,1.84.674,2.787a7.4,7.4,0,0,1-.279,3.881,31.779,31.779,0,0,0,3.734-5.145,2.751,2.751,0,0,0,.338-.749,1.191,1.191,0,0,0-.079-.847A.944.944,0,0,0,623.786,577.392Z" transform="translate(-549.006 -507.104)" fill="#77e96f"/>
    <path id="Path_1595" data-name="Path 1595" d="M618.063,509.57a1.188,1.188,0,0,0-.054.864.958.958,0,0,0,.535.5l.594.294a.767.767,0,0,0,.612.116.816.816,0,0,0,.368-.832,1.48,1.48,0,0,0-.5-.855l-.921-.925-.173.212A2.311,2.311,0,0,0,618.063,509.57Z" transform="translate(-547.525 -451.321)" fill="#77e96f"/>
    <path id="Path_1596" data-name="Path 1596" d="M677.214,504.293l.8.189a2.446,2.446,0,0,1-1.094,2.04,2.042,2.042,0,0,0-.735.408,2.237,2.237,0,0,0-.369.865l-.458,1.665c-.164.6-.374,1.263-.8,1.478a.885.885,0,0,1-1.065-.421,5.073,5.073,0,0,1-.619-1.389,1.43,1.43,0,0,1-.6,1.264.784.784,0,0,1-1.034-.4c-.172-.3-.244-.7-.413-1.008s-.523-.483-.708-.195a2.619,2.619,0,0,0-.166.728.79.79,0,0,1-.66.635,1.1,1.1,0,0,1-.79-.361,3.58,3.58,0,0,1-.982-1.98,2.361,2.361,0,0,1,.028-1.083c.106-.335.362-.594.616-.53.167-.353-.163-.822-.46-.781s-.532.361-.777.607-.585.424-.831.18a.337.337,0,0,1-.342.358,1.223,1.223,0,0,1-.446-.236,1.209,1.209,0,0,0-1.677.546c.25-1.064.616-2.284,1.384-2.534.314-.1.656-.018.952-.2a1.533,1.533,0,0,0,.178-1.994,1.912,1.912,0,0,1-.2,1.322.42.42,0,0,1-.727-.359.314.314,0,0,1-.584.124,1.129,1.129,0,0,1-.034-.951,2.24,2.24,0,0,1,.5-.714,6.159,6.159,0,0,1,1.3-1.158,1.472,1.472,0,0,1,1.5-.095c.251.145.471.386.727.514a.539.539,0,0,0,.751-.188,4.092,4.092,0,0,0,.172-1.249c.127-.739.865-1.084,1.275-.6-.306-.078-.622.284-.66.722a1.042,1.042,0,0,0,.479,1.014c.5.221.986-.334,1.363-.848q.59-.807,1.181-1.613a1.946,1.946,0,0,1,.211-.257.679.679,0,0,1,.928-.019c.4.325.585.991.912,1.45a2.662,2.662,0,0,0,1.844.958l1.477.289a15.318,15.318,0,0,1,.858,1.894A5.19,5.19,0,0,0,677.214,504.293Z" transform="translate(-585.769 -442.022)" fill="#77e96f"/>
    <path id="Path_1597" data-name="Path 1597" d="M760.714,529.78a3.108,3.108,0,0,0-.164.923,2.319,2.319,0,0,1-.212-2.15Q760.551,529.155,760.714,529.78Z" transform="translate(-666.587 -467.918)" fill="#77e96f"/>
    <path id="Path_1598" data-name="Path 1598" d="M738.526,597.807a15.454,15.454,0,0,1-1.284,2.149c-.31-.133-.644.1-.934.327s-.668.459-.979.247a1.363,1.363,0,0,1-.32-1.307,3.482,3.482,0,0,1,.6-1.227,2.406,2.406,0,0,1,.895-.937.7.7,0,0,1,.928.574l.255-.009c-.143-.2-.068-.6.124-.675.221-.084.414.221.545.49C738.411,597.561,738.47,597.683,738.526,597.807Z" transform="translate(-645.49 -525.166)" fill="#77e96f"/>
    <path id="Path_1599" data-name="Path 1599" d="M663.527,558.327c-.548.034-.983-.641-1.271-1.3a4.12,4.12,0,0,0-1.047-1.762,3.056,3.056,0,0,0-.912-.313,1.129,1.129,0,0,1-.774-.682l-.348-.141a5.225,5.225,0,0,0-1.321.942,2.953,2.953,0,0,0-.787,1.72,1.878,1.878,0,0,0,.637,1.734c.362.207.784.076,1.151.266a2.173,2.173,0,0,1,.834,1.6c.1.678.077,1.383.151,2.068a2.726,2.726,0,0,0,.7,1.751c.526.44,1.3.074,1.534-.726.116-.393.112-.836.2-1.243a6.575,6.575,0,0,1,.89-1.839A2.778,2.778,0,0,0,663.527,558.327Z" transform="translate(-580.262 -489.327)" fill="#77e96f"/>
    <path id="Path_1600" data-name="Path 1600" d="M663.09,530.485a1.445,1.445,0,0,1,.143.152.5.5,0,0,1-.009.514.479.479,0,0,0,.343-.174,2.2,2.2,0,0,0,.263-.37.4.4,0,0,0,.078-.323c-.026-.074-.087-.105-.13-.161a1.1,1.1,0,0,1-.12-.349.63.63,0,0,0-.456-.481l.028.005a.26.26,0,0,0-.122.278c.017.108.086.2.079.307-.01.158-.168.232-.177.39A.3.3,0,0,0,663.09,530.485Z" transform="translate(-585.244 -468.538)" fill="#77e96f"/>
    <path id="Path_1601" data-name="Path 1601" d="M657.745,519.893h0a.43.43,0,0,0,.047-.05Z" transform="translate(-580.839 -460.627)" fill="#77e96f"/>
    <path id="Path_1602" data-name="Path 1602" d="M654.3,520.862a.478.478,0,0,0,.149-.474c-.04-.179-.181-.3-.311-.267a.317.317,0,0,1-.295.087c-.08-.021-.169-.074-.238-.013a.361.361,0,0,0-.081.159l-.077.238a.15.15,0,0,0-.009.09.076.076,0,0,0,.059.047l.465.137A.4.4,0,0,0,654.3,520.862Z" transform="translate(-577.232 -460.855)" fill="#77e96f"/>
    <path id="Path_1603" data-name="Path 1603" d="M726.161,583.542l-.215-.352a1.175,1.175,0,0,0-.283-.355.251.251,0,0,0-.357.036l.009.067a1.511,1.511,0,0,1,.377.736c.016.12.011.244.025.364a.425.425,0,0,0,.133.3c.113.075.245-.036.325-.171a.59.59,0,0,0,.091-.375A.657.657,0,0,0,726.161,583.542Z" transform="translate(-637.398 -513.313)" fill="#77e96f"/>
    <path id="Path_1604" data-name="Path 1604" d="M734.452,581.486a.81.81,0,0,0-.026-.327.718.718,0,0,1,.109-.407,1.325,1.325,0,0,0,.17-.373.312.312,0,0,0-.008-.183c-.024-.053-.081-.078-.114-.035l.07.045a.642.642,0,0,0-.286.014.354.354,0,0,0-.217.244,1.519,1.519,0,0,1-.057.254c-.042.086-.123.115-.175.191a.456.456,0,0,0,.007.434.506.506,0,0,0,.286.225C734.3,581.6,734.413,581.6,734.452,581.486Z" transform="translate(-644.567 -511.104)" fill="#77e96f"/>
    <path id="Path_1605" data-name="Path 1605" d="M746.18,588.553a.986.986,0,0,0,.124.227c.1.1.226.037.342.014a.592.592,0,0,1,.563.226,1.432,1.432,0,0,0-.823-1.027,2.418,2.418,0,0,0-.847-.132l-.049.013C745.614,588.238,746.008,588.23,746.18,588.553Z" transform="translate(-654.295 -517.568)" fill="#77e96f"/>
    <path id="Path_1606" data-name="Path 1606" d="M697.716,596.569v0l.014-.028Z" transform="translate(-614.301 -524.838)" fill="#77e96f"/>
    <path id="Path_1607" data-name="Path 1607" d="M694.3,597.3a2.7,2.7,0,0,0-.17.374,3.256,3.256,0,0,0-.123.64c-.015.123-.02.281.057.341a.11.11,0,0,0,.143-.02.566.566,0,0,0,.1-.154,3.557,3.557,0,0,0,.351-.833,1.449,1.449,0,0,0-.057-.934Z" transform="translate(-611.184 -524.979)" fill="#77e96f"/>
    <path id="Path_1608" data-name="Path 1608" d="M677.02,497.793a.346.346,0,0,0,.372.073,1.23,1.23,0,0,0,.35-.231.824.824,0,0,0,.212-.232.47.47,0,0,0,.043-.358.364.364,0,0,0-.277-.219l-.516-.153.124-.112c-.128-.069-.27.059-.349.216a1.168,1.168,0,0,0-.106.327.838.838,0,0,0,.146.689Z" transform="translate(-596.836 -441.119)" fill="#77e96f"/>
    <path id="Path_1609" data-name="Path 1609" d="M695.927,494.279a.284.284,0,0,0,.387.031.433.433,0,0,0,.171-.308c.012-.135-.055-.285-.15-.3l.022-.127c-.184-.033-.41-.04-.509.184A.525.525,0,0,0,695.927,494.279Z" transform="translate(-612.707 -438.624)" fill="#77e96f"/>
    <path id="Path_1610" data-name="Path 1610" d="M539.861,439.616H476.793a.165.165,0,1,1,0-.331h63.068a.165.165,0,1,1,0,.331Z" transform="translate(-429.212 -393.186)" fill="#cacaca"/>
    <ellipse id="Ellipse_309" data-name="Ellipse 309" cx="1.779" cy="1.819" rx="1.779" ry="1.819" transform="translate(49.441 40.478)" fill="#3f3d56"/>
    <ellipse id="Ellipse_310" data-name="Ellipse 310" cx="1.779" cy="1.819" rx="1.779" ry="1.819" transform="translate(55.587 40.478)" fill="#3f3d56"/>
    <ellipse id="Ellipse_311" data-name="Ellipse 311" cx="1.779" cy="1.819" rx="1.779" ry="1.819" transform="translate(61.733 40.478)" fill="#3f3d56"/>
    <path id="Path_1611" data-name="Path 1611" d="M818.205,407.532H813.84a.331.331,0,1,0,0,.661h4.365a.331.331,0,1,0,0-.661Z" transform="translate(-711.24 -366.603)" fill="#3f3d56"/>
    <path id="Path_1612" data-name="Path 1612" d="M818.205,415.152H813.84a.331.331,0,1,0,0,.661h4.365a.331.331,0,1,0,0-.661Z" transform="translate(-711.24 -372.982)" fill="#3f3d56"/>
    <path id="Path_1613" data-name="Path 1613" d="M818.205,422.762H813.84a.331.331,0,1,0,0,.661h4.365a.331.331,0,0,0,0-.661Z" transform="translate(-711.24 -379.353)" fill="#3f3d56"/>
    <g id="Group_525" data-name="Group 525" transform="translate(46.968 62.092)" opacity="0.35">
      <path id="Path_1614" data-name="Path 1614" d="M539.232,541.965c1.015-.443-1.044-.7-3.379-.785s-5.161-.08-6.653-.321c-1.444-.233-1.337-.647-1.459-1.023s-.676-.76-2.929-.844c-2.807-.1-7.436.3-9.554.056-1.977-.224-.8-.928-3.685-.955-1.646-.015-3.767.217-5.6.273a20.41,20.41,0,0,1-3.885-.2c-.893-.146-1.515-.332-2.52-.461a68.45,68.45,0,0,0-12.408.21,58.2,58.2,0,0,0-10.784,1.853c-2.227.706-2.843,1.4-2.324,1.99.331.376,1.179.728,3.236.879,3.846.283,10.695-.2,14.669.053,2.215.143,3.2.5,5.142.693,2.088.209,5.145.22,8.148.215,6.253-.01,12.667-.075,19.206-.192,2.731-.049,5.594-.113,8.5-.348s5.871-.687,6.484-1.111" transform="translate(-473.88 -537.504)" fill="#fff"/>
    </g>
  </g>
</svg>
