<?xml version="1.0" encoding="UTF-8"?>
<svg width="20px" height="20px" viewBox="0 0 20 20" version="1.1" xmlns="http://www.w3.org/2000/svg" xmlns:xlink="http://www.w3.org/1999/xlink">
    <title>icon-time</title>
    <g id="Page-1" stroke="none" stroke-width="1" fill="none" fill-rule="evenodd">
        <g id="icon-time" fill="#77E96F" fill-rule="nonzero">
            <path d="M10,1.66666667 C14.595,1.66666667 18.3333333,5.405 18.3333333,10 C18.3333333,14.595 14.595,18.3333333 10,18.3333333 C5.405,18.3333333 1.66666667,14.595 1.66666667,10 C1.66666667,5.405 5.405,1.66666667 10,1.66666667 Z M10,0 C4.4775,0 0,4.4775 0,10 C0,15.5225 4.4775,20 10,20 C15.5225,20 20,15.5225 20,10 C20,4.4775 15.5225,0 10,0 Z M14.8733333,10.3825 C15.0416667,10.4141667 15.0416667,10.66 14.8741667,10.6925 C13.285,10.9933333 9.83666667,11.6183333 9.41833333,11.6183333 C8.81916667,11.6183333 8.33416667,11.1333333 8.33416667,10.5341667 C8.33416667,10.1075 8.97583333,5.995 9.27166667,4.33 C9.3,4.17 9.53166667,4.17916667 9.5575,4.34166667 L10.3783333,9.54 L14.8733333,10.3825 Z" id="Shape"></path>
        </g>
    </g>
</svg>