<?xml version="1.0" encoding="UTF-8"?>
<svg width="24px" height="20px" viewBox="0 0 24 20" version="1.1" xmlns="http://www.w3.org/2000/svg" xmlns:xlink="http://www.w3.org/1999/xlink">
    <title>iconmonstr-megaphone-4</title>
    <g id="Page-1" stroke="none" stroke-width="1" fill="none" fill-rule="evenodd">
        <g id="iconmonstr-megaphone-4" transform="translate(0.000000, -0.000000)" fill="#77E96F" fill-rule="nonzero">
            <path d="M13.333,4.633 L17.546,11.93 L4.29,15.153 C3.718,15.286 3.222,15.486 2.798,15.757 L2.571,15.364 C3.096,15.071 3.5,14.689 3.798,14.371 L13.333,4.633 Z M13.665,2.007 L2.654,13.251 C2.038,13.911 1.49,14.228 0.797,14.228 C0.553,14.228 0.29,14.188 0,14.111 L2.646,18.696 C2.904,17.602 3.46,16.988 4.652,16.711 L20,12.979 L13.665,2.007 Z M13.975,15.958 L13.508,18.076 C13.414,18.454 13.117,18.75 12.738,18.847 L9.787,19.621 C9.422,19.716 9.033,19.609 8.769,19.341 L7.195,17.629 L8.8,17.234 L9.446,18.004 C9.622,18.181 9.879,18.252 10.121,18.19 L11.719,17.765 C11.971,17.701 12.168,17.504 12.23,17.253 L12.391,16.347 L13.975,15.958 Z M22.694,4.691 L20.01,6.304 L19.254,5.042 L21.94,3.43 L22.694,4.691 Z M18.298,3.53 L16.963,2.914 L18.305,0 L19.64,0.617 L18.298,3.53 Z M23.917,9.687 L20.715,9.513 L20.796,8.044 L24,8.219 L23.917,9.687 L23.917,9.687 Z" id="Shape"></path>
        </g>
    </g>
</svg>