<?xml version="1.0" encoding="UTF-8"?>
<svg width="20px" height="20px" viewBox="0 0 20 20" version="1.1" xmlns="http://www.w3.org/2000/svg" xmlns:xlink="http://www.w3.org/1999/xlink">
    <title>icon-smiley</title>
    <g id="Page-1" stroke="none" stroke-width="1" fill="none" fill-rule="evenodd">
        <g id="icon-smiley" fill="#77E96F" fill-rule="nonzero">
            <path d="M10,1.66666667 C14.595,1.66666667 18.3333333,5.405 18.3333333,10 C18.3333333,14.595 14.595,18.3333333 10,18.3333333 C5.405,18.3333333 1.66666667,14.595 1.66666667,10 C1.66666667,5.405 5.405,1.66666667 10,1.66666667 Z M10,0 C4.4775,0 0,4.4775 0,10 C0,15.5225 4.4775,20 10,20 C15.5225,20 20,15.5225 20,10 C20,4.4775 15.5225,0 10,0 Z M14.5891667,11.6175 C13.3291667,12.6133333 11.9441667,13.2266667 10.0008333,13.2266667 C8.05583333,13.2266667 6.67083333,12.6133333 5.41083333,11.6175 L5,12.0283333 C5.93916667,13.4616667 7.66666667,15 10.0008333,15 C12.3341667,15 14.0608333,13.4616667 15,12.0283333 L14.5891667,11.6175 Z M7.08333333,6.66666667 C6.39333333,6.66666667 5.83333333,7.22583333 5.83333333,7.91666667 C5.83333333,8.6075 6.39333333,9.16666667 7.08333333,9.16666667 C7.77333333,9.16666667 8.33333333,8.6075 8.33333333,7.91666667 C8.33333333,7.22583333 7.77333333,6.66666667 7.08333333,6.66666667 Z M12.9166667,6.66666667 C12.2266667,6.66666667 11.6666667,7.22583333 11.6666667,7.91666667 C11.6666667,8.6075 12.2266667,9.16666667 12.9166667,9.16666667 C13.6066667,9.16666667 14.1666667,8.6075 14.1666667,7.91666667 C14.1666667,7.22583333 13.6066667,6.66666667 12.9166667,6.66666667 L12.9166667,6.66666667 Z" id="Shape"></path>
        </g>
    </g>
</svg>