<svg width="77" height="75" viewBox="0 0 77 75" fill="none" xmlns="http://www.w3.org/2000/svg">
<path d="M67.4375 22.8435C69.4995 20.1565 70.5999 16.8552 70.5625 13.4685C69.5 0.968485 47.125 -6.37527 39.3125 8.65598C38.8585 8.08866 38.3212 7.59345 37.7188 7.18723C35.5241 5.56487 32.8979 4.62905 30.1718 4.49789C27.4457 4.36674 24.7419 5.04613 22.4016 6.45031C20.0613 7.8545 18.1894 9.92053 17.0223 12.3876C15.8552 14.8547 15.4451 17.6123 15.8438 20.3122C5.12501 19.0935 -2.81249 29.3747 2.90626 40.6247C4.68751 44.0622 11.625 46.7185 13.7188 45.6872C13.9083 45.5548 14.0442 45.3589 14.1019 45.135C14.1596 44.911 14.1353 44.6739 14.0334 44.4663C13.9315 44.2587 13.7587 44.0944 13.5463 44.0031C13.3338 43.9118 13.0957 43.8995 12.875 43.9685C11.3035 43.8757 9.77112 43.4419 8.38421 42.6972C6.9973 41.9524 5.78917 40.9147 4.84376 39.656C0.312506 30.281 6.75001 22.1872 15.375 23.2497C16.2818 23.4447 17.1485 23.7935 17.9375 24.281C18.2761 24.421 18.6537 24.4349 19.0017 24.3202C19.3497 24.2056 19.6451 23.9699 19.8341 23.656C20.0232 23.3422 20.0935 22.9709 20.0322 22.6097C19.9709 22.2484 19.782 21.9211 19.5 21.6872C18.7188 20.9372 18.9063 19.1872 18.9375 17.9997C19.0466 16.1115 19.6653 14.2881 20.7277 12.7233C21.7902 11.1585 23.2567 9.91078 24.9714 9.11269C26.6862 8.3146 28.5852 7.99599 30.4665 8.19069C32.3478 8.38539 34.1413 9.08615 35.6563 10.2185C37.9688 11.8122 37.2813 14.781 39.5625 14.7497C41.0313 14.7497 41.1563 13.7185 42.4375 10.5622C48.125 -1.31276 66.3125 4.59348 67.4375 13.8435C67.427 16.8469 66.4153 19.761 64.5625 22.1247C64.5625 22.1247 62.8438 23.156 63.0313 23.6247C62.8208 23.7733 62.6488 23.9699 62.5292 24.1981C62.4097 24.4263 62.3461 24.6796 62.3438 24.9372C62.3438 25.281 63.5 27.031 64.9063 25.9997C73.5313 23.9997 76.3438 36.9372 70.625 41.8122C68.0614 43.8818 65.0215 45.2782 61.7813 45.8747C61.5298 45.9612 61.3185 46.1363 61.1868 46.3672C61.0551 46.5982 61.012 46.8692 61.0656 47.1296C61.1192 47.39 61.2659 47.622 61.4781 47.7821C61.6903 47.9423 61.9536 48.0196 62.2188 47.9997C65.8353 47.3947 69.2418 45.8903 72.125 43.6247C78.8125 38.031 76.7188 23.9997 67.4375 22.8435Z" fill="#163055"/>
<path d="M39.3125 55.281C37.3438 55.6872 35.8438 58.0622 37.5 59.6872C37.9786 60.1681 38.5692 60.5225 39.2188 60.7185C44.4375 61.8747 43.8125 54.3747 39.3125 55.281Z" fill="#163055"/>
<path d="M51.5625 57.531C54.4688 55.5622 57 54.5622 56.9688 52.0622C56.6855 49.3846 55.4816 46.8884 53.5625 44.9997C51.2188 43.281 49.5938 44.6247 46.2813 46.531C46.125 43.7497 46.625 41.4685 44.375 40.0622C41.9275 38.8121 39.1724 38.2915 36.4375 38.5622C32.875 39.3747 33.0625 42.4685 33.0313 46.6872L29.4375 44.4685C25.6563 42.5622 22.875 46.4372 21.75 50.4685C20.9375 53.5935 22.0938 54.5622 24.6875 56.1872C27.2813 57.8122 25.625 56.4997 26.125 59.3122C19.875 63.406 20.8125 62.6247 23.7813 68.6872C24.5245 69.7059 25.4329 70.5931 26.4688 71.3122C27.2513 71.6671 28.1182 71.7938 28.9696 71.6777C29.821 71.5616 30.6223 71.2075 31.2813 70.656C33.875 69.0622 33.5313 68.4685 33.5313 69.6872C33.5313 70.906 33.3438 73.031 34.5625 73.781C36.5 74.9685 43.4688 75.3747 44.7813 73.031C45.5 71.8122 45.5625 71.8122 45.375 69.906C45.3501 69.6242 45.2144 69.3638 44.9975 69.1821C44.7807 69.0005 44.5005 68.9124 44.2188 68.9372C43.937 68.9621 43.6766 69.0979 43.4949 69.3147C43.3132 69.5316 43.2251 69.8117 43.25 70.0935C43.25 71.7185 43.25 71.1872 42.875 71.9685C42.0938 73.281 37.25 71.5935 36.375 71.4685C36.375 70.906 36.375 73.4685 36.375 66.3122C36.3727 66.0587 36.3018 65.8105 36.17 65.5939C36.0381 65.3773 35.8501 65.2004 35.626 65.082C35.4018 64.9635 35.1498 64.9078 34.8965 64.9208C34.6433 64.9339 34.3983 65.0151 34.1875 65.156C32.5 66.2497 29.8438 68.6247 28.3125 68.7497C26.7813 68.8747 25.7813 64.6247 25.4063 63.9372C27.2188 63.1247 25.4063 64.281 29.25 61.8122C29.5884 61.5955 29.8436 61.2707 29.9741 60.8906C30.1046 60.5105 30.1027 60.0974 29.9688 59.7185C29.125 57.3435 30.75 56.2497 29.125 54.906C26.1875 52.5935 27.0313 53.2497 25.3125 51.9685C25.6292 50.6698 26.203 49.4478 27 48.3747C27.1563 48.2185 27.25 47.9685 27.4375 48.0935C34.2813 52.3435 33.3125 52.156 35.625 51.2185C37.9375 50.281 36.9063 42.4372 37.2188 42.3747C38.8939 42.4108 40.5475 42.7606 42.0938 43.406C42.3125 50.6872 42.6875 50.906 43.5938 51.3747C43.8813 51.5484 44.2109 51.6402 44.5469 51.6402C44.8828 51.6402 45.2124 51.5484 45.5 51.3747C51.5 47.5935 51.1563 47.7185 51.5313 48.0935C51.9063 48.4685 52.5313 49.156 53.5 52.1247C48.9688 55.5622 48.5 55.4685 48.375 56.4685C47.9063 59.9685 47.4063 58.8435 55.1563 63.2497C54.8725 65.1847 53.8952 66.9506 52.4063 68.2185C50.3274 67.2112 48.3316 66.0409 46.4375 64.7185C46.1724 64.5703 45.8615 64.5264 45.5657 64.5955C45.2699 64.6646 45.0106 64.8416 44.8386 65.0919C44.6665 65.3421 44.5941 65.6477 44.6355 65.9485C44.6769 66.2494 44.8292 66.524 45.0625 66.7185C47.0964 68.1987 49.2377 69.5253 51.4688 70.6872C54.5938 72.0935 59.2188 64.6247 57.7188 61.906C55.8624 60.1902 53.7934 58.7198 51.5625 57.531Z" fill="#163055"/>
</svg>
