<svg width="120" height="36" viewBox="0 0 120 36" fill="none" xmlns="http://www.w3.org/2000/svg">
<path d="M19.7266 0C30.1172 0 37.7734 6.37723 37.7734 17.2537C37.7734 28.1302 30.0781 35.0943 18.0078 35.0943C7.65625 35.0943 0 28.678 0 17.8797C0 7.08147 7.69531 0 19.7266 0ZM18.9453 31.6123C19.8828 32.5513 20.8594 32.8251 21.7188 32.8251C24.0625 32.8251 25.1953 31.1819 25.1953 26.2523C25.1953 17.0581 22.1484 6.72935 18.8672 3.44292C17.9297 2.50394 16.9531 2.23008 16.0938 2.23008C13.75 2.23008 12.6172 3.87329 12.6172 8.84205C12.6172 17.9971 15.6641 28.3259 18.9453 31.6123Z" fill="#163055"/>
<path d="M62.1484 34.5466V28.5606V34.7031H41.0156L39.7656 33.2164L51.7578 12.7153C51.7578 12.7153 42.8906 15.6105 40.8594 16.2365V10.8374H61.6797L62.6172 12.5588L50.8594 32.3948L62.1484 28.5215V34.5466Z" fill="#163055"/>
<path d="M75.0781 19.9142C75.7812 22.2616 77.0312 24.5308 78.3594 25.8219C80.1562 27.6216 81.4062 28.0911 83.0859 28.0911C85 28.0911 86.3672 27.3086 87.6172 26.174L89.0234 27.1521C87.1094 31.9253 81.7969 35.1335 76.7578 35.1335C69.7656 35.1335 64.375 30.3603 64.375 22.9267C64.375 15.4932 70.0391 10.3679 78.3984 10.3679C85.3906 10.3679 89.1797 13.7326 89.1797 18.271C89.1797 18.7013 89.1797 19.4838 89.1016 19.7968C89.1016 19.7968 79.5312 20.1098 75.0781 19.9533V19.9142ZM79.4531 14.515C79.4531 12.7153 78.7109 11.7764 77.3828 11.7764C75.9375 11.7764 74.4922 13.1066 74.4922 15.9235C74.4922 16.8625 74.6484 17.8797 74.8047 18.897L76.2891 18.7013C78.4375 18.4666 79.4141 16.9016 79.4141 14.515H79.4531Z" fill="#163055"/>
<path d="M106.211 10.3288C114.375 10.3288 120 14.9454 120 22.5355C120 30.5168 113.945 35.0943 105.273 35.0943C97.1094 35.0943 91.4844 30.4777 91.4844 22.8876C91.4844 14.9063 97.5391 10.3288 106.211 10.3288ZM106.602 32.6686C107.148 33.2164 107.578 33.3729 108.047 33.3729C108.984 33.3729 109.766 32.7469 109.766 30.2821C109.766 25.3524 106.914 14.7889 104.883 12.7936C104.336 12.2459 103.906 12.0894 103.438 12.0894C102.5 12.0894 101.719 12.7153 101.719 15.1802C101.719 20.1098 104.57 30.6733 106.602 32.6686Z" fill="#163055"/>
</svg>
