<svg width="191" height="189" viewBox="0 0 191 189" fill="none" xmlns="http://www.w3.org/2000/svg">
<path d="M102.097 116.457C101.277 114.547 100.598 112.579 100.067 110.57C99.965 110.087 99.8294 109.613 99.6615 109.149C98.9236 109.517 92.3413 111.009 84.6395 108.743C83.5387 110.229 82.7451 111.92 82.305 113.716C81.087 118.791 83.4215 122.75 86.0605 126.81C86.1244 126.944 86.2359 127.049 86.3731 127.105C86.5104 127.161 86.6636 127.164 86.8029 127.113C86.9423 127.063 87.0578 126.962 87.1269 126.831C87.1961 126.7 87.2139 126.547 87.177 126.404C86.9546 123.273 87.194 120.127 87.8875 117.066C87.9127 116.978 87.9659 116.9 88.0392 116.845C88.1124 116.789 88.2017 116.76 88.2935 116.76C88.3852 116.76 88.4745 116.789 88.5478 116.845C88.621 116.9 88.6743 116.978 88.6995 117.066C89.3085 119.908 90.9325 122.445 91.5415 125.287C92.2274 127.963 91.9767 130.793 90.831 133.306C90.7464 133.482 90.7248 133.681 90.7699 133.871C90.8151 134.061 90.9241 134.23 91.0789 134.349C91.2336 134.468 91.4245 134.53 91.6196 134.525C91.8147 134.52 92.0022 134.448 92.1505 134.321C96.109 130.87 98.0375 127.013 97.327 121.735C97.0225 119.806 96.718 118.081 96.515 116.457C96.4135 116.051 96.921 115.949 97.124 116.254C97.7918 117.197 98.4019 118.18 98.951 119.197C99.7104 120.739 99.9251 122.492 99.56 124.171C99.4585 124.678 100.169 125.084 100.473 124.577C102.503 122.141 103.233 119.495 102.097 116.457Z" fill="#45DD3A"/>
<path d="M95.3985 50.7853C94.9791 49.8048 94.4332 48.8834 93.7745 48.0448C93.4619 47.7134 93.0322 47.5173 92.5771 47.4983C92.122 47.4794 91.6775 47.6391 91.3385 47.9433C90.6798 48.7819 90.1338 49.7033 89.7145 50.6838C86.9638 55.7958 85.3373 61.4366 84.944 67.2283C83.9026 81.8118 90.903 103.179 92.049 108.336C92.0086 108.47 92.0233 108.616 92.09 108.739C92.1566 108.863 92.2696 108.955 92.4042 108.996C92.5388 109.036 92.684 109.021 92.8077 108.955C92.9314 108.888 93.0236 108.775 93.064 108.64C93.673 106.509 94.1805 104.479 94.688 102.347C95.7091 98.0599 100.641 81.7032 100.372 70.1718C100.328 66.4348 99.817 62.7181 98.8495 59.1083C97.9359 56.2416 96.7814 53.4573 95.3985 50.7853ZM92.5565 50.8868C92.3535 50.3793 93.1655 50.1763 93.3685 50.6838C96.8195 60.1618 96.5424 72.9975 95.703 83.0623C95.1337 89.8037 94.219 96.5115 92.9625 103.159C92.861 103.565 92.252 103.464 92.3535 103.058C93.3573 94.277 93.3898 96.7881 94.688 81.6413C94.9925 77.8858 95.094 74.2318 95.094 70.4763C94.7225 64.1518 94.5865 56.7575 92.5565 50.8868Z" fill="#163055"/>
<path d="M90.019 30.9928C90.8168 30.465 91.237 31.0943 92.1505 31.2973C93.47 31.5003 98.2405 27.3388 98.342 27.4403C97.2488 26.4983 95.9087 25.8891 94.4801 25.6848C93.0516 25.4806 91.5944 25.6898 90.2811 26.2878C88.9677 26.8857 87.8531 27.8474 87.0692 29.0589C86.2853 30.2705 85.8648 31.6812 85.8575 33.1243C85.841 33.4323 85.8752 33.7409 85.959 34.0378C87.2457 32.9369 88.6018 31.9198 90.019 30.9928Z" fill="#45DD3A"/>
<path d="M99.4585 28.6593C98.342 29.3698 93.47 32.7193 92.861 32.9223C92.6556 33.0228 92.4299 33.075 92.2012 33.075C91.9725 33.075 91.7469 33.0228 91.5415 32.9223C91.2618 32.6711 90.9022 32.5273 90.5265 32.5163C90.1205 32.5163 86.6695 35.1553 86.2635 35.4598C86.8401 37.1417 87.9947 38.5644 89.5218 39.475C91.0489 40.3856 92.8495 40.7249 94.6033 40.4326C96.3571 40.1403 97.9503 39.2353 99.0995 37.8787C100.249 36.5221 100.879 34.8018 100.879 33.0238C100.891 31.4534 100.393 29.9217 99.4585 28.6593Z" fill="#45DD3A"/>
<path d="M92.455 41.4483C94.2617 41.4483 96.0279 40.9125 97.5301 39.9088C99.0323 38.905 100.203 37.4783 100.895 35.8091C101.586 34.1399 101.767 32.3032 101.414 30.5311C101.062 28.7591 100.192 27.1314 98.9144 25.8539C97.6368 24.5763 96.0091 23.7063 94.2371 23.3538C92.4651 23.0013 90.6284 23.1822 88.9592 23.8737C87.29 24.5651 85.8633 25.7359 84.8595 27.2382C83.8557 28.7404 83.32 30.5066 83.32 32.3133C83.315 33.5143 83.5479 34.7044 84.0052 35.815C84.4625 36.9255 85.1352 37.9345 85.9845 38.7838C86.8337 39.633 87.8427 40.3057 88.9533 40.7631C90.0638 41.2204 91.254 41.4533 92.455 41.4483ZM92.455 24.4978C94.0377 24.5114 95.5802 24.998 96.8841 25.8952C98.1881 26.7923 99.1939 28.059 99.7724 29.5323C100.351 31.0056 100.475 32.6182 100.13 34.1629C99.7846 35.7075 98.9852 37.1136 97.8345 38.2003C96.8906 39.078 95.7465 39.7117 94.5017 40.0464C93.257 40.381 91.9494 40.4064 90.6926 40.1203C89.4358 39.8342 88.268 39.2454 87.2907 38.4049C86.3135 37.5645 85.5564 36.498 85.0854 35.2983C84.6144 34.0985 84.4437 32.8018 84.5881 31.521C84.7326 30.2402 85.1879 29.0141 85.9144 27.9494C86.6409 26.8847 87.6165 26.0137 88.7565 25.4121C89.8964 24.8106 91.166 24.4967 92.455 24.4978Z" fill="#163055"/>
<path d="M183.399 116.863C175.583 107.249 161.662 103.465 148.28 105.799C147.468 105.901 146.757 106.104 145.945 106.205C145.382 105.791 144.768 105.45 144.118 105.19C146.453 100.098 146.893 94.5247 143.408 90.1683C140.464 86.4128 135.592 84.7888 130.923 85.0933C133.21 79.3748 135.528 73.232 134.171 67.1278C132.566 58.2973 126.254 53.1959 119.251 47.9443C119.338 44.4517 119.168 40.9575 118.743 37.4898C117.374 25.6295 113.337 14.565 104.635 6.53229C102.323 4.40079 98.3115 1.36696 95.1955 0.848295C93.3543 0.425021 91.4375 0.459872 89.613 0.949795C87.7563 1.44738 86.0033 2.27231 84.4365 3.3858C70.0681 13.3003 65.5372 30.671 65.862 47.9443C57.5065 53.746 50.5355 60.6521 50.5355 70.7818C50.5376 72.525 50.7419 74.2622 51.1445 75.9583C40.3398 78.2329 32.4857 89.8942 33.8895 100.42C32.773 100.521 31.758 100.623 30.6415 100.826C10.7881 104.699 -3.03014 126.741 1.71397 150.459C3.44582 158.873 7.24835 166.722 12.7775 173.297C12.8658 173.398 15.2135 175.936 15.315 175.936H70.734C70.8203 176.621 70.956 177.3 71.14 177.966C71.4413 178.269 71.7948 178.515 72.1834 178.693C72.9893 179.152 87.1039 186.204 90.7295 188.013C91.2432 188.337 91.8506 188.48 92.455 188.419C93.1055 188.244 93.7412 188.018 94.3561 187.742C99.4585 185.622 111.713 179.352 113.161 178.269C113.465 178.066 113.465 177.356 113.77 175.833H167.869C174.168 171.449 179.462 165.775 183.399 159.187C193.432 142.885 191.527 126.855 183.399 116.863ZM117.119 94.2283C117.018 93.7208 117.931 93.6193 118.033 94.1268C118.552 96.9382 118.79 99.7943 118.743 102.653C118.76 103.028 118.726 103.403 118.642 103.769C118.611 103.837 118.561 103.895 118.498 103.935C118.435 103.976 118.362 103.997 118.287 103.997C118.212 103.997 118.139 103.976 118.076 103.935C118.013 103.895 117.963 103.837 117.931 103.769C117.798 103.413 117.763 103.027 117.83 102.653C117.897 100.919 117.773 99.1832 117.463 97.4763C117.303 96.4146 117.188 95.3214 117.119 94.2283ZM131.532 76.4658C131.5 76.5698 131.433 76.6593 131.342 76.7189C131.251 76.7786 131.142 76.8046 131.034 76.7926C130.926 76.7806 130.825 76.7312 130.749 76.6531C130.674 76.5749 130.628 76.4728 130.619 76.3643C130.84 74.1725 130.908 71.968 130.822 69.7668C130.375 62.6283 126.84 57.2498 121.484 52.5118C121.078 52.1058 121.687 51.5983 122.093 51.9028C123.737 53.2247 125.265 54.6848 126.66 56.2673C131.748 62.2781 133.448 67.952 131.532 76.4658ZM89.9175 2.47229C91.7219 2.06629 93.594 2.06629 95.3985 2.47229C97.112 3.01581 98.7239 3.83891 100.169 4.9083C101.32 5.70059 102.406 6.58303 103.417 7.54729C96.3246 9.84733 88.6868 9.84733 81.5945 7.54729C84.0031 5.57718 86.9009 3.30967 89.9175 2.47229ZM80.5795 8.46079C87.655 11.248 97.7685 11.0856 104.432 8.46079C105.653 9.61495 106.774 10.8714 107.781 12.2163C112.45 18.2048 115.191 25.5128 116.612 32.9223C120.188 51.8267 116.38 76.4333 102.503 97.0703C101.488 98.5928 99.357 101.638 99.357 101.739C98.3372 102.041 97.2691 102.144 96.2105 102.044C96.1201 102.048 96.0332 102.08 95.9608 102.134C95.8884 102.188 95.834 102.263 95.8045 102.348C95.8045 102.551 95.906 102.754 96.109 102.754C97.2874 102.919 98.483 102.919 99.6615 102.754C99.763 103.059 101.894 107.22 101.996 107.322C98.9621 108.644 95.6802 109.301 92.3712 109.248C89.0622 109.196 85.8029 108.435 82.8125 107.017C83.8141 105.514 84.729 103.955 85.553 102.348C85.553 102.348 87.2785 102.754 87.38 102.754C87.6845 102.754 88.0905 102.856 88.2935 102.551C88.4965 102.348 88.395 102.145 88.2935 101.942C88.0905 101.638 87.786 101.739 87.38 101.638C86.771 101.536 85.6545 101.333 85.553 101.333C81.1355 95.37 77.391 88.9364 74.388 82.1498C64.644 60.2309 62.957 25.3494 80.5795 8.46079ZM95.906 185.781C94.6937 186.327 93.4374 186.768 92.1505 187.101C91.5338 187.137 90.9237 186.958 90.425 186.593C88.801 185.68 87.38 185.071 85.756 184.259C84.0883 183.474 72.493 177.56 72.358 177.56C72.155 176.24 71.0385 171.47 70.8355 170.353C69.8702 166.3 68.1112 160.919 67.892 160.203C70.9335 159.533 74.021 159.092 77.1285 158.884C78.8205 159.606 86.4736 162.757 90.831 164.771C90.831 167.308 91.034 182.127 91.034 182.939C91.0006 183.723 91.0688 184.508 91.237 185.274C91.3385 185.68 92.049 185.781 92.1505 185.274C92.2857 183.925 92.3196 182.568 92.252 181.214C92.252 179.894 91.7445 166.192 91.643 164.771C92.3697 164.589 103.065 160.467 106.157 159.29C109.811 157.956 113.539 156.838 117.322 155.94C117.221 156.346 116.409 158.579 116.206 159.29C115.8 160.609 113.668 169.034 113.161 171.876C112.856 173.601 112.552 175.428 112.349 177.154C108.667 179.753 101.445 183.175 95.906 185.781ZM76.1135 145.79C76.7225 146.095 77.3315 146.501 77.9405 146.805C78.3465 147.11 78.7525 146.399 78.3465 146.095C73.2715 143.05 67.3845 140.918 61.396 141.933C60.5935 142.028 59.8079 142.233 59.0615 142.542C58.757 139.802 60.99 137.569 63.1215 136.351C65.1998 134.999 67.7104 134.479 70.1547 134.892C72.5991 135.306 74.7986 136.624 76.3165 138.584C75.8856 138.928 75.4787 139.301 75.0985 139.7C75.0177 139.781 74.9723 139.891 74.9723 140.005C74.9723 140.119 75.0177 140.229 75.0985 140.309C75.1792 140.39 75.2888 140.435 75.403 140.435C75.5172 140.435 75.6267 140.39 75.7075 140.309C76.7053 139.405 77.877 138.714 79.1509 138.278C80.4249 137.841 81.7743 137.669 83.117 137.772C84.0305 137.873 84.8425 138.178 85.756 138.279C86.162 138.279 86.4665 137.67 86.0605 137.467C84.9511 136.829 83.6857 136.513 82.4065 136.554C84.0465 135.244 86.0106 134.402 88.0905 134.118C88.192 137.366 88.192 140.614 88.2935 143.76C87.2528 142.819 86.1321 141.97 84.944 141.223C84.538 141.02 84.132 141.527 84.4365 141.832C85.2485 142.542 86.0605 143.253 86.8725 144.065C87.4239 144.505 87.874 145.059 88.192 145.689C88.192 148.889 88.1646 150.722 88.2935 152.388C86.644 151.628 84.8244 151.313 83.0155 151.474C81.7879 151.574 80.5864 151.883 79.463 152.388C78.9555 152.591 79.3615 153.504 79.869 153.301C81.1998 152.761 82.6305 152.51 84.0657 152.567C85.501 152.623 86.9077 152.985 88.192 153.628C89.0856 154.051 89.8811 154.655 90.5278 155.403C91.1745 156.151 91.658 157.025 91.9475 157.97C91.7623 158.596 91.7275 159.257 91.846 159.899C91.8771 160.004 91.9442 160.095 92.0354 160.155C92.1267 160.216 92.2363 160.242 92.3452 160.23C92.454 160.218 92.5552 160.168 92.6309 160.089C92.7066 160.01 92.7522 159.907 92.7595 159.797C92.4083 158.042 94.4007 155.982 96.109 155.128C97.831 154.135 99.8094 153.676 101.793 153.809C102.909 153.91 104.026 154.215 105.142 154.418C105.254 154.433 105.368 154.411 105.466 154.356C105.564 154.301 105.642 154.216 105.688 154.113C105.734 154.01 105.745 153.895 105.72 153.786C105.695 153.676 105.634 153.577 105.548 153.504C103.525 151.93 99.3834 152.241 96.312 153.606C97.1372 149.2 100.245 146.869 103.518 147.127C105.076 147.336 106.549 147.961 107.781 148.937C108.187 149.241 108.796 148.632 108.492 148.226C107.598 147.166 106.389 146.419 105.041 146.095C103.736 145.772 102.369 145.807 101.082 146.196C99.5627 146.672 98.2197 147.591 97.2255 148.835C97.2255 141.334 97.2508 137.531 97.124 133.712C100.924 134.797 103.069 136.685 104.33 138.787C103.639 139.144 103.02 139.626 102.503 140.208C101.66 141.045 101.063 142.099 100.778 143.253C100.747 143.398 100.773 143.549 100.85 143.675C100.927 143.802 101.05 143.894 101.192 143.933C101.335 143.972 101.487 143.954 101.618 143.885C101.749 143.815 101.848 143.698 101.894 143.557C102.25 142.513 102.881 141.585 103.721 140.87C104.56 140.156 105.578 139.681 106.665 139.497C110.365 138.824 112.271 141.602 112.653 141.73C112.762 141.78 112.882 141.799 113 141.785C113.119 141.771 113.231 141.725 113.326 141.652C113.42 141.579 113.492 141.481 113.535 141.37C113.577 141.258 113.588 141.137 113.567 141.02C113.364 139.984 110.707 137.975 108.086 137.975C107.295 137.868 106.489 137.973 105.751 138.279C105.206 137.396 104.52 136.608 103.721 135.945C105.468 134.734 107.34 133.713 109.304 132.9C113.477 131.309 118.614 130.694 122.803 132.291C124.975 133.001 126.838 134.434 128.081 136.351C128.642 137.459 128.855 138.711 128.692 139.943C128.529 141.175 127.998 142.328 127.168 143.253C126.038 143.237 124.912 143.374 123.818 143.659C123.311 143.862 123.412 144.775 123.92 144.674C125.544 144.471 127.878 144.369 128.081 144.369C131.005 144.594 133.268 145.79 134.273 148.531C135.395 151.593 131.995 153.72 128.792 154.012C126.491 154.472 125.467 153.823 121.991 154.113C116.807 154.57 106.31 157.845 102.909 159.391C99.0159 160.874 99.154 161.002 93.9775 162.944C93.0777 163.227 92.1964 163.566 91.3385 163.959C85.489 161.02 82.1781 159.222 81.1885 158.782C74.0175 155.595 66.5207 160.704 58.96 160C53.3095 159.462 50.2005 155.151 50.84 151.474C51.7464 146.941 57.4375 144.219 61.7847 143.272C66.2436 142.301 70.8436 143.049 76.1135 145.79ZM167.159 174.921H114.074C114.904 170.088 116.023 165.309 117.424 160.609C117.627 159.797 118.743 156.854 118.845 156.143C119.752 155.992 120.667 155.89 121.585 155.839C126.591 155.453 124.619 156.034 128.995 155.636C131.228 155.23 133.765 154.316 135.085 152.388C136.506 150.053 135.288 146.907 133.359 145.283C132.064 144.228 130.461 143.623 128.792 143.557H128.487C133.671 135.781 123.53 127.21 110.116 131.682C107.505 132.46 105.086 133.774 103.011 135.539C101.314 134.112 99.2279 133.228 97.0225 133.001C97.0225 131.783 97.0225 130.87 96.921 129.652C96.921 129.043 95.906 130.87 95.906 131.479C95.906 136.482 95.5365 147.858 95.8045 151.068C95.3166 152.188 95.0743 153.399 95.094 154.621C94.2024 155.124 93.4653 155.861 92.9625 156.752C92.2561 155.272 91.1255 154.036 89.7145 153.2C89.9891 145.819 89.7856 138.428 89.1055 131.073C89.004 130.464 88.0905 130.464 88.0905 131.073C88.0736 131.852 88.1075 132.632 88.192 133.407C86.9577 133.536 85.7554 133.879 84.6395 134.422C83.3627 135.033 82.2232 135.896 81.29 136.96C79.7235 137.133 78.2242 137.691 76.9255 138.584C75.8524 137.083 74.4109 135.883 72.7398 135.101C71.0688 134.319 69.2244 133.98 67.3845 134.118C62.5683 134.584 57.0985 138.66 57.945 143.456C54.9944 144.767 52.1361 146.266 50.3325 149.546C47.867 154.066 50.9029 159.339 56.0165 161.117C59.569 162.335 63.426 161.726 66.9785 160.914C67.9935 165.278 70.125 172.282 70.531 175.225H15.518C14.909 174.515 14.3 173.703 13.691 172.992C11.6943 170.519 9.92767 167.869 8.41297 165.075C4.44409 157.928 2.31631 149.905 2.22147 141.73C2.22147 122.981 13.6006 107.748 27.698 103.668C42.2318 99.3033 56.4509 105.653 62.411 117.573C62.614 118.081 63.426 117.675 63.223 117.066C61.4897 113.319 58.9201 110.021 55.712 107.423C49.8668 102.816 42.5383 100.505 35.1075 100.927C34.7219 95.6064 36.2321 90.3208 39.3705 86.0068C42.2658 81.937 46.509 79.0243 51.3475 77.7853C51.246 77.7853 53.7835 84.7888 54.088 85.3978C57.0386 92.3729 61.6142 98.4162 65.659 105.495C65.9635 106.002 66.268 106.611 66.5725 107.119C66.7755 107.525 67.689 107.525 67.689 107.017C68.704 99.8108 69.313 92.5028 71.0385 85.3978C71.4445 83.7738 71.8505 82.2513 72.2565 80.6273C75.31 88.4504 79.5182 95.772 84.741 102.348C84.0752 103.152 83.4648 104 82.914 104.886C82.3214 105.696 81.8433 106.584 81.493 107.525C81.4475 107.713 81.4745 107.911 81.5685 108.081C81.6625 108.25 81.8167 108.377 82.0005 108.438C85.2205 110.006 88.7492 110.838 92.3306 110.873C95.912 110.908 99.4563 110.146 102.706 108.641C103.011 108.438 103.214 108.337 103.214 108.032C103.214 107.525 102.909 107.22 102.605 106.713C101.783 105.299 101.037 103.842 100.372 102.348C102.705 99.3783 104.841 96.2589 106.766 93.0103C108.7 89.7531 110.396 86.361 111.841 82.8603C112.146 82.2513 112.349 81.5408 112.653 80.8303C115.169 89.948 115.59 94.616 117.221 107.119C117.255 107.235 117.323 107.339 117.416 107.416C117.51 107.493 117.624 107.54 117.745 107.551C117.865 107.562 117.986 107.536 118.092 107.477C118.198 107.418 118.283 107.329 118.337 107.22C121.722 100.892 127.967 92.3313 130.213 86.7173C137.297 86.0068 143.915 90.1236 144.524 97.0703C144.571 99.938 143.981 102.78 142.799 105.393C140.017 104.919 137.159 105.498 134.78 107.017C134.273 107.322 134.679 108.032 135.288 107.829C137.664 106.493 140.465 106.129 143.103 106.814C145.742 107.626 147.366 110.164 147.874 112.803C148.289 114.671 147.931 117.702 148.077 118.284C148.178 118.893 149.092 118.791 149.193 118.284C149.535 116.476 149.57 114.622 149.295 112.803C149.024 111.245 148.437 109.76 147.569 108.438C147.328 108.109 147.056 107.803 146.757 107.525C162.82 104.802 179.839 109.876 186.342 124.881C190.681 135.107 188.831 147.02 183.399 156.955C179.229 163.96 173.709 170.067 167.159 174.921Z" fill="#163055"/>
</svg>
