<svg width="334" height="248" viewBox="0 0 334 248" fill="none" xmlns="http://www.w3.org/2000/svg">
<g clip-path="url(#clip0_156_875)">
<path d="M247.862 163.687C247.603 158.582 247.603 153.454 247.862 148.349C247.768 147.055 246.663 146.067 245.347 146.161C244.36 146.231 243.537 146.89 243.255 147.831C242.08 152.701 241.398 157.665 241.21 162.652C240.176 162.652 221.28 160.088 213.101 160.088C213.101 159.052 214.135 146.278 214.135 143.714C220.316 145.337 226.85 144.608 232.514 141.668C235.076 141.668 237.614 141.15 240.176 141.15C244.454 140.727 248.614 139.503 252.445 137.574C256.323 135.41 258.673 131.27 258.556 126.847C258.791 123.436 258.791 120.025 258.556 116.613C258.65 114.049 258.462 111.485 258.039 108.944C260.53 108.403 262.927 107.533 265.183 106.38C266.57 105.557 267.017 103.769 266.194 102.404C266.053 102.169 265.888 101.957 265.7 101.793C255.735 91.3006 247.298 80.3145 237.591 69.5871C240.341 65.2821 241.916 60.3653 242.198 55.2604C243.561 45.38 236.674 36.2993 226.803 34.9349C217.825 33.6881 209.317 39.334 206.943 48.1088C205.486 52.9079 204.781 57.9187 204.898 62.9296C203.3 70.9751 200.574 70.7869 196.226 76.2212C184.709 88.5247 179.844 107.462 188.047 122.236C190.139 127.129 193.1 131.646 196.743 135.528C200.221 138.562 204.193 140.985 208.494 142.679C208.494 145.243 206.45 159.029 206.45 160.558C188.987 160.511 171.924 165.687 157.399 175.379C149.196 160.629 131.123 143.691 106.821 133.975C106.304 122.73 106.821 118.637 106.304 111.485C106.304 110.215 105.27 109.18 104 109.18C102.731 109.18 101.697 110.215 101.697 111.485C101.18 118.143 100.686 124.777 100.686 131.434C96.3854 129.929 91.9199 128.894 87.4073 128.376C89.8516 120.777 90.5567 112.755 89.4521 104.851C98.4772 105.322 107.526 105.157 116.527 104.333C119.23 104.545 121.957 103.839 124.189 102.287C128.655 98.0523 127.245 88.4777 127.245 82.8552C127.245 79.2794 132.885 76.7387 135.424 74.6685C136.951 73.6334 137.351 71.5397 136.317 70.0106C136.199 69.8459 136.082 69.7047 135.941 69.5636C130.441 62.2003 124.495 55.1899 118.079 48.6029C116.034 47.0737 112.978 49.1204 114.506 51.1671C118.995 58.1305 123.931 64.8116 129.313 71.1162C127.785 72.1513 126.751 73.1394 125.224 74.1745C120.076 77.7032 120.617 81.8436 120.617 87.4661C120.617 90.0303 120.1 92.571 120.1 95.1352C120.17 95.6998 119.982 96.2644 119.583 96.6643C116.809 99.4403 89.9691 98.9933 88.4179 98.1935C87.4073 97.6759 86.8903 94.6177 86.3732 93.5826C83.3178 86.431 76.1494 82.8552 72.0599 76.7152C70.5322 74.6685 68.4405 68.9755 71.5428 66.9994C74.0577 65.3997 78.7112 68.058 81.7666 66.4818C91.5203 61.471 97.6076 48.0853 99.6288 42.9569C99.6288 41.4983 117.021 43.6391 123.132 33.7586C135.87 13.1037 99.2058 -11.8327 81.2496 6.14034C75.5853 12.939 70.9553 20.5141 67.4533 28.6302C67.4533 28.6302 64.1629 27.6892 63.3638 27.5951C56.0074 27.5951 49.1211 31.2415 44.961 37.3109C39.4144 45.2388 36.5705 54.7429 36.782 64.4116C36.782 81.8201 29.5666 84.4078 20.9411 89.4657C14.0547 93.2532 8.3905 98.9463 4.63003 105.839C1.1751 112.849 -0.399593 120.613 0.0939683 128.399C2.37375 162.746 44.961 168.627 70.6027 149.36C76.7135 144.538 81.4611 138.186 84.3989 130.964C105.575 136.163 124.988 146.937 140.571 162.181C144.731 166.792 148.491 171.756 151.805 177.002C137.492 189.776 130.864 208.714 128.819 227.11C128.302 230.168 133.426 230.686 133.92 227.628C139.02 212.807 142.052 196.928 152.816 185.189C165.555 172.391 182.782 165.051 200.832 164.746C233.078 162.934 280.813 171.38 307.089 194.387C321.52 207.02 332.519 226.169 329.064 245.53C328.594 248.094 332.684 249.13 333.154 246.565C336.562 227.698 329.064 209.749 316.819 195.422C300.391 178.272 268.685 166.91 247.862 163.71V163.687ZM258.579 102.334C255.007 103.345 251.434 103.863 251.434 105.91C251.434 130.117 257.004 132.963 233.572 135.551C233.055 133.293 232.373 131.058 231.527 128.894C227.438 119.695 217.731 123.271 218.248 115.084C218.765 110.991 223.348 110.473 224.899 109.438C229.318 103.557 225.957 99.8402 223.889 94.6177C221.327 90.0068 235.123 73.1394 234.606 72.6218C242.245 83.3963 250.424 92.5945 258.603 102.31L258.579 102.334ZM237.121 53.2373C237.121 55.8015 233.031 57.3306 232.021 54.7664C231.034 52.4374 229.835 50.2261 228.448 48.1088C226.921 46.5797 222.808 45.0506 224.359 41.9924C226.404 38.4166 232.538 43.5215 233.548 45.5682C235.546 47.6619 236.792 50.3437 237.121 53.2138V53.2373ZM83.3413 117.672C83.6703 120.942 82.7537 124.236 80.7795 126.87C79.5808 127.929 77.7476 127.835 76.69 126.635C76.4785 126.4 76.3139 126.141 76.1964 125.835C75.8439 123.106 76.0319 120.33 76.7135 117.649C77.5596 109.321 75.3973 100.969 70.6027 94.1236C69.122 92.0534 72.1304 90.0303 73.6581 91.5594C79.7454 98.8992 83.1533 108.097 83.3413 117.649V117.672ZM118.596 26.6541C117.82 26.5365 117.115 26.1601 116.551 25.6425C115.235 23.5723 114.201 21.3375 113.496 18.985C112.085 16.5619 110.37 14.327 108.395 12.3274C107.361 11.3158 107.361 9.76318 108.395 9.26916C109.265 8.49283 110.581 8.49283 111.451 9.26916C120.828 17.3147 124.189 27.3598 118.596 26.6776V26.6541Z" fill="#173156"/>
<path d="M103.789 51.1907C100.099 51.7082 100.31 57.2601 101.744 59.8714C104.047 64.0588 111.639 61.377 107.385 53.2373C106.774 51.8258 105.317 51.0025 103.789 51.1907Z" fill="#173156"/>
<path d="M234.089 86.9716C231.034 89.0182 233.078 94.1231 235.617 95.6758C237.661 96.6874 240.223 96.6874 241.257 94.6642C242.104 91.9824 241.069 89.0418 238.696 87.5126C237.567 86.1011 235.499 85.8659 234.089 86.9951V86.9716Z" fill="#173156"/>
<path d="M98.7123 80.8318C97.6781 79.8202 95.1398 76.2209 93.6121 79.3026C93.0011 81.3258 93.5886 83.5136 95.1398 84.9486C96.2445 86.0778 97.4431 87.0894 98.7123 88.0069C102.073 89.9595 106.28 89.7712 109.43 87.4893C110.558 86.713 110.816 85.1604 110.041 84.0547C110.017 84.0076 109.97 83.9606 109.923 83.9135C108.395 82.3844 106.327 83.3489 104.823 83.9135C102.755 84.6428 99.5584 81.7022 98.6888 80.8318H98.7123Z" fill="#173156"/>
</g>
<defs>
<clipPath id="clip0_156_875">
<rect width="334" height="248" fill="white"/>
</clipPath>
</defs>
</svg>
