<svg width="64" height="64" viewBox="0 0 64 64" fill="none" xmlns="http://www.w3.org/2000/svg">
<path d="M23.8661 30.8587H39.0436C43.2659 30.8587 46.6438 27.3623 46.6438 23.1029V8.55923C46.6438 4.41936 43.1696 1.31588 39.0436 0.621157C36.4309 0.188378 33.7219 -0.0109276 31.1261 0.000461264C28.5304 0.0118502 26.0481 0.233934 23.8661 0.621157C17.4334 1.76005 16.2659 4.15172 16.2659 8.55923V14.379H31.4605V16.3208H10.5644C6.14944 16.3208 2.27854 18.9858 1.07136 24.0595C-0.322848 29.8736 -0.385191 33.5066 1.07136 39.5769C2.15385 44.0983 4.73257 47.3157 9.14755 47.3157H14.373V40.34C14.373 35.3004 18.7143 30.853 23.8661 30.853V30.8587ZM22.9083 10.501C21.3327 10.501 20.0575 9.2027 20.0575 7.60256C20.0575 6.00242 21.3327 4.687 22.9083 4.687C24.4838 4.687 25.759 5.99672 25.759 7.60256C25.759 9.2084 24.4782 10.501 22.9083 10.501Z" fill="url(#paint0_linear_156_801)"/>
<path d="M61.8381 24.0596C60.7443 19.6407 58.6643 16.3208 54.238 16.3208H48.5365V23.1029C48.5365 28.3589 44.0988 32.7835 39.0434 32.7835H23.8658C19.7059 32.7835 16.2657 36.3596 16.2657 40.5393V55.0773C16.2657 59.2172 19.8476 61.6487 23.8658 62.8331C28.6776 64.2568 33.2909 64.513 39.0434 62.8331C42.869 61.7227 46.6436 59.4791 46.6436 55.0773V49.2576H31.466V47.3158H54.2437C58.6587 47.3158 60.3079 44.218 61.8438 39.577C63.4307 34.7936 63.3627 30.1925 61.8438 24.0596H61.8381ZM40.0012 53.1355C41.5768 53.1355 42.852 54.4338 42.852 56.034C42.852 57.6341 41.5768 58.9495 40.0012 58.9495C38.4257 58.9495 37.1505 57.6398 37.1505 56.034C37.1505 54.4281 38.4313 53.1355 40.0012 53.1355Z" fill="url(#paint1_linear_156_801)"/>
<defs>
<linearGradient id="paint0_linear_156_801" x1="26" y1="64.0005" x2="26.2862" y2="0.0017691" gradientUnits="userSpaceOnUse">
<stop stop-color="#2289EE"/>
<stop offset="1" stop-color="#91DAFF"/>
</linearGradient>
<linearGradient id="paint1_linear_156_801" x1="26" y1="64.0005" x2="26.2862" y2="0.0017691" gradientUnits="userSpaceOnUse">
<stop stop-color="#2289EE"/>
<stop offset="1" stop-color="#91DAFF"/>
</linearGradient>
</defs>
</svg>
