<svg width="67" height="59" viewBox="0 0 67 59" fill="none" xmlns="http://www.w3.org/2000/svg">
<path d="M33.4854 35.3468C36.7821 35.3468 39.4546 32.709 39.4546 29.455C39.4546 26.2011 36.7821 23.5632 33.4854 23.5632C30.1888 23.5632 27.5163 26.2011 27.5163 29.455C27.5163 32.709 30.1888 35.3468 33.4854 35.3468Z" fill="url(#paint0_linear_156_805)"/>
<path d="M66.9709 29.4548C66.9709 24.8276 61.4676 20.8039 52.907 18.3897C55.0617 9.8538 54.3046 3.15727 50.2282 0.829288C46.1517 -1.49869 39.8913 1.23166 33.4854 7.32463C27.0795 1.20291 20.8192 -1.49869 16.7427 0.829288C13.3651 2.7549 12.113 7.64078 13.2486 14.596C13.4524 15.8318 13.7436 17.0964 14.0639 18.4185C5.50326 20.8327 0 24.8563 0 29.4835C0 34.1108 5.50326 38.1057 14.0639 40.5486C13.7436 41.8419 13.4524 43.1353 13.2486 44.3711C12.113 51.3263 13.3651 56.2122 16.7427 58.1378C17.7327 58.7126 18.8683 59 20.1204 59C23.0904 59 26.6719 57.3905 30.5737 54.2578C31.5345 53.4818 32.5246 52.5909 33.4854 51.6712C34.4463 52.5909 35.4363 53.4818 36.3972 54.2578C40.299 57.3905 43.8805 59 46.8505 59C48.1026 59 49.2382 58.7126 50.2282 58.1378C53.6058 56.2122 54.8579 51.3263 53.7514 44.3711C53.5476 43.1353 53.2564 41.8707 52.9361 40.5486C61.4967 38.1344 67 34.1108 67 29.4835L66.9709 29.4548ZM46.8505 2.84112C47.5784 2.84112 48.219 2.98482 48.7723 3.30097C51.3929 4.79547 51.9752 10.2562 50.0826 17.6712C47.3455 17.0389 44.3464 16.5791 41.1725 16.2917C39.3381 13.7338 37.4163 11.4058 35.5237 9.36521C39.9496 5.14036 44.0552 2.84112 46.8796 2.84112H46.8505ZM21.6345 36.2088C22.3042 37.3297 22.9739 38.4218 23.6728 39.4852C21.5472 39.2266 19.538 38.8817 17.6745 38.4506C18.2568 36.6112 18.9557 34.743 19.771 32.8174C20.3533 33.9383 20.9648 35.0879 21.6345 36.2088ZM17.6745 20.459C19.538 20.0567 21.5472 19.683 23.6728 19.4244C22.9739 20.4878 22.3042 21.5799 21.6345 22.7008C20.9648 23.8217 20.3533 24.9425 19.771 26.0922C18.9557 24.1665 18.2568 22.2984 17.6745 20.459ZM21.3142 29.4548C22.1877 27.6729 23.1195 25.9197 24.1678 24.1378C25.216 22.3272 26.3225 20.6315 27.3998 19.0507C29.3507 18.907 31.389 18.8208 33.4854 18.8208C35.5819 18.8208 37.6202 18.907 39.5711 19.0507C40.6775 20.6315 41.7549 22.3272 42.8031 24.1378C43.8222 25.891 44.7831 27.6729 45.6567 29.4548C44.8123 31.208 43.8805 32.9611 42.8031 34.7718C41.7549 36.525 40.6775 38.2494 39.5711 39.8588C37.6202 40.0025 35.5819 40.0888 33.4854 40.0888C31.389 40.0888 29.3507 40.0025 27.3998 39.8588C26.2933 38.2494 25.1869 36.525 24.1678 34.7718C23.1195 32.9899 22.1877 31.2367 21.3142 29.4548ZM45.3364 36.2088C46.0061 35.0879 46.6176 33.9383 47.1999 32.8174C48.0152 34.743 48.714 36.6112 49.2964 38.4506C47.4329 38.8529 45.4237 39.2266 43.2981 39.4852C43.997 38.4218 44.6667 37.3297 45.3364 36.2088ZM45.3364 22.7008C44.6667 21.5799 43.997 20.4878 43.2981 19.4244C45.4237 19.683 47.4329 20.0279 49.2964 20.459C48.7432 22.2697 48.0443 24.1378 47.1999 26.0922C46.6176 24.9713 45.977 23.8217 45.3364 22.7008ZM33.4854 11.4058C34.7666 12.7853 36.0769 14.3373 37.3872 16.033C36.106 15.9755 34.8249 15.9468 33.4854 15.9468C32.146 15.9468 30.8648 15.9755 29.5837 16.033C30.894 14.3373 32.1751 12.7853 33.4854 11.4058ZM18.1986 3.30097C18.7518 2.98482 19.3924 2.84112 20.1204 2.84112C22.9448 2.84112 27.0504 5.14036 31.4763 9.36521C29.5545 11.4058 27.6619 13.7338 25.8275 16.2917C22.6536 16.5791 19.6545 17.0389 16.9174 17.6712C16.5971 16.4641 16.3351 15.257 16.1604 14.1361C15.2577 8.53173 16.0148 4.59429 18.2568 3.32971L18.1986 3.30097ZM14.8501 37.7321C7.42503 35.634 2.91178 32.4438 2.91178 29.4261C2.91178 26.4083 7.39591 23.2181 14.8501 21.1201C15.6945 23.7929 16.801 26.5807 18.1113 29.4261C16.801 32.2426 15.6945 35.0304 14.8501 37.7321ZM28.7392 51.9586C24.2842 55.5224 20.4407 56.8445 18.1986 55.5799C15.9565 54.3153 15.1995 50.3491 16.1021 44.7735C16.2768 43.6238 16.568 42.4455 16.8592 41.2384C19.5963 41.8707 22.5954 42.3305 25.7692 42.6179C27.6037 45.1471 29.4963 47.5038 31.4181 49.5731C30.5154 50.4353 29.6128 51.2688 28.7101 51.9873L28.7392 51.9586ZM29.5837 42.8479C30.8648 42.9053 32.146 42.9341 33.4854 42.9341C34.8249 42.9341 36.106 42.9053 37.3872 42.8479C36.106 44.5148 34.7957 46.0381 33.4854 47.4751C32.1751 46.0668 30.8648 44.5148 29.5837 42.8479ZM48.7723 55.5799C46.5302 56.8445 42.6867 55.5224 38.2316 51.9586C37.329 51.2401 36.4263 50.4066 35.5237 49.5444C37.4746 47.4751 39.3672 45.1471 41.1725 42.6179C44.3464 42.3305 47.3455 41.8707 50.0826 41.2384C50.4029 42.4455 50.6649 43.6526 50.8396 44.7735C51.7423 50.3779 50.9852 54.3153 48.7432 55.5799H48.7723ZM52.1208 37.7321C51.2764 35.0592 50.1699 32.2714 48.8596 29.4261C50.199 26.552 51.2764 23.7642 52.1208 21.1201C59.575 23.2181 64.0591 26.4083 64.0591 29.4261C64.0591 32.4438 59.575 35.634 52.1208 37.7321Z" fill="url(#paint1_linear_156_805)"/>
<defs>
<linearGradient id="paint0_linear_156_805" x1="27.6456" y1="59.0014" x2="27.8744" y2="0.00133781" gradientUnits="userSpaceOnUse">
<stop stop-color="#2289EE"/>
<stop offset="1" stop-color="#91DAFF"/>
</linearGradient>
<linearGradient id="paint1_linear_156_805" x1="27.6456" y1="59.0014" x2="27.8744" y2="0.00133781" gradientUnits="userSpaceOnUse">
<stop stop-color="#2289EE"/>
<stop offset="1" stop-color="#91DAFF"/>
</linearGradient>
</defs>
</svg>
