<svg width="59" height="59" viewBox="0 0 59 59" fill="none" xmlns="http://www.w3.org/2000/svg">
<path fill-rule="evenodd" clip-rule="evenodd" d="M57.0004 20.7494C56.4731 18.7731 55.7866 16.8428 54.9476 14.9774C54.1195 13.0631 53.0392 11.2681 51.7355 9.64007C51.5747 9.49069 51.3633 9.40767 51.1438 9.40767C50.9243 9.40767 50.7129 9.49069 50.5521 9.64007C50.4044 9.79689 50.3221 10.0042 50.3221 10.2197C50.3221 10.4351 50.4044 10.6425 50.5521 10.7993C51.734 12.2696 52.7091 13.8947 53.4502 15.6295C54.2385 17.3953 54.861 19.2306 55.3098 21.1117C56.8888 27.2016 56.2817 33.6524 53.5942 39.3407C50.9067 45.0291 46.3091 49.5945 40.602 52.242C29.71 57.6035 15.7509 56.2993 7.51546 44.8036C5.3351 41.7455 3.84152 38.2523 3.13706 34.5633C2.43259 30.8742 2.53388 27.0764 3.43398 23.4302C4.23291 19.7343 5.76987 16.2378 7.95273 13.1502C10.1356 10.0627 12.9194 7.44769 16.1373 5.46198C20.9069 2.62922 26.4626 1.40966 31.9802 1.98427C37.5299 2.59179 42.8288 4.62153 47.3642 7.87706C47.5153 7.98095 47.7011 8.02144 47.8818 7.98983C48.0624 7.95822 48.2234 7.85704 48.3302 7.708C48.463 7.57257 48.5374 7.39048 48.5374 7.20084C48.5374 7.01119 48.463 6.82911 48.3302 6.69367C43.5871 3.18938 38.0241 0.960842 32.1734 0.22127C26.258 -0.533184 20.2577 0.653333 15.0746 3.60238C11.5216 5.68902 8.43174 8.47876 5.99414 11.8009C3.55655 15.123 1.82251 18.9075 0.898153 22.923C-0.132953 26.9358 -0.278206 31.1249 0.472484 35.1995C1.22317 39.2741 2.85181 43.1364 5.24529 46.5183C14.4226 59.125 29.8066 60.5982 41.6163 54.6329C47.7499 51.6891 52.6524 46.6813 55.465 40.4865C58.2776 34.2916 58.8211 27.3047 57.0004 20.7494Z" fill="#163055"/>
<path fill-rule="evenodd" clip-rule="evenodd" d="M13.7704 20.2181C16.4753 20.2181 20.4843 20.363 24.9281 20.4355H29.7582C31.3522 20.4355 32.9703 20.4355 34.5884 20.2906C38.7423 20.1215 42.6789 19.8559 45.8185 19.6143C45.9263 19.6112 46.0325 19.5869 46.1309 19.5427C46.2294 19.4985 46.3181 19.4354 46.3921 19.3569C46.4662 19.2784 46.524 19.186 46.5623 19.0852C46.6006 18.9843 46.6187 18.8769 46.6155 18.7691C46.6157 18.6602 46.5936 18.5525 46.5505 18.4525C46.5075 18.3525 46.4444 18.2624 46.3652 18.1877C46.286 18.1131 46.1924 18.0554 46.09 18.0183C45.9877 17.9812 45.8788 17.9655 45.7702 17.9721C42.5581 17.9721 38.525 17.7306 34.2503 17.6823C31.6903 17.6823 29.082 17.6823 26.5703 17.6823C21.4504 17.8513 16.741 18.3344 13.7221 18.7208C13.6269 18.7269 13.5338 18.7518 13.4483 18.794C13.3627 18.8362 13.2863 18.8949 13.2235 18.9667C13.1606 19.0385 13.1126 19.122 13.0821 19.2124C13.0517 19.3028 13.0393 19.3984 13.0459 19.4936C13.0519 19.6838 13.1302 19.8646 13.2648 19.9992C13.3994 20.1338 13.5802 20.2121 13.7704 20.2181Z" fill="#163055"/>
<path fill-rule="evenodd" clip-rule="evenodd" d="M13.7463 30.458C16.4512 30.458 20.4602 30.6029 24.9281 30.6754C26.4737 30.6754 28.0918 30.6754 29.7582 30.6754C31.4246 30.6754 32.9944 30.6754 34.5884 30.5305C38.7182 30.3614 42.6789 30.0958 45.8185 29.8543C46.0363 29.8543 46.2451 29.7678 46.3991 29.6138C46.5531 29.4598 46.6396 29.2509 46.6396 29.0331C46.6396 28.8154 46.5531 28.6065 46.3991 28.4525C46.2451 28.2985 46.0363 28.212 45.8185 28.212C42.5823 28.212 38.5732 27.9705 34.2986 27.9222C31.7386 27.9222 29.1303 27.9222 26.6186 27.9222C21.4745 28.0913 16.7893 28.5743 13.7704 28.9607C13.5783 28.9607 13.394 29.037 13.2581 29.1729C13.1222 29.3088 13.0459 29.4931 13.0459 29.6852C13.0459 29.8774 13.1222 30.0617 13.2581 30.1975C13.394 30.3334 13.5783 30.4097 13.7704 30.4097L13.7463 30.458Z" fill="#163055"/>
<path fill-rule="evenodd" clip-rule="evenodd" d="M14.0846 39.6112C16.7654 39.6112 20.7985 39.7561 25.2423 39.8527H30.0724L34.9026 39.7319C39.0323 39.5629 42.9689 39.2731 46.1085 39.0315C46.2174 39.0317 46.3251 39.0097 46.4251 38.9666C46.5251 38.9236 46.6152 38.8605 46.6899 38.7813C46.7645 38.7021 46.8222 38.6085 46.8593 38.5061C46.8964 38.4038 46.9121 38.2949 46.9055 38.1863C46.9024 38.0784 46.878 37.9723 46.8338 37.8738C46.7897 37.7754 46.7265 37.6866 46.648 37.6126C46.5695 37.5386 46.4772 37.4808 46.3763 37.4425C46.2755 37.4041 46.1681 37.3861 46.0602 37.3893C42.8482 37.3893 38.815 37.1719 34.5403 37.0995C31.9803 37.0995 29.372 37.0995 26.8604 37.0995C21.7404 37.2927 17.031 37.7516 14.0122 38.138C13.9169 38.1441 13.8239 38.169 13.7383 38.2112C13.6527 38.2534 13.5763 38.3121 13.5135 38.3839C13.4507 38.4557 13.4026 38.5392 13.3722 38.6296C13.3417 38.7201 13.3294 38.8156 13.3359 38.9108C13.3482 39.1009 13.4325 39.2791 13.5716 39.4092C13.7107 39.5394 13.8941 39.6116 14.0846 39.6112Z" fill="#163055"/>
</svg>
