<svg width="448" height="408" viewBox="0 0 448 408" fill="none" xmlns="http://www.w3.org/2000/svg">
<path d="M236.704 135.159C238.297 135.459 239.875 134.592 240.49 133.109C242.857 129.955 241.168 124.435 237.745 125.57C234.637 126.596 232.554 134.245 236.704 135.175V135.159Z" fill="#173156"/>
<path d="M273.401 140.979C274.995 141.278 276.572 140.427 277.188 138.928C279.554 135.774 277.866 130.254 274.442 131.39C271.334 132.431 269.252 140.08 273.401 140.994V140.979Z" fill="#173156"/>
<path d="M246.99 109.121C244.229 108.143 238.076 108.096 237.051 111.518C236.704 112.386 236.988 113.363 237.729 113.915C239.181 114.814 240.79 113.395 242.525 113.568C244.261 113.742 245.618 115.619 247.322 115.966C248.6 116.344 249.941 115.619 250.303 114.341C250.382 114.089 250.414 113.836 250.398 113.568C250.177 111.565 248.852 109.846 246.974 109.105L246.99 109.121Z" fill="#173156"/>
<path d="M288.153 120.082C286.102 115.287 278.544 112.196 275.121 117.338C273.748 119.388 277.046 121.596 278.544 120.082C279.57 119.057 281.29 119.735 282.331 120.76C283.372 121.785 283.356 123.851 284.382 124.86C287.001 127.494 289.857 125.239 288.137 120.082H288.153Z" fill="#173156"/>
<path d="M253.853 128.645C254.027 127.888 253.538 127.131 252.78 126.958C252.039 126.8 251.313 127.242 251.108 127.951C249.357 132.399 246.643 144.069 246.312 145.426C245.981 146.782 245.633 148.517 246.99 149.542C250.24 150.362 253.585 150.819 256.93 150.914C257.971 150.993 258.886 150.22 258.981 149.179C259.06 148.154 258.302 147.239 257.277 147.145C255.904 146.782 249.736 146.12 249.736 146.12C250.414 146.12 253.159 132.068 253.853 128.629V128.645Z" fill="#173156"/>
<path d="M268.258 162.932C257.545 165.077 251.124 167.001 240.143 164.982C239.37 164.825 238.628 165.329 238.471 166.102C238.329 166.812 238.755 167.521 239.449 167.726C242.573 168.736 245.791 169.43 249.057 169.777C250.161 177.441 258.429 187.156 265.86 184.176C268.195 183.277 270.151 181.573 271.35 179.381C273.259 175.77 274.3 171.78 274.442 167.711C274.711 165.187 272.896 162.932 270.388 162.664C269.678 162.585 268.952 162.664 268.274 162.932H268.258ZM267.232 178.009C264.014 182.031 258.965 178.877 256.251 174.587C255.289 172.947 254.484 171.228 253.853 169.445C259.391 169.051 264.897 168.247 270.309 167.048C269.867 170.849 268.826 174.555 267.216 178.025L267.232 178.009Z" fill="#173156"/>
<path d="M69.0089 135.853C70.35 134.102 71.3913 132.131 72.1012 130.033C73.1267 127.983 73.8209 125.933 74.8464 123.867C80.1002 111.25 83.4923 99.3268 81.0153 85.8109C80.6366 83.7607 77.5917 84.7858 77.923 86.836C81.1099 105.982 69.4507 124.576 66.2637 134.15C65.9166 135.522 67.9519 137.193 69.0089 135.853Z" fill="#173156"/>
<path d="M0.773024 88.5397C7.49406 92.6876 10.8072 102.04 15.1775 112.196C21.867 127.715 23.4762 133.645 29.582 140.648C32.3903 143.881 39.0325 149.527 42.9609 147.839C43.734 147.303 44.018 146.294 43.6551 145.442C43.0398 144.496 42.0301 143.865 40.9099 143.723C37.9123 142.335 35.2302 140.348 33.0214 137.888C27.8781 132.494 25.6535 124.924 18.6169 109.784C14.8304 101.63 11.4699 90.6215 2.49273 85.7956C0.441706 85.1016 -0.930901 87.4831 0.773024 88.5397Z" fill="#173156"/>
<path d="M26.4897 102.938C26.963 103.743 28.0043 104.026 28.809 103.553C29.4874 103.159 29.8029 102.323 29.5663 101.566C28.6985 98.3962 27.3101 95.3839 25.4642 92.6555C20.526 84.0602 13.5841 76.7581 5.238 71.3959C4.38603 70.9386 3.34475 71.2698 2.88721 72.1056C2.52434 72.768 2.65055 73.5881 3.1712 74.1401C20.8415 88.2711 22.3088 96.1251 26.474 102.938H26.4897Z" fill="#173156"/>
<path d="M30.2604 76.884C38.4487 91.2831 37.7072 94.4215 39.5216 97.4496C40.1053 98.4116 41.3517 98.7271 42.3141 98.1435C42.9294 97.7808 43.2923 97.1184 43.3081 96.4087C43.103 94.3742 42.5192 92.4028 41.5884 90.5734C40.9099 88.8543 40.2631 87.1353 39.5373 85.432C34.8989 74.5183 28.0043 64.7087 19.3111 56.6338C18.7431 56.0661 17.8281 56.0661 17.2601 56.6338C16.6921 57.2016 16.6921 58.1163 17.2601 58.6841C22.0879 64.3775 26.4424 70.4494 30.2762 76.8525L30.2604 76.884Z" fill="#173156"/>
<path d="M51.875 94.0277C52.5534 95.3998 54.9358 95.731 55.2986 94.0277C55.7404 90.8103 55.5038 87.5457 54.6045 84.423C53.2319 75.0392 50.818 65.8446 47.4101 56.997C47.1261 56.1453 46.2111 55.688 45.3591 55.9719C44.5071 56.2557 44.0496 57.1705 44.3336 58.0221C50.0291 71.8376 50.7075 89.3436 51.875 94.0119V94.0277Z" fill="#173156"/>
<path d="M495.274 132.777C493.681 122.778 484.861 116.06 478.472 115.981C448.826 115.666 435.747 115.634 330.672 115.634C330.388 109.957 328.495 104.484 325.181 99.863C320.464 93.7122 313.617 89.5644 305.981 88.2081C302.81 80.0859 298.66 72.3581 293.627 65.2453C278.607 42.2194 255.762 36.0213 238.076 43.9857C217.329 53.3223 213.953 78.7769 226.086 91.9774C234.779 101.456 248.726 103.963 261.063 103.963C269.457 103.963 277.819 103.27 286.102 101.913C289.793 112.874 297.193 122.195 307.022 128.314C305.476 137.036 300.017 153.17 305.649 157.112C309.073 159.51 318.76 145.032 325.529 151.971C332.818 159.431 319.36 169.114 314.895 169.461C313.522 170.486 303.583 209.567 303.236 217.453C296.041 219.85 263.793 229.123 254.879 231.174C252.134 229.123 242.888 219.503 240.821 217.453C241.168 215.734 241.168 201.682 241.168 198.937C244.939 199.284 248.71 199.237 252.149 199.616C254.895 199.931 255.573 195.152 252.828 194.474C245.286 193.102 237.335 194.663 229.856 192.077C221.873 189.317 219.57 185.185 219.57 179.728C219.57 163.989 225.675 130.901 234.653 107.733C235.315 106.014 232.27 104.657 231.56 106.361C225.092 121.659 220.374 137.651 217.503 154.005C216.004 162.269 215.073 170.628 214.758 179.034C214.489 191.73 224.745 197.076 237.398 198.228C237.051 200.972 236.372 215.024 236.372 216.743C236.372 220.165 249.751 232.514 251.124 233.539C241.516 245.888 233.296 259.246 224.713 272.62C222.662 258.568 220.453 244.469 217.519 230.795C216.572 226.316 215.799 221.537 214.426 217.09C214.079 215.371 211.003 215.718 211.334 217.437C213.385 233.208 216.572 248.617 218.875 264.057C219.585 268.851 220.185 273.661 220.926 278.456C220.99 279.67 222.015 280.616 223.23 280.553C223.971 280.522 224.634 280.112 225.029 279.481C234.1 265.523 242.525 251.03 252.796 238.003C252.796 240.826 266.917 278.329 271.318 286.688C271.886 287.698 273.164 288.06 274.19 287.492C274.411 287.366 274.6 287.209 274.758 287.035C301.39 261.044 297.919 260.161 325.166 230.811C365.634 240.006 414.985 250.572 441.427 294.574C450.767 310.834 456.825 328.766 459.255 347.36C460.707 358.841 460.833 370.465 459.602 381.978C458.892 390.179 456.731 399.957 456.51 401.518C441.758 401.518 364.608 402.196 340.596 402.543C343.436 389.516 349.163 336.935 371.456 294.558C372.481 292.839 369.736 291.136 368.71 292.839C356.909 315.202 347.758 339.033 340.943 375.117C339.002 384.154 337.74 393.317 337.156 402.543C282.631 402.89 227.08 403.237 172.207 402.543C175.078 379.596 183.945 298.422 185.917 281.878C186.264 280.159 182.809 279.481 182.493 281.531C179.969 297.286 174.952 337.408 174.258 341.871C141.804 341.871 116.64 338.449 90.2449 318.562C68.2201 301.734 52.8059 277.714 46.7001 250.683C42.9925 232.53 41.3832 213.999 41.9039 195.484C71.9908 182.819 59.6847 187.756 81.6779 180.059C83.1925 198.275 92.1381 212.233 106.369 223.257C125.964 238.428 145.764 242.245 169.477 238.334C182.888 235.511 195.983 231.379 208.573 225.985C210.656 225.007 209.251 221.474 206.853 222.2C178.612 230.937 149.866 247.008 111.512 221.522C96.6819 211.996 86.7897 196.461 84.4231 179.018C86.1428 178.671 87.5154 178.025 89.2194 177.646C90.2764 177.299 90.8602 176.164 90.5131 175.091C90.45 174.902 90.3553 174.713 90.2449 174.555C89.2194 165.313 85.7957 145.615 84.076 136.499C83.6816 134.449 82.7034 133.077 81.3308 133.408C64.2758 139.874 47.5679 147.192 31.2701 155.346C30.2446 155.693 30.5917 158.09 30.5917 158.09C30.1815 165.913 30.008 189.585 30.5917 197.171C30.8599 200.609 36.7606 197.171 37.7861 196.824C37.155 227.578 40.1684 259.83 55.6142 286.294C63.7394 299.889 74.1838 311.954 86.4742 321.937C86.4742 354.678 85.0384 350.861 86.4742 387.419V387.766C87.8468 396.329 92.643 405.256 100.879 406.281C108.294 406.281 143.761 408 248 408C303.22 408 454.096 406.454 474.685 406.281C484.53 406.312 492.955 399.2 494.564 389.485C494.58 377.483 497.231 297.791 495.274 132.777ZM84.1076 158.137C85.0858 163.973 85.8273 169.792 86.8528 175.612C69.0878 181.116 51.7803 187.992 35.0724 196.177C34.3624 183.734 34.0469 171.827 34.0469 159.494C49.824 152.302 65.6011 145.442 81.7095 139.275C81.9935 145.615 82.7981 151.924 84.1076 158.137ZM91.9961 388.507C91.0022 363.809 91.9961 333.923 91.9961 326.81C107.316 337.377 124.954 344.079 143.429 346.35C153.416 347.849 163.561 348.085 173.611 347.044C173.201 350.325 167.773 396.172 167.773 403.947L101.589 402.922C96.4453 401.897 92.6746 395.036 91.9961 388.523V388.507ZM280.264 62.4853C280.611 61.7914 281.637 61.7914 282.331 62.1384C284.287 63.0689 285.865 64.646 286.78 66.6016C287.474 68.3206 286.102 70.3867 284.382 69.3458C283.009 68.6676 282.662 67.2955 281.984 66.2546C280.958 65.2295 279.239 63.8574 280.264 62.4853ZM270.325 50.1365C275.499 52.2025 275.31 56.65 272.723 56.65C267.232 56.098 264.203 50.72 252.844 51.8556C245.902 51.6032 239.133 54.0635 233.99 58.716C233.422 59.2838 232.507 59.2838 231.923 58.716C231.355 58.1482 231.355 57.2335 231.923 56.65C240.143 46.0833 258.318 44.3958 270.325 50.1365ZM490.147 390.888C488.601 397.954 482.305 402.969 475.064 402.874H461.685C462.631 398.805 463.326 394.689 463.736 390.526C465.14 379.501 465.597 368.383 465.108 357.28C463.862 336.84 458.372 316.874 448.984 298.658C425.713 254.578 379.455 237.293 330.341 228.729C328.621 228.414 323.825 225.985 322.105 228.035C315.242 236.268 307.716 244.169 300.837 252.37C287.632 268.141 287.9 268.725 273.748 282.872C271.066 277.289 268.652 271.564 266.538 265.728C263.603 257.448 259.912 248.964 257.624 240.368C257.261 238.996 256.598 237.624 256.251 235.905C256.598 235.905 280.611 229.786 290.204 226.647C302.952 222.484 307.7 222.373 307.7 219.787C308.805 207.612 311.108 195.562 314.532 183.813C315.51 180.375 316.252 176.952 317.277 173.53C325.513 172.158 333.244 164.588 332.029 156.04C331.366 151.75 328.51 148.107 324.487 146.435C324.235 146.404 323.982 146.277 323.809 146.088C324.834 144.038 325.529 141.625 326.554 139.575C329.078 133.456 330.593 126.974 331.019 120.381C349.194 120.381 446.933 120.034 478.14 120.728C484.167 121.974 488.884 126.69 490.131 132.714C491.188 219.803 491.188 304.131 490.147 390.857V390.888Z" fill="#173156"/>
<path d="M121.136 120.76H211.681C213.101 120.666 214.174 119.436 214.079 118.016C213.985 116.739 212.975 115.713 211.681 115.619H121.136C119.843 115.587 118.77 116.612 118.738 117.906C118.738 117.937 118.738 117.985 118.738 118.016C118.675 119.42 119.732 120.618 121.136 120.76Z" fill="#173156"/>
</svg>
