<svg width="59" height="55" viewBox="0 0 59 55" fill="none" xmlns="http://www.w3.org/2000/svg">
<path fill-rule="evenodd" clip-rule="evenodd" d="M57.0004 19.671C56.4731 17.8211 55.7866 16.0143 54.9476 14.2682C54.1195 12.4764 53.0392 10.7962 51.7355 9.27235C51.5747 9.13253 51.3633 9.05482 51.1438 9.05482C50.9243 9.05482 50.7129 9.13253 50.5521 9.27235C50.4044 9.41915 50.3221 9.61321 50.3221 9.81489C50.3221 10.0166 50.4044 10.2106 50.5521 10.3574C51.734 11.7336 52.7091 13.2548 53.4502 14.8786C54.2385 16.5315 54.861 18.2493 55.3098 20.01C56.8888 25.7103 56.2817 31.7484 53.5942 37.0729C50.9067 42.3973 46.3091 46.6707 40.602 49.1488C29.71 54.1672 15.7509 52.9465 7.51546 42.1862C5.3351 39.3238 3.84152 36.0541 3.13706 32.6011C2.43259 29.148 2.53388 25.5932 3.43398 22.1802C4.23291 18.7208 5.76987 15.448 7.95273 12.5579C10.1356 9.66793 12.9194 7.22023 16.1373 5.36157C20.9069 2.71004 26.4626 1.5685 31.9802 2.10635C37.5299 2.675 42.8288 4.57488 47.3642 7.62214C47.5153 7.71938 47.7011 7.75728 47.8818 7.7277C48.0624 7.69811 48.2234 7.60339 48.3302 7.4639C48.463 7.33713 48.5374 7.16669 48.5374 6.98918C48.5374 6.81167 48.463 6.64123 48.3302 6.51446C43.5871 3.23436 38.0241 1.14839 32.1734 0.456137C26.258 -0.25005 20.2577 0.860559 15.0746 3.62093C11.5216 5.57408 8.43174 8.18534 5.99414 11.2949C3.55655 14.4045 1.82251 17.9469 0.898153 21.7055C-0.132953 25.4615 -0.278206 29.3827 0.472484 33.1966C1.22317 37.0105 2.85181 40.6257 5.24529 43.7912C14.4226 55.5914 29.8066 56.9703 41.6163 51.3867C47.7499 48.6313 52.6524 43.9438 55.465 38.1453C58.2776 32.3468 58.8211 25.8069 57.0004 19.671Z" fill="#163055"/>
<path fill-rule="evenodd" clip-rule="evenodd" d="M19.3066 38.6431C21.2193 36.8529 24.1565 34.2953 27.35 31.4021L30.7654 28.2052C31.8925 27.1502 33.0367 26.0792 34.0784 24.9123C36.8961 22.0511 39.4918 19.2698 41.5411 17.0319C41.6151 16.9585 41.673 16.8721 41.7114 16.7777C41.7497 16.6833 41.7678 16.5828 41.7647 16.4818C41.7615 16.3809 41.7371 16.2815 41.6929 16.1894C41.6487 16.0973 41.5855 16.0142 41.5069 15.945C41.4301 15.8728 41.3383 15.8161 41.2372 15.7784C41.136 15.7407 41.0277 15.7228 40.9189 15.7258C40.8101 15.7288 40.7031 15.7526 40.6045 15.7958C40.506 15.839 40.4179 15.9006 40.3457 15.9769C38.0744 18.1029 35.0518 20.6125 31.995 23.4098C30.1848 25.1042 28.3404 26.8305 26.5644 28.4929C23.0636 31.9935 20.0751 35.4302 18.2137 37.6841C18.1507 37.7511 18.1025 37.8292 18.0718 37.9138C18.0411 37.9984 18.0286 38.0878 18.035 38.1769C18.0413 38.266 18.0664 38.3531 18.1088 38.4331C18.1512 38.5131 18.2101 38.5845 18.282 38.6431C18.4208 38.765 18.604 38.8329 18.7943 38.8329C18.9846 38.8329 19.1678 38.765 19.3066 38.6431Z" fill="#163055"/>
<path fill-rule="evenodd" clip-rule="evenodd" d="M18.6411 17.7869C20.5537 19.5772 23.2861 22.3265 26.3941 25.3316C27.4871 26.3547 28.6312 27.4256 29.8096 28.5286C30.9879 29.6315 32.0979 30.6705 33.3275 31.6296C36.3672 34.2511 39.3557 36.6967 41.7465 38.6149C41.9005 38.759 42.1094 38.84 42.3271 38.84C42.5449 38.84 42.7538 38.759 42.9078 38.6149C43.0617 38.4707 43.1483 38.2752 43.1483 38.0714C43.1483 37.8676 43.0617 37.6721 42.9078 37.5279C40.6194 35.386 37.9554 32.5727 34.9669 29.7114C33.1567 28.0171 31.3124 26.2907 29.5363 24.6283C25.7794 21.3355 22.1248 18.5542 19.717 16.8118C19.5811 16.6847 19.3968 16.6132 19.2046 16.6132C19.0125 16.6132 18.8282 16.6847 18.6923 16.8118C18.5565 16.939 18.4801 17.1115 18.4801 17.2914C18.4801 17.4712 18.5565 17.6437 18.6923 17.7709L18.6411 17.7869Z" fill="#163055"/>
</svg>
