<svg width="90" height="38" viewBox="0 0 90 38" fill="none" xmlns="http://www.w3.org/2000/svg">
<path d="M77.7815 16.336C76.2602 16.6902 72.2423 16.8869 72.2423 16.8869L71.7482 18.4872C71.7482 18.4872 73.7376 18.3167 75.194 18.461C75.194 18.461 75.6621 18.4216 75.7141 18.9857C75.7401 19.5628 75.6751 20.1662 75.6751 20.1662C75.6751 20.1662 75.6361 20.5204 75.155 20.6122C74.5958 20.704 70.825 20.8745 70.825 20.8745L70.2139 22.947C70.2139 22.947 69.9929 23.4192 70.5 23.2881C70.9681 23.1569 74.9209 22.3961 75.441 22.501C75.9871 22.6322 76.6113 23.393 76.4292 24.0751C76.2212 24.9015 72.2683 27.4462 69.8758 27.2757C69.8758 27.2757 68.6146 27.3544 67.5613 25.636C66.5471 23.9964 67.9124 20.9139 67.9124 20.9139C67.9124 20.9139 67.3013 19.471 67.7564 18.9463C67.7564 18.9463 68.0164 18.7233 68.7966 18.6577L69.7718 16.6377C69.7718 16.6377 68.6666 16.7033 68.0164 15.89C67.4183 15.103 67.3663 14.7619 67.8344 14.5521C68.3285 14.2897 72.9055 13.4633 76.0521 13.5683C76.0521 13.5683 77.1574 13.4371 78.1326 15.3653C78.1326 15.3653 78.5747 16.1524 77.7945 16.336M65.923 24.1013C65.5329 25.0589 64.4537 26.0689 63.1534 25.4524C61.8271 24.8228 59.7337 20.5204 59.7337 20.5204C59.7337 20.5204 58.9535 18.9201 58.7975 18.9725C58.7975 18.9725 58.6284 18.6577 58.5374 20.4154C58.4074 22.16 58.5634 25.5573 57.8483 26.0951C57.1981 26.6198 56.418 26.3968 55.9759 25.7803C55.6118 25.1638 55.4558 23.6816 55.6638 21.0975C55.8979 18.5134 56.483 15.7588 57.2241 14.9062C58.0043 14.0405 58.6284 14.6701 58.8625 14.9062C58.8625 14.9062 59.8637 15.8244 61.5541 18.5397L61.8401 19.0381C61.8401 19.0381 63.3744 21.6222 63.5305 21.6091C63.5305 21.6091 63.6605 21.7403 63.7645 21.6353C63.9206 21.596 63.8686 20.7565 63.8686 20.7565C63.8686 20.7565 63.5825 17.9625 62.1522 13.2404C62.1522 13.2404 61.9441 12.637 62.0872 12.0598C62.2172 11.5351 62.7763 11.7975 62.7763 11.7975C62.7763 11.7975 64.9348 12.8468 65.988 16.3885C67.0282 19.9301 66.3261 23.1438 65.936 24.1013M55.3387 15.0112C55.1307 15.3784 55.0397 15.89 54.1425 16.0343C54.1425 16.0343 45.4306 16.6508 45.0015 17.2673C45.0015 17.2673 44.7155 17.6346 45.1836 17.7264C45.6777 17.8314 47.6541 18.0937 48.5903 18.1462C49.6045 18.1462 53.0112 18.1724 54.2595 19.7202C54.2595 19.7202 54.9747 20.4548 54.9487 22.1207C54.9226 23.8259 54.6236 24.4293 53.9604 25.0458C53.2713 25.6229 47.368 28.2988 43.5582 24.2063C43.5582 24.2063 41.8159 22.2387 44.1694 20.7434C44.1694 20.7434 45.8597 19.694 50.1896 20.9139C50.1896 20.9139 51.4899 21.3861 51.4379 21.8714C51.3599 22.3961 50.3587 22.9208 48.9024 22.8946C47.4981 22.8552 46.4578 22.1731 46.6659 22.2912C46.8609 22.3568 45.1446 21.4517 44.6115 22.0682C44.0913 22.6453 44.2214 22.9864 44.7415 23.3405C46.0418 24.1013 51.1518 23.8259 52.6732 22.1075C52.6732 22.1075 53.2843 21.4123 52.3611 20.8483C51.4509 20.3236 48.7983 19.9957 47.7711 19.9563C46.7959 19.9039 43.1421 19.9563 42.596 18.9988C42.596 18.9988 42.0759 18.3167 42.648 16.4541C43.2462 14.4865 47.4981 13.7257 49.3445 13.5683C49.3445 13.5683 54.4155 13.3584 55.3647 14.4078C55.3647 14.4078 55.4948 14.6439 55.3387 14.9981M40.9577 26.5411C40.3465 27.0002 39.0463 26.8035 38.6692 26.2788C38.3051 25.8197 38.1751 24.0095 38.2401 21.1631C38.3311 18.2511 38.3701 14.6832 39.0203 14.1061C39.6704 13.542 40.0605 14.0405 40.3205 14.4209C40.5806 14.8144 40.9187 15.2473 40.9707 16.1524C41.0487 17.0706 41.2697 21.7927 41.2697 21.7927C41.2697 21.7927 41.5558 26.0951 40.9707 26.5411M42.258 11.1941C40.4636 11.8106 39.2413 11.6138 38.2011 11.1547C37.746 11.9811 37.4729 12.2303 37.1349 12.2828C36.6148 12.3353 36.1597 11.4958 36.0946 11.2334C35.9906 11.0367 35.7436 10.6825 36.0426 9.88237C35.0284 8.96417 34.9504 7.73116 35.1324 6.90478C35.3665 5.93412 37.0829 2.28755 42.284 1.85469C42.284 1.85469 44.8325 1.67105 45.2746 3.03523H45.3526C45.3526 3.03523 47.8231 3.03523 47.7711 5.26514C47.7711 7.49505 45.0405 10.2759 42.258 11.2334M44.5724 4.84539C42.9341 5.10774 40.4116 7.31141 39.2023 9.13469C41.0617 9.47574 44.3124 9.34457 45.7687 6.3801C45.7687 6.3801 46.4578 4.51747 44.5724 4.84539ZM37.3819 6.28828C36.8618 7.14089 36.8358 7.65246 37.0829 7.9935C37.694 7.07531 38.7732 5.63242 40.3986 4.50435C39.1503 4.63552 38.0971 5.16021 37.3819 6.28828ZM81.6823 26.4493C80.4861 29.4138 79.4719 32.4176 78.8867 36.9168C78.8867 36.9168 78.7567 37.7956 78.0416 37.507C77.3264 37.2447 76.1562 36.0642 75.8961 34.3983C75.6361 32.2208 76.5983 28.548 78.5617 24.3243C77.9896 23.4061 77.5865 22.0419 77.9115 20.1268C77.9115 20.1268 78.4316 16.5852 81.9424 13.3846C81.9424 13.3846 82.3585 13.0305 82.5925 13.1485C82.8786 13.2797 82.7616 14.4078 82.5275 14.9849C82.3195 15.5359 80.7591 18.2642 80.7591 18.2642C80.7591 18.2642 79.7839 20.1268 80.057 21.5829C81.9034 18.7233 86.1033 12.9255 88.7038 14.7619C90.3552 15.9425 90.3552 19.7465 89.1199 21.9501C88.1447 23.6947 85.3881 27.3019 81.7083 26.4624M87.1175 17.5428C86.1553 18.5921 84.4389 20.5859 83.0866 23.2881C84.5169 23.1307 85.9082 22.3305 86.3373 21.9239C87.0265 21.3074 88.6128 19.6415 88.3658 17.4378C88.3658 17.4378 88.2097 16.2835 87.1175 17.5428ZM28.8651 27.9971C24.2621 29.4138 19.9192 28.7579 17.5527 28.1283C17.4877 29.099 17.3837 29.5056 17.2276 29.663C17.0456 29.8729 15.5373 30.7386 14.7051 29.5056C14.341 28.9153 14.159 27.8528 14.055 26.8822C8.72382 24.4424 6.2533 20.8483 6.17528 20.7171C6.04525 20.5859 4.836 19.3136 6.04525 17.7395C7.17649 16.3229 10.9213 14.8931 14.276 14.3291C14.406 11.4433 14.7181 9.2134 15.1212 8.22961C15.6023 7.04907 16.2134 8.09844 16.7595 8.88547C17.2016 9.47574 17.4747 12.0073 17.5007 14.0274C19.6852 13.9224 21.0114 14.0799 23.443 14.5521C26.6416 15.103 28.7741 16.7557 28.6051 18.6184C28.449 20.4548 26.7847 21.2156 26.1345 21.268C25.4844 21.3205 24.4442 20.8352 24.4442 20.8352C23.716 20.4941 24.3792 20.1793 25.2243 19.812C26.1605 19.3529 25.9525 18.8938 25.9525 18.8938C25.6144 17.8445 21.4665 17.1493 17.3447 17.1493C17.3447 19.4448 17.4357 23.2487 17.5007 25.4655C20.3873 26.0164 22.5458 25.8984 22.5458 25.8984C22.5458 25.8984 33.078 25.5967 33.3771 18.8151C33.7021 12.0205 22.8448 5.51437 14.8481 3.4681C6.86443 1.35624 2.33947 2.85159 1.94938 3.04835C1.52029 3.25822 1.91037 3.33692 1.91037 3.33692C1.91037 3.33692 2.33947 3.40251 3.11963 3.66485C3.8998 3.9272 3.27567 4.32071 3.27567 4.32071C1.91037 4.79293 0.389051 4.51747 0.0899876 3.88784C-0.209076 3.27134 0.285029 2.7073 0.870154 1.88092C1.41627 1.02831 2.0404 1.05454 2.0404 1.05454C11.9225 -2.4215 23.9891 3.80914 23.9891 3.80914C35.2755 9.55444 37.1999 16.3098 36.9918 18.9332C36.8098 21.5173 35.8216 25.8853 28.8651 28.0102M7.15049 18.6184C6.03225 19.1431 6.81242 19.9826 6.81242 19.9826C8.91887 22.2518 11.4934 23.6816 13.9639 24.5736C14.25 20.6384 14.224 19.2349 14.224 17.2542C10.4012 17.5165 8.19071 18.1462 7.15049 18.6184Z" fill="#163055"/>
</svg>
