<svg width="83" height="24" viewBox="0 0 83 24" fill="none" xmlns="http://www.w3.org/2000/svg">
<path d="M83 4.63989C81.8709 4.64535 80.7403 4.68764 79.6126 4.63853C79.0605 4.61398 78.9899 4.80087 78.9913 5.2797C79.0107 9.48274 78.9885 13.6858 79.0162 17.8888C79.0203 18.5218 78.8529 18.7169 78.2039 18.6855C77.0776 18.6309 75.9457 18.6459 74.8165 18.6828C74.3585 18.6978 74.2561 18.5695 74.2575 18.1303C74.2741 13.859 74.2603 9.58778 74.2782 5.31653C74.281 4.81451 74.1952 4.60579 73.6223 4.63853C72.68 4.6931 71.7321 4.63307 70.7884 4.66309C70.3858 4.67536 70.3498 4.50075 70.3539 4.18017C70.3691 3.18022 70.3885 2.18028 70.347 1.1817C70.3276 0.723332 70.5061 0.687863 70.8977 0.689228C74.9314 0.698777 78.9636 0.689228 82.9972 0.685135V4.63989H83Z" fill="#163055"/>
<path d="M0.00138375 6.14049C1.2772 6.34239 2.5627 6.18278 3.84267 6.22507C4.89847 6.25918 4.74902 6.08729 4.75041 7.13089C4.75594 10.7405 4.7338 14.3501 4.77116 17.9584C4.77808 18.5873 4.58574 18.6978 4.00595 18.6814C2.67202 18.6432 1.33532 18.68 0 18.6855V6.14049H0.00138375Z" fill="#163055"/>
<path d="M0.00138375 0.686499C1.40727 0.690592 2.81178 0.711054 4.21767 0.690592C4.61203 0.685135 4.78639 0.728789 4.76701 1.18443C4.7255 2.15981 4.73104 3.13793 4.76563 4.11332C4.78085 4.54986 4.63002 4.63717 4.21767 4.63171C2.81316 4.61261 1.40727 4.63444 0.00138375 4.63989V0.686499Z" fill="#163055"/>
<path d="M59.0432 15.23C58.1852 16.0199 57.4505 16.9421 56.4597 17.5901C53.1442 19.7605 48.8657 19.8737 45.4769 17.4987C44.7172 16.9666 44.0987 16.2941 43.4372 15.6625C42.8215 14.8167 42.268 13.9436 41.9041 12.9532C41.3672 11.4922 41.1264 10.0052 41.3395 8.45687C41.5595 6.44607 42.3496 4.68764 43.732 3.18704C45.8976 0.836559 48.636 -0.190669 51.7923 0.0289641C54.5667 0.222678 56.9219 1.38496 58.6626 3.60039C58.7664 3.73135 58.8743 3.83639 59.0432 3.86777C59.2992 4.64672 59.8665 5.26469 60.1488 6.04227C60.8185 7.88392 60.9873 9.74466 60.5847 11.6559C60.3134 12.9464 59.6838 14.0909 59.0418 15.2287L59.0432 15.23ZM46.065 9.59187C45.8408 12.3066 48.4741 14.6175 50.9911 14.5848C53.6811 14.5507 56.0778 12.3789 56.0985 9.63007C56.1207 6.738 53.7254 4.64672 51.0188 4.61807C48.2721 4.58942 45.8602 6.9781 46.0636 9.59324L46.065 9.59187Z" fill="#163055"/>
<path d="M19.1096 9.686C19.1096 6.89216 19.1248 4.09695 19.0957 1.30311C19.0902 0.787449 19.2272 0.664672 19.7406 0.670129C22.8291 0.700141 25.9162 0.701505 29.0048 0.691956C29.3867 0.691956 29.5333 0.775171 29.5237 1.17351C29.4988 2.15027 29.4974 3.12702 29.5237 4.10377C29.5361 4.53212 29.377 4.63853 28.9632 4.63171C27.4425 4.60988 25.9204 4.64126 24.3996 4.61261C23.9416 4.60443 23.8074 4.73675 23.8337 5.18011C23.871 5.83628 23.8683 6.49791 23.8337 7.15544C23.8143 7.5456 23.9347 7.64246 24.3263 7.63564C25.7778 7.60972 27.2308 7.64382 28.6823 7.61517C29.1127 7.60699 29.2289 7.72022 29.2137 8.14175C29.1805 9.11714 29.1722 10.0966 29.2165 11.072C29.2386 11.5577 29.0435 11.6149 28.6284 11.6081C27.2003 11.5863 25.7709 11.6136 24.3415 11.5918C23.9555 11.5863 23.8157 11.6791 23.8337 12.0774C23.8655 12.78 23.8793 13.488 23.8295 14.1892C23.7949 14.6857 24.0191 14.7307 24.4273 14.7253C25.9481 14.7062 27.4702 14.7348 28.9909 14.7075C29.4199 14.6994 29.5375 14.8153 29.5237 15.2355C29.4904 16.2109 29.5001 17.189 29.5195 18.1657C29.5264 18.5382 29.4226 18.68 29.0144 18.6773C25.8567 18.6623 22.699 18.6582 19.5413 18.68C19.0667 18.6828 19.1026 18.4509 19.104 18.1398C19.1096 15.3228 19.1068 12.5058 19.1068 9.68873L19.1096 9.686Z" fill="#163055"/>
<path d="M41.3395 8.45824C41.1264 10.0052 41.3672 11.4935 41.9041 12.9546C42.268 13.9436 42.8215 14.818 43.4372 15.6638C43.0512 15.8671 42.9723 16.3023 42.7385 16.616C41.9719 17.6378 40.9783 18.2722 39.7758 18.6732C38.6785 19.0388 37.566 19.3007 36.4092 19.2244C34.3266 19.0866 32.4157 18.4086 30.6528 17.3145C30.4342 17.1794 30.3691 17.013 30.5227 16.747C31.0942 15.7552 31.656 14.758 32.1791 13.7417C32.3839 13.3434 32.4946 13.3065 32.8488 13.6162C34.0485 14.6625 35.4074 15.3364 37.0789 15.1414C38.2703 15.0022 39.0438 14.3679 38.857 13.0514C38.7367 12.1988 37.9258 11.9942 37.2477 11.7364C36.0702 11.2903 34.8262 11.0461 33.6708 10.5195C32.1971 9.84834 31.317 8.72016 31.1523 7.17864C30.9337 5.13373 31.3544 3.20614 33.0107 1.78057C34.5785 0.430033 36.4479 0.101266 38.4876 0.34409C39.7606 0.495514 40.9797 0.795634 42.1739 1.23081C43.1342 1.5814 43.1743 1.6578 42.7343 2.52132C42.315 3.34529 41.8791 4.16243 41.4806 4.99595C41.3215 5.32881 41.2399 5.35336 40.9174 5.11599C40.0111 4.44755 38.9691 4.16243 37.8261 4.22518C37.0291 4.26884 36.268 4.72038 36.1158 5.29334C35.9553 5.89631 36.3649 6.54702 37.1606 6.98083C38.1223 7.50604 39.2265 7.62063 40.2353 8.02034C40.5992 8.16494 40.923 8.43641 41.3381 8.45687L41.3395 8.45824Z" fill="#163055"/>
<path d="M9.4593 18.6678C9.60045 18.4195 9.56309 18.1985 9.56309 17.9829C9.56447 13.7826 9.55063 9.58096 9.57969 5.38065C9.58384 4.78586 9.34722 4.64535 8.83247 4.65217C7.93441 4.66309 7.03498 4.64535 6.13692 4.66036C5.81451 4.66581 5.63601 4.63444 5.64846 4.2361C5.67752 3.1925 5.6706 2.14754 5.65123 1.10257C5.64431 0.758801 5.77992 0.69332 6.09541 0.694684C10.0114 0.702869 13.9274 0.704234 17.8434 0.69332C18.1935 0.69332 18.2599 0.814732 18.2544 1.1244C18.2378 2.14617 18.2267 3.16794 18.2586 4.18972C18.271 4.60715 18.105 4.67264 17.7383 4.66309C16.8181 4.64126 15.8937 4.68491 14.9749 4.64399C14.4505 4.6208 14.2831 4.7463 14.2858 5.30016C14.3121 9.47864 14.2789 13.6558 14.3204 17.8343C14.3273 18.5614 14.1018 18.7101 13.4251 18.6828C12.1175 18.6309 10.8057 18.6678 9.46207 18.6678H9.4593Z" fill="#163055"/>
<path d="M59.0432 15.23C59.6852 14.0923 60.3148 12.9478 60.586 11.6572C60.9873 9.74739 60.8199 7.88528 60.1502 6.04364C59.8679 5.26605 59.2992 4.64808 59.0446 3.86913C59.0473 2.96195 59.0681 2.05341 59.0473 1.14623C59.039 0.781992 59.1594 0.691956 59.5178 0.69332C62.7184 0.706962 65.9204 0.70969 69.121 0.691956C69.5043 0.689228 69.5776 0.807911 69.5721 1.14896C69.5527 2.14754 69.5472 3.14748 69.5749 4.1447C69.5859 4.53076 69.4711 4.63853 69.0809 4.63307C67.5145 4.61125 65.9481 4.64126 64.3831 4.61398C63.9306 4.60579 63.7867 4.72993 63.8143 5.17875C63.8531 5.83492 63.8489 6.49655 63.8143 7.15272C63.7936 7.5456 63.925 7.64246 64.3111 7.637C65.6921 7.61517 67.0744 7.64791 68.4568 7.6179C68.9217 7.60699 69.038 7.75296 69.0241 8.19086C68.9923 9.16625 68.9979 10.143 69.0228 11.1184C69.0324 11.499 68.9259 11.6177 68.5274 11.6109C67.1464 11.5863 65.764 11.6218 64.3831 11.589C63.9153 11.5781 63.8116 11.7241 63.8171 12.1593C63.8392 14.0882 63.8005 16.0185 63.842 17.9475C63.8558 18.5682 63.6455 18.7223 63.0547 18.6978C61.9283 18.6514 60.7978 18.65 59.6714 18.68C59.2009 18.6923 59.0279 18.5873 59.0487 18.0907C59.0874 17.1385 59.0542 16.185 59.0501 15.2314L59.0432 15.23Z" fill="#163055"/>
<path d="M44.9234 22.9745C45.7592 22.4206 46.6531 22.3456 47.5082 22.2474C49.3445 22.0346 51.1918 21.8545 53.0418 22.0987C54.1793 22.2487 55.3333 22.3006 56.4473 22.6225C56.6949 22.6935 56.915 22.8053 56.9592 23.01C57.0243 23.3019 56.6908 23.3565 56.504 23.4192C55.3873 23.7984 54.2291 23.9499 53.0488 23.9581C51.6678 23.9676 50.2854 24.0331 48.9072 23.9785C47.7628 23.9321 46.6047 23.8476 45.5143 23.4438C45.315 23.3701 45.1628 23.1709 44.9234 22.9758V22.9745Z" fill="#163055"/>
</svg>
