<?xml version="1.0" encoding="utf-8"?>
<!-- Generator: Adobe Illustrator 27.3.1, SVG Export Plug-In . SVG Version: 6.00 Build 0)  -->
<svg version="1.1" id="Calque_1" xmlns="http://www.w3.org/2000/svg" xmlns:xlink="http://www.w3.org/1999/xlink" x="0px" y="0px"
	 viewBox="0 0 81 71" style="enable-background:new 0 0 81 71;" xml:space="preserve">
<style type="text/css">
	.st0{fill:#163055;}
</style>
<path class="st0" d="M0.7,56.7h11.1c0.3,0,0.5-0.2,0.5-0.5V45.1c0-0.2-0.2-0.5-0.5-0.5H0.7c-0.3,0-0.5,0.2-0.5,0.5v11.1
	C0.2,56.5,0.4,56.7,0.7,56.7z"/>
<polygon class="st0" points="0,63.8 2.3,63.8 2.3,70.9 3.4,70.9 3.4,63.8 5.7,63.8 5.7,62.8 0,62.8 "/>
<polygon class="st0" points="8,70.9 13.5,70.9 13.5,69.9 9.1,69.9 9.1,67.4 12.3,67.4 12.3,66.3 9.1,66.3 9.1,63.8 13.5,63.8 
	13.5,62.8 8,62.8 "/>
<path class="st0" d="M17.2,64.1c0.2-0.2,0.5-0.4,0.9-0.4h1.2c0.3,0,0.6,0.1,0.9,0.4c0.2,0.2,0.4,0.5,0.4,0.9h1
	c0-0.4-0.1-0.8-0.3-1.1c-0.2-0.4-0.5-0.6-0.8-0.8c-0.3-0.2-0.7-0.3-1.2-0.3h-1.2c-0.4,0-0.8,0.1-1.2,0.3c-0.3,0.2-0.6,0.5-0.8,0.8
	c-0.2,0.4-0.3,0.7-0.3,1.1v3.7c0,0.4,0.1,0.8,0.3,1.1c0.2,0.4,0.5,0.6,0.8,0.8c0.3,0.2,0.7,0.3,1.1,0.3h1.2c0.4,0,0.8-0.1,1.2-0.3
	c0.3-0.2,0.6-0.5,0.8-0.8c0.2-0.4,0.3-0.7,0.3-1.1h-1c0,0.3-0.1,0.6-0.4,0.9c-0.2,0.2-0.5,0.4-0.9,0.4h-1.2c-0.3,0-0.6-0.1-0.9-0.4
	c-0.2-0.2-0.4-0.5-0.4-0.9V65C16.8,64.7,16.9,64.4,17.2,64.1z"/>
<polygon class="st0" points="28.8,66.3 25.1,66.3 25.1,62.8 24,62.8 24,70.9 25.1,70.9 25.1,67.4 28.8,67.4 28.8,70.9 29.8,70.9 
	29.8,62.8 28.8,62.8 "/>
<polygon class="st0" points="38,69 33.3,62.8 32.5,62.8 32.5,70.9 33.5,70.9 33.5,64.7 38.3,70.9 39.1,70.9 39.1,62.8 38,62.8 "/>
<path class="st0" d="M46.7,63c-0.3-0.2-0.7-0.3-1.1-0.3h-1.8c-0.4,0-0.8,0.1-1.2,0.3c-0.3,0.2-0.6,0.5-0.8,0.8
	c-0.2,0.3-0.3,0.7-0.3,1.2l0,3.7c0,0.4,0.1,0.8,0.3,1.2c0.2,0.3,0.5,0.6,0.8,0.8c0.3,0.2,0.7,0.3,1.1,0.3h1.8c0.4,0,0.8-0.1,1.1-0.3
	c0.3-0.2,0.6-0.5,0.8-0.8c0.2-0.3,0.3-0.7,0.3-1.2V65c0-0.4-0.1-0.8-0.3-1.1C47.4,63.5,47.1,63.2,46.7,63z M46.9,68.7
	c0,0.3-0.1,0.6-0.4,0.9S45.9,70,45.6,70v0h-1.8c-0.3,0-0.6-0.1-0.9-0.4c-0.2-0.2-0.4-0.5-0.4-0.9V65c0-0.3,0.1-0.6,0.4-0.9
	c0.2-0.2,0.5-0.4,0.9-0.4h1.8c0.3,0,0.6,0.1,0.9,0.4c0.2,0.2,0.4,0.5,0.4,0.9V68.7z"/>
<polygon class="st0" points="51.4,62.8 50.3,62.8 50.3,70.9 55.3,70.9 55.3,69.9 51.4,69.9 "/>
<path class="st0" d="M62.5,63c-0.3-0.2-0.7-0.3-1.1-0.3h-1.8c-0.4,0-0.8,0.1-1.2,0.3c-0.3,0.2-0.6,0.5-0.8,0.8
	c-0.2,0.3-0.3,0.7-0.3,1.2l0,3.7c0,0.4,0.1,0.8,0.3,1.2c0.2,0.3,0.5,0.6,0.8,0.8c0.3,0.2,0.7,0.3,1.1,0.3h1.8c0.4,0,0.8-0.1,1.2-0.3
	c0.3-0.2,0.6-0.5,0.8-0.8c0.2-0.3,0.3-0.7,0.3-1.2V65c0-0.4-0.1-0.8-0.3-1.1C63.1,63.5,62.8,63.2,62.5,63z M62.6,68.7
	c0,0.3-0.1,0.6-0.4,0.9C62,69.8,61.7,70,61.3,70v0h-1.8c-0.3,0-0.6-0.1-0.9-0.4c-0.2-0.2-0.4-0.5-0.4-0.9V65c0-0.3,0.1-0.6,0.4-0.9
	c0.2-0.2,0.5-0.4,0.9-0.4h1.8c0.3,0,0.6,0.1,0.9,0.4c0.2,0.2,0.4,0.5,0.4,0.9V68.7z"/>
<path class="st0" d="M68.9,67.9h1.8v0.9c0,0.3-0.1,0.6-0.4,0.9S69.7,70,69.4,70h-1.2c-0.3,0-0.6-0.1-0.9-0.4
	c-0.2-0.2-0.4-0.5-0.4-0.9V65c0-0.3,0.1-0.6,0.4-0.9c0.2-0.2,0.5-0.4,0.9-0.4h1.2c0.4,0,0.7,0.1,0.9,0.3c0.2,0.2,0.4,0.6,0.4,1h1
	c0-0.5-0.1-0.9-0.3-1.2c-0.2-0.4-0.5-0.6-0.8-0.8c-0.3-0.2-0.7-0.3-1.2-0.3h-1.2c-0.4,0-0.8,0.1-1.2,0.3c-0.3,0.2-0.6,0.5-0.8,0.8
	c-0.2,0.4-0.3,0.7-0.3,1.1v3.7c0,0.4,0.1,0.8,0.3,1.1c0.2,0.4,0.5,0.6,0.8,0.8c0.3,0.2,0.7,0.3,1.1,0.3h1.2c0.4,0,0.8-0.1,1.2-0.3
	c0.3-0.2,0.6-0.5,0.8-0.8c0.2-0.4,0.3-0.7,0.3-1.1v-1.8h-2.8V67.9z"/>
<polygon class="st0" points="79.2,62.8 77,65.9 74.9,62.8 73.7,62.8 76.5,67 76.5,70.9 77.6,70.9 77.6,67 80.4,62.8 "/>
<g>
	<path class="st0" d="M34.7,43.9c-0.4,0.4-1.1,1.3-0.7,2.2c0.4,0.8,1.3,1.6,2.8,1.4c1.2-0.2,1.9-0.9,2.3-1.3
		c-1.1-1.1-2.4-2.4-3.2-3.2C35.4,43.3,35.1,43.5,34.7,43.9z"/>
	<path class="st0" d="M59.7,0H44c-0.3,0-0.5,0.2-0.5,0.5v33.6c-1.8-1.3-4-2.1-6.3-2.1c-3.5,0-6.6,1.7-8.5,4.3l-1.4-3
		c-0.1-0.3,0-0.6,0.2-0.7c5.5-3,8.5-8.3,8.5-14.9C36,7.2,28.3,0,15.1,0H0.7C0.4,0,0.1,0.4,0.3,0.7l4.1,9c0.1,0.2,0.3,0.3,0.5,0.3
		l10.8,0.1c5.3,0,8,3.5,8,8.3c0,4.8-2.7,8.3-8,8.3l-3.1,0.1c-0.4,0-0.6,0.4-0.5,0.7l12.7,28.8c0.1,0.2,0.3,0.3,0.5,0.3h12.3
		c0.4,0,0.6-0.4,0.5-0.8L36.7,53c0.2,0,0.3,0,0.5,0c2.4,0,4.6-0.8,6.3-2.1v5.3c0,0.3,0.2,0.5,0.5,0.5h15.8
		c14.2,0,21.1-9.2,21.1-28.4S73.9,0,59.7,0z M41.6,48.8c-0.1-0.1-0.8-0.8-1.7-1.7c-0.5,0.6-1.5,1.4-3,1.7c-0.2,0-0.5,0.1-0.7,0.1
		c-1.8,0-2.9-1.1-3.3-2.2c-0.6-1.4,0.1-2.8,1-3.6c0.4-0.4,0.7-0.6,1-0.9c-0.1-0.1-0.1-0.1-0.2-0.2c-0.1-0.1-0.1-0.1-0.2-0.2
		c-0.4-0.4-1.1-1-1.1-2.3c0-1.5,1-2.6,2.3-2.6c1.1,0,2.1,0.6,2.4,1.7c0.4,1.1,0.1,2.4-0.9,3.2c-0.2,0.2-0.4,0.3-0.6,0.5
		c0.8,0.8,2,2,3,3l1.2-1.4l0.9,0.8l-1.3,1.5c1,1,1.8,1.8,1.8,1.8L41.6,48.8z M59.4,46.5h-3c-0.3,0-0.5-0.2-0.5-0.5V10.8
		c0-0.3,0.2-0.5,0.5-0.5h3c6,0,9,4.3,9,18.1C68.4,42.2,65.4,46.5,59.4,46.5z"/>
	<path class="st0" d="M35.3,40.9c0.1,0.1,0.2,0.2,0.3,0.2c0.1,0.1,0.1,0.1,0.3,0.3c0.2-0.2,0.5-0.3,0.7-0.6c0.6-0.5,0.7-1.3,0.5-1.8
		c-0.1-0.3-0.4-0.9-1.2-0.9c0,0,0,0-0.1,0c-0.6,0-1.1,0.6-1.2,1.4C34.6,40.3,35,40.6,35.3,40.9z"/>
</g>
</svg>
