<?xml version="1.0" encoding="UTF-8"?>
<svg width="20px" height="24px" viewBox="0 0 20 24" version="1.1" xmlns="http://www.w3.org/2000/svg" xmlns:xlink="http://www.w3.org/1999/xlink">
    <title>iconmonstr-thumb-2 copy</title>
    <g id="Page-1" stroke="none" stroke-width="1" fill="none" fill-rule="evenodd">
        <g id="iconmonstr-thumb-2-copy" fill="#77E96F" fill-rule="nonzero">
            <path d="M13.43,8.814 C14.238,5.531 14.682,0 11.233,0 C9.372,0 8.883,1.668 8.4,3.329 C6.429,10.117 3.086,10.671 0,11.072 L0,21 C3.503,21 5.584,21.729 8.169,22.842 C9.426,23.383 11.222,24 13.505,24 C16.043,24 17.8,23.003 18.514,20.314 C19.014,18.437 20,13.064 20,12.064 C20,10.415 18.832,9.618 17.406,9.557 C16.196,9.506 14.536,9.28 13.43,8.814 L13.43,8.814 Z M17.148,13.135 L15.754,13.302 C15.754,13.302 15.145,14.411 15.895,14.417 C15.895,14.417 16.096,14.427 16.964,14.39 C18.046,14.344 18.015,15.859 16.968,15.953 L15.207,16.052 C14.473,16.146 14.551,17.255 15.348,17.224 C15.348,17.224 16.034,17.207 16.491,17.183 C17.559,17.127 17.507,18.612 16.531,18.734 C16.107,18.787 14.786,18.849 14.786,18.849 C13.975,18.921 14.08,20.084 14.895,19.99 L15.666,19.959 C16.488,19.885 16.669,20.784 15.374,21.62 C13.807,22.501 10.689,21.751 8.958,21.006 C6.72,20.041 4.521,19.072 2,19 L2,13 C5.263,12.251 8.329,10.746 10.321,3.887 C11.219,0.795 12,1.956 12,4.461 C12,6.532 11.51,8.247 11.079,9.994 C12.14,10.537 14.45,11.396 17.199,11.55 C18.254,11.609 18.224,13.005 17.148,13.135 Z" id="Shape"></path>
        </g>
    </g>
</svg>