<?xml version="1.0" encoding="UTF-8"?>
<svg width="46px" height="46px" viewBox="0 0 46 46" version="1.1" xmlns="http://www.w3.org/2000/svg" xmlns:xlink="http://www.w3.org/1999/xlink">
    <title>Artboard</title>
    <g id="Artboard" stroke="none" stroke-width="1" fill="none" fill-rule="evenodd">
        <g id="Group-2">
            <circle id="Oval" cx="23" cy="23" r="23"></circle>
            <g id="iconmonstr-share-2" transform="translate(11.000000, 11.000000)" fill="#FFFFFF" fill-rule="nonzero">
                <path d="M5,9 C6.654,9 8,10.346 8,12 C8,13.654 6.654,15 5,15 C3.346,15 2,13.654 2,12 C2,10.346 3.346,9 5,9 Z M5,7 C2.238,7 0,9.239 0,12 C0,14.761 2.238,17 5,17 C7.762,17 10,14.761 10,12 C10,9.239 7.762,7 5,7 Z M20,16 C18.835,16 17.796,16.506 17.065,17.301 L11.577,14.374 C11.347,15.01 11.028,15.603 10.633,16.138 L16.121,19.065 C16.049,19.366 16,19.676 16,20 C16,22.209 17.791,24 20,24 C22.209,24 24,22.209 24,20 C24,17.791 22.209,16 20,16 L20,16 Z M20,22 C18.897,22 18,21.103 18,20 C18,18.897 18.897,18 20,18 C21.103,18 22,18.897 22,20 C22,21.103 21.103,22 20,22 Z M20,0 C17.791,0 16,1.791 16,4 C16,4.324 16.049,4.634 16.121,4.935 L10.633,7.862 C11.028,8.398 11.346,8.99 11.577,9.626 L17.065,6.699 C17.796,7.494 18.835,8 20,8 C22.209,8 24,6.209 24,4 C24,1.791 22.209,0 20,0 L20,0 Z M20,6 C18.897,6 18,5.103 18,4 C18,2.897 18.897,2 20,2 C21.103,2 22,2.897 22,4 C22,5.103 21.103,6 20,6 Z" id="Shape"></path>
            </g>
        </g>
    </g>
</svg>