<?xml version="1.0" encoding="UTF-8"?>
<svg width="20px" height="16px" viewBox="0 0 20 16" version="1.1" xmlns="http://www.w3.org/2000/svg" xmlns:xlink="http://www.w3.org/1999/xlink">
    <title>icon-megaphone2</title>
    <g id="Page-1" stroke="none" stroke-width="1" fill="none" fill-rule="evenodd">
        <g id="icon-megaphone2" fill="#77E96F" fill-rule="nonzero">
            <path d="M18.3332639,2.21903303 L18.3332639,12.0678343 L3.53431393,7.68450719 C2.98679112,7.51692177 2.48260344,7.43523441 1.99341639,7.43523441 L1.66590275,7.44786647 L1.66590275,6.67646827 L1.84674361,6.67983682 C2.3584316,6.67983682 2.91095462,6.58635953 3.4984791,6.40529991 L18.3332639,2.21903303 Z M20,0 L3.05096046,4.78334256 C2.60094171,4.92145315 2.20759198,4.99556128 1.84757698,4.99556128 C1.16171507,4.99556128 0.597524897,4.72776146 0,4.12310654 L0,10.1056533 C0.606691945,9.45299652 1.22421768,9.11950996 1.99424976,9.11950996 C2.3167632,9.11950996 2.66594441,9.17761746 3.05179382,9.29635889 L20,14.3163422 L20,0 Z M12.4996875,13.8270601 L10.8646194,15.6351299 C10.5612734,15.9509316 10.1087545,16.0738837 9.68790366,15.9559844 L6.39609984,15.0464756 C5.98774949,14.9319449 5.671903,14.608564 5.56606525,14.1967586 L4.99937497,11.6316069 L6.7752823,12.1512059 L6.97029043,13.270407 C7.04112671,13.5424175 7.2503021,13.7571627 7.51947998,13.8329551 L9.30455436,14.3205528 C9.58373266,14.3997138 9.88457852,14.3188686 10.0854202,14.1083341 L10.7479478,13.3133561 L12.4996875,13.8270601 L12.4996875,13.8270601 Z" id="Shape"></path>
        </g>
    </g>
</svg>