<svg xmlns="http://www.w3.org/2000/svg" width="1920" height="40" viewBox="0 0 1920 40">
  <path id="_61a616d985db5702cdcec9f8_separator-pattern1" data-name="61a616d985db5702cdcec9f8_separator-pattern1" d="M1809.187,26.369c0-1.63,0-1.63-.56-2.493-5.667,6.615-13.653-.479-20.16,3.26a29.257,29.257,0,0,0-4.253-4.027,10.173,10.173,0,0,1-6.733,2.78l-.627-1.534-4.867,2.013.627-2.493c-6.24,3.547-15.347-.863-20.507.479-14.04,3.451-31.36.959-46.373,3.643-4.92.863-11.32-2.4-16.987-.863a49.22,49.22,0,0,1-23.493-.767A89.722,89.722,0,0,0,1648.267,28a26.4,26.4,0,0,0-12.24,0c-1.64.671-4.24-2.493-6.053-2.109-10.867,2.4-23.613,0-36.64,1.63a39.059,39.059,0,0,0-14.04.479l-.773-.2c-2-.508-3.96-1.007-5.96-1.432-2.267-.479-1.253,1.726-2.094,2.4s-8.947-2.013-11.333-1.63c-10.693,1.822-21.68-.575-30.173,0-1.987.767-3.907,1.63-5.667,2.4a11.854,11.854,0,0,1-7.307-1.63l-6.733.863a10.546,10.546,0,0,1-7.026-1.246,17.117,17.117,0,0,1-11.32.863c0-2.4.4-2.684-.627-4.122H1490a9.23,9.23,0,0,1-.96,3.293,4.538,4.538,0,0,1-1.813,1.98,23.345,23.345,0,0,0-13.707,1.246,42.72,42.72,0,0,1-11.32-1.246l-7.653,1.246a205.147,205.147,0,0,1-22.64-1.246c0,2.78,0,4.027-1.48,4.89a7.49,7.49,0,0,0-.32-2.279,4.785,4.785,0,0,0-.92-1.748,8.3,8.3,0,0,1-7.933,0,1.6,1.6,0,0,0-.613,0l.613,1.15c1.707,1.151,3.453,2.205,5.16,3.26v.767h-1.48c-9.507-6.232-15.626-3.835-27.52-5.177l-.28,1.15.907,3.26h-1.187l-2.16-3.643a43.451,43.451,0,0,0-24.4,2.013,7.366,7.366,0,0,1-.56,1.9,4.382,4.382,0,0,1-.974,1.364c-.96,0-4.293-2.876-3.68-3.26a27.353,27.353,0,0,0-14.947,0c-1.64,0-3.227-.863-4.867-1.246-8.2,1.818-16.477-2.807-24.744-3.285l-.623-1.63a3.437,3.437,0,0,1-1.812,1.63c-.623-1.151-1.36-1.15-2.1-2.013,2.661-1.917,2.321-7.19,6.965-5.656-.963-2.013-1.585-1.63-1.189-3.643l1.328-.044V13.261h-.963c-2.6,1.917-.592,2.249-2.8,4.071h-4.3c-2.327,1.219-3.569,6.2-4.205,8.75l-.041.166a2.59,2.59,0,0,0-3.68,0v1.63l1.868,2.4-.623,1.15h-1.529a8.531,8.531,0,0,0-3.057-3.164l-.623.767c1.132.671.736,0,1.245,1.63l-3.4.863h-.283c0-2.589-.34-2.4-.905-4.889,2.751.608,5.544-.371,7.927-2.78l-2.435.8h-.907c-.513,1.926-1.389-1.8-2.491-.8l-4.247,2.434v-.767c1.585-.671,2.435-2.78,1.868-4.889a6.138,6.138,0,0,0-1.528-3.164h-.34a27.873,27.873,0,0,0-2.435,10.45c-.933.559-1.843-4.077-2.719-3.3l-2.152-1.15,2.152,5.561,2.152.863c.963-1.822,1.245-2.013,2.717-1.246l.907,3.643h-.623a36.6,36.6,0,0,1-3.341-1.63l-.283,4.122-.907-.863c-2.208-4.506-6.285-.575-10.079,0-.963-1.342-.907-1.438-2.435-1.15l-.34-4.506h.623c2.039-.959,4.077-1.822,6.116-2.78h-.623a11.127,11.127,0,0,0-1.336-.74q-.04.194-.08.393a23.362,23.362,0,0,0-4.587,2.013l.088-.855a6.326,6.326,0,0,1-2.183,1.621,5.7,5.7,0,0,0-1.025-.763q-.012,1.994.063,3.985c-1.812.767-2.039,2.013-4.247,2.4s-1.247-1.246-1.247-2.013c-1.528.959-1.7,2.109-3.34,2.876-1.3-.767-1.529-.767-2.152-2.493-1.812,1.246-3.624,2.493-5.663,3.643l-.623-3.643c-1.641.671-1.925,1.917-2.717,3.643a16.6,16.6,0,0,0-10.7,1.63c-2.831,0-5.663-.575-8.551-.767a38.78,38.78,0,0,0-19.535,3.164l-1.189-2.013c-4.076,4.6-10.759,0-15.572.863a9.493,9.493,0,0,1-7.644-.48c-7.4,3.125-15.057-2.568-22.649-3.79l-.567-.863c2.775-6.328-3.849-5.944-7.021-6.04l.284,3.26h.623a10.517,10.517,0,0,0,4.587,0l.905,2.876a15.027,15.027,0,0,0-10.7,3.164c-1.812,1.917-20.441-9.292-25.595-5.649-1.755,1.246-12.571-1.534-14.383-.767l-.849,1.822h-1.528c-.907,0-1.133-2.3-3.057-1.63a29.926,29.926,0,0,1-13.76,1.151c-3.228,0-6.512,2.2-9.74,2.579a38.568,38.568,0,0,1-12.513-2.4c-7.361-1.917-10.363,4.123-16.988-1.63,0,0-12.8,3.643-14.325,3.26-5.663-1.438-13.42-2.4-18.007-3.26-1.528,0-1.359,1.534-2.151,2.013a9.1,9.1,0,0,1-8.268-1.63l-7.927,2.876a24.976,24.976,0,0,0-5.153-3.26,10.18,10.18,0,0,1-8.267,2.4c-1.3-2.78-3.907-2.684-5.209-4.41-5.663,5.561-6.343,1.534-11.325,0-2.491-.767-1.359,2.013-3.4,0l-6.4,4.027c-2.208-1.438-2.775-3.356-5.663-3.643a9.866,9.866,0,0,1-5.661,2.78l-3.341-3.643c-3.851,0-5.1,3.356-8.551,2.876l-6.115-3.643a16.382,16.382,0,0,1-6.059,4.889L929.7,27.537c-.763,3.6-1.787,4.532-3.729,6.3l-.235.215h-.283c-3.049-3.291-6.659-4.767-10.259-4.194s-6.984,3.162-9.616,7.358C899.777,36.671,894.269,32.7,890.011,26h-.283a23.547,23.547,0,0,1-2.435,9.587c-2.492,0-4.3,0-5.211-3.164a61.662,61.662,0,0,0-6.059,3.643c-10.305-7.766-8.044,0-18.86-6.136a8.226,8.226,0,0,1-1.623,3.156,3.718,3.718,0,0,1-2.34,1.35c-1.812-.863-3.625-1.63-5.663-2.4-8.437.479-16.988,1.055-25.312,1.534-2.831-1.246-5.661-4.123-7.644-2.78-1.755,6.232-11.041,3.931-15.855,4.794a17.442,17.442,0,0,0-8.549-6.423c-1.189,0-2.321,3.835-4.587,3.643L777.041,30.8l-.019.009c-1.919.956-3.837,1.911-5.644,2.771-16.477-.959-33.464.575-48.243,1.246-10.249,0-22.649,3.26-31.087-1.63-2.208,4.41-6.343-1.342-8.891,0-1.189,0-1.981,2.78-3.624,3.26-3.34.863-4.587-2.013-6.737-2.013-5.38,0-12.853,6.519-21.687,4.027l-9.117-2.876a71.933,71.933,0,0,1-15.288,0l-6.681-1.15c-18.856,5.944,4.687-2.4-17.68,2.4H587.055c-13.383,2.078-3.312,2.622-16.739,1.63-2.831-.575-5.663-1.055-8.551-1.63l-3.963,2.4h-9.456a107.573,107.573,0,0,1-32.672-1.246A22.838,22.838,0,0,0,510.012,40a93.966,93.966,0,0,1-15.572-2.78,15.52,15.52,0,0,0-7.644.767c-6.4,0-12.8-.479-19.2-.767l-32.672.653a179.508,179.508,0,0,0-23.216-4.027c-1.188.575-2.435,1.055-3.623,1.63s-11.043-2.013-11.043-2.013c-.34,1.63.284,1.151-.905,2.013-5.663,4.027-11.325-2.876-17.667-2.013a28.844,28.844,0,0,1-10.7-2.013c-1.925-.575-5.039.575-7.644,0-9.636-3.34-19.439,2.894-29.275,2.727a4.629,4.629,0,0,0-2.152-2.4c-.452,1.63,0,1.438-1.528,2.013-2.321-3.355-10.589-1.342-14.043,0a15.052,15.052,0,0,1-2.152-4.89h-.567V32.93c-1.019,0-.963.671-1.868.479-5.2,1.071-10.473-2.28-15.515-4.68-2.1,4.985-12.515-1.534-14.667,1.15-3.227,1.15-9-1.15-11.324,0a50.008,50.008,0,0,1-18.912,3.26,35.646,35.646,0,0,0-20.1-1.63c-2.548,1.055-24.008-.575-24.121-.767-7.361,5.752-22.253-1.821-33.975,1.534s-27.405-1.342-40.6.863c-11.948,1.917-23.612-4.575-33.238-3.233-3.4.575-6.738,1.055-10.079,1.63a15.806,15.806,0,0,0-9.173,0c-.736,0-.4,1.63-1.812,1.63-2.831,0-3.737-2.972-5.662-3.26-.906,1.63-1.812,3.26-2.775,4.794-3.341-.767-7.3,2.78-11.325,1.63-1.529,0-1.472-2.588-2.435-3.164-2.888-1.821-7.021.863-9.8-.863L39.41,26.647c-3.567,0-7.135,4.854-10.7,4.566C20.742,27.584,5.834,35.208,0,25.333V0H1920V25.333A18.394,18.394,0,0,0,1908.227,30c-9.52-7.19-17.613,2.021-29-1.622-5.2-1.534-14.827,1.342-17.44-3.643a18.124,18.124,0,0,1-14.32,0v.479l.907,2.013h-.907a9.774,9.774,0,0,0-4.586-2.013c0-1.63,0-1.246-.627-2.013-2.493-.767-6.627,3.739-9.8,3.164l-2.427-2.013A69.458,69.458,0,0,0,1809.187,26.369Z" fill="#f1f0fc"/>
</svg>
