<svg width="18" height="13" viewBox="0 0 18 13" fill="none" xmlns="http://www.w3.org/2000/svg">
<path d="M7.76842 9.28571C7.76842 7.04434 6.31579 5.82758 4.67368 5.82758C3.85263 5.82758 3.34737 6.0197 2.96842 6.27586C2.96842 4.41872 4.61053 2.81773 6.82105 2.36946V0C2.96842 0.640393 0 4.03448 0 8.00493C0 11.2069 1.89474 13 4.10526 13C6.31579 13 7.76842 11.399 7.76842 9.28571ZM18 9.28571C18 7.04434 16.5474 5.82758 14.9053 5.82758C14.1474 5.82758 13.5789 5.95566 13.2 6.21182C13.2 4.41872 14.8421 2.81773 17.0526 2.36946V0C13.1368 0.640393 10.1684 4.03448 10.1684 8.00493C10.1684 11.2069 12.1263 13 14.2737 13C16.4842 13 18 11.399 18 9.28571Z" fill="#91DAFF"/>
</svg>
