<svg width="67" height="76" viewBox="0 0 67 76" fill="none" xmlns="http://www.w3.org/2000/svg">
<path d="M20.2907 68.1929C20.621 68.4541 20.8717 68.6973 21.1622 68.8741C23.922 70.538 26.7156 72.1496 29.4475 73.8596C31.9029 75.3969 34.2747 75.3507 36.7459 73.8958C45.477 68.7555 54.2279 63.6535 62.9748 58.5413C64.9924 57.3618 65.9813 55.6155 65.9793 53.2604C65.9714 42.9779 65.9336 32.6953 66.0032 22.4148C66.0231 19.5473 64.8691 17.6202 62.4396 16.2176C53.7245 11.1838 45.0412 6.08976 36.3579 0.999733C34.0797 -0.336575 31.8571 -0.336575 29.5888 1.01983C26.6818 2.75803 23.7509 4.45806 20.824 6.16612C14.9423 9.60033 9.06653 13.0426 3.17091 16.4527C1.19111 17.5981 0.0330717 19.2539 0.0271024 21.5588C-0.00274384 32.2754 -0.00871309 42.9939 0.0271024 53.7105C0.0330717 55.716 0.9981 57.2934 2.70133 58.3665C3.20672 58.686 3.72406 58.9894 4.25134 59.2708C7.02903 60.7578 9.74902 62.3714 12.6103 63.6715C14.8866 64.7044 17.3419 64.5577 19.7037 63.7057C22.5749 62.6688 24.1966 59.8857 24.2026 55.923C24.2205 45.6404 24.2105 35.3599 24.2105 25.0774C24.2105 24.9106 24.1986 24.7418 24.2065 24.575C24.2344 23.936 23.9041 23.6567 23.3012 23.6506C22.5053 23.6446 21.7094 23.6386 20.9135 23.6386C19.3894 23.6386 19.3217 23.7009 19.3197 25.206C19.3157 32.205 19.3157 39.2061 19.3157 46.2051C19.3157 49.354 19.3376 52.5008 19.3157 55.6497C19.2978 58.1635 17.2066 59.8857 14.7592 59.3913C14.0528 59.2487 13.3326 59.0216 12.7058 58.674C10.2365 57.3035 7.78315 55.9029 5.37754 54.4279C4.99551 54.1928 4.67516 53.5156 4.67516 53.0414C4.63536 42.6584 4.64929 32.2774 4.63536 21.8944C4.63536 21.2031 4.9 20.7731 5.48698 20.4495C6.62113 19.8246 7.7334 19.1615 8.85363 18.5104C16.548 14.0333 24.2503 9.56617 31.9288 5.0609C32.7187 4.59671 33.3236 4.72532 34.0399 5.14329C42.7908 10.2474 51.5477 15.3414 60.3145 20.4174C60.9692 20.7972 61.2577 21.2634 61.2577 22.0189C61.2477 32.3336 61.2497 42.6503 61.2617 52.965C61.2617 53.7226 60.9493 54.2049 60.3086 54.5766C51.5218 59.6887 42.7391 64.8069 33.9702 69.9512C33.2022 70.4013 32.5993 70.3712 31.8651 69.913C29.8614 68.6671 27.8279 67.4735 25.7924 66.2819C25.5277 66.1271 25.1238 65.9423 24.897 66.0407C23.3907 66.6938 21.9163 67.4212 20.2927 68.1909L20.2907 68.1929ZM40.6976 22.6941C40.0012 22.6941 39.3008 22.6439 38.6103 22.7022C35.5959 22.9594 32.7227 23.6105 30.3728 25.7425C27.038 28.7688 26.8052 36.228 32.5575 38.125C34.7423 38.8444 37.0484 39.2101 39.3167 39.6542C42.0725 40.1927 44.8601 40.5806 47.606 41.1633C48.7342 41.4024 49.6813 42.0857 49.7947 43.4501C49.926 44.9994 49.5142 46.3317 48.1373 47.1556C47.4926 47.5414 46.7524 47.9252 46.0281 47.9835C43.5608 48.1784 41.0756 48.3894 38.6083 48.291C35.176 48.1543 32.46 46.8783 31.9327 42.9116C31.9029 42.6805 31.3816 42.379 31.0652 42.3489C30.2434 42.2685 29.4097 42.3167 28.582 42.3228C27.1951 42.3308 26.9524 42.584 27.0976 43.9866C27.4657 47.5454 29.2167 50.0975 32.4998 51.5523C34.7542 52.5511 37.1339 52.9248 39.5575 53.0594C43.0972 53.2564 46.5872 53.0132 49.8843 51.5343C53.9075 49.7297 55.8655 45.548 54.7273 41.2457C54.0309 38.6133 52.0889 37.2287 49.6873 36.6138C46.8738 35.8944 43.9747 35.5066 41.1214 34.9419C39.0143 34.524 36.8872 34.1623 34.8278 33.5675C33.3912 33.1515 33.0072 32.1447 33.2778 30.6376C33.638 28.6261 35.1681 27.8726 36.8414 27.6756C39.0302 27.4184 41.2706 27.3722 43.4713 27.5129C46.3604 27.6977 48.3701 29.1627 49.0605 32.1849C49.1361 32.5145 49.6694 32.9244 50.0275 32.9646C50.9766 33.0731 51.9456 33.0088 52.9087 32.9947C53.5434 32.9847 53.9115 32.6813 53.8618 31.996C53.6389 28.9637 52.5286 26.4137 49.8843 24.7498C47.0708 22.9775 43.913 22.6861 40.7036 22.6941H40.6976Z" fill="url(#paint0_linear_156_793)"/>
<path d="M20.2907 68.1929C21.9143 67.4253 23.3883 66.6977 24.8946 66.0426C25.1194 65.9442 25.5253 66.129 25.7899 66.2838C27.8255 67.4754 29.861 68.669 31.8627 69.9149C32.5989 70.3731 33.1998 70.4032 33.9678 69.9531C42.7347 64.8088 51.5194 59.6906 60.3061 54.5785C60.9468 54.2048 61.2612 53.7245 61.2592 52.9669C61.2473 42.6522 61.2453 32.3355 61.2552 22.0208C61.2552 21.2633 60.9667 20.7991 60.3121 20.4193C51.5453 15.3433 42.7884 10.2493 34.0375 5.14519C33.3211 4.72722 32.7163 4.59861 31.9263 5.0628C24.2479 9.56807 16.5456 14.0352 8.8512 18.5123C7.73097 19.1634 6.6187 19.8265 5.48455 20.4514C4.89757 20.775 4.63094 21.203 4.63293 21.8963C4.64686 32.2793 4.63293 42.6603 4.67273 53.0433C4.67273 53.5175 4.99507 54.1967 5.37511 54.4298C7.78271 55.9068 10.2361 57.3074 12.7034 58.6759C13.3301 59.0235 14.0524 59.2506 14.7568 59.3932C17.2022 59.8876 19.2954 58.1655 19.3133 55.6516C19.3352 52.5027 19.3133 49.3559 19.3133 46.207C19.3133 39.208 19.3133 32.2069 19.3173 25.2079C19.3173 23.7028 19.3869 23.6405 20.9111 23.6405C21.707 23.6405 22.5029 23.6465 23.2988 23.6525C23.9017 23.6566 24.23 23.9379 24.2041 24.5769C24.1962 24.7437 24.2081 24.9125 24.2081 25.0793C24.2081 35.3618 24.218 45.6423 24.2001 55.9249C24.1942 59.8876 22.5725 62.6727 19.7013 63.7076C17.3395 64.5596 14.8841 64.7063 12.6079 63.6734C9.74659 62.3753 7.0266 60.7597 4.24891 59.2727C3.72163 58.9913 3.20628 58.6879 2.6989 58.3684C0.995672 57.2953 0.0306431 55.7179 0.0246738 53.7124C-0.0111417 42.9958 -0.00517243 32.2773 0.0246738 21.5607C0.0306431 19.2558 1.18868 17.6 3.16848 16.4546C9.06411 13.0445 14.9398 9.60223 20.8215 6.16802C23.7465 4.45996 26.6774 2.75993 29.5864 1.02173C31.8547 -0.334672 34.0773 -0.334673 36.3555 1.00163C45.0408 6.09166 53.7221 11.1857 62.4372 16.2195C64.8666 17.6221 66.0207 19.5492 66.0008 22.4167C65.9331 32.6972 65.969 42.9798 65.9769 53.2623C65.9789 55.6174 64.99 57.3637 62.9724 58.5432C54.2255 63.6534 45.4725 68.7574 36.7435 73.8977C34.2722 75.3526 31.9005 75.3988 29.4451 73.8615C26.7132 72.1515 23.9216 70.5399 21.1598 68.876C20.8693 68.7012 20.6186 68.456 20.2883 68.1948L20.2907 68.1929Z" fill="url(#paint1_linear_156_793)"/>
<path d="M40.6972 22.6918C43.9087 22.6858 47.0644 22.9772 49.8779 24.7475C52.5223 26.4134 53.6346 28.9614 53.8554 31.9937C53.9052 32.6769 53.5371 32.9824 52.9023 32.9924C51.9413 33.0065 50.9703 33.0708 50.0212 32.9623C49.663 32.9221 49.1298 32.5122 49.0542 32.1826C48.3657 29.1583 46.3561 27.6934 43.4649 27.5106C41.2643 27.3699 39.0238 27.4161 36.8351 27.6733C35.1597 27.8703 33.6296 28.6238 33.2715 30.6353C33.0028 32.1424 33.3849 33.1492 34.8215 33.5651C36.8809 34.1599 39.0079 34.5217 41.1151 34.9396C43.9703 35.5043 46.8674 35.8901 49.6809 36.6115C52.0826 37.2264 54.0246 38.611 54.721 41.2434C55.8591 45.5457 53.9032 49.7274 49.8779 51.5319C46.5809 53.0109 43.0909 53.2541 39.5511 53.0571C37.1276 52.9225 34.7479 52.5487 32.4935 51.55C29.2104 50.0952 27.4594 47.5451 27.0913 43.9843C26.946 42.5817 27.1888 42.3285 28.5756 42.3205C29.4054 42.3164 30.2391 42.2662 31.0589 42.3466C31.3752 42.3767 31.8965 42.6781 31.9264 42.9092C32.4537 46.876 35.1697 48.15 38.602 48.2886C41.0693 48.3871 43.5545 48.1761 46.0218 47.9812C46.7441 47.9249 47.4862 47.5391 48.1309 47.1533C49.5098 46.3294 49.9197 44.9971 49.7884 43.4478C49.673 42.0833 48.7278 41.4001 47.5996 41.161C44.8538 40.5782 42.0662 40.1904 39.3103 39.6519C37.044 39.2078 34.7379 38.8441 32.5512 38.1227C26.8008 36.2277 27.0316 28.7685 30.3664 25.7402C32.7163 23.6061 35.5895 22.9571 38.604 22.6999C39.2944 22.6416 39.9948 22.6918 40.6912 22.6918H40.6972Z" fill="url(#paint2_linear_156_793)"/>
<defs>
<linearGradient id="paint0_linear_156_793" x1="27.2345" y1="75.0035" x2="27.6097" y2="0.00245047" gradientUnits="userSpaceOnUse">
<stop stop-color="#2289EE"/>
<stop offset="1" stop-color="#91DAFF"/>
</linearGradient>
<linearGradient id="paint1_linear_156_793" x1="27.2345" y1="75.0035" x2="27.6097" y2="0.00245047" gradientUnits="userSpaceOnUse">
<stop stop-color="#2289EE"/>
<stop offset="1" stop-color="#91DAFF"/>
</linearGradient>
<linearGradient id="paint2_linear_156_793" x1="27.2345" y1="75.0035" x2="27.6097" y2="0.00245047" gradientUnits="userSpaceOnUse">
<stop stop-color="#2289EE"/>
<stop offset="1" stop-color="#91DAFF"/>
</linearGradient>
</defs>
</svg>
