<svg width="57" height="61" viewBox="0 0 57 61" fill="none" xmlns="http://www.w3.org/2000/svg">
<path d="M43.7587 20.0861V12.8139C45.6726 11.9075 46.9016 9.92975 46.9217 7.76663V7.60182C46.9217 4.51165 44.4638 1.99831 41.4418 1.99831H41.2806C38.2586 1.99831 35.8007 4.51165 35.8007 7.60182V7.76663C35.8007 9.92975 37.0297 11.8869 38.9638 12.8139V20.0861C36.2641 20.5187 33.7256 21.6518 31.5901 23.4029L12.1082 7.89024C12.2492 7.37521 12.3298 6.83958 12.3298 6.32455C12.3298 2.84296 9.58984 0 6.18504 0C2.78025 0 0 2.80176 0 6.28335C0 9.76494 2.73995 12.5873 6.14475 12.6079C7.21253 12.6079 8.26015 12.3195 9.1869 11.7633L28.3867 27.0287C24.8611 32.488 24.9618 39.5748 28.6285 44.9311L22.7859 50.9054C22.3226 50.7612 21.8189 50.6788 21.3354 50.6582C18.535 50.6582 16.2785 52.9862 16.2785 55.8291C16.2785 58.6927 18.5551 61 21.3354 61C24.1358 61 26.3922 58.6927 26.3922 55.8291C26.3922 55.3141 26.3116 54.8197 26.1504 54.3458L31.9326 48.4333C38.7421 53.7896 48.5133 52.4917 53.7716 45.5285C59.0097 38.5653 57.7405 28.5738 50.9309 23.1969C48.8357 21.5488 46.3777 20.4775 43.7788 20.0655M41.3814 43.9628C36.9692 44.0865 33.3025 40.5225 33.1816 36.0314C33.0608 31.5198 36.5461 27.7703 40.9381 27.6467C41.0792 27.6467 41.2403 27.6467 41.3814 27.6467C45.7935 27.8115 49.2386 31.5816 49.0774 36.0932C48.9364 40.3782 45.5719 43.8186 41.3814 43.9628Z" fill="url(#paint0_linear_156_809)"/>
<defs>
<linearGradient id="paint0_linear_156_809" x1="23.5194" y1="61.0015" x2="23.8068" y2="0.00182042" gradientUnits="userSpaceOnUse">
<stop stop-color="#2289EE"/>
<stop offset="1" stop-color="#91DAFF"/>
</linearGradient>
</defs>
</svg>
