<svg width="370" height="390" viewBox="0 0 370 390" fill="none" xmlns="http://www.w3.org/2000/svg">
<path d="M39.0227 214.249C39.0059 213.388 39.7283 213.28 40.4276 213.096C50.3145 210.487 127.716 198.387 127.769 198.379C130.36 197.995 130.324 201.227 128.285 201.55C41.6519 215.24 39.0668 216.5 39.0227 214.249Z" fill="#163055"/>
<path d="M43.3465 226.693C43.1995 225.368 44.4343 225.125 45.415 224.948C138.932 208.23 132.082 210.322 132.271 211.968C132.523 214.158 132.557 213.493 58.1998 225.91C46.2214 227.911 43.5229 228.306 43.3444 226.691L43.3465 226.693Z" fill="#163055"/>
<path d="M130.652 160.87C130.585 164.608 124.82 164.616 125.001 160.538C125.165 156.85 130.727 156.67 130.652 160.87Z" fill="#163055"/>
<path d="M28.7642 187.584C28.2644 186.527 26.4269 186.214 26.8343 185.309C27.5168 183.789 29.4068 187.773 30.5135 184.245C30.8201 183.266 32.0192 183.699 31.7336 184.74C31.3472 186.154 29.9486 186.905 32.1032 187.907C32.4896 188.088 33.2036 188.384 32.8802 189.001C32.5211 189.688 31.9163 189.379 31.4333 189.018C29.1485 187.304 29.7806 191.015 28.4135 190.364C27.5777 189.965 28.1321 188.984 28.7621 187.586L28.7642 187.584Z" fill="#163055"/>
<path d="M135.719 161.285C133.609 161.558 133.672 157.808 135.933 158.001C138.443 158.215 138.006 161.432 135.719 161.285Z" fill="#163055"/>
<path d="M36.9163 184.75C38.884 184.981 38.5018 187.896 36.8365 187.715C35.083 187.524 35.0032 184.992 36.9163 184.75Z" fill="#163055"/>
<path d="M128.365 356.904C125.637 356.303 128.235 357.263 111.026 350.501C105.387 348.285 116.194 347.111 147.643 337.495C150.709 336.559 153.311 336.834 155.947 338.594C160.13 341.385 169.603 344.329 164.275 345.973C128.538 357.005 130.236 356.597 128.365 356.906V356.904Z" fill="#163055"/>
<path d="M176.814 360.541C176.109 360.52 176.399 360.713 165.785 355.272C159.731 352.168 168.211 351.299 200.448 340.459C203.862 339.31 204.843 340.341 213.592 345.163C218.844 348.058 213.688 348.277 176.814 360.541Z" fill="#163055"/>
<path d="M127.057 337.852C125.396 337.567 124.516 337.038 113.552 331.399C111.24 330.211 111.681 329.455 113.762 328.927C151.917 319.265 145.699 318.495 159.17 325.761C165.195 329.011 158.763 329.049 127.057 337.852Z" fill="#163055"/>
<path d="M173.857 342.926C171.419 342.846 170.928 342.126 160.26 335.946C159.781 335.669 159.344 335.282 159.344 334.801C159.344 334.07 160.128 334.045 160.632 333.902C194.79 324.106 193.226 324.043 195.097 325.03C211.517 333.697 216.347 330.549 173.859 342.922L173.857 342.926Z" fill="#163055"/>
<path d="M287.888 323.478C286.504 323.457 285.953 323.207 276.438 318.686C271.627 316.399 275.38 316.3 306.277 306.254C310.452 304.895 310.862 305.689 323.722 308.759C326.5 309.423 326.206 310.949 323.915 311.712C287.948 323.663 290.036 323.136 287.888 323.48V323.478Z" fill="#163055"/>
<path d="M352.971 314.53C345.635 317.445 187.358 373.271 176.361 376.398C175.008 376.782 174.24 375.772 175.355 375.304C185.256 371.146 343.26 315.905 351.299 313.919C352.71 313.57 354.149 314.062 352.971 314.53Z" fill="#163055"/>
<path d="M238.989 307.644C237.975 307.51 226.024 303.051 226.406 301.102C226.664 299.773 226.253 300.336 257.352 292.379C258.878 291.989 258.019 291.913 273.442 295.949C280.397 297.77 261.031 301.609 238.989 307.646V307.644Z" fill="#163055"/>
<path d="M263.968 314.897C250.774 309.221 251.078 309.125 251.127 308.444C251.215 307.19 277.564 300.783 278.662 300.174C284.672 296.844 289.859 300.145 297.339 301.987C298.908 302.373 299.425 303.347 297.406 304.022C289.067 306.804 271.213 312.865 263.968 314.9V314.897Z" fill="#163055"/>
<path d="M186.728 312.176C192.858 315.731 198.829 318.566 194.469 319.757C166.543 327.373 172.999 327.766 158.217 319.845C157.667 319.551 156.913 319.349 156.997 318.562C157.081 317.774 157.832 317.718 158.444 317.56C184.022 311.025 183.923 310.548 186.726 312.174L186.728 312.176Z" fill="#163055"/>
<path d="M243.401 329.541C242.723 329.146 241.475 329.037 241.647 327.817C241.944 325.71 260.564 321.573 264.264 319.954C267.965 318.335 270.226 319.761 279.603 324.49C283.185 326.298 278.914 326.33 256.457 334.085C253.143 335.23 250.852 333.881 243.401 329.541Z" fill="#163055"/>
<path d="M204.144 317.044C203.497 316.855 186.144 310.483 192.64 308.828C219.66 301.945 217.422 301.907 219.944 303.265C230.534 308.967 230.173 309.089 230.131 309.622C230.055 310.605 204.82 316.951 204.144 317.044Z" fill="#163055"/>
<path d="M223.539 344.98C221.198 344.568 215.105 340.438 212.518 338.837C211.063 337.936 211.265 336.914 212.892 336.387C237.153 328.512 235.643 328.558 237.599 329.757C246.673 335.32 247.168 335.492 247.172 336.588C247.177 337.684 224.551 344.724 223.539 344.98Z" fill="#163055"/>
<path d="M101.775 332C105.227 332.038 113.113 336.221 116.376 337.907C116.914 338.184 117.804 338.319 117.6 339.35C117.428 340.219 116.836 340.692 116.09 340.914C115.078 341.215 99.5172 345.215 99.4626 345.228C97.6398 345.644 97.791 345.373 83.1078 339.455C81.2913 338.722 81.8919 337.134 83.175 336.798C102.928 331.622 101.823 331.996 101.775 332Z" fill="#163055"/>
<path d="M256.093 315.399C257.376 316.063 257.047 317.077 255.77 317.48C232.773 324.753 238.065 324.356 230.144 320.045C224.942 317.216 222.962 316.155 225.448 315.412C249.3 308.268 243.008 308.618 256.093 315.399Z" fill="#163055"/>
<path d="M156.948 354.936C158.66 355.503 157.053 354.739 168.066 360.436C168.616 360.722 169.376 360.856 169.294 361.685C169.217 362.467 168.887 363.155 168.053 363.439C152.116 368.853 154.241 367.845 151.702 366.891C144.934 364.348 136.484 361.681 143.521 359.21C144.884 358.731 154.823 355.295 156.95 354.938L156.948 354.936Z" fill="#163055"/>
<path d="M215.049 330.173C213.035 330.345 203.868 325.16 202.123 324.135C201.594 323.825 200.849 323.56 201 322.772C201.122 322.138 201.815 322.042 202.354 321.886C216.649 317.76 217.098 317.136 219.48 318.61C232.288 326.548 234.255 324.274 215.049 330.173Z" fill="#163055"/>
<path d="M120.066 362.032C154.968 375.394 156.215 376.117 155.678 377.341C155.172 378.492 154.518 378.521 147.924 376.003C142.341 373.872 121.79 365.923 119.505 364.999C117.962 364.376 118.453 361.522 120.064 362.03L120.066 362.032Z" fill="#163055"/>
<path d="M97.327 356.351C85.7728 351.937 78.6265 349.713 79.7815 347.496C80.3443 346.414 80.1049 346.586 97.4614 353.231C99.6685 354.075 99.9667 356.297 97.327 356.351Z" fill="#163055"/>
<path fill-rule="evenodd" clip-rule="evenodd" d="M239.705 274.229C242.708 273.565 244.596 273.149 245.768 272.864H245.77C249.504 271.952 247.731 274.693 246.492 275.26C244.745 276.058 241.083 276.9 234.159 278.492C230.341 279.37 225.532 280.476 219.507 281.927L206.261 285.119C205.87 285.214 205.479 285.308 205.091 285.403C205.645 284.393 206.143 283.148 206.506 281.751C223.781 277.74 233.859 275.518 239.705 274.229ZM61.0205 317.008C59.8124 317.308 58.5965 317.611 57.3726 317.915C57.0478 317.997 56.7697 318.066 56.5085 318.024C54.9171 317.781 53.9463 313.484 46.7643 283.03C45.8968 283.347 45.0614 283.574 44.2613 283.723C45.0408 286.852 45.6515 289.231 45.8722 290.092C45.9178 290.271 45.9467 290.384 45.957 290.424C52.4221 316.298 52.8738 320.469 54.3986 320.908C54.6974 320.994 55.0374 320.935 55.4721 320.87C56.3428 320.813 57.9978 320.527 62.3341 319.568C61.7268 318.558 61.3106 317.819 61.0205 317.008ZM37.4235 254.205C37.9833 253.269 38.6306 252.448 39.3395 251.729C36.9512 241.733 34.188 230.244 30.9819 217.042C30.3958 214.629 29.867 212.48 29.3969 210.569C26.297 197.974 25.7334 195.685 27.9432 195.456C40.2702 194.188 199.339 170.89 203.787 169.846C206.393 169.235 205.301 168.145 203.232 168.29C193.822 168.947 141.946 176.258 96.5507 182.655C58.4848 188.019 24.9751 192.742 24.8793 192.361C24.1238 189.367 23.4807 187.318 23.0376 185.906C22.1227 182.989 22.0607 182.791 23.6214 182.619C49.1927 179.792 77.6992 176.284 82.413 175.704C82.8517 175.65 83.0842 175.622 83.0892 175.621C110.234 172.233 131.658 169.626 148.569 167.568C205.897 160.593 211.374 159.927 212.105 156.49C208.686 156.49 50.9949 175.168 19.4487 180.424C18.3414 180.608 21.9072 194.282 27.9042 217.279C30.6417 227.777 33.8858 240.217 37.4235 254.205Z" fill="#163055"/>
<path fill-rule="evenodd" clip-rule="evenodd" d="M195.754 141.097C201.905 140.35 208.688 139.734 212.928 140.13C211.559 141.253 210.725 142.352 210.41 143.803C207.527 143.937 202.168 144.506 191.491 145.778C192.724 144.618 194.122 143.078 195.754 141.097ZM178.273 143.461C123.722 150.924 85.6646 155.263 59.2054 158.28C0.103015 165.019 -1.12969 165.159 0.935032 178.767C3.33533 194.597 28.844 299.723 28.8566 299.773C30.2643 305.445 31.4552 310.382 32.4938 314.689C38.2262 338.455 39.3264 343.016 46.7045 346.053C104.901 369.999 114.409 373.498 119.896 375.518C121.889 376.251 123.351 376.789 126.423 378.04C127.884 378.637 129.685 379.411 131.701 380.279C141.187 384.359 155.412 390.481 161.148 389.489C174.696 387.148 236.215 365.031 265.663 354.443L265.667 354.44L265.674 354.438L265.72 354.421L265.726 354.419C270.785 352.601 274.893 351.122 277.642 350.148C292.728 344.795 305.477 340.337 316.216 336.582L316.221 336.58C368.143 318.423 373.009 316.722 367.307 309.889C361.887 303.394 301.907 290.817 295.405 289.511C289.885 288.402 285.3 287.501 281.497 286.755C267.379 283.985 264.046 283.33 263.685 281.917C263.572 281.48 263.744 280.972 263.971 280.304L264.006 280.197C264.254 279.462 263.294 276.503 258.771 262.568C254.884 250.6 248.372 230.534 237.737 196.827C237.317 197.619 236.87 198.461 236.398 199.357C235.931 200.244 235.461 201.134 234.991 202.031C235.459 203.558 235.919 205.063 236.37 206.54C241.118 222.071 244.867 234.335 245.518 234.15C249.168 244.871 253.775 258.592 259.527 276.224C261.36 281.843 258.261 282.499 251.056 284.023H251.053C249.418 284.37 247.57 284.76 245.518 285.264C214.335 292.929 185.378 300.067 159.892 306.35H159.888C101.096 320.843 60.7665 330.784 54.1406 332.162C47.2321 333.6 45.9412 336.032 45.2066 337.416C44.8263 338.132 44.5951 338.567 43.8107 338.438C42.2007 338.174 41.2962 334.312 30.2008 286.818C28.7502 280.609 27.125 273.651 25.3013 265.86C20.2731 244.377 15.9221 227.678 12.5306 214.662C5.29568 186.895 2.42561 175.881 6.6569 170.902C9.43856 167.629 15.2892 166.964 24.9861 165.862C26.302 165.713 27.689 165.555 29.1485 165.382C93.7846 157.706 135.491 152.604 162.535 149.296C170.173 148.362 176.64 147.571 182.125 146.905C181.203 146.178 180.212 145.259 179.081 144.209L179.078 144.207L179.06 144.189C178.805 143.953 178.543 143.71 178.273 143.461ZM235.033 239.986C232.859 232.508 230.431 223.953 228.01 215.326L229.36 212.753L238.773 245.621C237.973 245.335 237.202 245.148 236.505 245.014C236.406 244.684 236.309 244.352 236.211 244.018C236.442 242.662 235.975 241.253 235.033 239.986ZM320.797 330.116L320.794 330.118C290.804 340.631 248.468 355.474 205.662 371.238C201.882 372.631 198.436 373.91 195.284 375.077C163.028 387.041 161.578 387.581 147.538 382.091C144.115 380.753 57.5783 346.259 53.4077 344.339C40.3357 338.319 46.925 336.771 120.587 319.45L120.591 319.448C145.42 313.61 177.868 305.981 219.751 295.785C240.087 290.836 249.495 288.261 254.185 286.978C258.821 285.707 258.847 285.701 260.258 285.909C261.448 286.083 262.24 286.176 262.946 286.26C266.413 286.665 267.786 286.825 303.9 295.273C359.516 308.284 368.118 310.798 363.183 314.82V314.818C362.236 315.588 345.81 321.349 320.797 330.116Z" fill="#163055"/>
<path d="M217.328 170.753C151.295 250.598 152.137 253.05 150.233 251.933C138.204 244.881 118.941 251.824 113.548 267.536C112.96 269.248 111.315 270.333 109.507 270.298C100.047 270.117 88.0601 278.047 88.0097 290.865C88.0055 292.194 87.4784 292.734 86.1638 292.421C80.2502 291.012 63.9416 297.215 65.3633 313.751C65.4473 314.727 65.5943 315.425 65.8715 315.895C112.349 304.811 112.386 305.006 112.265 304.454C111.07 299.103 115.623 290.101 121.792 285.21C125.566 282.219 131.853 280.439 132.282 283.477C132.729 286.648 127.872 282.942 120.421 292.125C117.935 295.189 116.198 298.652 115.471 302.551C115.03 304.924 120.961 302.791 200.284 283.794C201.651 282.284 205.391 272.498 196.286 267.167C194.15 265.917 195.567 266.803 224.035 212.382C226.183 208.274 236.549 188.458 238.882 184.237C240.871 180.638 219.936 169.947 217.326 170.749L217.328 170.753ZM204.234 226.792C204.192 226.863 175.622 275.325 173.226 275.552C169.849 274.754 171.732 274.233 202.166 225.679C202.636 224.929 203.115 224.003 204.175 224.564C205.314 225.167 204.667 226.036 204.234 226.792ZM219.745 191.172C207.256 209.309 180.87 243.451 179.36 243.665C178.881 243.649 178.526 243.464 178.375 243.048C177.169 239.715 248.172 149.886 219.743 191.174L219.745 191.172Z" fill="#45DD3A"/>
<path d="M208.44 254.642C208.247 250.543 210.341 247.708 212.947 245.148C215.2 242.937 214.112 246.883 216.009 246.805C216.828 246.771 216.899 246.02 217.124 245.429C221.133 234.858 231.599 237.428 233.541 242.609C234.545 245.285 231.53 244.174 232.313 246.419C232.89 248.071 240.807 245.448 244.073 254.525C245.316 257.981 242.84 262.374 240.049 264.002C238.737 264.766 237.315 265.346 235.954 266.037C233.397 267.337 235.488 263.989 234.058 263.38C233.273 263.044 230.675 266.387 227.094 269.397C223.041 272.803 218.262 271.7 215.826 266.988C213.854 263.174 214.27 259.109 213.148 258.857C212.325 258.672 211.806 259.201 211.533 259.901C210.418 262.754 208.329 258.172 208.438 254.644L208.44 254.642Z" fill="#45DD3A"/>
<path d="M50.4216 249.923C52.2003 249.94 53.8782 249.818 53.0235 251.467C52.3347 252.8 53.5212 254.21 54.882 252.498C61.0875 244.694 74.5275 245.505 77.667 254.97C78.3453 257.013 75.3423 255.323 73.2192 256.282C72.4464 256.631 71.5539 256.954 71.6211 257.952C71.6883 258.949 72.7026 258.96 73.3998 259.05C81.7977 260.125 87.7659 269.036 79.0005 275.615C76.8942 277.196 70.7559 280.189 70.6131 277.263C70.5123 275.216 68.5992 274.758 68.0868 277.251C66.306 285.928 59.9619 287.469 53.7081 284.496C48.1494 281.852 54.8547 279.657 53.1537 277.82C51.753 276.308 43.1724 285.26 37.9161 280.002C33.4767 275.56 37.6557 268.603 43.0926 265.392C43.7541 265.001 44.9343 264.81 44.3715 263.676C42.6159 260.148 37.6473 266.898 37.704 262.706C37.7985 255.646 41.7318 249.848 50.4258 249.928L50.4216 249.923Z" fill="#45DD3A"/>
<path d="M329.316 121.293C366.856 63.1628 357.41 0.698335 346.379 0.412735C328.166 -0.0597653 296.829 14.258 276.722 32.0975C264.933 42.5576 254.918 54.6284 245.68 67.3607C243.347 70.5779 246.064 68.7215 210.383 77.5562C206.763 78.4529 208.724 76.607 188.705 115.363C178.4 135.308 176.936 135.682 179.994 138.4C186.304 144.009 185.607 145.073 188.469 141.898C196.788 132.671 207.325 117.162 213.89 107.914C215.223 106.034 214.959 106.723 220.251 106.635C222.307 106.601 220.751 107.721 218.304 112.777C213.315 123.091 210.118 127.486 213.537 130.508C219.747 135.999 221.488 136.789 223.56 139.021C214.778 144.622 213.84 144.576 216.458 146.695C218.754 148.553 220.772 148.948 218.518 150.517C201.359 162.457 204.072 156.497 247.92 183.619C256.764 189.089 257.368 188.976 258.124 185.574C260.239 176.053 259.439 175.315 261.816 176.943C264.779 178.972 267.684 181.345 268.164 177.783C269.301 169.372 268.505 168.352 270.586 169.509C286.884 178.558 286.571 177.384 288.862 175.349C293.402 171.317 301.361 160.907 304.587 156.829C305.66 159.196 306.441 161.432 307.644 163.417C309.272 166.107 308.287 164.696 296.498 187.81C286.458 207.495 286.903 207.415 289.864 208.585C298.459 211.981 298.373 211.519 300.851 208.135L335.4 161.218C337.485 158.427 337.023 157.917 334.218 145.393C328.873 121.52 328.319 122.834 329.316 121.293ZM302.26 19.1783C315.259 11.7359 330.173 5.45484 344.982 3.20154C347.08 2.88234 348.231 3.64254 348.741 5.75724C352.78 22.5068 352.028 33.6326 351.02 50.0777C350.844 52.9652 353.458 53.0114 302.802 22.5131C299.862 20.7428 299.337 20.852 302.26 19.1783ZM295.368 23.3111C298.163 21.146 296.876 21.8201 327.802 40.9616C350.531 55.0316 350.537 54.3953 350.295 55.4117C349.728 59.9603 353.538 59.8301 315.272 37.2362C291.147 22.9919 292.86 25.2536 295.368 23.3111ZM212.262 104.184C203.319 116.347 194.696 126.826 187.119 138.822C186.544 139.733 186.103 139.922 185.244 139.048C181.3 135.033 181.531 136.736 183.931 132.081C204.045 93.1025 206.674 88.5854 209.154 83.1653C210.627 79.9481 212.762 80.9372 240.709 74.0282C240.423 75.4415 239.636 76.3151 239.031 77.2328C225.379 97.9724 225.959 102.599 222.275 102.582C213.218 102.538 213.258 102.83 212.262 104.184ZM257.641 174.908C254.691 185.885 255.598 184.507 253.996 183.573C247.206 179.62 243.893 177.47 213.907 160.132C211.137 158.53 213.987 158.402 220.251 152.026C222.349 149.891 221.46 150.388 241.253 163.467C257.931 174.488 257.864 174.079 257.641 174.908ZM266.602 168.203C265.525 174.366 265.976 175.717 263.815 174.295C258.164 170.578 226.458 149.782 220.089 146.188C217.802 144.897 220.077 144.758 224.928 141.092C226.992 139.531 225.509 142.232 258.017 162.367C265.544 167.029 267.058 167.054 266.602 168.203ZM293.713 163.448C284.715 173.501 286.262 174.173 283.984 172.959C249.237 154.444 223.764 133.221 216.788 127.816C216.137 127.312 215.881 126.934 216.414 126.121C219.442 121.518 221.519 114.919 222.674 114.882C223.636 115.583 250.703 137.268 281.495 154.395C294.601 161.684 295.794 161.122 293.713 163.448ZM295.668 158.301C258.063 136.797 235.568 118.783 225.936 111.912C224.82 111.118 224.552 110.377 225.301 109.054C238.416 85.8617 255.47 53.8556 289.244 27.7211C291.682 25.8332 289.979 26.5388 319.602 44.3447C349.224 62.1506 349.441 61.0817 349.042 62.6798C342.618 88.4615 333.267 111.41 307.749 145.143C296.949 159.421 297.651 159.431 295.67 158.299L295.668 158.301ZM297.913 206.363C297.222 207.325 296.512 207.606 295.332 207.174C291.332 205.712 291.239 205.712 293.373 202.014C300.011 190.517 305.696 178.531 311.695 166.701C312.332 165.448 312.313 164.419 311.641 163.123C310.408 160.752 309.875 157.909 308.285 155.857C305.133 151.787 310.803 150.97 325.461 127.582C325.553 127.435 325.742 127.347 326.141 127.032C333.369 157.52 333.078 157.176 333.231 157.566C333.628 158.585 332.973 157.457 297.913 206.363Z" fill="#38A1FF"/>
<path d="M299.899 55.9743C312.783 56.6883 322.64 67.0749 322.183 80.0529C321.744 92.4933 310.473 102.657 297.375 101.941C285.01 101.265 275.222 91.0632 275.768 78.0264C276.274 65.9556 287.029 55.2624 299.897 55.9743H299.899ZM318.104 79.1247C318.697 69.828 310.431 59.1033 298.175 59.6577C272.675 60.8106 274.273 98.8815 299.799 98.3901C310.511 98.1843 318.652 88.1106 318.104 79.1247Z" fill="#38A1FF"/>
<path d="M299.014 93.2972C291.475 93.6374 284.288 87.1001 284.292 78.6161C284.297 70.5143 291.382 63.5045 299.48 63.7565C319.119 64.3697 318.934 93.482 299.014 93.2972ZM299.371 91.0271C315.478 91.0103 315.553 66.6755 299.45 66.2912C282.961 65.8985 282.877 91.0439 299.371 91.0271Z" fill="#38A1FF"/>
</svg>
