<svg xmlns="http://www.w3.org/2000/svg" width="1440" height="30" viewBox="0 0 1440 30">
  <path id="_61a616d985db5702cdcec9f8_separator-pattern1" data-name="61a616d985db5702cdcec9f8_separator-pattern1" d="M1356.89,19.776c0-1.222,0-1.222-.42-1.87-4.25,4.961-10.24-.359-15.12,2.445a21.948,21.948,0,0,0-3.19-3.02,7.63,7.63,0,0,1-5.05,2.085l-.47-1.15-3.65,1.51.47-1.87c-4.68,2.661-11.51-.647-15.38.36-10.53,2.588-23.52.719-34.78,2.732-3.69.647-8.49-1.8-12.74-.647a36.916,36.916,0,0,1-17.62-.575A67.293,67.293,0,0,0,1236.2,21a19.8,19.8,0,0,0-9.18,0c-1.23.5-3.18-1.869-4.54-1.582-8.15,1.8-17.71,0-27.48,1.222a29.294,29.294,0,0,0-10.53.359l-.58-.148c-1.5-.381-2.97-.756-4.47-1.074-1.7-.359-.94,1.294-1.57,1.8s-6.71-1.51-8.5-1.222c-8.02,1.366-16.26-.431-22.63,0-1.49.575-2.93,1.222-4.25,1.8a8.89,8.89,0,0,1-5.48-1.222l-5.05.647a7.909,7.909,0,0,1-5.27-.935,12.837,12.837,0,0,1-8.49.647c0-1.8.3-2.013-.47-3.092h-.21a6.92,6.92,0,0,1-.72,2.47,3.4,3.4,0,0,1-1.36,1.485,17.509,17.509,0,0,0-10.28.935,32.039,32.039,0,0,1-8.49-.935l-5.74.935a153.86,153.86,0,0,1-16.98-.935c0,2.085,0,3.02-1.11,3.667a5.616,5.616,0,0,0-.24-1.709,3.587,3.587,0,0,0-.69-1.311,6.225,6.225,0,0,1-5.95,0,1.2,1.2,0,0,0-.46,0l.46.863c1.28.863,2.59,1.654,3.87,2.445v.575h-1.11c-7.13-4.674-11.72-2.876-20.64-3.883l-.21.863.68,2.445h-.89l-1.62-2.732a32.588,32.588,0,0,0-18.3,1.51,5.523,5.523,0,0,1-.42,1.422,3.283,3.283,0,0,1-.73,1.023c-.72,0-3.22-2.157-2.76-2.445a20.515,20.515,0,0,0-11.21,0,17.033,17.033,0,0,1-3.65-.935c-6.15,1.363-12.358-2.105-18.558-2.464l-.467-1.222a2.578,2.578,0,0,1-1.359,1.222c-.467-.863-1.02-.863-1.572-1.51,2-1.438,1.741-5.393,5.224-4.242-.722-1.51-1.189-1.222-.892-2.732l1-.033V9.945H991.6c-1.953,1.438-.444,1.687-2.1,3.053h-3.228c-1.745.915-2.677,4.651-3.154,6.563l-.031.124a1.942,1.942,0,0,0-2.76,0v1.222l1.4,1.8-.467.863h-1.147a6.4,6.4,0,0,0-2.293-2.373l-.467.575c.849.5.552,0,.934,1.222l-2.548.647h-.212c0-1.941-.255-1.8-.679-3.667a6.341,6.341,0,0,0,5.945-2.085l-1.826.6h-.68c-.385,1.444-1.042-1.35-1.868-.6l-3.185,1.825v-.575a3.055,3.055,0,0,0,1.4-3.667A4.6,4.6,0,0,0,973.49,13.1h-.255a20.906,20.906,0,0,0-1.826,7.837c-.7.42-1.382-3.058-2.039-2.472l-1.614-.863,1.614,4.17,1.614.647c.722-1.366.934-1.51,2.038-.935l.68,2.732h-.467a27.46,27.46,0,0,1-2.506-1.222l-.212,3.092-.68-.647c-1.656-3.38-4.714-.431-7.559,0-.722-1.007-.68-1.079-1.826-.863L960.2,21.2h.467c1.529-.719,3.058-1.366,4.587-2.085h-.467a8.35,8.35,0,0,0-1-.555q-.03.145-.06.3a17.522,17.522,0,0,0-3.44,1.51l.066-.641a4.745,4.745,0,0,1-1.637,1.216,4.279,4.279,0,0,0-.769-.572q-.009,1.5.047,2.989c-1.359.575-1.529,1.51-3.185,1.8s-.935-.935-.935-1.51c-1.146.719-1.274,1.582-2.505,2.157-.977-.575-1.147-.575-1.614-1.87-1.359.935-2.718,1.87-4.247,2.732l-.467-2.732c-1.231.5-1.444,1.438-2.038,2.732a12.45,12.45,0,0,0-8.027,1.222c-2.123,0-4.247-.432-6.413-.575a29.085,29.085,0,0,0-14.651,2.373l-.892-1.51c-3.057,3.451-8.069,0-11.679.647a7.12,7.12,0,0,1-5.733-.36c-5.549,2.344-11.293-1.926-16.987-2.843l-.425-.647c2.081-4.746-2.887-4.458-5.266-4.53l.213,2.445h.467a7.887,7.887,0,0,0,3.44,0l.679,2.157a11.271,11.271,0,0,0-8.026,2.373c-1.359,1.438-15.331-6.969-19.2-4.237-1.316.935-9.428-1.151-10.787-.575l-.637,1.366h-1.146c-.68,0-.85-1.726-2.293-1.222a22.444,22.444,0,0,1-10.32.863c-2.421,0-4.884,1.647-7.3,1.935a28.927,28.927,0,0,1-9.385-1.8c-5.521-1.438-7.772,3.092-12.741-1.222,0,0-9.6,2.732-10.744,2.445-4.247-1.079-10.065-1.8-13.505-2.445-1.146,0-1.019,1.15-1.613,1.51a6.826,6.826,0,0,1-6.2-1.222l-5.945,2.157a18.733,18.733,0,0,0-3.865-2.445,7.635,7.635,0,0,1-6.2,1.8c-.977-2.085-2.93-2.013-3.907-3.308-4.247,4.171-4.757,1.151-8.494,0-1.868-.575-1.019,1.51-2.548,0l-4.8,3.02c-1.656-1.079-2.081-2.517-4.247-2.732a7.4,7.4,0,0,1-4.246,2.085l-2.506-2.732c-2.888,0-3.822,2.517-6.413,2.157l-4.586-2.732a12.286,12.286,0,0,1-4.544,3.667l-4.247-3.092a7.11,7.11,0,0,1-2.8,4.728l-.176.161h-.212c-2.287-2.468-4.994-3.575-7.694-3.146s-5.238,2.372-7.212,5.518c-4.354-.411-8.485-3.387-11.679-8.413H667.3a17.66,17.66,0,0,1-1.826,7.19c-1.869,0-3.228,0-3.908-2.373a46.247,46.247,0,0,0-4.544,2.732c-7.729-5.824-6.033,0-14.145-4.6a6.171,6.171,0,0,1-1.217,2.367A2.789,2.789,0,0,1,639.9,25.83c-1.359-.647-2.719-1.222-4.247-1.8-6.328.359-12.741.791-18.984,1.15-2.123-.935-4.246-3.092-5.733-2.085-1.316,4.674-8.281,2.948-11.891,3.6a13.082,13.082,0,0,0-6.412-4.818c-.892,0-1.741,2.876-3.44,2.732l-6.413-1.51-.014.007c-1.439.717-2.878,1.433-4.233,2.078-12.358-.719-25.1.431-36.182.935-7.687,0-16.987,2.445-23.315-1.222-1.656,3.308-4.757-1.007-6.668,0-.892,0-1.486,2.085-2.718,2.445-2.505.647-3.44-1.51-5.053-1.51-4.035,0-9.64,4.889-16.265,3.02l-6.838-2.157a53.95,53.95,0,0,1-11.466,0l-5.011-.863c-14.142,4.458,3.515-1.8-13.26,1.8H440.291c-10.037,1.558-2.484,1.967-12.554,1.222-2.123-.431-4.247-.791-6.413-1.222l-2.972,1.8H411.26a80.68,80.68,0,0,1-24.5-.935A17.129,17.129,0,0,0,382.509,30a70.476,70.476,0,0,1-11.679-2.085,11.64,11.64,0,0,0-5.733.575c-4.8,0-9.6-.36-14.4-.575l-24.5.49a134.631,134.631,0,0,0-17.412-3.02c-.891.431-1.826.791-2.717,1.222s-8.282-1.51-8.282-1.51c-.255,1.222.213.863-.679,1.51-4.247,3.02-8.494-2.157-13.25-1.51a21.634,21.634,0,0,1-8.027-1.51c-1.444-.431-3.779.431-5.733,0-7.227-2.505-14.579,2.17-21.956,2.045a3.472,3.472,0,0,0-1.614-1.8c-.339,1.222,0,1.079-1.146,1.51-1.741-2.517-7.942-1.007-10.532,0a11.289,11.289,0,0,1-1.614-3.667h-.425V24.7c-.764,0-.722.5-1.4.359-3.9.8-7.855-1.71-11.636-3.51-1.572,3.739-9.386-1.151-11,.863-2.42.863-6.752-.863-8.493,0A37.506,37.506,0,0,1,186.1,24.855a26.734,26.734,0,0,0-15.077-1.222c-1.911.791-18.006-.432-18.091-.575-5.521,4.314-16.69-1.366-25.481,1.151S106.892,23.2,97,24.855c-8.961,1.438-17.709-3.431-24.929-2.425-2.548.432-5.054.791-7.559,1.222a11.854,11.854,0,0,0-6.88,0c-.552,0-.3,1.222-1.359,1.222-2.123,0-2.8-2.229-4.247-2.445-.68,1.222-1.359,2.445-2.081,3.6-2.506-.575-5.478,2.085-8.494,1.222-1.147,0-1.1-1.941-1.826-2.373-2.166-1.366-5.266.647-7.347-.647l-2.718-4.242c-2.675,0-5.351,3.64-8.026,3.425C15.557,20.688,4.376,26.406,0,19V0H1440V19a13.8,13.8,0,0,0-8.83,3.5c-7.14-5.393-13.21,1.516-21.75-1.217-3.9-1.151-11.12,1.007-13.08-2.732a13.593,13.593,0,0,1-10.74,0v.36l.68,1.51h-.68a7.331,7.331,0,0,0-3.44-1.51c0-1.222,0-.935-.47-1.51-1.87-.575-4.97,2.8-7.35,2.373l-1.82-1.51A52.094,52.094,0,0,0,1356.89,19.776Z" fill="#604adf"/>
</svg>
