<svg xmlns="http://www.w3.org/2000/svg" width="560" height="299.333" viewBox="0 0 560 299.333">
  <g id="Groupe_561" data-name="Groupe 561" transform="translate(-822.848 -613.083)">
    <g id="Tracé_1675" data-name="Tracé 1675" transform="translate(822.848 613.083)" fill="rgba(119,233,111,0.15)" opacity="0.999">
      <path d="M 543.956787109375 297.3333129882812 L 16.04321479797363 297.3333129882812 C 12.18685722351074 297.3333129882812 8.583499908447266 296.2265930175781 5.896857261657715 294.217041015625 C 3.383928537368774 292.3374633789062 2 289.8927307128906 2 287.3333129882812 L 2 12.00002861022949 C 2 9.440600395202637 3.383928537368774 6.995885848999023 5.896857261657715 5.11631441116333 C 8.583499908447266 3.106743097305298 12.18685722351074 2.000028848648071 16.04321479797363 2.000028848648071 L 543.956787109375 2.000028848648071 C 547.8130493164062 2.000028848648071 551.4164428710938 3.106743097305298 554.1030883789062 5.11631441116333 C 556.6160888671875 6.995957374572754 558 9.440600395202637 558 12.00002861022949 L 558 287.3333129882812 C 558 289.8927307128906 556.6160888671875 292.3373718261719 554.1030883789062 294.217041015625 C 551.4164428710938 296.2265930175781 547.8130493164062 297.3333129882812 543.956787109375 297.3333129882812 Z" stroke="none"/>
      <path d="M 16.043212890625 4.000030517578125 C 12.66558837890625 4.000030517578125 9.40399169921875 4.9906005859375 7.09478759765625 6.717803955078125 C 5.93902587890625 7.5823974609375 4 9.418182373046875 4 12.00003051757812 L 4 287.3333129882812 C 4 289.9151611328125 5.93902587890625 291.7509460449219 7.09478759765625 292.6155395507812 C 9.40399169921875 294.3427429199219 12.66558837890625 295.3333129882812 16.043212890625 295.3333129882812 L 543.956787109375 295.3333129882812 C 547.3344116210938 295.3333129882812 550.5960083007812 294.3426818847656 552.9051513671875 292.6154479980469 C 554.0609741210938 291.7509460449219 556 289.9151000976562 556 287.3333129882812 L 556 12.00003051757812 C 556 9.418243408203125 554.0609741210938 7.5823974609375 552.9051513671875 6.7178955078125 C 550.5960083007812 4.99066162109375 547.3344116210938 4.000030517578125 543.956787109375 4.000030517578125 L 16.043212890625 4.000030517578125 M 16.043212890625 3.0517578125e-05 L 543.956787109375 3.0517578125e-05 C 552.817138671875 3.0517578125e-05 560 5.372589111328125 560 12.00003051757812 L 560 287.3333129882812 C 560 293.9607543945312 552.817138671875 299.3333129882812 543.956787109375 299.3333129882812 L 16.043212890625 299.3333129882812 C 7.18280029296875 299.3333129882812 0 293.9607543945312 0 287.3333129882812 L 0 12.00003051757812 C 0 5.372589111328125 7.18280029296875 3.0517578125e-05 16.043212890625 3.0517578125e-05 Z" stroke="none" fill="#77e96f"/>
    </g>
    <g id="undraw_business_decisions_re_84ag" transform="translate(938.747 626.337)">
      <circle id="Ellipse_232" data-name="Ellipse 232" cx="3.507" cy="3.507" r="3.507" transform="translate(86.445 55.378)" fill="#e6e6e6"/>
      <circle id="Ellipse_233" data-name="Ellipse 233" cx="3.507" cy="3.507" r="3.507" transform="translate(104.197 55.378)" fill="#e6e6e6"/>
      <circle id="Ellipse_234" data-name="Ellipse 234" cx="3.507" cy="3.507" r="3.507" transform="translate(121.949 55.378)" fill="#e6e6e6"/>
      <circle id="Ellipse_235" data-name="Ellipse 235" cx="3.507" cy="3.507" r="3.507" transform="translate(139.702 55.378)" fill="#e6e6e6"/>
      <circle id="Ellipse_236" data-name="Ellipse 236" cx="3.507" cy="3.507" r="3.507" transform="translate(157.454 55.378)" fill="#e6e6e6"/>
      <circle id="Ellipse_237" data-name="Ellipse 237" cx="3.507" cy="3.507" r="3.507" transform="translate(86.445 73.353)" fill="#e6e6e6"/>
      <circle id="Ellipse_238" data-name="Ellipse 238" cx="3.507" cy="3.507" r="3.507" transform="translate(104.197 73.353)" fill="#e6e6e6"/>
      <circle id="Ellipse_239" data-name="Ellipse 239" cx="3.507" cy="3.507" r="3.507" transform="translate(121.949 73.353)" fill="#e6e6e6"/>
      <circle id="Ellipse_240" data-name="Ellipse 240" cx="3.507" cy="3.507" r="3.507" transform="translate(139.702 73.353)" fill="#77e96f"/>
      <circle id="Ellipse_241" data-name="Ellipse 241" cx="3.507" cy="3.507" r="3.507" transform="translate(157.454 73.353)" fill="#e6e6e6"/>
      <circle id="Ellipse_242" data-name="Ellipse 242" cx="3.507" cy="3.507" r="3.507" transform="translate(192.959 73.353)" fill="#e6e6e6"/>
      <circle id="Ellipse_243" data-name="Ellipse 243" cx="3.507" cy="3.507" r="3.507" transform="translate(86.445 91.329)" fill="#e6e6e6"/>
      <circle id="Ellipse_244" data-name="Ellipse 244" cx="3.507" cy="3.507" r="3.507" transform="translate(104.197 91.329)" fill="#e6e6e6"/>
      <circle id="Ellipse_245" data-name="Ellipse 245" cx="3.507" cy="3.507" r="3.507" transform="translate(121.949 91.329)" fill="#e6e6e6"/>
      <circle id="Ellipse_246" data-name="Ellipse 246" cx="3.507" cy="3.507" r="3.507" transform="translate(139.702 91.329)" fill="#e6e6e6"/>
      <circle id="Ellipse_247" data-name="Ellipse 247" cx="3.507" cy="3.507" r="3.507" transform="translate(157.454 91.329)" fill="#e6e6e6"/>
      <circle id="Ellipse_248" data-name="Ellipse 248" cx="3.507" cy="3.507" r="3.507" transform="translate(86.445 109.304)" fill="#e6e6e6"/>
      <circle id="Ellipse_249" data-name="Ellipse 249" cx="3.507" cy="3.507" r="3.507" transform="translate(104.197 109.304)" fill="#e6e6e6"/>
      <circle id="Ellipse_250" data-name="Ellipse 250" cx="3.507" cy="3.507" r="3.507" transform="translate(121.949 109.304)" fill="#e6e6e6"/>
      <circle id="Ellipse_251" data-name="Ellipse 251" cx="3.507" cy="3.507" r="3.507" transform="translate(139.702 109.304)" fill="#e6e6e6"/>
      <circle id="Ellipse_252" data-name="Ellipse 252" cx="3.507" cy="3.507" r="3.507" transform="translate(157.454 109.304)" fill="#e6e6e6"/>
      <circle id="Ellipse_253" data-name="Ellipse 253" cx="3.507" cy="3.507" r="3.507" transform="translate(175.206 109.304)" fill="#e6e6e6"/>
      <circle id="Ellipse_254" data-name="Ellipse 254" cx="3.507" cy="3.507" r="3.507" transform="translate(192.959 109.304)" fill="#e6e6e6"/>
      <circle id="Ellipse_255" data-name="Ellipse 255" cx="3.507" cy="3.507" r="3.507" transform="translate(210.711 109.304)" fill="#e6e6e6"/>
      <circle id="Ellipse_256" data-name="Ellipse 256" cx="3.507" cy="3.507" r="3.507" transform="translate(228.464 109.304)" fill="#e6e6e6"/>
      <circle id="Ellipse_257" data-name="Ellipse 257" cx="3.507" cy="3.507" r="3.507" transform="translate(246.216 109.304)" fill="#e6e6e6"/>
      <circle id="Ellipse_258" data-name="Ellipse 258" cx="3.507" cy="3.507" r="3.507" transform="translate(157.454 127.279)" fill="#e6e6e6"/>
      <circle id="Ellipse_259" data-name="Ellipse 259" cx="3.507" cy="3.507" r="3.507" transform="translate(175.206 127.279)" fill="#77e96f"/>
      <circle id="Ellipse_260" data-name="Ellipse 260" cx="3.507" cy="3.507" r="3.507" transform="translate(192.959 127.279)" fill="#e6e6e6"/>
      <circle id="Ellipse_261" data-name="Ellipse 261" cx="3.507" cy="3.507" r="3.507" transform="translate(210.711 127.279)" fill="#e6e6e6"/>
      <circle id="Ellipse_262" data-name="Ellipse 262" cx="3.507" cy="3.507" r="3.507" transform="translate(228.464 127.279)" fill="#e6e6e6"/>
      <circle id="Ellipse_263" data-name="Ellipse 263" cx="3.507" cy="3.507" r="3.507" transform="translate(246.216 127.279)" fill="#e6e6e6"/>
      <circle id="Ellipse_264" data-name="Ellipse 264" cx="3.507" cy="3.507" r="3.507" transform="translate(157.454 145.254)" fill="#e6e6e6"/>
      <circle id="Ellipse_265" data-name="Ellipse 265" cx="3.507" cy="3.507" r="3.507" transform="translate(175.206 145.254)" fill="#e6e6e6"/>
      <circle id="Ellipse_266" data-name="Ellipse 266" cx="3.507" cy="3.507" r="3.507" transform="translate(192.959 145.254)" fill="#e6e6e6"/>
      <circle id="Ellipse_267" data-name="Ellipse 267" cx="3.507" cy="3.507" r="3.507" transform="translate(210.711 145.254)" fill="#e6e6e6"/>
      <circle id="Ellipse_268" data-name="Ellipse 268" cx="3.507" cy="3.507" r="3.507" transform="translate(228.464 145.254)" fill="#77e96f"/>
      <circle id="Ellipse_269" data-name="Ellipse 269" cx="3.507" cy="3.507" r="3.507" transform="translate(246.216 145.254)" fill="#e6e6e6"/>
      <circle id="Ellipse_270" data-name="Ellipse 270" cx="3.507" cy="3.507" r="3.507" transform="translate(157.454 163.229)" fill="#e6e6e6"/>
      <circle id="Ellipse_271" data-name="Ellipse 271" cx="3.507" cy="3.507" r="3.507" transform="translate(175.206 163.229)" fill="#e6e6e6"/>
      <circle id="Ellipse_272" data-name="Ellipse 272" cx="3.507" cy="3.507" r="3.507" transform="translate(192.959 163.229)" fill="#e6e6e6"/>
      <circle id="Ellipse_273" data-name="Ellipse 273" cx="3.507" cy="3.507" r="3.507" transform="translate(210.711 163.229)" fill="#e6e6e6"/>
      <circle id="Ellipse_274" data-name="Ellipse 274" cx="3.507" cy="3.507" r="3.507" transform="translate(228.464 163.229)" fill="#e6e6e6"/>
      <circle id="Ellipse_275" data-name="Ellipse 275" cx="3.507" cy="3.507" r="3.507" transform="translate(246.216 163.229)" fill="#e6e6e6"/>
      <circle id="Ellipse_276" data-name="Ellipse 276" cx="3.507" cy="3.507" r="3.507" transform="translate(86.445 181.204)" fill="#e6e6e6"/>
      <circle id="Ellipse_277" data-name="Ellipse 277" cx="3.507" cy="3.507" r="3.507" transform="translate(104.197 181.204)" fill="#e6e6e6"/>
      <circle id="Ellipse_278" data-name="Ellipse 278" cx="3.507" cy="3.507" r="3.507" transform="translate(121.949 181.204)" fill="#e6e6e6"/>
      <circle id="Ellipse_279" data-name="Ellipse 279" cx="3.507" cy="3.507" r="3.507" transform="translate(139.702 181.204)" fill="#e6e6e6"/>
      <circle id="Ellipse_280" data-name="Ellipse 280" cx="3.507" cy="3.507" r="3.507" transform="translate(157.454 181.204)" fill="#e6e6e6"/>
      <circle id="Ellipse_281" data-name="Ellipse 281" cx="3.507" cy="3.507" r="3.507" transform="translate(175.206 181.204)" fill="#e6e6e6"/>
      <circle id="Ellipse_282" data-name="Ellipse 282" cx="3.507" cy="3.507" r="3.507" transform="translate(192.959 181.204)" fill="#e6e6e6"/>
      <circle id="Ellipse_283" data-name="Ellipse 283" cx="3.507" cy="3.507" r="3.507" transform="translate(210.711 181.204)" fill="#e6e6e6"/>
      <circle id="Ellipse_284" data-name="Ellipse 284" cx="3.507" cy="3.507" r="3.507" transform="translate(228.464 181.204)" fill="#e6e6e6"/>
      <circle id="Ellipse_285" data-name="Ellipse 285" cx="3.507" cy="3.507" r="3.507" transform="translate(246.216 181.204)" fill="#e6e6e6"/>
      <circle id="Ellipse_286" data-name="Ellipse 286" cx="3.507" cy="3.507" r="3.507" transform="translate(86.443 199.179)" fill="#e6e6e6"/>
      <circle id="Ellipse_287" data-name="Ellipse 287" cx="3.507" cy="3.507" r="3.507" transform="translate(104.197 199.18)" fill="#e6e6e6"/>
      <circle id="Ellipse_288" data-name="Ellipse 288" cx="3.507" cy="3.507" r="3.507" transform="translate(86.443 217.154)" fill="#e6e6e6"/>
      <circle id="Ellipse_289" data-name="Ellipse 289" cx="3.507" cy="3.507" r="3.507" transform="translate(104.197 217.155)" fill="#e6e6e6"/>
      <circle id="Ellipse_290" data-name="Ellipse 290" cx="3.507" cy="3.507" r="3.507" transform="translate(139.702 217.155)" fill="#e6e6e6"/>
      <path id="Tracé_1487" data-name="Tracé 1487" d="M703.844,230.842H564.868a2.577,2.577,0,0,1-2.574-2.574V193.795a2.577,2.577,0,0,1,2.574-2.574H703.844a2.577,2.577,0,0,1,2.573,2.574v34.474a2.577,2.577,0,0,1-2.574,2.574ZM564.868,192.25a1.546,1.546,0,0,0-1.544,1.544v34.474a1.545,1.545,0,0,0,1.544,1.544H703.844a1.546,1.546,0,0,0,1.544-1.544V193.795a1.545,1.545,0,0,0-1.544-1.544Z" transform="translate(-383.685 -134.088)" fill="#e6e6e6"/>
      <circle id="Ellipse_291" data-name="Ellipse 291" cx="10.809" cy="10.809" r="10.809" transform="translate(188.389 66.134)" fill="#77e96f"/>
      <path id="Tracé_1488" data-name="Tracé 1488" d="M649.1,215.708a1.8,1.8,0,0,0,0,3.6h47.869a1.8,1.8,0,0,0,0-3.6Z" transform="translate(-424.933 -145.972)" fill="#e6e6e6"/>
      <path id="Tracé_1489" data-name="Tracé 1489" d="M649.1,236.708a1.8,1.8,0,0,0,0,3.6h84.929a1.8,1.8,0,0,0,0-3.6Z" transform="translate(-424.933 -156.162)" fill="#e6e6e6"/>
      <path id="Tracé_1490" data-name="Tracé 1490" d="M356.844,366.842H217.868a2.577,2.577,0,0,1-2.574-2.574V329.795a2.577,2.577,0,0,1,2.574-2.574H356.844a2.576,2.576,0,0,1,2.574,2.574v34.474A2.576,2.576,0,0,1,356.844,366.842ZM217.868,328.25a1.546,1.546,0,0,0-1.544,1.544v34.474a1.546,1.546,0,0,0,1.544,1.544H356.844a1.546,1.546,0,0,0,1.544-1.544V329.795a1.546,1.546,0,0,0-1.544-1.544Z" transform="translate(-215.294 -200.086)" fill="#e6e6e6"/>
      <circle id="Ellipse_292" data-name="Ellipse 292" cx="10.809" cy="10.809" r="10.809" transform="translate(9.78 136.136)" fill="#77e96f"/>
      <path id="Tracé_1491" data-name="Tracé 1491" d="M302.1,351.708a1.8,1.8,0,0,0,0,3.6h49.928a1.8,1.8,0,1,0,0-3.6Z" transform="translate(-256.543 -211.969)" fill="#e6e6e6"/>
      <path id="Tracé_1492" data-name="Tracé 1492" d="M302.1,372.708a1.8,1.8,0,0,0,0,3.6h84.93a1.8,1.8,0,0,0,0-3.6Z" transform="translate(-256.543 -222.16)" fill="#e6e6e6"/>
      <path id="Tracé_1493" data-name="Tracé 1493" d="M600.844,513.842H461.867a2.577,2.577,0,0,1-2.573-2.574V476.795a2.577,2.577,0,0,1,2.573-2.574H600.844a2.577,2.577,0,0,1,2.573,2.574v34.474A2.577,2.577,0,0,1,600.844,513.842ZM461.867,475.25a1.546,1.546,0,0,0-1.544,1.544v34.474a1.546,1.546,0,0,0,1.544,1.544H600.844a1.546,1.546,0,0,0,1.544-1.544V476.795a1.546,1.546,0,0,0-1.544-1.544Z" transform="translate(-333.702 -271.421)" fill="#412b76"/>
      <circle id="Ellipse_293" data-name="Ellipse 293" cx="10.809" cy="10.809" r="10.809" transform="translate(135.372 211.801)" fill="#77e96f"/>
      <path id="Tracé_1494" data-name="Tracé 1494" d="M546.1,498.708a1.8,1.8,0,0,0,0,3.6h45.81a1.8,1.8,0,0,0,0-3.6Z" transform="translate(-374.95 -283.305)" fill="#e6e6e6"/>
      <path id="Tracé_1495" data-name="Tracé 1495" d="M546.1,519.708a1.8,1.8,0,0,0,0,3.6h84.93a1.8,1.8,0,0,0,0-3.6Z" transform="translate(-374.95 -293.495)" fill="#e6e6e6"/>
      <circle id="Ellipse_294" data-name="Ellipse 294" cx="2.885" cy="2.885" r="2.885" transform="translate(61.199 48.328)" fill="#e5e5e5"/>
      <path id="Tracé_1496" data-name="Tracé 1496" d="M567.481,311.338a202.9,202.9,0,0,1-32.221-16.9c-24.523-15.774-41.244-34.019-41.607-45.4a8.852,8.852,0,0,1,3.673-7.84c4.114-3.035,11.449-3.763,21.212-2.107l-.241,1.422c-9.368-1.589-16.324-.951-20.115,1.846a7.48,7.48,0,0,0-3.087,6.633c.349,10.928,16.8,28.7,40.946,44.233A201.389,201.389,0,0,0,568.027,310Z" transform="translate(-434.394 -237.633)" fill="#412b76"/>
      <path id="Tracé_1497" data-name="Tracé 1497" d="M649.83,326.724a66.174,66.174,0,0,1-15.106-2.07l.336-1.4c12.1,2.9,21.251,2.658,25.776-.68a7.483,7.483,0,0,0,3.088-6.633c-.35-10.928-16.8-28.7-40.947-44.233A195.086,195.086,0,0,0,585.4,252.75l.5-1.354a196.549,196.549,0,0,1,37.866,19.1c24.523,15.774,41.244,34.019,41.608,45.4a8.853,8.853,0,0,1-3.673,7.84C658.992,325.726,654.982,326.724,649.83,326.724Z" transform="translate(-482.023 -244.473)" fill="#412b76"/>
      <path id="Tracé_1498" data-name="Tracé 1498" d="M509.23,319.875c-5.167,0-9.213-.991-11.9-2.976a8.852,8.852,0,0,1-3.673-7.84c.364-11.381,17.085-29.626,41.607-45.4,27.408-17.629,58.172-28.078,73.15-24.841l-.3,1.41c-14.64-3.164-44.948,7.2-72.065,24.645-24.142,15.529-40.6,33.3-40.946,44.233a7.481,7.481,0,0,0,3.087,6.634c10.832,7.989,45.449-2.11,77.167-22.512,21.788-14.015,37.27-29.7,40.4-40.923l1.39.388c-3.225,11.553-18.94,27.55-41.013,41.748-15.534,9.992-32.237,17.844-47.032,22.11A74.035,74.035,0,0,1,509.23,319.875Z" transform="translate(-434.394 -237.639)" fill="#412b76"/>
      <circle id="Ellipse_295" data-name="Ellipse 295" cx="4.328" cy="4.328" r="4.328" transform="translate(89.672 0)" fill="#77e96f"/>
      <circle id="Ellipse_296" data-name="Ellipse 296" cx="4.328" cy="4.328" r="4.328" transform="translate(138.001 72.372)" fill="#77e96f"/>
      <circle id="Ellipse_297" data-name="Ellipse 297" cx="2.885" cy="2.885" r="2.885" transform="translate(286.614 68.136)" fill="#e5e5e5"/>
      <circle id="Ellipse_298" data-name="Ellipse 298" cx="4.328" cy="4.328" r="4.328" transform="translate(175.99 2.164)" fill="#77e96f"/>
      <path id="Tracé_1499" data-name="Tracé 1499" d="M737.97,470.823l-8.445-2.454-3.688,22.863,5.722,1.663Z" transform="translate(-471.371 -225.738)" fill="#9f616a"/>
      <path id="Tracé_1500" data-name="Tracé 1500" d="M834.178,697.937l.243-.837a6.364,6.364,0,0,1,7.887-4.336l11.873,3.449h0l-2.019,6.948h0Z" transform="translate(-592.291 -430.336)" fill="#2f2e41"/>
      <path id="Tracé_1501" data-name="Tracé 1501" d="M851.216,471.857h-8.794l2.835,22.983h5.958Z" transform="translate(-531.893 -227.549)" fill="#9f616a"/>
      <path id="Tracé_1502" data-name="Tracé 1502" d="M958.919,706.847v-.872a6.364,6.364,0,0,1,6.364-6.364h12.363v7.236H958.919Z" transform="translate(-657.046 -434.022)" fill="#2f2e41"/>
      <path id="Tracé_1503" data-name="Tracé 1503" d="M970.128,511.7a4.913,4.913,0,0,0,2.307-6.555L970.77,489.46l-8.3-3.547L965.565,503a4.914,4.914,0,0,0,4.563,8.7Z" transform="translate(-658.891 -323.087)" fill="#9f616a"/>
      <path id="Tracé_1504" data-name="Tracé 1504" d="M952.547,416.606l-9.736-29.56c-.2-.339-2.628-4.153-7.905-2.531a4.414,4.414,0,0,0-2.726,2.223c-1.545,2.961-.1,7.537-.1,7.561l11.988,26.864.012.028,3.784,27.588,8.172-1.659Z" transform="translate(-642.796 -270.241)" fill="#77e96f"/>
      <path id="Tracé_1505" data-name="Tracé 1505" d="M840.72,563.23l14.656-44.941,16.993-38.841-.245-18.838,20.165-4.7,2.348,7.894c13.581,8.962,9.107,26.2,8.788,27.355l20.464,75.519-22.313,2.479-14.977-71.5-13.812,29.054-9.767,43.46Z" transform="translate(-595.688 -307.511)" fill="#2f2e41"/>
      <path id="Tracé_1506" data-name="Tracé 1506" d="M900.943,404.594c-4.009-7.685-1.111-10.612,3.273-15.038a60.393,60.393,0,0,0,5.033-5.564c6.838-8.792,14.775-4.474,14.854-4.429l.044.025,1.961,2.941c6.462,6.5-3.337,24.374-4.082,25.705l.492,12.779L901.679,423Z" transform="translate(-625.96 -267.307)" fill="#77e96f"/>
      <circle id="Ellipse_299" data-name="Ellipse 299" cx="11.938" cy="11.938" r="11.938" transform="translate(275.916 84.588)" fill="#9f616a"/>
      <path id="Tracé_1507" data-name="Tracé 1507" d="M919.024,509.377a4.914,4.914,0,0,0,9.3-2.97l2.357-15.6-7.132-5.531L922.216,502.6a4.888,4.888,0,0,0-3.192,6.781Z" transform="translate(-636.102 -322.757)" fill="#9f616a"/>
      <path id="Tracé_1508" data-name="Tracé 1508" d="M921.1,446.945l3.366-28.04-4.8-29.016c-.011-.2-.25-5.015,2.114-7.623a4.825,4.825,0,0,1,3.5-1.6,7.087,7.087,0,0,1,7.443,4.783l1.953,31.171-4.405,30.836Z" transform="translate(-636.663 -268.445)" fill="#77e96f"/>
      <path id="Tracé_1509" data-name="Tracé 1509" d="M900.6,318.438l.65-1.046a7.913,7.913,0,0,1,8.383,3.771c.41-1.511,2.847-1.433,3.748-.153s.7,3.008.41,4.546-.623,3.209.086,4.6a4.267,4.267,0,0,0,3.73,2.121,7.94,7.94,0,0,0,4.236-1.348,14.5,14.5,0,0,0,6.607-13.973,13.948,13.948,0,0,0-2.3-5.894,2.723,2.723,0,0,0,1.805-.877,2.89,2.89,0,0,0,.317-3,5.441,5.441,0,0,0-1.771-2.1,4.411,4.411,0,0,0,1.875.875,1.714,1.714,0,0,0,1.978-1.128c.146-.773-.473-1.477-1.046-2.044l-1.114-1.1a7.048,7.048,0,0,0,.536-.687,5.534,5.534,0,0,0,.277-6c1.062,1.814.13,3.973-1.742,5.444-.06.047-.128.089-.19.135l-.71-.7a6.086,6.086,0,0,0-2-1.494,2.056,2.056,0,0,0-2.3.426c-.549.684-.395,1.773-1.037,2.375a2.335,2.335,0,0,1-2.233.216,4.785,4.785,0,0,0-2.3-.381,2.162,2.162,0,0,0-1.512,2.477,2.947,2.947,0,0,0,.559,1.248,38.938,38.938,0,0,0-6.353-.02,21.766,21.766,0,0,0-7.328,1.283,7.625,7.625,0,0,0-4.76,5.361C896.676,313.823,898.114,318.222,900.6,318.438Z" transform="translate(-624.917 -223.979)" fill="#2f2e41"/>
    </g>
  </g>
</svg>
