<svg xmlns="http://www.w3.org/2000/svg" width="560" height="302.327" viewBox="0 0 560 302.327">
  <g id="Groupe_560" data-name="Groupe 560" transform="translate(-1185.516 -506.083)">
    <g id="Rectangle_462" data-name="Rectangle 462" transform="translate(1185.516 506.083)" fill="rgba(119,233,111,0.15)" stroke="#77e96f" stroke-width="4">
      <rect width="560" height="302.327" rx="12" stroke="none"/>
      <rect x="2" y="2" width="556" height="298.327" rx="10" fill="none"/>
    </g>
    <g id="undraw_growth_curve_re_t5s7" transform="translate(1327.012 553.63)">
      <path id="Tracé_1418" data-name="Tracé 1418" d="M469.347,631.666c1.237-9.943,7.4-19.741,16.882-22.977a46.166,46.166,0,0,0,0,31.7c1.457,3.942,3.488,8.174,2.118,12.147a10.321,10.321,0,0,1-5.271,5.546,30.666,30.666,0,0,1-7.476,2.3l-.5.416C471.041,651.631,468.11,641.61,469.347,631.666Z" transform="translate(-411.774 -437.502)" fill="#f0f0f0"/>
      <path id="Tracé_1419" data-name="Tracé 1419" d="M496.1,608.523a39.461,39.461,0,0,0-9.81,22.208,16.992,16.992,0,0,0,.193,5.321,9.747,9.747,0,0,0,2.424,4.52,20.167,20.167,0,0,1,3.131,3.747,5.967,5.967,0,0,1,.291,4.872,15.5,15.5,0,0,1-3.436,5.125c-1.538,1.7-3.162,3.443-3.816,5.7-.079.273-.5.134-.419-.138,1.137-3.922,4.945-6.151,6.761-9.684a6.044,6.044,0,0,0,.409-5.3,15.652,15.652,0,0,0-3.106-3.864,10.4,10.4,0,0,1-2.535-4.332,15.7,15.7,0,0,1-.4-5.294,38.283,38.283,0,0,1,2.8-11.634,40.16,40.16,0,0,1,7.221-11.572C496,607.98,496.291,608.313,496.1,608.523Z" transform="translate(-421.554 -437.147)" fill="#fff"/>
      <path id="Tracé_1420" data-name="Tracé 1420" d="M481.762,650.83a5.92,5.92,0,0,1-4.506-6.2c.023-.283.464-.262.441.022a5.482,5.482,0,0,0,4.2,5.76C482.177,650.477,482.036,650.9,481.762,650.83Z" transform="translate(-416.903 -459.919)" fill="#fff"/>
      <path id="Tracé_1421" data-name="Tracé 1421" d="M494.189,682.435a11.411,11.411,0,0,0,5.1-6.572c.08-.273.5-.134.419.138a11.869,11.869,0,0,1-5.316,6.828c-.245.145-.442-.25-.2-.394Z" transform="translate(-427.466 -479.545)" fill="#fff"/>
      <path id="Tracé_1422" data-name="Tracé 1422" d="M500.471,628.772a3.352,3.352,0,0,0,3.176-.161c.243-.148.44.247.2.394a3.755,3.755,0,0,1-3.513.187.228.228,0,0,1-.14-.279.222.222,0,0,1,.279-.14Z" transform="translate(-431.296 -449.977)" fill="#fff"/>
      <path id="Tracé_1423" data-name="Tracé 1423" d="M524.93,654.561c-.149.1-.3.194-.447.294a44.142,44.142,0,0,0-5.643,4.405c-.138.123-.276.25-.41.377a46.524,46.524,0,0,0-10.1,13.832,45.231,45.231,0,0,0-2.475,6.4c-.913,3.03-1.662,6.389-3.47,8.867a7.693,7.693,0,0,1-.6.745H485.44c-.037-.018-.074-.033-.112-.052l-.652.03c.026-.116.056-.235.082-.35.015-.067.033-.134.048-.2.011-.045.022-.089.03-.13,0-.015.008-.03.011-.041.008-.041.019-.078.026-.115q.246-1,.507-2s0,0,0-.008a66.438,66.438,0,0,1,5.591-14.678c.075-.138.149-.28.231-.417a43.163,43.163,0,0,1,3.873-5.874,38.127,38.127,0,0,1,2.538-2.9,31.691,31.691,0,0,1,7.932-5.941c5.859-3.094,12.643-4.279,18.9-2.389C524.613,654.46,524.77,654.509,524.93,654.561Z" transform="translate(-421.569 -465.613)" fill="#f0f0f0"/>
      <path id="Tracé_1424" data-name="Tracé 1424" d="M525.021,656.147a39.458,39.458,0,0,0-21.2,11.826,16.994,16.994,0,0,0-3.049,4.365,9.746,9.746,0,0,0-.786,5.069,20.177,20.177,0,0,1,.244,4.877,5.967,5.967,0,0,1-2.7,4.065,15.507,15.507,0,0,1-5.829,2.024c-2.252.432-4.6.845-6.477,2.251-.228.17-.479-.193-.252-.363,3.27-2.447,7.652-1.934,11.228-3.661a6.043,6.043,0,0,0,3.519-3.988,15.653,15.653,0,0,0-.154-4.956,10.4,10.4,0,0,1,.584-4.985,15.714,15.714,0,0,1,2.87-4.466,38.286,38.286,0,0,1,9.237-7.606,40.156,40.156,0,0,1,12.733-4.892C525.265,655.652,525.3,656.093,525.021,656.147Z" transform="translate(-421.697 -466.992)" fill="#fff"/>
      <path id="Tracé_1425" data-name="Tracé 1425" d="M538,670.065a5.921,5.921,0,0,1,.136-7.665c.189-.213.528.07.339.283a5.482,5.482,0,0,0-.112,7.13C538.549,670.032,538.184,670.283,538,670.065Z" transform="translate(-454.179 -471.146)" fill="#fff"/>
      <path id="Tracé_1426" data-name="Tracé 1426" d="M524.477,708.02a11.411,11.411,0,0,0,8.025-2.179c.228-.17.479.194.251.363a11.87,11.87,0,0,1-8.355,2.251c-.283-.031-.2-.466.079-.435Z" transform="translate(-446.375 -498.415)" fill="#fff"/>
      <path id="Tracé_1427" data-name="Tracé 1427" d="M568.409,663.948a3.351,3.351,0,0,0,2.633,1.783c.283.028.2.462-.079.435a3.755,3.755,0,0,1-2.917-1.967.228.228,0,0,1,.056-.307A.222.222,0,0,1,568.409,663.948Z" transform="translate(-473.842 -472.105)" fill="#fff"/>
      <path id="Tracé_1428" data-name="Tracé 1428" d="M613.178,156.028a2.612,2.612,0,0,0-2.609,2.609V268.963a2.612,2.612,0,0,0,2.609,2.609H774.939a2.612,2.612,0,0,0,2.609-2.609V158.637a2.612,2.612,0,0,0-2.609-2.609Z" transform="translate(-500.538 -153.557)" fill="#e6e6e6"/>
      <path id="Tracé_1429" data-name="Tracé 1429" d="M623.178,166.028a2.612,2.612,0,0,0-2.609,2.609V271.509a2.612,2.612,0,0,0,2.609,2.609H777.485a2.612,2.612,0,0,0,2.609-2.609V168.637a2.612,2.612,0,0,0-2.609-2.609Z" transform="translate(-506.811 -159.83)" fill="#fff"/>
      <path id="Tracé_1430" data-name="Tracé 1430" d="M787.574,225.859c-3.548-1.385-7.375,2.089-8.206,5.807s.233,7.562.467,11.364-.762,8.217-4.154,9.951c-3.9,1.993-8.476-.6-12.839-.993a12.919,12.919,0,0,0-11.379,5.155c-3.6,4.936-3.415,12.1-7.673,16.483-3.7,3.805-9.727,4.3-14.9,3.124s-9.932-3.733-15.02-5.24-10.978-1.822-15.339,1.2c-4.552,3.158-6.578,9.348-11.576,11.739-3.534,1.691-7.716,1.046-11.5.022s-7.594-2.406-11.5-2.077-7.973,3.022-8.283,6.927l133.979-.374q.913-26.526,1.826-53.053C791.612,232.055,791.154,227.257,787.574,225.859Z" transform="translate(-528.832 -197.165)" fill="#77e96f" opacity="0.1"/>
      <path id="Tracé_1431" data-name="Tracé 1431" d="M471.09,444.236a4.5,4.5,0,0,1,3.372-6.016l2.353-15.809L483,427.955l-3.183,14.162a4.522,4.522,0,0,1-8.728,2.119Z" transform="translate(-412.863 -320.654)" fill="#ffb6b6"/>
      <path id="Tracé_1432" data-name="Tracé 1432" d="M342.123,449.459a4.5,4.5,0,0,0-1.482-6.736l2.335-15.812-7.527,3.51L334.386,444.9a4.522,4.522,0,0,0,7.737,4.56Z" transform="translate(-327.054 -323.476)" fill="#ffb6b6"/>
      <path id="Tracé_1433" data-name="Tracé 1433" d="M303.125,536.579h6.984l3.322-26.937H303.124Z" transform="translate(-254.971 -319.686)" fill="#ffb6b6"/>
      <path id="Tracé_1434" data-name="Tracé 1434" d="M439.779,725.2h13.754a8.765,8.765,0,0,1,8.765,8.764v.286H439.779Z" transform="translate(-393.406 -510.583)" fill="#2f2e41"/>
      <path id="Tracé_1435" data-name="Tracé 1435" d="M203.125,536.579h6.984l3.323-26.937H203.124Z" transform="translate(-192.243 -319.686)" fill="#ffb6b6"/>
      <path id="Tracé_1436" data-name="Tracé 1436" d="M339.779,725.2h13.754a8.765,8.765,0,0,1,8.765,8.764v.286H339.779Z" transform="translate(-330.678 -510.583)" fill="#2f2e41"/>
      <circle id="Ellipse_220" data-name="Ellipse 220" cx="12.616" cy="12.616" r="12.616" transform="translate(31.133 7.786)" fill="#ffb6b6"/>
      <path id="Tracé_1437" data-name="Tracé 1437" d="M344.51,445.884s.186,56.454-.716,57.355-4.1,34.663-4.1,34.663h11.181c.746,0,19.767-73.545,19.767-73.545s8.11,39.65,6.758,41.9-.3,31.786.451,34.243c0,0,9.4,3.007,10.3.754s2.236-32.8,2.236-32.8l2.609-50.69.057-13.235Z" transform="translate(-330.625 -334.529)" fill="#2f2e41"/>
      <path id="Tracé_1438" data-name="Tracé 1438" d="M485.992,274.084h5.02a1.624,1.624,0,0,1,1.585,1.267c.775,3.43,2.771,13.153,2.406,20.811-.451,9.462-1.352,24.331-1.352,25.682s-4.506,22.078-4.506,22.078-3.1-5.091-6.505-4.122l.648-18.406.9-7.66-1.352-13.517Z" transform="translate(-420.292 -227.611)" fill="#e4e4e4"/>
      <path id="Tracé_1439" data-name="Tracé 1439" d="M374.083,251.951s-15.995,5.321-17.8,9.826,6.948,37.17,6.948,37.17-3.354,14.909-7.849,29.063c-2.045,6.441,17.474.927,26.485-2.227,5.584-1.937,15.912,1.037,21.725-.025,0,0,.9-12.165,0-14.418s-3.154-.9-1.8-4.055.9-3.6.451-4.956.9-3.154.9-4.956-.45-5.857-.45-5.857,12.165-28.386,9.462-31.089-16.464-7.912-16.464-7.912S396.033,252.73,374.083,251.951Z" transform="translate(-340.374 -213.728)" fill="#e4e4e4"/>
      <path id="Tracé_1440" data-name="Tracé 1440" d="M346.2,274.084l-1.6.8a4.513,4.513,0,0,0-2.417,3.2l-6.345,33.843-1.352,31.99s7.66-2.253,9.912,0c0,0-2.253-6.759-.9-9.011a12.166,12.166,0,0,0,1.352-5.407s-.9,0,1.352-2.253,2.7-3.154,2.253-3.6-.9-4.506-.9-4.956,4.506-30.638,4.506-30.638Z" transform="translate(-327.355 -227.611)" fill="#e4e4e4"/>
      <path id="Tracé_1441" data-name="Tracé 1441" d="M652.7,285.713a.745.745,0,0,1,0-1.491c34.445,0,67.295-6.9,92.5-19.42,23.634-11.743,38.694-27.668,41.319-43.69a.745.745,0,0,1,1.472.239v0c-1.364,8.323-5.79,16.488-13.156,24.267-7.264,7.672-17.011,14.576-28.971,20.518C720.457,278.76,687.372,285.713,652.7,285.713Z" transform="translate(-526.5 -193.99)" fill="#77e96f"/>
      <path id="Tracé_1442" data-name="Tracé 1442" d="M652.518,128.108H510.138V57.765h.745v69.6H652.518Z" transform="translate(-384.826 -36.235)" fill="#e6e6e6"/>
      <path id="Tracé_1443" data-name="Tracé 1443" d="M395.766,174.05a6.931,6.931,0,0,1-.264-4.455c1.03,2.733,3.078,1.9,4.121.617,1.308-1.607.932-5.32,3-5.486a23.149,23.149,0,0,1,6.167.614l-1.012-1.733,4.417.274-1.315-2.164a15.1,15.1,0,0,1,8.944,8.464,9.686,9.686,0,0,0-5.089-14.249l1.742-2.286-11.823-1.167a3.511,3.511,0,0,1,1.376-2.972,5.915,5.915,0,0,0-4.506,1.063,17.546,17.546,0,0,0-3.391,3.321,27.052,27.052,0,0,0-4.154,5.864A13.814,13.814,0,0,0,395.766,174.05Zm.143-5.552h0l.012,0Z" transform="translate(-363.908 -149.399)" fill="#2f2e41"/>
      <path id="Tracé_1444" data-name="Tracé 1444" d="M383.136,749.107H141.875a.444.444,0,0,1,0-.888H383.136a.444.444,0,0,1,0,.888Z" transform="translate(-141.431 -525.026)" fill="#cacaca"/>
    </g>
  </g>
</svg>
