<svg xmlns="http://www.w3.org/2000/svg" width="560" height="298" viewBox="0 0 560 298">
  <g id="Groupe_564" data-name="Groupe 564" transform="translate(104 0.007)">
    <g id="Rectangle_463" data-name="Rectangle 463" transform="translate(-104 -0.007)" fill="rgba(119,233,111,0.15)" stroke="#77e96f" stroke-width="4">
      <rect width="560" height="298" rx="12" stroke="none"/>
      <rect x="2" y="2" width="556" height="294" rx="10" fill="none"/>
    </g>
    <g id="undraw_data_trends_re_2cdy" transform="translate(67.296 28.215)">
      <path id="Tracé_1334" data-name="Tracé 1334" d="M452.586,629.756l-6.035-2.541-4.14-30.255H387.276l-4.488,30.132-5.4,2.7a1.282,1.282,0,0,0,.573,2.429h74.127a1.282,1.282,0,0,0,.5-2.465Z" transform="translate(-274.126 -406.738)" fill="#e6e6e6"/>
      <path id="Tracé_1335" data-name="Tracé 1335" d="M405.515,544.937H134.678a5.366,5.366,0,0,1-5.354-5.366V501.379H410.869v38.191a5.366,5.366,0,0,1-5.354,5.366Z" transform="translate(-129.077 -350.344)" fill="#ccc"/>
      <path id="Tracé_1336" data-name="Tracé 1336" d="M410.8,304.163H128.726V140.749a6.476,6.476,0,0,1,6.469-6.468H404.333a6.476,6.476,0,0,1,6.469,6.468Z" transform="translate(-128.726 -134.281)" fill="#3f3d56"/>
      <path id="Tracé_1337" data-name="Tracé 1337" d="M410.77,309.117H162.389a4.992,4.992,0,0,1-4.987-4.987V167.943a4.993,4.993,0,0,1,4.987-4.987H410.77a4.993,4.993,0,0,1,4.987,4.987V304.131A4.992,4.992,0,0,1,410.77,309.117Z" transform="translate(-145.542 -151.096)" fill="#fff"/>
      <path id="Tracé_1338" data-name="Tracé 1338" d="M439.335,681.185H299.766a.648.648,0,0,1-.637-.469.633.633,0,0,1,.611-.794H439.283a.668.668,0,0,1,.668.494.632.632,0,0,1-.617.769Z" transform="translate(-228.639 -455.387)" fill="#ccc"/>
      <rect id="Rectangle_416" data-name="Rectangle 416" width="59.97" height="45.816" transform="translate(202.606 33.878)" fill="#f2f2f2"/>
      <rect id="Rectangle_417" data-name="Rectangle 417" width="54.01" height="41.263" transform="translate(205.586 36.154)" fill="#fff"/>
      <path id="Tracé_1339" data-name="Tracé 1339" d="M692.915,254.944h.021a14.4,14.4,0,0,0,.322-28.741.329.329,0,0,0-.249.086.324.324,0,0,0-.106.238l-.315,28.084A.329.329,0,0,0,692.915,254.944Z" transform="translate(-459.376 -188.183)" fill="#3f3d56"/>
      <path id="Tracé_1340" data-name="Tracé 1340" d="M660.5,237.433a.424.424,0,0,1,.3.127l9.668,9.887a.419.419,0,0,1,.12.3l-.15,13.438a.419.419,0,0,1-.136.306.424.424,0,0,1-.319.111,14.494,14.494,0,0,1-9.8-24.026.424.424,0,0,1,.306-.143Z" transform="translate(-438.25 -194.975)" fill="#e6e6e6"/>
      <path id="Tracé_1341" data-name="Tracé 1341" d="M677.085,225.927a.424.424,0,0,1,.289.118.419.419,0,0,1,.13.31l-.136,12.125a.422.422,0,0,1-.723.29l-8.437-8.628a.424.424,0,0,1,.023-.613,14.527,14.527,0,0,1,8.829-3.6Z" transform="translate(-445.008 -188.022)" fill="#77e96f"/>
      <path id="Tracé_1342" data-name="Tracé 1342" d="M672,306.067a2.586,2.586,0,1,1-2.557-2.615A2.586,2.586,0,0,1,672,306.067Z" transform="translate(-444.269 -233.795)" fill="#77e96f"/>
      <path id="Tracé_1343" data-name="Tracé 1343" d="M689.866,306.268a2.587,2.587,0,1,1-2.557-2.615A2.586,2.586,0,0,1,689.866,306.268Z" transform="translate(-454.745 -233.913)" fill="#3f3d56"/>
      <path id="Tracé_1344" data-name="Tracé 1344" d="M707.731,306.468a2.586,2.586,0,1,1-2.557-2.615A2.587,2.587,0,0,1,707.731,306.468Z" transform="translate(-465.222 -234.031)" fill="#e6e6e6"/>
      <rect id="Rectangle_418" data-name="Rectangle 418" width="59.97" height="45.816" transform="translate(201.975 86.443)" fill="#f2f2f2"/>
      <rect id="Rectangle_419" data-name="Rectangle 419" width="54.01" height="41.263" transform="translate(204.954 88.717)" fill="#fff"/>
      <ellipse id="Ellipse_209" data-name="Ellipse 209" cx="2.243" cy="2.243" rx="2.243" ry="2.243" transform="translate(211.876 97.82)" fill="#3f3d56"/>
      <path id="Tracé_1345" data-name="Tracé 1345" d="M697.415,372.521a1.521,1.521,0,0,1,0,3.042H673.829a1.521,1.521,0,0,1,0-3.042h23.586m0-.372H673.829a1.893,1.893,0,1,0,0,3.787h23.586a1.893,1.893,0,1,0,0-3.787Z" transform="translate(-447.264 -274.203)" fill="#3f3d56"/>
      <path id="Tracé_1346" data-name="Tracé 1346" d="M683.18,375.935H665.425a1.893,1.893,0,1,1,0-3.787H683.18a1.893,1.893,0,0,1,0,3.787Z" transform="translate(-442.336 -274.203)" fill="#77e96f"/>
      <ellipse id="Ellipse_210" data-name="Ellipse 210" cx="2.243" cy="2.243" rx="2.243" ry="2.243" transform="translate(211.876 107.091)" fill="#3f3d56"/>
      <path id="Tracé_1347" data-name="Tracé 1347" d="M697.415,395.036a1.521,1.521,0,1,1,0,3.042H673.829a1.521,1.521,0,0,1,0-3.042h23.586m0-.372H673.829a1.893,1.893,0,1,0,0,3.787h23.586a1.893,1.893,0,0,0,0-3.787Z" transform="translate(-447.264 -287.447)" fill="#3f3d56"/>
      <path id="Tracé_1348" data-name="Tracé 1348" d="M689.885,398.45h-24.46a1.893,1.893,0,1,1,0-3.787h24.46a1.893,1.893,0,0,1,0,3.787Z" transform="translate(-442.336 -287.447)" fill="#77e96f"/>
      <ellipse id="Ellipse_211" data-name="Ellipse 211" cx="2.243" cy="2.243" rx="2.243" ry="2.243" transform="translate(211.876 116.361)" fill="#3f3d56"/>
      <path id="Tracé_1349" data-name="Tracé 1349" d="M697.415,417.551a1.521,1.521,0,1,1,0,3.042H673.829a1.521,1.521,0,1,1,0-3.042h23.586m0-.372H673.829a1.893,1.893,0,1,0,0,3.787h23.586a1.893,1.893,0,0,0,0-3.787Z" transform="translate(-447.264 -300.691)" fill="#3f3d56"/>
      <path id="Tracé_1350" data-name="Tracé 1350" d="M675.358,420.965h-9.933a1.893,1.893,0,1,1,0-3.787h9.933a1.893,1.893,0,1,1,0,3.787Z" transform="translate(-442.336 -300.691)" fill="#77e96f"/>
      <rect id="Rectangle_420" data-name="Rectangle 420" width="167.546" height="85.868" transform="translate(21.172 41.71)" fill="#f2f2f2"/>
      <rect id="Rectangle_421" data-name="Rectangle 421" width="156.377" height="77.334" transform="translate(26.756 45.963)" fill="#fff"/>
      <path id="Tracé_1351" data-name="Tracé 1351" d="M362.486,326.08h-114a.357.357,0,0,1-.357-.357V271.085a.357.357,0,1,1,.713,0v54.281H362.486a.357.357,0,0,1,0,.714Z" transform="translate(-198.747 -214.607)" fill="#3f3d56"/>
      <path id="Tracé_1352" data-name="Tracé 1352" d="M291.682,371.8H281.314a1.06,1.06,0,0,1-1.059-1.059V356.45a1.06,1.06,0,0,1,1.059-1.059h10.368a1.061,1.061,0,0,1,1.059,1.059v14.293A1.06,1.06,0,0,1,291.682,371.8Z" transform="translate(-217.583 -264.367)" fill="#77e96f"/>
      <path id="Tracé_1353" data-name="Tracé 1353" d="M337.4,352.581H327.029a1.06,1.06,0,0,1-1.059-1.059V323.673a1.06,1.06,0,0,1,1.059-1.059H337.4a1.06,1.06,0,0,1,1.059,1.059v27.85A1.06,1.06,0,0,1,337.4,352.581Z" transform="translate(-244.39 -245.104)" fill="#77e96f"/>
      <path id="Tracé_1354" data-name="Tracé 1354" d="M383.113,371.8H372.745a1.061,1.061,0,0,1-1.059-1.059V356.45a1.061,1.061,0,0,1,1.059-1.059h10.369a1.061,1.061,0,0,1,1.059,1.059v14.293A1.061,1.061,0,0,1,383.113,371.8Z" transform="translate(-271.198 -264.367)" fill="#77e96f"/>
      <path id="Tracé_1355" data-name="Tracé 1355" d="M428.829,344.994H418.461a1.037,1.037,0,0,1-1.059-1.011v-33.3a1.037,1.037,0,0,1,1.059-1.011h10.368a1.037,1.037,0,0,1,1.059,1.011v33.3A1.037,1.037,0,0,1,428.829,344.994Z" transform="translate(-298.006 -237.499)" fill="#77e96f"/>
      <path id="Tracé_1356" data-name="Tracé 1356" d="M474.544,331.338H464.176a1.061,1.061,0,0,1-1.059-1.059V287.445a1.06,1.06,0,0,1,1.059-1.059h10.368a1.06,1.06,0,0,1,1.059,1.059v42.833A1.06,1.06,0,0,1,474.544,331.338Z" transform="translate(-324.813 -223.808)" fill="#77e96f"/>
      <ellipse id="Ellipse_212" data-name="Ellipse 212" cx="2.141" cy="2.141" rx="2.141" ry="2.141" transform="translate(66.775 82.521)" fill="#3f3d56"/>
      <ellipse id="Ellipse_213" data-name="Ellipse 213" cx="2.141" cy="2.141" rx="2.141" ry="2.141" transform="translate(85.683 68.669)" fill="#3f3d56"/>
      <ellipse id="Ellipse_214" data-name="Ellipse 214" cx="2.141" cy="2.141" rx="2.141" ry="2.141" transform="translate(104.591 82.521)" fill="#3f3d56"/>
      <ellipse id="Ellipse_215" data-name="Ellipse 215" cx="2.141" cy="2.141" rx="2.141" ry="2.141" transform="translate(123.499 61.921)" fill="#3f3d56"/>
      <ellipse id="Ellipse_216" data-name="Ellipse 216" cx="2.141" cy="2.141" rx="2.141" ry="2.141" transform="translate(142.407 54.107)" fill="#3f3d56"/>
      <path id="Tracé_1357" data-name="Tracé 1357" d="M204.181,165.457l-18.953-14.2-18.694,14-.428-.571,19.122-14.323L204.091,164.5l18.745-20.512.075-.031,18.908-7.618.267.662-18.833,7.588Z" transform="translate(-97.405 -80.226)" fill="#3f3d56"/>
      <g id="Groupe_485" data-name="Groupe 485" transform="translate(117.068 94.182)">
        <path id="Tracé_1320" data-name="Tracé 1320" d="M879.572,385.007l1.157-9.276a12.526,12.526,0,1,1,24.859,3.1l-1.157,9.276a1.684,1.684,0,0,1-1.878,1.461l-21.519-2.685A1.684,1.684,0,0,1,879.572,385.007Z" transform="translate(-800.444 -364.755)" fill="#2f2e41"/>
        <ellipse id="Ellipse_208" data-name="Ellipse 208" cx="9.183" cy="9.183" rx="9.183" ry="9.183" transform="translate(80.253 4.652)" fill="#ffb8b8"/>
        <path id="Tracé_1321" data-name="Tracé 1321" d="M875.022,379.892a9.92,9.92,0,0,1,11.059-8.606l1.855.232a9.92,9.92,0,0,1,8.605,11.059l-.023.185-3.92-.489-.87-3.911-.735,3.711-2.026-.253-.439-1.973-.371,1.872L875,380.078Z" transform="translate(-797.77 -368.541)" fill="#2f2e41"/>
        <path id="Tracé_1322" data-name="Tracé 1322" d="M795.241,468.61a4.231,4.231,0,0,0,6.322,1.453l8.341,4.886,4.205-4.345-11.876-6.735a4.253,4.253,0,0,0-6.992,4.74Z" transform="translate(-750.72 -422.015)" fill="#ffb8b8"/>
        <path id="Tracé_1323" data-name="Tracé 1323" d="M836.821,467.424c-6.152,0-16.979-2.755-17.578-2.908l-.189-.048,1.7-8.627,16.536,3.266,8.984-12.651,10.314-1.049-.288.379c-.134.176-13.429,17.679-15.5,20.615C840.283,467.141,838.792,467.424,836.821,467.424Z" transform="translate(-764.965 -412.05)" fill="#3f3d56"/>
        <path id="Tracé_1324" data-name="Tracé 1324" d="M853.793,495.863l-.246-.117a20.118,20.118,0,0,1-7.987-7.531c-2.694-4.94,9.92-25.9,10.8-27.351l.013-6.655,4.538-12.252,5.787-3.271-4.968,11.593Z" transform="translate(-780.286 -408.108)" fill="#3f3d56"/>
        <path id="Tracé_1325" data-name="Tracé 1325" d="M711.685,585.345h-5.531l-2.631-21.333h8.163Z" transform="translate(-643.974 -426.06)" fill="#ffb8b8"/>
        <path id="Tracé_1326" data-name="Tracé 1326" d="M830.109,752.672H812.276v-.226a6.942,6.942,0,0,1,6.94-6.941H830.11Z" transform="translate(-760.99 -588.026)" fill="#2f2e41"/>
        <path id="Tracé_1327" data-name="Tracé 1327" d="M846.476,575.13l-5.256,1.722L832.077,557.4l7.757-2.541Z" transform="translate(-719.359 -420.693)" fill="#ffb8b8"/>
        <path id="Tracé_1328" data-name="Tracé 1328" d="M978.276,739.752,961.328,745.3l-.07-.214a6.942,6.942,0,0,1,4.435-8.758h0l10.35-3.391Z" transform="translate(-848.149 -580.66)" fill="#2f2e41"/>
        <path id="Tracé_1329" data-name="Tracé 1329" d="M881.118,589.473l-15.767-26.322-13.31-28.122L840.065,559.87l-4.758,32.173-16.686.232.066-.261,25.535-101.46,20,2.988-.91,13.2.542.771c4.517,6.418,9.189,13.053,6.51,20.206l7.595,22.55,16.811,37.549Z" transform="translate(-764.71 -438.523)" fill="#2f2e41"/>
        <path id="Tracé_1330" data-name="Tracé 1330" d="M875.694,476.5c-2.9,0-6.2-3.308-4.489-8.958l-.111-.08,4.12-18.2c-3.595-5.142,1.145-9.385,1.589-9.764l2.262-4.073,9.983-6.332,5.051,41.97-.075.071C890.378,474.628,878.125,476.5,875.694,476.5Z" transform="translate(-795.268 -402.485)" fill="#77e96f"/>
        <path id="Tracé_1331" data-name="Tracé 1331" d="M918.806,483.115a4.916,4.916,0,0,1-1.18-.125c-.388-.1-1.017-.592-1.988-3.754-3.862-12.572-8.421-50.4-5.109-54.1l.076-.085,5.438.906c.452-.333,2.824-1.99,5.014-1.7a3.323,3.323,0,0,1,2.273,1.344l.038.049,1.733,24.648,6.348,29.006-.153.069C930.927,479.536,923,483.115,918.806,483.115Z" transform="translate(-817.935 -399.625)" fill="#3f3d56"/>
        <path id="Tracé_1332" data-name="Tracé 1332" d="M917.046,520.295a4.23,4.23,0,0,0,4-5.109L929,509.7l-2.152-5.651-11.134,7.9a4.253,4.253,0,0,0,1.328,8.342Z" transform="translate(-819.833 -446.439)" fill="#ffb8b8"/>
        <path id="Tracé_1333" data-name="Tracé 1333" d="M935.822,468.678l-7.091-5.2,9.968-13.593-7.65-13.5,3.422-9.786.221.422c.1.2,10.319,19.657,12.1,22.776,1.854,3.244-10.327,18.1-10.847,18.73Z" transform="translate(-829.279 -401.021)" fill="#3f3d56"/>
        <path id="Tracé_1358" data-name="Tracé 1358" d="M846.269,764.547H688.687a.414.414,0,1,1,0-.827H846.269a.414.414,0,1,1,0,.827Z" transform="translate(-688.273 -598.708)" fill="#ccc"/>
      </g>
    </g>
  </g>
</svg>
