<svg xmlns="http://www.w3.org/2000/svg" width="560" height="295.5" viewBox="0 0 560 295.5">
  <g id="Groupe_562" data-name="Groupe 562" transform="translate(-924.433 -461.076)">
    <g id="Rectangle_461" data-name="Rectangle 461" transform="translate(924.433 461.076)" fill="rgba(119,233,111,0.15)" stroke="#77e96f" stroke-width="4">
      <rect width="560" height="295.5" rx="12" stroke="none"/>
      <rect x="2" y="2" width="556" height="291.5" rx="10" fill="none"/>
    </g>
    <g id="undraw_project_completed_re_pqqq" transform="translate(1092.839 486.884)">
      <circle id="Ellipse_44" data-name="Ellipse 44" cx="7.274" cy="7.274" r="7.274" transform="translate(160.356 8.862)" fill="#77e96f"/>
      <path id="Path_395" data-name="Path 395" d="M629.52,191.626a.755.755,0,0,1-.454-.151l-.008-.006-1.71-1.308a.76.76,0,0,1,.924-1.206l1.107.849L632,186.391a.76.76,0,0,1,1.065-.141h0l-.016.023.017-.023a.76.76,0,0,1,.141,1.065l-3.078,4.014a.76.76,0,0,1-.6.3Z" transform="translate(-462.61 -172.715)" fill="#fff"/>
      <circle id="Ellipse_44-2" data-name="Ellipse 44" cx="7.274" cy="7.274" r="7.274" transform="translate(160.356 58.039)" fill="#77e96f"/>
      <path id="Path_395-2" data-name="Path 395" d="M629.52,319.626a.754.754,0,0,1-.454-.151l-.008-.006-1.709-1.308a.76.76,0,1,1,.924-1.206l1.107.849L632,314.391a.759.759,0,0,1,1.064-.141h0l-.016.023.017-.023a.76.76,0,0,1,.14,1.065l-3.078,4.013a.759.759,0,0,1-.6.3Z" transform="translate(-462.61 -251.538)" fill="#fff"/>
      <path id="Tracé_1388" data-name="Tracé 1388" d="M682.9,496.406a5.068,5.068,0,0,1,5.758-5.219l8.178-16.044,4.621,8.138-8.474,13.989a5.1,5.1,0,0,1-10.083-.863Z" transform="translate(-500.711 -359.359)" fill="#ffb7b7"/>
      <path id="Tracé_1389" data-name="Tracé 1389" d="M554.1,555.457H547.68L544.627,530.7H554.1Z" transform="translate(-333.785 -317.379)" fill="#ffb7b7"/>
      <path id="Tracé_1390" data-name="Tracé 1390" d="M744.033,738.338H723.339v-.262a8.055,8.055,0,0,1,8.054-8.054h12.64Z" transform="translate(-522.844 -494.694)" fill="#2f2e41"/>
      <path id="Tracé_1391" data-name="Tracé 1391" d="M627.871,555.457h-6.418L618.4,530.7h9.472Z" transform="translate(-372.766 -317.379)" fill="#ffb7b7"/>
      <path id="Tracé_1392" data-name="Tracé 1392" d="M817.806,738.338H797.112v-.262a8.054,8.054,0,0,1,8.054-8.054h12.641Z" transform="translate(-561.065 -494.039)" fill="#2f2e41"/>
      <path id="Tracé_1393" data-name="Tracé 1393" d="M700.667,490.62l-2.8,4.67s4.67,0,5.6,7l3.736-4.67Z" transform="translate(-508.623 -367.537)" fill="#e5e5e5"/>
      <path id="Tracé_1394" data-name="Tracé 1394" d="M765.916,469.827s7.471,19.612,8.872,31.752,3.736,44.36,3.736,44.36l4.669,41.558-13.075,1.868-5.6-42.025-12.608-41.558-2.8,41.558-2.334,37.823-12.141.467-.934-39.224-5.136-49.963,2.8-23.814Z" transform="translate(-524.841 -356.55)" fill="#2f2e41"/>
      <ellipse id="Ellipse_219" data-name="Ellipse 219" cx="11.674" cy="11.674" rx="11.674" ry="11.674" transform="translate(208.389 30.68)" fill="#ffb7b7"/>
      <path id="Tracé_1395" data-name="Tracé 1395" d="M559.079,192.312l4.67,3.268,6.07,61.17L532,257.684l5.136-42.492,4.67-12.141,3.37-4.456Z" transform="translate(-327.11 -138.57)" fill="#e5e5e5"/>
      <path id="Tracé_1396" data-name="Tracé 1396" d="M790.444,389.329l1.429-42.239s2.774.214,3.708,1.615,16.343,4.2,16.343,4.2l-2.8,43.426s11.674,34.554,7.471,36.422-11.674,1.4-11.674,1.4Z" transform="translate(-557.542 -291.695)" fill="#2f2e41"/>
      <path id="Tracé_1397" data-name="Tracé 1397" d="M728.729,393.373l4.954-28.467-11.024,7.455,2.8,20.546-2.335,14.008s-8.872,38.757-6.071,40.157,6.071,0,6.071,0l5.6-39.223Z" transform="translate(-518.473 -301.109)" fill="#2f2e41"/>
      <path id="Tracé_1398" data-name="Tracé 1398" d="M716.076,378.733l-3.269.934-1.4,18.678-2.335,16.343-11.207,20.079s5.6-3.735,7.938,7l12.342-21.487Z" transform="translate(-508.623 -308.415)" fill="#2f2e41"/>
      <path id="Tracé_1399" data-name="Tracé 1399" d="M754.489,287.088l2.2-.881s-4.6-5.067-11.007-4.627l1.8-1.983s-4.4-1.763-8.405,2.864a39.055,39.055,0,0,0-6.056,8.512h-2.358l.984,2.166-3.443,2.166,3.535-.389a12.1,12.1,0,0,0-.1,3.594,4.648,4.648,0,0,0,1.7,3.042h0s2.73-5.651,2.73-6.532v2.2s2.2-1.983,2.2-3.3l1.2,1.542.6-2.424,7.4,2.424-1.2-1.983,4.6.661-1.8-2.423,7.127,10.008S760.293,290.393,754.489,287.088Z" transform="translate(-524.656 -255.857)" fill="#2f2e41"/>
      <path id="Tracé_1400" data-name="Tracé 1400" d="M790.263,491.77a5.068,5.068,0,0,1,6.662-4l11.137-14.152,2.953,8.88-11.029,12.077a5.1,5.1,0,0,1-9.723-2.8Z" transform="translate(-557.41 -358.553)" fill="#ffb7b7"/>
      <path id="Tracé_1401" data-name="Tracé 1401" d="M620.519,340.3l-4.2,5.137-5.6-9.806,2.334-4.2Z" transform="translate(-368.704 -212.081)" fill="#e5e5e5"/>
      <path id="Tracé_1402" data-name="Tracé 1402" d="M818.624,360.8l3.735-1.868s2.8,3.736,3.269,7,2.8,7.471,2.8,9.806,6.537,24.281,6.537,24.281l-14.942,30.352s-3.268-11.207-10.273-12.141l11.674-16.343-6.537-11.674Z" transform="translate(-567.743 -297.951)" fill="#2f2e41"/>
      <path id="Tracé_1403" data-name="Tracé 1403" d="M798.111,747.211H618.432a.472.472,0,1,1,0-.943H798.111a.472.472,0,1,1,0,.943Z" transform="translate(-515.269 -502.624)" fill="#cbcbcb"/>
      <path id="Tracé_1404" data-name="Tracé 1404" d="M339.271,311.544H199.039V279.271H339.271Z" transform="translate(-199.039 -230.094)" fill="#fff"/>
      <path id="Tracé_1405" data-name="Tracé 1405" d="M249.527,307.046a1.366,1.366,0,0,0,0,2.733h99.76a1.366,1.366,0,1,0,0-2.733Z" transform="translate(-229.289 -247.198)" fill="#77e96f"/>
      <path id="Tracé_1406" data-name="Tracé 1406" d="M249.523,328.384a1.366,1.366,0,1,0-.006,2.733h63.069a1.366,1.366,0,0,0,0-2.733Z" transform="translate(-229.284 -260.338)" fill="#77e96f"/>
      <path id="Tracé_1407" data-name="Tracé 1407" d="M339.271,311.544H199.039V279.271H339.271Zm-137.926-2.305H336.966V281.576H201.345Z" transform="translate(-199.039 -230.094)" fill="#e5e5e5"/>
      <path id="Tracé_1408" data-name="Tracé 1408" d="M339.271,439.544H199.039V407.271H339.271Z" transform="translate(-199.039 -308.917)" fill="#fff"/>
      <path id="Tracé_1409" data-name="Tracé 1409" d="M249.527,435.046a1.366,1.366,0,0,0,0,2.733h99.76a1.366,1.366,0,1,0,0-2.733Z" transform="translate(-229.289 -326.021)" fill="#e6e6e6"/>
      <path id="Tracé_1410" data-name="Tracé 1410" d="M249.523,456.384a1.366,1.366,0,1,0-.006,2.733h63.069a1.366,1.366,0,0,0,0-2.733Z" transform="translate(-229.284 -339.161)" fill="#e6e6e6"/>
      <path id="Tracé_1411" data-name="Tracé 1411" d="M339.271,439.544H199.039V407.271H339.271Zm-137.926-2.305H336.966V409.576H201.345Z" transform="translate(-199.039 -308.917)" fill="#e5e5e5"/>
      <path id="Tracé_1412" data-name="Tracé 1412" d="M342.271,183.544H202.039V151.271H342.271Z" transform="translate(-200.887 -151.271)" fill="#fff"/>
      <path id="Tracé_1413" data-name="Tracé 1413" d="M252.527,179.046a1.366,1.366,0,0,0,0,2.733h99.76a1.366,1.366,0,1,0,0-2.733Z" transform="translate(-231.136 -168.375)" fill="#77e96f"/>
      <path id="Tracé_1414" data-name="Tracé 1414" d="M252.523,200.384a1.366,1.366,0,0,0-.006,2.733h63.069a1.366,1.366,0,0,0,0-2.733Z" transform="translate(-231.131 -181.515)" fill="#77e96f"/>
      <path id="Tracé_1415" data-name="Tracé 1415" d="M342.271,183.544H202.039V151.271H342.271Zm-137.926-2.305H339.966V153.577H204.345Z" transform="translate(-200.887 -151.271)" fill="#e5e5e5"/>
      <path id="Tracé_1416" data-name="Tracé 1416" d="M938.287,707.842V676.389S950.545,698.688,938.287,707.842Z" transform="translate(-757.667 -464.357)" fill="#f1f1f1"/>
      <path id="Tracé_1417" data-name="Tracé 1417" d="M911.871,722.866l-25.132-23.071S913.548,706.357,911.871,722.866Z" transform="translate(-732.734 -478.279)" fill="#f1f1f1"/>
      <ellipse id="Ellipse_44-3" data-name="Ellipse 44" cx="8.929" cy="8.929" rx="8.929" ry="8.929" transform="translate(173.471 118.16)" fill="#77e96f"/>
      <path id="Path_395-3" data-name="Path 395" d="M678.081,498.73a.924.924,0,0,1-.557-.185l-.01-.008-2.1-1.605a.933.933,0,1,1,1.135-1.48l1.359,1.042,3.212-4.19a.932.932,0,0,1,1.307-.173h0l-.02.028.02-.028a.933.933,0,0,1,.173,1.307l-3.778,4.926a.934.934,0,0,1-.742.364Z" transform="translate(-496.565 -368.235)" fill="#fff"/>
    </g>
  </g>
</svg>
