<svg xmlns="http://www.w3.org/2000/svg" width="560" height="300" viewBox="0 0 560 300">
  <g id="Groupe_563" data-name="Groupe 563" transform="translate(43)">
    <g id="Rectangle_460" data-name="Rectangle 460" transform="translate(-43)" fill="rgba(119,233,111,0.15)" stroke="#77e96f" stroke-width="4">
      <rect width="560" height="300" rx="12" stroke="none"/>
      <rect x="2" y="2" width="556" height="296" rx="10" fill="none"/>
    </g>
    <g id="undraw_memory_storage_reh0" transform="translate(99.318 6.015)">
      <ellipse id="Ellipse_217" data-name="Ellipse 217" cx="102.014" cy="18.043" rx="102.014" ry="18.043" transform="translate(37.121 251.217)" fill="#3f3d56"/>
      <path id="Tracé_1359" data-name="Tracé 1359" d="M359.174,232.632c0-26.286,38.544-47.6,86.09-47.6s86.09,21.309,86.09,47.6" transform="translate(-305.057 -133.323)" fill="none" stroke="#412b76" stroke-width="2"/>
      <path id="Tracé_1360" data-name="Tracé 1360" d="M533.933,106.039H463.894q-20.779-35.02,0-70.039h70.039Q504.879,71.02,533.933,106.039Z" transform="translate(-366.656 -36)" fill="#e6e6e6"/>
      <rect id="Rectangle_422" data-name="Rectangle 422" width="39.466" height="5.003" transform="translate(107.243 8.338)" fill="#77e96f"/>
      <rect id="Rectangle_423" data-name="Rectangle 423" width="52.251" height="1.668" transform="translate(94.458 24.736)" fill="#fff"/>
      <rect id="Rectangle_424" data-name="Rectangle 424" width="52.251" height="1.668" transform="translate(94.458 33.352)" fill="#fff"/>
      <rect id="Rectangle_425" data-name="Rectangle 425" width="52.251" height="1.668" transform="translate(94.458 41.968)" fill="#fff"/>
      <path id="Tracé_1361" data-name="Tracé 1361" d="M765.887,684.659c0,22.213,13.935,40.187,31.156,40.187" transform="translate(-570.646 -459.585)" fill="#3f3d56"/>
      <path id="Tracé_1362" data-name="Tracé 1362" d="M855.677,724c0-22.462,15.551-40.638,34.768-40.638" transform="translate(-629.281 -458.735)" fill="#77e96f"/>
      <path id="Tracé_1363" data-name="Tracé 1363" d="M798.42,690.463c0,21.1,8.886,38.173,19.868,38.173" transform="translate(-591.891 -463.374)" fill="#77e96f"/>
      <path id="Tracé_1364" data-name="Tracé 1364" d="M855.677,702.752c0-28.7,17.974-51.927,40.187-51.927" transform="translate(-629.281 -437.49)" fill="#3f3d56"/>
      <path id="Tracé_1365" data-name="Tracé 1365" d="M836.788,796.8s4.418-.136,5.75-1.084,6.8-2.081,7.127-.56,6.64,7.563,1.651,7.6-11.59-.777-12.92-1.587S836.788,796.8,836.788,796.8Z" transform="translate(-616.946 -531.255)" fill="#a8a8a8"/>
      <path id="Tracé_1366" data-name="Tracé 1366" d="M851.406,806.713c-4.988.04-11.591-.778-12.92-1.587-1.012-.617-1.415-2.829-1.551-3.849l-.147.006s.28,3.563,1.609,4.373,7.931,1.627,12.919,1.587c1.44-.012,1.938-.524,1.91-1.282C853.026,806.418,852.477,806.7,851.406,806.713Z" transform="translate(-616.946 -535.737)" opacity="0.2"/>
      <path id="Tracé_1367" data-name="Tracé 1367" d="M549.045,150a.966.966,0,0,0,1.133-.468c.911-1.435-.766-3.284-.4-4.944.291-1.33,1.8-2.119,2.111-3.445.3-1.288-.625-2.74,0-3.906a2.6,2.6,0,0,1,2.737-.994c1.024.16,2,.61,3.03.673a14.866,14.866,0,0,0,4.04-.823c1.348-.3,2.992-.183,3.784.948,1.018,1.452-.015,3.473.34,5.21.282,1.379,1.437,2.522,1.461,3.929.009.5-1.306.1-1.237.593s-.552.059-.055,0a.984.984,0,0,0,.748-.89c.059-.413.835-.55.826-.967-.021-.977,1.745-.318,2.036-1.251a9.46,9.46,0,0,0-.387-6.6,13.213,13.213,0,0,1-1.127-2.684c-.259-1.3.149-2.686-.279-3.935-.576-1.684-2.485-2.543-4.256-2.717s-3.572.138-5.334-.119c-1.578-.23-3.105-.914-4.7-.815a7.805,7.805,0,0,0-4.9,2.731,41.122,41.122,0,0,1-3.95,4.154,7.739,7.739,0,0,0-1.267,1.09,4.255,4.255,0,0,0-.63,3.451c.213,1.188.677,2.322.872,3.513.184,1.119.127,2.263.206,3.395a5.969,5.969,0,0,0,1,3.2,3.025,3.025,0,0,0,2.353,1.23c.319.007.588-.279.909-.2C548.513,149.45,548.688,149.832,549.045,150Z" transform="translate(-424.883 -95.282)" fill="#2f2e41"/>
      <path id="Tracé_1368" data-name="Tracé 1368" d="M318.546,393.119l1.181,7.256,2.363-3.207-1.35-4.893Z" transform="translate(-208.015 -256.162)" fill="#a0616a"/>
      <path id="Tracé_1369" data-name="Tracé 1369" d="M519.146,272.651l-1.86,4.9s-1.852,24.967-1.852,26.823,1.35,25.65,1.856,26.662c0,0,2.194-3.206,5.063-2.7s1.688-8.437,1.688-8.437l2.7-22.106-.506-11.137Z" transform="translate(-407.097 -190.536)" fill="#412b76"/>
      <path id="Tracé_1370" data-name="Tracé 1370" d="M519.146,272.651l-1.86,4.9s-1.852,24.967-1.852,26.823,1.35,25.65,1.856,26.662c0,0,2.194-3.206,5.063-2.7s1.688-8.437,1.688-8.437l2.7-22.106-.506-11.137Z" transform="translate(-407.097 -190.536)" opacity="0.1"/>
      <path id="Tracé_1371" data-name="Tracé 1371" d="M559.2,188.346s5.568,14.175,2.362,16.875,17.888-4.556,17.888-4.556l-.507-1.856s-6.919-2.7-3.543-10.462S559.2,188.346,559.2,188.346Z" transform="translate(-435.679 -133.231)" fill="#a0616a"/>
      <path id="Tracé_1372" data-name="Tracé 1372" d="M559.2,188.346s5.568,14.175,2.362,16.875,17.888-4.556,17.888-4.556l-.507-1.856s-6.919-2.7-3.543-10.462S559.2,188.346,559.2,188.346Z" transform="translate(-435.679 -133.231)" opacity="0.1"/>
      <path id="Tracé_1373" data-name="Tracé 1373" d="M493.754,740.245s-2.363-.675-3.713,1.013a74.975,74.975,0,0,1-6.412,5.906s-9.787-1.013-11.137,3.881,15.356,4.894,19.406,3.713,4.894,0,4.894,0,12.487,1.012,12.487-1.013S508.1,744.8,508.1,744.8Z" transform="translate(-379.005 -495.796)" fill="#412b76"/>
      <path id="Tracé_1374" data-name="Tracé 1374" d="M636.537,772.516l-2.194,6.75s-6.581,9.112-2.869,10.969,16.875,3.712,16.875-1.181v-9.281s-1.35-6.581-2.7-7.256S636.537,772.516,636.537,772.516Z" transform="translate(-482.132 -516.76)" fill="#412b76"/>
      <path id="Tracé_1375" data-name="Tracé 1375" d="M527.724,409.5s-7.115,6.182-6.946,7.025,3.544,55.012,3.544,55.012l1.856,35.1s-2.362,8.269-1.181,10.125-1.687,2.362-1.687,2.362,12.15,10.968,17.212,6.244l4.725-61.256,12.994,44.549s2.194,23.625,4.725,23.625,12.825.506,12.656-.844.506-11.644-.675-17.719-9.112-54.168-9.112-54.168-.682-41.229,1.093-45.083-.925-7.9-.925-7.9l-11.812-4.556L540.015,403.7Z" transform="translate(-410.585 -275.012)" fill="#2f2e41"/>
      <ellipse id="Ellipse_218" data-name="Ellipse 218" cx="11.812" cy="11.812" rx="11.812" ry="11.812" transform="translate(119.643 37.227)" fill="#a0616a"/>
      <path id="Tracé_1376" data-name="Tracé 1376" d="M570.7,231.711a10.6,10.6,0,0,0-7.425-6.75,65.429,65.429,0,0,1-9.956-3.375s-11.981,5.737-14.344,5.737-2.362-1.519-2.362-1.519-6.075,6.412-9.281,7.087-7.931,8.606-6.243,12.994a24.487,24.487,0,0,0,4.894,7.594s-.675,23.625,1.519,28.012c0,0-5.4,10.293-.338,10.969s24.468-1.687,27.843.675,9.619-.506,10.462,2.7,2.7,3.881,2.7,3.881,2.869-4.556,1.181-7.256S570.7,231.711,570.7,231.711Z" transform="translate(-410.56 -157.191)" fill="#412b76"/>
      <path id="Tracé_1377" data-name="Tracé 1377" d="M623.667,433.625l-2.7,1.687s2.869,9.956,4.05,10.294,3.962-8.513,3.962-8.513Z" transform="translate(-476.012 -295.655)" fill="#a0616a"/>
      <path id="Tracé_1378" data-name="Tracé 1378" d="M543.209,146.591a.967.967,0,0,0,1.133-.468c.91-1.435-.766-3.284-.4-4.944.291-1.33,1.8-2.119,2.111-3.445.3-1.288-.625-2.74,0-3.906a2.594,2.594,0,0,1,2.737-.993c1.024.16,2,.61,3.03.673a14.864,14.864,0,0,0,4.04-.823c1.347-.3,2.992-.183,3.784.948,1.018,1.452-.015,3.473.34,5.21.281,1.379,3.488,2.348,3.779,1.415a9.46,9.46,0,0,0-.387-6.6,13.215,13.215,0,0,1-1.127-2.684c-.259-1.3.149-2.686-.279-3.935-.577-1.684-2.485-2.543-4.257-2.717s-3.572.138-5.333-.119c-1.578-.23-3.106-.914-4.7-.815a7.8,7.8,0,0,0-4.9,2.731,41.1,41.1,0,0,1-3.951,4.154,7.748,7.748,0,0,0-1.266,1.09,4.255,4.255,0,0,0-.631,3.451c.213,1.188.677,2.322.872,3.513.184,1.12.127,2.263.206,3.395a5.97,5.97,0,0,0,1,3.2,3.025,3.025,0,0,0,2.353,1.23c.318.007.588-.279.91-.2C542.677,146.046,542.852,146.428,543.209,146.591Z" transform="translate(-421.073 -93.059)" fill="#2f2e41"/>
      <path id="Tracé_1379" data-name="Tracé 1379" d="M629.033,253.719l5.484-2.953s13.331,31.725,10.125,40.5S629.117,318.1,629.117,318.1s-9.787-2.025-8.775-4.05,7.594-15.019,8.1-16.706,3.881-12.656,2.362-13.837-4.472-28.6-4.472-28.6Z" transform="translate(-475.556 -176.245)" opacity="0.1"/>
      <path id="Tracé_1380" data-name="Tracé 1380" d="M631.171,245.416l6.75,1.856s13.331,31.725,10.125,40.5S632.521,314.6,632.521,314.6s-9.787-2.025-8.775-4.05,7.594-15.019,8.1-16.706,3.881-12.656,2.363-13.837-8.775-30.375-8.775-30.375Z" transform="translate(-477.779 -172.752)" fill="#412b76"/>
      <path id="Tracé_1381" data-name="Tracé 1381" d="M531.355,322.205c0,27.559-38.544,49.9-86.09,49.9s-86.09-22.341-86.09-49.9" transform="translate(-305.057 -222.896)" fill="none" stroke="#412b76" stroke-width="2"/>
      <path id="Tracé_1382" data-name="Tracé 1382" d="M544.472,468.058c-19.243,10.379-44.352,16.659-71.819,16.659-26.335,0-50.5-5.774-69.411-15.4" transform="translate(-333.834 -318.14)" fill="none" stroke="#412b76" stroke-width="2"/>
      <path id="Tracé_1383" data-name="Tracé 1383" d="M731.188,147.906c36.622,9.626,62.7,30.8,65.13,55.736" transform="translate(-547.988 -109.076)" fill="none" stroke="#412b76" stroke-width="2"/>
      <path id="Tracé_1384" data-name="Tracé 1384" d="M302.373,207.264c6.171-11.341,17.443-21.322,32.213-28.99" transform="translate(-267.965 -128.907)" fill="none" stroke="#412b76" stroke-width="2"/>
      <path id="Tracé_1385" data-name="Tracé 1385" d="M520.568,479.9h70.039q20.779-35.019,0-70.039H520.568Q549.622,444.876,520.568,479.9Z" transform="translate(-410.45 -280.134)" fill="#f2f2f2"/>
      <rect id="Rectangle_426" data-name="Rectangle 426" width="39.466" height="5.003" transform="translate(133.293 143.063)" fill="#77e96f"/>
      <rect id="Rectangle_427" data-name="Rectangle 427" width="52.251" height="1.668" transform="translate(130.235 158.071)" fill="#fff"/>
      <rect id="Rectangle_428" data-name="Rectangle 428" width="52.251" height="1.668" transform="translate(130.235 166.687)" fill="#fff"/>
      <path id="Tracé_1386" data-name="Tracé 1386" d="M283.639,342.888H213.6q-20.779-35.02,0-70.039h70.039Q254.585,307.868,283.639,342.888Z" transform="translate(-203.21 -190.666)" fill="#f2f2f2"/>
      <rect id="Rectangle_429" data-name="Rectangle 429" width="39.466" height="5.003" transform="translate(18.172 90.521)" fill="#77e96f"/>
      <rect id="Rectangle_430" data-name="Rectangle 430" width="52.251" height="1.668" transform="translate(9.556 104.418)" fill="#fff"/>
      <rect id="Rectangle_431" data-name="Rectangle 431" width="52.251" height="1.668" transform="translate(9.556 113.033)" fill="#fff"/>
      <rect id="Rectangle_432" data-name="Rectangle 432" width="52.251" height="1.668" transform="translate(9.556 121.649)" fill="#fff"/>
      <rect id="Rectangle_433" data-name="Rectangle 433" width="52.251" height="1.668" transform="translate(9.556 130.265)" fill="#fff"/>
      <path id="Tracé_1387" data-name="Tracé 1387" d="M765,249.908h70.04q20.779-35.02,0-70.039H765Q794.051,214.889,765,249.908Z" transform="translate(-570.065 -129.949)" fill="#f2f2f2"/>
      <rect id="Rectangle_434" data-name="Rectangle 434" width="39.466" height="5.003" transform="translate(217.272 56.869)" fill="#77e96f"/>
      <rect id="Rectangle_435" data-name="Rectangle 435" width="52.251" height="1.668" transform="translate(213.103 70.765)" fill="#fff"/>
    </g>
  </g>
</svg>
