<?xml version="1.0" encoding="UTF-8"?>
<svg width="36px" height="36px" viewBox="0 0 36 36" version="1.1" xmlns="http://www.w3.org/2000/svg" xmlns:xlink="http://www.w3.org/1999/xlink">
    <title>iconmonstr-building-46</title>
    <g id="Page-1" stroke="none" stroke-width="1" fill="none" fill-rule="evenodd">
        <g id="iconmonstr-building-46" fill="#77E96F">
            <path d="M18,3 L21,3 L21,6 L24,6 L24,11.553 L34.5,15.48 L34.5,34.5 L36,34.5 L36,36 L0,36 L0,34.5 L1.5,34.5 L1.5,18 L10.5,18 L10.5,6 L13.5,6 L13.5,3 L16.5,3 L16.5,0 L18,0 L18,3 Z M22.5,7.5 L12,7.5 L12,34.5 L13.5,34.5 L13.5,31.5 L21,31.5 L21,34.5 L22.5,34.5 L22.5,7.5 Z M19.5,33 L15,33 L15,34.5 L19.5,34.5 L19.5,33 Z M31.5,34.5 L33,34.5 L33,16.5195 L24,13.155 L24,34.5 L25.5,34.5 L25.5,31.5 L31.5,31.5 L31.5,34.5 Z M10.5,19.5 L3,19.5 L3,34.5 L4.5,34.5 L4.5,31.5 L9,31.5 L9,34.5 L10.5,34.5 L10.5,19.5 Z M7.5,33 L6,33 L6,34.5 L7.5,34.5 L7.5,33 Z M30,33 L27,33 L27,34.5 L30,34.5 L30,33 Z M6,25.5 L6,28.5 L4.5,28.5 L4.5,25.5 L6,25.5 Z M9,25.5 L9,28.5 L7.5,28.5 L7.5,25.5 L9,25.5 Z M16.5,10.5 L16.5,28.5 L15,28.5 L15,10.5 L16.5,10.5 Z M31.5,27 L31.5,28.5 L25.5,28.5 L25.5,27 L31.5,27 Z M19.5,10.5 L19.5,28.5 L18,28.5 L18,10.5 L19.5,10.5 Z M31.5,24 L31.5,25.5 L25.5,25.5 L25.5,24 L31.5,24 Z M6,21 L6,24 L4.5,24 L4.5,21 L6,21 Z M9,21 L9,24 L7.5,24 L7.5,21 L9,21 Z M31.5,21 L31.5,22.5 L25.5,22.5 L25.5,21 L31.5,21 Z M31.5,18 L31.5,19.5 L25.5,19.5 L25.5,18 L31.5,18 Z M19.5,4.5 L15,4.5 L15,6 L19.5,6 L19.5,4.5 Z" id="Shape"></path>
        </g>
    </g>
</svg>