<?xml version="1.0" encoding="UTF-8"?>
<svg width="42px" height="50px" viewBox="0 0 42 50" version="1.1" xmlns="http://www.w3.org/2000/svg" xmlns:xlink="http://www.w3.org/1999/xlink">
    <title>iconmonstr-document-thin</title>
    <g id="Page-1" stroke="none" stroke-width="1" fill="none" fill-rule="evenodd">
        <g id="iconmonstr-document-thin" fill="#77E96F">
            <path d="M42,50 L0,50 L0,0 L29.4,0 L42,12.5 L42,50 Z M27.3,2.08333333 L2.1,2.08333333 L2.1,47.9166667 L39.9,47.9166667 L39.9,14.5833333 L27.3,14.5833333 L27.3,2.08333333 Z M33.6,33.3333333 L33.6,35.4166667 L8.4,35.4166667 L8.4,33.3333333 L33.6,33.3333333 Z M33.6,27.0833333 L33.6,29.1666667 L8.4,29.1666667 L8.4,27.0833333 L33.6,27.0833333 Z M33.6,20.8333333 L33.6,22.9166667 L8.4,22.9166667 L8.4,20.8333333 L33.6,20.8333333 Z M29.4,12.5 L39.0306,12.5 L29.4,2.94583333 L29.4,12.5 L29.4,12.5 Z" id="Shape"></path>
        </g>
    </g>
</svg>