<?xml version="1.0" encoding="UTF-8"?>
<svg width="60px" height="45px" viewBox="0 0 60 45" version="1.1" xmlns="http://www.w3.org/2000/svg" xmlns:xlink="http://www.w3.org/1999/xlink">
    <title>iconmonstr-school-22</title>
    <g id="Page-1" stroke="none" stroke-width="1" fill="none" fill-rule="evenodd">
        <g id="iconmonstr-school-22" fill="#77E96F">
            <path d="M55,16.85 L50,19.4 L50,37.5 C47.4825,42.6025 35.985,45 28.75,45 C20.8125,45 10.2775,42.515 7.5,37.5 L7.5,18.01 L0,13.27 L30,0 L57.5,15.5775 L57.5,37.5 L60,45 L52.5,45 L55,37.5 L55,16.85 Z M10,19.5875 L10,36.77 C12.395,39.97 20.5425,42.5 28.75,42.5 C35.985,42.5 45.2225,40.1025 47.5,36.8275 L47.5,20.6725 L27.6925,30.77 L10,19.5875 Z M5.2975,13.66 L27.825,27.895 L52.2225,15.46 L29.8625,2.795 L5.2975,13.66 L5.2975,13.66 Z" id="Shape"></path>
        </g>
    </g>
</svg>