<svg width="68" height="65" viewBox="0 0 68 65" fill="none" xmlns="http://www.w3.org/2000/svg">
<path fill-rule="evenodd" clip-rule="evenodd" d="M39.1621 35.2914C39.5809 32.751 40.0275 30.1826 40.3067 27.6143H40.8929C41.1163 27.6143 41.9817 27.9493 42.9309 28.1447C44.7734 27.5864 44.6896 26.7489 43.3496 25.7439C42.4275 25.5394 41.4958 25.381 40.5579 25.2693C40.7089 23.0986 40.9698 20.9369 41.3396 18.7926C41.1721 16.001 39.1342 16.4756 38.3525 18.7926C38.3684 18.9691 38.3684 19.1466 38.3525 19.3231C38.0175 21.1935 37.6825 23.0918 37.4034 24.9064C34.2488 24.7389 34.835 24.9064 27.9675 24.9064C27.9675 24.3481 27.2975 21.2214 26.9067 18.9881C26.5159 16.7547 24.7013 16.671 24.5338 18.9881C24.5338 20.3839 24.5338 22.1147 24.7571 24.9064C22.8867 24.9064 22.3004 24.9064 16.6613 25.3531C16.363 23.2808 15.934 21.2295 15.3771 19.2114C14.2604 17.1735 12.1667 17.8714 12.1667 19.4906C12.6413 22.0031 12.39 21.0818 13.1438 25.8276C11.6721 26.0446 10.1767 26.0446 8.70502 25.8276C5.91336 26.0789 5.55044 28.1168 9.29127 28.4518H13.5625C14.2604 32.8906 14.3442 33.5885 14.8746 36.1847C13.3605 36.5465 11.7825 36.5465 10.2684 36.1847C9.04002 35.6543 6.63919 38.9764 15.4329 38.3901C15.7611 39.6482 16.2293 40.8656 16.8288 42.0193C16.9632 42.2268 17.1694 42.3774 17.4079 42.4424C17.6464 42.5074 17.9005 42.4822 18.1216 42.3717C18.3427 42.2611 18.5153 42.0729 18.6064 41.8431C18.6975 41.6133 18.7007 41.358 18.6154 41.126C18.222 40.2358 17.9497 39.2969 17.8059 38.3343C20.1788 38.1668 21.3513 38.3343 27.0742 38.1389C27.542 39.3559 27.8789 40.6193 28.0792 41.9076C28.0792 42.1742 28.1851 42.4298 28.3736 42.6183C28.562 42.8068 28.8176 42.9126 29.0842 42.9126C29.3507 42.9126 29.6064 42.8068 29.7948 42.6183C29.9833 42.4298 30.0892 42.1742 30.0892 41.9076C30.0787 40.6188 29.9194 39.3354 29.6146 38.0831C31.6525 38.0831 33.9417 38.0831 36.0913 38.0831C35.5888 44.3643 39.8321 41.9914 38.3246 40.5118C38.0175 40.1489 38.3246 38.3622 38.52 37.8876C40.2788 37.6364 40.9488 37.6643 41.8142 37.4968C42.6796 37.3293 43.2659 35.3472 42.205 35.2635C41.1442 35.1797 40.8371 35.2914 39.1621 35.2914ZM17.4709 35.7101C17.4709 34.8447 17.0242 30.1268 16.8567 28.5356C20.6254 28.5356 21.1 28.5356 24.9525 28.5356C25.1773 30.6845 25.5694 32.8126 26.125 34.9006C23.2279 35.0313 20.3393 35.3108 17.4709 35.7381V35.7101ZM36.3984 35.2914C34.0254 35.2914 31.5129 34.9843 29.1121 34.8726C28.9725 33.7001 28.4421 29.2893 28.3025 28.2285C32.3225 27.9772 34.5559 27.6981 36.9288 27.6143C36.5938 31.4389 36.4263 35.2914 36.3984 35.2914Z" fill="#163055"/>
<path fill-rule="evenodd" clip-rule="evenodd" d="M64.6221 0.814308C61.5681 0.193355 58.4251 0.146022 55.3538 0.674725C50.9429 2.04264 52.5621 -0.860691 48.2071 12.9022C46.3646 19.8814 42.0375 42.3264 42.6238 43.2197C16.3821 43.6385 15.9913 44.1689 8.92836 42.131C9.12377 41.5726 8.45377 40.0651 8.39794 39.8139C4.65711 22.6451 3.59627 21.1376 4.62919 18.0947C17.8116 15.9027 31.1591 14.8566 44.5221 14.9681C44.6156 15.0432 44.723 15.0992 44.8381 15.1329C44.9532 15.1665 45.0739 15.1772 45.1931 15.1642C45.3123 15.1513 45.4279 15.1149 45.5331 15.0573C45.6383 14.9997 45.7311 14.922 45.8063 14.8285C45.8814 14.735 45.9374 14.6276 45.9711 14.5125C46.0047 14.3974 46.0154 14.2767 46.0024 14.1575C45.9895 14.0382 45.9532 13.9227 45.8955 13.8175C45.8379 13.7123 45.7602 13.6195 45.6667 13.5443C44.0475 12.3439 13.6742 13.7676 13.9254 13.7676C10.2463 13.3872 6.52915 13.865 3.06586 15.1635C0.134607 16.5035 1.00002 22.9522 1.58627 25.9951C3.79169 34.2306 2.98211 30.9643 5.15961 40.3722C5.32711 41.2376 5.35502 43.4151 6.19252 44.2247C10.3521 48.2168 31.3175 45.3135 42.0934 45.2576C41.5071 47.2397 41.2838 48.4401 39.5809 48.9147C37.7246 49.1049 35.8538 49.1049 33.9975 48.9147C25.9296 49.3056 18.1688 47.6306 6.08086 48.9147C5.84393 48.8962 5.60935 48.9726 5.42873 49.127C5.24811 49.2815 5.13624 49.5013 5.11773 49.7383C5.09922 49.9752 5.17559 50.2098 5.33003 50.3904C5.48448 50.571 5.70435 50.6829 5.94127 50.7014C5.01498 51.0685 4.17606 51.6259 3.47877 52.3376C2.78148 53.0493 2.24137 53.8994 1.89336 54.8331C0.497524 58.6856 4.35002 63.4593 8.23044 64.4643C15.9634 66.4464 21.8259 55.6985 15.9354 51.1481C16.7945 51.1651 17.652 51.2303 18.5038 51.3435C24.0311 52.3233 29.6658 52.5487 35.2538 52.0135C30.0334 57.0106 35.4213 64.4085 42.1492 63.6547C49.5471 62.7893 49.0725 50.9526 42.7354 49.8918C44.6059 47.6585 43.7963 45.5368 46.7554 34.4539C48.8804 26.2489 50.5671 17.9366 51.8084 9.55223C53.1484 9.21723 62.1654 10.0547 64.0638 9.94306C65.1126 9.77074 66.0717 9.2473 66.7841 8.45849C67.4965 7.66968 67.9198 6.6623 67.9847 5.60142C68.0496 4.54054 67.7522 3.48908 67.1412 2.61933C66.5303 1.74959 65.6421 1.11315 64.6221 0.814308ZM14.7909 58.2389C14.4046 59.0956 13.7966 59.8337 13.0296 60.3767C12.2627 60.9197 11.3646 61.2481 10.4282 61.3278C9.49181 61.4075 8.55114 61.2356 7.70342 60.83C6.85571 60.4244 6.13171 59.7997 5.60627 59.0206C5.12803 58.5895 4.75952 58.0506 4.53132 57.4485C4.30313 56.8465 4.22183 56.1987 4.29419 55.5589C4.50194 54.6357 5.0011 53.8037 5.71794 53.186C10.5475 48.9147 17.75 52.7114 14.7909 58.2389ZM44.8571 55.6147C45.6946 63.4314 35.3654 60.2768 36.2588 55.6147C36.9846 51.8739 44.1871 49.4451 44.8571 55.6147ZM63.7567 6.64889C61.8583 6.90014 55.2421 6.95598 52.2271 7.34681C52.4048 5.89057 52.7418 4.45824 53.2321 3.07556C53.5113 3.49431 55.1584 2.88014 55.8563 2.74056C58.574 2.70905 61.2792 3.11435 63.8684 3.94098C64.985 4.27598 64.8454 6.53722 63.7567 6.64889Z" fill="#163055"/>
</svg>
