<svg width="204" height="178" viewBox="0 0 204 178" fill="none" xmlns="http://www.w3.org/2000/svg">
<path d="M0.649615 105.818C0.205565 106.567 0.228035 107.174 0.898925 107.279C2.98542 107.6 28.9062 107.09 33.0417 107.031C34.0732 107.031 34.1192 106.02 33.6441 105.042C30.2094 97.8928 23.9564 86.8953 18.8043 81.0049C18.4951 80.6508 17.9002 80.4625 17.2977 81.2682C11.2421 89.0965 5.68187 97.2959 0.649615 105.818ZM19.3842 101.614C19.6443 103.647 16.3112 103.739 16.8837 101.524C16.9388 101.226 17.0994 100.958 17.336 100.768C17.5726 100.578 17.8696 100.48 18.1727 100.49C18.4759 100.501 18.765 100.621 18.9874 100.827C19.2098 101.033 19.3506 101.313 19.3842 101.614ZM18.8118 96.8313C18.8118 98.6995 16.9511 99.5127 16.9928 95.7988C16.9928 94.014 16.9928 92.2282 17.0837 90.4488C17.1586 88.9433 18.0928 88.9433 18.4319 89.4633C19.0076 90.36 18.8075 95.4071 18.8118 96.8313ZM2.09625 105.969C6.57099 98.8579 13.8406 88.3644 18.3142 82.443C23.4224 90.3214 27.9442 96.8987 32.0851 105.464C22.4808 105.614 11.7081 105.862 2.09625 105.969Z" fill="#2289EE"/>
<path d="M175.783 23.5278C170.698 32.168 164.566 42.6166 160.318 51.581C159.896 52.4616 160.167 53.0191 160.846 53.0876C162.665 53.3016 192.032 51.6409 196.25 51.4227C197.266 51.3692 197.38 50.2852 196.627 49.0269C191.378 40.0899 185.391 31.6074 178.729 23.6679C177.649 22.4203 176.935 21.5697 175.783 23.5278ZM180.431 46.4878C180.465 46.7232 180.438 46.9633 180.355 47.1859C180.271 47.4086 180.133 47.6066 179.953 47.762C179.773 47.9173 179.557 48.0249 179.324 48.0748C179.092 48.1248 178.851 48.1155 178.623 48.0479C177.116 47.7087 178.05 46.1037 178.088 45.9913C178.449 44.916 180.277 45.344 180.431 46.4878ZM178.811 32.1006C179.141 33.7356 179.76 39.9277 179.814 41.615C179.867 43.3024 178.043 43.5357 177.839 42.21C177.508 39.9501 177.004 34.277 177.349 32.168C177.384 32.0046 177.473 31.8574 177.6 31.7494C177.728 31.6414 177.887 31.5786 178.054 31.5709C178.221 31.5632 178.386 31.611 178.523 31.7068C178.66 31.8027 178.761 31.9411 178.811 32.1006ZM161.553 51.7458C166.51 42.1158 172.137 33.1021 177.161 24.0852C184.958 33.3589 188.905 39.6002 195.286 49.9386C184.83 50.4885 173.35 51.4077 161.553 51.7458Z" fill="#2289EE"/>
<path d="M190.623 63.8742C169.298 63.8882 172.732 88.4543 189.116 89.7361C207.648 91.1817 208.792 63.8635 190.623 63.8742ZM198.976 71.7687C198.869 72.2577 194.766 76.3333 190.977 82.9256C190.857 83.1423 190.656 83.3027 190.418 83.3715C190.18 83.4403 189.925 83.4119 189.708 83.2926C189.516 83.1856 184.374 78.6756 182.518 76.9593C181.915 76.4018 182.691 75.166 183.413 75.7309C185.628 77.4558 187.761 79.2865 189.929 81.0724C192.1 77.4634 194.597 74.0609 197.388 70.9074C197.532 70.7626 197.719 70.6684 197.921 70.639C198.122 70.6095 198.328 70.6464 198.507 70.744C198.686 70.8416 198.829 70.9947 198.913 71.1802C198.998 71.3658 199.02 71.5738 198.976 71.773V71.7687Z" fill="#45DD3A"/>
<path d="M165.494 143.891C148.747 144.742 147.655 172.976 167.542 171.967C187.429 170.958 186.133 142.841 165.494 143.891ZM173.425 164.14C172.462 164.14 167.948 160.034 166.932 159.153C165.689 160.396 162.804 163.433 161.659 164.246C161.513 164.346 161.336 164.39 161.16 164.37C160.984 164.351 160.821 164.269 160.701 164.139C160.58 164.009 160.51 163.841 160.504 163.664C160.497 163.487 160.554 163.314 160.665 163.176C162.216 161.345 163.865 159.599 165.606 157.948C164.234 156.735 161.372 154.355 160.522 153.006C160.094 152.335 161.012 151.748 161.583 152.065C163.433 153.497 165.208 155.023 166.902 156.637C167.73 155.801 171.602 151.681 172.506 151.213C173.161 150.874 173.831 151.748 173.538 152.343C173.139 153.135 169.018 157.051 168.265 157.835C170.083 159.207 171.826 160.675 173.486 162.234C174.163 163.008 174.916 164.138 173.425 164.138V164.14Z" fill="#2289EE"/>
<path d="M126.947 13.1776C127.234 19.619 129.515 25.1477 138.08 25.6528C139.834 25.8016 141.6 25.5804 143.262 25.0035C144.925 24.4266 146.448 23.5069 147.733 22.3039C149.018 21.1009 150.035 19.6414 150.72 18.0201C151.405 16.3988 151.741 14.6517 151.708 12.892C151.639 6.33821 148.357 1.01496 139.655 0.673626C131.318 0.348346 126.626 5.95408 126.947 13.1776ZM143.572 18.6539L139.343 14.2327C137.572 15.8601 135.855 17.555 134.025 19.1215C133.87 19.221 133.685 19.2639 133.502 19.2429C133.319 19.2219 133.149 19.1384 133.021 19.0063C132.892 18.8743 132.813 18.7019 132.797 18.5184C132.781 18.3348 132.829 18.1514 132.933 17.9991C133.761 16.9216 136.91 14.0219 138.1 12.8845C137.351 12.0702 133.874 8.68044 133.58 7.68641C133.528 7.51307 133.58 5.68979 135.934 8.04058C137.111 9.21758 138.261 10.4288 139.429 11.6187C140.573 10.4301 141.777 9.3012 143.038 8.23639C144.129 7.40821 145.155 8.71147 143.933 9.89382C142.863 10.9253 141.787 11.9354 140.709 12.9519L144.958 17.3667C145.131 17.5512 145.224 17.7967 145.215 18.0493C145.207 18.302 145.099 18.541 144.914 18.7138C144.73 18.8867 144.484 18.9791 144.232 18.9709C143.979 18.9627 143.74 18.8544 143.567 18.67L143.572 18.6539Z" fill="#2289EE"/>
<path d="M50.8797 35.0838C50.5929 28.6509 46.7367 22.6718 36.454 22.6718C28.6044 22.6718 24.042 28.0956 24.4015 35.8542C24.761 43.6127 29.9655 47.8617 37.3207 48.2159C39.1036 48.3703 40.8989 48.1401 42.5852 47.5408C44.2715 46.9415 45.8094 45.987 47.095 44.742C48.3805 43.4969 49.3837 41.9903 50.0366 40.324C50.6896 38.6578 50.9771 36.8707 50.8797 35.0838ZM44.4597 31.2189C42.6557 32.9106 40.8966 34.6536 39.1097 36.372C40.1647 37.5993 41.1363 38.9101 42.2737 40.0625C44.3152 42.1565 42.6803 43.4672 41.8072 42.4357C40.4583 40.8457 39.1072 39.2535 37.754 37.6592C36.2606 39.1885 34.6705 40.6203 32.9936 41.9457C32.4136 42.3373 31.6293 41.5091 32.037 40.9516C33.4474 39.2998 34.9567 37.7351 36.5567 36.2661C35.4417 34.9404 32.037 31.0456 31.3287 29.8461C30.8236 28.9719 31.9985 28.4144 32.5634 28.9569C34.4167 30.7503 36.195 32.9951 37.8899 34.9832C39.6372 33.2883 41.3695 31.5592 43.1629 29.906C44.6876 28.4926 45.1531 30.5705 44.4618 31.22L44.4597 31.2189Z" fill="#2289EE"/>
<path d="M62.6529 73.0495C55.0227 73.0495 51.5121 78.759 52.3028 86.066C53.0935 93.3731 56.8225 95.8598 63.4747 95.8598C70.1269 95.8598 74.2817 92.1383 74.2089 85.3128C74.1361 78.4872 69.5009 73.0495 62.6529 73.0495ZM67.0399 89.1851C66.2909 88.9593 64.0268 85.8103 63.22 84.9137C61.7134 86.2469 60.2829 87.6186 58.7538 88.8983C58.0754 89.4633 57.0418 88.4168 57.6763 87.7759C59.0673 86.3378 60.5653 84.9939 62.0152 83.6104C60.9282 82.6027 59.9416 81.4919 59.0695 80.2934C58.9946 80.0901 59.0695 78.4027 61.1945 80.2934C61.9435 80.9632 62.6176 81.694 63.3345 82.3874L65.6543 80.2399C66.3102 79.6375 68.0083 78.7333 67.8092 80.2399C67.7183 80.9889 65.4435 82.8539 64.5318 83.6981C65.1578 84.4065 67.9558 87.4645 67.9216 88.4286C67.9245 88.54 67.9026 88.6507 67.8573 88.7526C67.812 88.8544 67.7446 88.9449 67.6599 89.0174C67.5752 89.0899 67.4754 89.1425 67.3678 89.1716C67.2602 89.2006 67.1474 89.2052 67.0378 89.1851H67.0399Z" fill="#2289EE"/>
<path d="M97.3348 82.473C94.9166 82.473 92.0619 82.2397 90.7736 84.7328C90.4729 85.2978 91.391 85.7429 91.7366 85.2454C92.9949 83.4681 96.5355 83.9121 98.5995 83.9121C101.225 83.9917 103.854 83.9203 106.472 83.6981C106.588 83.6765 106.693 83.6149 106.768 83.524C106.844 83.4332 106.885 83.3187 106.885 83.2006C106.885 83.0824 106.844 82.968 106.768 82.8771C106.693 82.7863 106.588 82.7247 106.472 82.703C105.784 82.3542 98.1127 82.473 97.3348 82.473ZM92.1293 78.3984C92.2125 78.2997 92.3286 78.2344 92.4562 78.2146C92.5838 78.1948 92.7143 78.2218 92.8235 78.2906C92.9328 78.3594 93.0134 78.4655 93.0506 78.5891C93.0878 78.7128 93.079 78.8457 93.0259 78.9634C92.4509 80.2716 91.7282 81.5098 90.872 82.6538C88.778 85.9237 86.0281 89.8934 83.1124 92.3416C82.6458 92.7332 82.0124 92.0024 82.4051 91.5926C84.249 89.5802 85.9767 87.4642 87.5796 85.255C88.6421 83.7313 91.6884 78.728 92.1293 78.3984ZM94.3891 93.1473C93.0559 92.6348 93.8391 95.3622 89.4104 97.8328C89.2933 97.903 89.2055 98.013 89.1631 98.1428C89.1208 98.2725 89.1267 98.4132 89.1799 98.5389C89.233 98.6646 89.3298 98.7668 89.4524 98.8268C89.5749 98.8868 89.7151 98.9005 89.8469 98.8654C90.9594 98.4157 91.9697 97.7462 92.8174 96.897C93.6652 96.0478 94.3329 95.0363 94.7807 93.9231C94.8142 93.7721 94.7933 93.6141 94.7216 93.4771C94.65 93.34 94.5322 93.2327 94.3891 93.1741V93.1473ZM103.384 89.2525C103.512 89.9309 103.919 91.7392 102.97 91.7467C102.171 91.7467 102.276 90.3899 102.221 89.9384C102.196 89.166 101.947 88.4175 101.506 87.7828C101.065 87.1481 100.451 86.6542 99.7359 86.3603C98.2042 85.9347 96.5999 85.837 95.0279 86.0735C94.9109 86.0729 94.7981 86.0299 94.7105 85.9523C94.6229 85.8748 94.5665 85.768 94.5517 85.652C94.5369 85.5359 94.5648 85.4184 94.6301 85.3214C94.6955 85.2244 94.7939 85.1544 94.907 85.1245C96.7556 84.6133 98.7178 84.6926 100.519 85.3513C101.276 85.7249 101.933 86.2737 102.436 86.9522C102.938 87.6307 103.272 88.4193 103.408 89.2525H103.384ZM100.838 89.26C101.302 90.25 101.415 91.3685 101.159 92.4315C100.926 93.938 100.105 93.6523 99.9691 93.3506C99.5101 92.2967 100.549 91.7617 99.615 89.7725C98.621 87.6486 96.726 87.9728 94.7187 88.0477C94.591 88.0454 94.4684 87.9975 94.373 87.9127C94.2776 87.8279 94.2157 87.7118 94.1983 87.5853C94.181 87.4589 94.2095 87.3304 94.2786 87.2231C94.3478 87.1158 94.453 87.0367 94.5753 87.0002C97.2064 86.4427 99.6043 86.646 100.838 89.26ZM98.484 91.8216C97.6858 89.1776 97.1508 89.6816 93.9643 89.8025C93.8165 89.8025 93.6747 89.8612 93.5701 89.9658C93.4656 90.0703 93.4068 90.2121 93.4068 90.36C93.4068 90.5078 93.4656 90.6496 93.5701 90.7542C93.6747 90.8587 93.8165 90.9174 93.9643 90.9174C94.8848 90.815 95.8149 90.838 96.7292 90.9859C97.1208 91.0983 97.5424 93.1099 97.3016 93.999C97.1254 94.4687 96.826 94.8822 96.4349 95.1964C95.5789 96.0524 97.8259 96.658 98.5824 94.533C98.8409 93.6422 98.8075 92.692 98.4872 91.8216H98.484Z" fill="#163055"/>
<path d="M100.59 94.473C99.8408 94.366 99.8408 95.603 99.6482 96.7329C99.5412 97.4262 99.294 98.3229 99.6482 98.6995C100.397 99.4485 100.763 98.0811 100.905 96.7735C100.974 96.2086 101.351 94.595 100.559 94.5137L100.59 94.473ZM111.354 98.9328C111.247 97.0945 111.158 82.0739 112.303 81.8406C113.282 81.5732 114.141 80.9794 114.737 80.1575C115.333 79.3356 115.63 78.3348 115.579 77.3209C115.655 73.6219 113.47 74.677 113.064 75.4377C112.077 77.276 109.533 70.4205 109.533 66.5942C102.248 65.3102 93.0741 64.0026 89.9518 56.2441C88.3318 52.2284 97.8388 50.052 112.069 61.7428C120.754 57.7431 118.095 66.2625 114.991 73.5021C117.952 74.3303 117.778 81.7122 113.123 83.1738C112.535 88.7935 112.641 93.6299 112.468 98.8729C112.468 99.746 111.383 99.8819 111.338 98.9702L111.354 98.9328ZM95.6549 64.7784C94.5635 67.3924 93.4561 77.4418 93.6369 80.4999C93.6369 81.0124 94.51 81.0873 94.5475 80.5598C94.8193 76.3044 95.6324 68.8968 96.8073 65.0042C96.9732 64.4392 95.9117 64.2552 95.6934 64.7784H95.6549ZM108.822 86.7134C108.073 86.1078 107.791 87.1649 106.458 88.1044C105.464 88.7978 104.198 89.107 104.425 89.7543C104.746 90.575 106.097 89.9052 107.272 89.046C107.738 88.7186 109.677 87.4025 108.822 86.7134Z" fill="#163055"/>
<path d="M114.886 99.241C111.695 101.543 108.003 103.056 104.114 103.656C101.645 104.025 101.576 103.475 100.242 101.531C99.7766 100.838 99.3239 100.13 98.851 99.4293C98.7819 99.3044 98.666 99.2121 98.5289 99.1727C98.3917 99.1333 98.2445 99.1499 98.1197 99.219C97.9948 99.2881 97.9025 99.404 97.8631 99.5411C97.8236 99.6783 97.8403 99.8255 97.9094 99.9504C98.5522 101.42 99.3881 102.798 100.395 104.047C99.0284 105.326 97.7687 106.714 96.6286 108.198C95.6731 106.161 94.9969 104.005 94.6181 101.788L95.9021 101.283C96.0549 101.229 96.18 101.116 96.25 100.97C96.3199 100.824 96.3289 100.656 96.275 100.503C96.2211 100.35 96.1087 100.225 95.9625 100.155C95.8163 100.085 95.6483 100.076 95.4955 100.13C93.424 100.777 91.3599 101.638 89.3259 102.391C90.0749 99.93 89.9069 99.6936 88.6935 99.0227C84.1738 96.5371 82.2457 94.9631 80.325 92.2431C79.9034 91.6557 79.2625 92.5214 79.6317 93.1099C81.6807 96.3712 83.9855 98.4502 88.4602 100.589C87.8953 102.338 87.3378 104.095 86.7878 105.862C82.4415 104.741 80.4898 103.693 77.4018 100.229C77.3162 100.128 77.196 100.063 77.065 100.047C76.934 100.031 76.8017 100.065 76.6942 100.141C76.5867 100.218 76.5118 100.332 76.4844 100.461C76.4569 100.59 76.4788 100.725 76.5458 100.838C77.6692 102.498 79.1153 103.914 80.798 105.003C82.4806 106.091 84.3653 106.83 86.3395 107.174C83.718 115.527 80.7498 124.13 78.5809 132.56C78.444 133.101 79.3299 133.416 79.5225 132.881C82.9872 123.572 85.8869 113.393 88.8476 103.848C90.4363 103.444 91.9846 102.894 93.4732 102.207C93.6318 104.436 94.22 106.612 95.2055 108.617C96.5623 111.412 97.322 108.429 101.232 105.046C101.981 106.252 104.763 111.502 105.978 111.674C108.867 112.075 116.653 105.483 118.604 103.163C122.456 105.422 130.658 110.078 133.113 113.874C137.227 120.202 143.154 168.247 124.963 168.18C112.337 168.128 99.2908 160.775 88.089 155.675C88.4442 151.29 89.6087 147.009 91.5237 143.049C91.8029 142.407 90.9961 142.145 90.6345 142.695C88.3914 146.494 87.1548 150.803 87.0414 155.214C85.1129 154.354 83.139 153.6 81.1286 152.954C81.3843 148.832 83.3884 141.782 85.5156 139.545C97.867 141.39 110.01 144.433 121.771 148.63C122.277 148.811 122.571 147.921 122.127 147.651C120.388 146.788 118.572 146.089 116.703 145.563C116.207 137.879 116.657 130.162 118.043 122.587C118.059 122.528 118.064 122.466 118.057 122.405C118.05 122.344 118.03 122.284 118 122.231C117.97 122.177 117.93 122.13 117.881 122.092C117.833 122.053 117.778 122.025 117.718 122.008C117.659 121.992 117.597 121.987 117.536 121.994C117.475 122.001 117.415 122.021 117.362 122.051C117.308 122.081 117.261 122.121 117.223 122.17C117.184 122.218 117.156 122.273 117.139 122.333C115.565 126.185 115.355 140.555 115.731 145.24C112.461 144.163 86.653 137.338 84.8458 138.606C82.465 140.249 79.9238 148.3 80.0094 152.919C80.0094 153.914 80.6642 154.011 81.441 154.335C91.7601 158.652 111.535 169.265 124.378 169.628C124.575 171.457 124.763 175.6 124.935 176.95C125.019 177.605 125.968 177.386 125.937 176.736C125.847 174.596 125.99 171.666 125.765 169.626C143.664 169.037 139.174 122.001 134.804 113.972C131.731 108.33 119.595 102.371 119.302 102.095C119.009 101.819 115.536 98.8097 114.887 99.2763L114.886 99.241ZM78.0502 93.479C78.5028 92.7931 79.2786 93.479 78.8495 94.228C73.4182 102.747 55.5802 131.742 60.7333 141.911C61.6741 143.649 63.1021 145.074 64.8419 146.011C66.5817 146.948 68.5574 147.356 70.526 147.184C70.6725 147.178 70.8159 147.228 70.9265 147.324C71.0371 147.421 71.1065 147.556 71.1203 147.702C71.134 147.848 71.0911 147.993 71.0004 148.109C70.9097 148.224 70.7781 148.3 70.633 148.321C68.3539 148.69 66.0167 148.304 63.977 147.222C61.9373 146.141 60.3069 144.422 59.3338 142.329C54.0009 131.338 72.1395 102.464 78.0909 93.4779L78.0502 93.479ZM75.357 153.976C75.3486 153.866 75.3021 153.762 75.2256 153.683C75.1492 153.603 75.0474 153.553 74.9378 153.54C74.8283 153.528 74.7177 153.553 74.6251 153.613C74.5325 153.673 74.4637 153.764 74.4304 153.869C73.4813 157.079 73.858 167.672 74.9804 170.825C75.1762 171.36 76.0579 171.284 75.9894 170.682C75.3515 165.137 75.1401 159.552 75.357 153.976ZM95.58 165.275C95.7534 165.614 95.473 168.191 95.8582 172.665C95.9032 173.214 95.1092 173.245 94.9316 172.747C94.6459 171.754 94.051 166.278 94.7058 165.214C94.755 165.141 94.822 165.082 94.9004 165.043C94.9788 165.004 95.066 164.985 95.1537 164.989C95.2414 164.993 95.3266 165.019 95.4012 165.065C95.4758 165.111 95.5374 165.176 95.58 165.252V165.275ZM99.5123 109.042C99.6471 108.515 100.635 108.439 100.544 109.042C99.2105 118.759 98.5322 128.966 97.6441 137.878C97.5756 138.532 96.6115 138.36 96.6415 137.719C96.9057 132.612 98.224 114.127 99.5123 109.02V109.042ZM117.554 102.263C113.176 106.631 110.713 108.499 106.426 110.435C105.287 108.695 104.166 106.948 103.02 105.216C106.786 105.216 112.354 102.729 115.338 100.635L117.554 102.263Z" fill="#163055"/>
<path d="M100.853 79.8515C100.246 79.838 99.6453 79.7237 99.0757 79.5134C99.6407 78.3909 100.213 77.2535 100.778 76.1386C100.81 76.0418 100.809 75.937 100.775 75.8408C100.741 75.7446 100.676 75.6624 100.59 75.6072C100.505 75.5519 100.403 75.5268 100.301 75.5356C100.2 75.5444 100.104 75.5868 100.029 75.656C99.3657 76.94 98.7108 78.224 98.0324 79.4973C97.49 80.5299 100.352 80.8391 100.835 80.8541C100.959 80.8437 101.075 80.7875 101.161 80.6964C101.246 80.6053 101.294 80.4858 101.297 80.361C101.299 80.2362 101.255 80.115 101.173 80.0209C101.091 79.9267 100.977 79.8664 100.853 79.8515ZM99.3464 67.799C94.7208 68.869 96.2659 70.4205 97.0866 70.0963C97.8829 69.7673 98.7027 69.498 99.539 69.2906C100.533 69.0766 100.067 67.6257 99.3357 67.784L99.3464 67.799ZM102.36 70.5714C102.223 70.6642 102.121 70.7986 102.068 70.9545C102.014 71.1104 102.013 71.2794 102.064 71.4361C102.115 71.5928 102.215 71.7288 102.35 71.8237C102.485 71.9186 102.646 71.9672 102.811 71.9624C103.955 71.7078 105.132 71.6317 106.299 71.7366C107.166 71.8126 106.887 70.6441 106.299 70.5093C106.02 70.504 104.072 69.3516 102.36 70.5714ZM98.1106 73.3437C98.8531 74.7882 97.3049 76.5002 96.8833 75.4527C96.3707 74.1719 97.5756 72.3005 98.1106 73.3437ZM104.959 74.601C104.785 73.4786 103.008 74.601 103.675 76.5751C104.051 77.5991 105.28 76.4243 104.993 74.5935L104.959 74.601Z" fill="#163055"/>
<path d="M78.7971 151.046C77.5131 149.9 75.173 150.345 73.6889 151.367C73.2224 149.107 73.0715 141.309 75.5079 139.863C76.7138 139.114 78.2353 139.495 79.2743 139.367C79.8018 139.307 80.0886 138.456 79.4883 138.246C78.7398 137.993 77.9484 137.893 77.1605 137.951C76.3727 138.009 75.6045 138.224 74.9012 138.584C71.8046 140.317 71.5489 148.287 72.4402 151.593C72.459 151.835 72.5456 152.067 72.69 152.263C72.8344 152.459 73.0309 152.61 73.2571 152.699C73.4832 152.788 73.7299 152.812 73.9689 152.768C74.208 152.724 74.4298 152.613 74.6091 152.449C76.0707 151.463 77.1856 151.862 78.3755 151.862C78.7521 151.862 79.1245 151.35 78.7596 151.057L78.7971 151.046ZM82.9701 135.686C84.8126 137.392 83.3317 138.104 82.4051 137.064C80.5369 134.97 80.416 135.422 77.7346 136.598C77.3654 136.756 75.8514 136.04 78.7971 134.842C80.6653 134.081 81.3704 134.204 82.9701 135.686Z" fill="#163055"/>
<path d="M182.954 103.309C183.038 102.111 189.053 93.5165 190.33 93.4651C191.606 93.4137 198.462 101.57 198.178 102.594C198.051 103.062 194.909 103.409 191.519 103.574C191.733 108.094 192.935 124.275 192.717 126.986C192.619 128.131 183.722 126.76 166.246 127.129C166.382 130.361 166.864 137.487 166.774 139.935C166.784 140.036 166.774 140.138 166.744 140.235C166.714 140.333 166.665 140.423 166.599 140.5C166.534 140.578 166.453 140.641 166.362 140.687C166.272 140.733 166.173 140.76 166.071 140.767C165.97 140.773 165.868 140.759 165.772 140.726C165.677 140.692 165.588 140.64 165.513 140.571C165.438 140.503 165.378 140.42 165.335 140.327C165.293 140.235 165.27 140.135 165.267 140.034C164.453 134.429 163.158 81.1558 163.587 76.2445C158.887 76.0787 140.597 76.3654 138.228 75.687C137.249 75.4163 137.151 41.3219 137.219 37.5105C113.512 37.1414 89.8748 36.5914 65.9945 36.6438C66.048 39.3338 66.8505 60.0768 66.2085 61.3298C65.7934 62.1355 41.3492 61.2164 38.4495 61.2313C38.5287 69.3477 38.6089 77.4633 38.6903 85.5781C40.0385 85.4422 48.4273 84.9832 49.478 85.1715C50.227 85.3064 50.1703 86.5422 49.478 86.5871C45.8914 86.8439 42.2908 86.8589 38.7052 86.9937C38.6603 92.4176 38.6228 144.395 38.0504 144.997C37.4779 145.6 20.9657 145.05 11.2405 145.382C8.89897 147.451 6.39416 149.328 3.75048 150.994C3.17803 151.208 2.74895 138.796 3.00147 138.261C3.34815 137.405 9.61514 142.185 11.3935 143.979C15.9581 143.692 32.2071 143.414 36.7792 143.835C36.9676 116.287 37.2158 88.8448 36.9451 61.2816L19.243 61.6968C19.243 65.6055 19.0772 76.069 18.7529 77.6131C18.7255 77.7412 18.6532 77.8554 18.549 77.9349C18.4449 78.0145 18.3157 78.0542 18.1848 78.047C18.054 78.0398 17.93 77.9861 17.8352 77.8955C17.7404 77.805 17.6811 77.6835 17.668 77.5531C17.4722 75.8732 17.668 65.0031 17.668 61.7342C17.668 60.6642 18.203 60.2801 18.5571 60.2277C23.6717 59.8061 31.5887 59.7077 36.9376 59.6552C36.9376 57.0113 36.8927 54.2464 36.8841 51.2632C36.8841 50.3816 38.1948 50.5142 38.2259 51.3841C38.3329 54.7589 38.4067 57.2221 38.4741 59.6702C47.333 59.6053 56.1915 59.7658 65.0497 60.1517C64.9973 58.1102 64.4548 37.1392 64.5757 36.0468C64.6431 35.4593 64.9748 35.2261 65.6457 35.2186C89.0723 34.9168 113.856 35.2186 137.291 35.9676C137.259 33.5578 137.395 31.1488 137.697 28.7579C137.72 28.6093 137.797 28.4744 137.914 28.379C138.03 28.2836 138.177 28.2344 138.328 28.2409C138.478 28.2474 138.62 28.3091 138.728 28.4142C138.836 28.5192 138.901 28.6603 138.911 28.8103C139.048 31.2116 139.048 33.6187 138.911 36.02C147.076 36.2907 154.278 36.6224 163.769 37.0065C164.77 37.0515 164.884 38.619 163.876 38.573L138.808 37.5844C138.642 49.4186 138.68 63.6859 139.615 74.3923C141.61 74.249 163.071 74.1216 164.653 74.8674C165.33 75.1884 166.092 122.031 166.159 125.775C169.277 125.496 185.933 125.775 191.228 125.812L189.765 103.659C186.254 103.754 182.929 103.671 182.954 103.309Z" fill="#163055"/>
</svg>
