<svg xmlns="http://www.w3.org/2000/svg" viewBox="0 0 229.688 75.648">
  <defs>
    <style>
      .cls-1 {
        fill: #3c3c3b;
      }

      .cls-2 {
        fill: #fc0;
      }
    </style>
  </defs>
  <g id="LOGO" transform="translate(-686 -554.815)">
    <g id="Groupe_1" data-name="Groupe 1" transform="translate(686 583.179)">
      <path id="Tracé_1" data-name="Tracé 1" class="cls-1" d="M18.506,86.385a11.681,11.681,0,0,0-6.118-1.565A12.677,12.677,0,0,0,6,86.438a11.525,11.525,0,0,0-4.425,4.527A13.416,13.416,0,0,0,0,97.465a12.678,12.678,0,0,0,1.676,6.5,11.821,11.821,0,0,0,4.664,4.5,13.968,13.968,0,0,0,11.079.842,12.723,12.723,0,0,0,3.848-1.991,2.35,2.35,0,0,0,1.011-1.929,2.825,2.825,0,0,0-2.864-2.682,3.016,3.016,0,0,0-1.9.634,7.267,7.267,0,0,1-2.062,1.029,7.6,7.6,0,0,1-2.421.426,7.6,7.6,0,0,1-5-1.649A6.522,6.522,0,0,1,5.8,99.761H21.086A2.738,2.738,0,0,0,23.059,99a2.6,2.6,0,0,0,.807-1.929,14.145,14.145,0,0,0-1.37-6.322A10.448,10.448,0,0,0,18.506,86.385Zm-.364,8.357H5.861a6.493,6.493,0,0,1,1.977-3.135,6.607,6.607,0,0,1,4.544-1.5A5.486,5.486,0,0,1,16.4,91.581,6.382,6.382,0,0,1,18.142,94.742Z" transform="translate(0 -75.58)"/>
      <path id="Tracé_2" data-name="Tracé 2" class="cls-1" d="M75.209,86.483h0A12.552,12.552,0,0,0,68.82,84.82,12.765,12.765,0,0,0,62.4,86.483a12.085,12.085,0,0,0-4.567,4.558,12.786,12.786,0,0,0-1.649,6.424,13.522,13.522,0,0,0,1.53,6.406,11.618,11.618,0,0,0,4.238,4.549,11.57,11.57,0,0,0,13.5-1.068,2.853,2.853,0,0,0,.838,1.742,2.908,2.908,0,0,0,2.137.851,2.939,2.939,0,0,0,2.137-.851,2.892,2.892,0,0,0,.86-2.128V97.473a12.643,12.643,0,0,0-1.676-6.429A12.336,12.336,0,0,0,75.209,86.483ZM68.82,90.273a6.531,6.531,0,0,1,5.888,3.489,7.717,7.717,0,0,1,.887,3.7,7.563,7.563,0,0,1-.887,3.675,6.607,6.607,0,0,1-2.43,2.545h0a6.933,6.933,0,0,1-6.925,0,6.754,6.754,0,0,1-2.452-2.554A7.471,7.471,0,0,1,62,97.46a7.61,7.61,0,0,1,.9-3.7,6.59,6.59,0,0,1,5.919-3.489Z" transform="translate(-31.272 -75.58)"/>
      <path id="Tracé_3" data-name="Tracé 3" class="cls-1" d="M137.4,97.368c-1.419-1.21-3.706-2.115-6.983-2.775a20.285,20.285,0,0,1-3.33-.913,2.992,2.992,0,0,1-1.286-.8,1.506,1.506,0,0,1-.266-.94c0-.328.093-.749.829-1.135a6.222,6.222,0,0,1,2.86-.568,8.332,8.332,0,0,1,2.656.364,5.745,5.745,0,0,1,1.991,1.219,3.738,3.738,0,0,0,2.558,1.015,2.837,2.837,0,0,0,1.676-.492l.04-.031a2.478,2.478,0,0,0,1.024-1.946,2.95,2.95,0,0,0-.74-1.875,9.387,9.387,0,0,0-3.817-2.709,14.031,14.031,0,0,0-5.3-.953,13.414,13.414,0,0,0-4.562.771,8.388,8.388,0,0,0-3.6,2.407,6.06,6.06,0,0,0-1.441,4.061c0,3.862,2.993,6.393,8.889,7.524a12.58,12.58,0,0,1,4.207,1.348,1.725,1.725,0,0,1,.962,1.516,1.621,1.621,0,0,1-.958,1.476,6.681,6.681,0,0,1-3.378.7,8.387,8.387,0,0,1-3.17-.6,5.9,5.9,0,0,1-2.177-1.379,2.932,2.932,0,0,0-4.185-.244,2.789,2.789,0,0,0-1.184,2.31,2.6,2.6,0,0,0,.8,1.893,11.4,11.4,0,0,0,4.336,2.532,17.425,17.425,0,0,0,5.755.94,13.206,13.206,0,0,0,5.32-.984,7.965,7.965,0,0,0,3.5-2.8,7.072,7.072,0,0,0,1.21-4.008A6.18,6.18,0,0,0,137.4,97.368Z" transform="translate(-66.085 -75.586)"/>
      <path id="Tracé_4" data-name="Tracé 4" class="cls-1" d="M176.753,85.21a2.956,2.956,0,0,0-2.124.82,2.876,2.876,0,0,0-.869,2.159v18.945a2.884,2.884,0,0,0,.86,2.128,2.988,2.988,0,0,0,5.134-2.133V88.189a2.924,2.924,0,0,0-.838-2.15A2.98,2.98,0,0,0,176.753,85.21Z" transform="translate(-96.722 -75.798)"/>
      <path id="Tracé_5" data-name="Tracé 5" class="cls-1" d="M175.94,63.98A3.656,3.656,0,0,0,172.3,67.6a3.486,3.486,0,0,0,1.077,2.554,3.64,3.64,0,0,0,6.2-2.554,3.486,3.486,0,0,0-1.077-2.554A3.527,3.527,0,0,0,175.94,63.98Z" transform="translate(-95.91 -63.98)"/>
      <path id="Tracé_6" data-name="Tracé 6" class="cls-1" d="M223.722,85.918h0a2.572,2.572,0,0,0-1.933-.718c-1.015,0-2.363.439-3,2.518L214.93,99.7l-3.17-12.3a3.159,3.159,0,0,0-1.006-1.561,2.837,2.837,0,0,0-1.871-.634,2.888,2.888,0,0,0-1.911.634,3.149,3.149,0,0,0-1.006,1.561l-3.627,12.183-3.831-11.869a4.133,4.133,0,0,0-1.113-1.84,2.784,2.784,0,0,0-1.884-.669,2.372,2.372,0,0,0-2.611,2.6,4.9,4.9,0,0,0,.213,1.45l6.349,18.918a2.869,2.869,0,0,0,1.091,1.392,2.947,2.947,0,0,0,1.729.55,2.979,2.979,0,0,0,1.729-.55,2.869,2.869,0,0,0,1.091-1.392l3.636-12.711,3.44,12.658a2.6,2.6,0,0,0,1.064,1.441,3.013,3.013,0,0,0,1.773.55,2.983,2.983,0,0,0,2.784-1.96l6.331-18.869a4.246,4.246,0,0,0,.27-1.53A2.575,2.575,0,0,0,223.722,85.918Z" transform="translate(-107.377 -75.792)"/>
      <path id="Tracé_7" data-name="Tracé 7" class="cls-1" d="M282.889,86.483h0A12.552,12.552,0,0,0,276.5,84.82a12.765,12.765,0,0,0-6.424,1.663,12.086,12.086,0,0,0-4.567,4.558,12.787,12.787,0,0,0-1.649,6.424,13.521,13.521,0,0,0,1.53,6.406,11.618,11.618,0,0,0,4.238,4.549,11.57,11.57,0,0,0,13.5-1.068,2.853,2.853,0,0,0,.838,1.742,2.907,2.907,0,0,0,2.137.851,2.939,2.939,0,0,0,2.137-.851,2.892,2.892,0,0,0,.86-2.128V97.473a12.643,12.643,0,0,0-1.676-6.429A12.271,12.271,0,0,0,282.889,86.483ZM276.5,90.273a6.531,6.531,0,0,1,5.888,3.489,7.717,7.717,0,0,1,.887,3.7,7.562,7.562,0,0,1-.887,3.675,6.607,6.607,0,0,1-2.43,2.545h0a6.933,6.933,0,0,1-6.925,0,6.753,6.753,0,0,1-2.452-2.554,7.47,7.47,0,0,1-.9-3.671,7.61,7.61,0,0,1,.9-3.7,6.59,6.59,0,0,1,5.919-3.489Z" transform="translate(-146.876 -75.58)"/>
      <path id="Tracé_8" data-name="Tracé 8" class="cls-1" d="M347.772,88.5a2.167,2.167,0,0,0,.084-.678,2.724,2.724,0,0,0-1.716-2.421h0a8.36,8.36,0,0,0-3.937-.776,10.536,10.536,0,0,0-4.363.922,10.27,10.27,0,0,0-2.141,1.295,2.63,2.63,0,0,0-2.842-1.964,2.946,2.946,0,0,0-2.159.789,2.912,2.912,0,0,0-.8,2.15v19.029a2.881,2.881,0,0,0,.807,2.181,2.989,2.989,0,0,0,2.146.758,2.931,2.931,0,0,0,2.19-.8,2.961,2.961,0,0,0,.763-2.141V94.419a3.677,3.677,0,0,1,1.561-3.139,7.387,7.387,0,0,1,4.487-1.246,16.228,16.228,0,0,1,2.625.284,4.087,4.087,0,0,0,.8.1A2.438,2.438,0,0,0,347.772,88.5Z" transform="translate(-183.637 -75.475)"/>
      <path id="Tracé_9" data-name="Tracé 9" class="cls-1" d="M391.443,99.006a2.6,2.6,0,0,0,.807-1.929,14.145,14.145,0,0,0-1.37-6.322,10.414,10.414,0,0,0-3.995-4.38,11.682,11.682,0,0,0-6.118-1.565,12.677,12.677,0,0,0-6.384,1.618,11.525,11.525,0,0,0-4.425,4.527,13.392,13.392,0,0,0-1.578,6.5,12.678,12.678,0,0,0,1.676,6.5,11.822,11.822,0,0,0,4.664,4.5,13.968,13.968,0,0,0,11.079.842,12.723,12.723,0,0,0,3.848-1.991,2.35,2.35,0,0,0,1.011-1.929,2.824,2.824,0,0,0-2.864-2.682,3.016,3.016,0,0,0-1.9.634,7.267,7.267,0,0,1-2.062,1.029,7.944,7.944,0,0,1-7.417-1.224,6.522,6.522,0,0,1-2.23-3.374h15.283A2.72,2.72,0,0,0,391.443,99.006Zm-17.2-4.27a6.493,6.493,0,0,1,1.977-3.135,6.607,6.607,0,0,1,4.544-1.5,5.486,5.486,0,0,1,4.021,1.476,6.38,6.38,0,0,1,1.733,3.161Z" transform="translate(-205.056 -75.575)"/>
    </g>
    <g id="Groupe_2" data-name="Groupe 2" transform="translate(686.027 622.376)">
      <path id="Tracé_10" data-name="Tracé 10" class="cls-2" d="M1.213,160.008a2.365,2.365,0,0,1-1.1-1.153.5.5,0,0,1-.049-.2.362.362,0,0,1,.111-.266.577.577,0,0,1,.3-.155.471.471,0,0,1,.1-.009.561.561,0,0,1,.306.093.563.563,0,0,1,.217.257,1.467,1.467,0,0,0,.718.661,2.55,2.55,0,0,0,1.179.27,2.276,2.276,0,0,0,1.281-.346,1.074,1.074,0,0,0,.523-.944,1.269,1.269,0,0,0-.443-.975,2.314,2.314,0,0,0-1.352-.5,3.5,3.5,0,0,1-1.969-.727A1.9,1.9,0,0,1,.317,154.5a1.748,1.748,0,0,1,.368-1.108,2.281,2.281,0,0,1,1.011-.709,3.969,3.969,0,0,1,1.436-.244,2.837,2.837,0,0,1,1.463.35,3.028,3.028,0,0,1,1.011,1,.69.69,0,0,1,.12.359.417.417,0,0,1-.2.359.463.463,0,0,1-.262.071.578.578,0,0,1-.284-.075.53.53,0,0,1-.2-.2,1.914,1.914,0,0,0-.683-.687,2.059,2.059,0,0,0-1.033-.235,2.308,2.308,0,0,0-1.241.3.947.947,0,0,0-.474.856,1.079,1.079,0,0,0,.426.869,2.915,2.915,0,0,0,1.512.461,3.174,3.174,0,0,1,1.875.727,2.055,2.055,0,0,1,.665,1.6,1.993,1.993,0,0,1-.395,1.237,2.352,2.352,0,0,1-1.042.771,3.831,3.831,0,0,1-1.4.257A3.679,3.679,0,0,1,1.213,160.008Z" transform="translate(-0.06 -152.418)"/>
      <path id="Tracé_11" data-name="Tracé 11" class="cls-2" d="M17.324,159.915a3.6,3.6,0,0,1-1.419-1.428,4.521,4.521,0,0,1,0-4.154,3.591,3.591,0,0,1,1.419-1.423,4.486,4.486,0,0,1,4.154,0,3.66,3.66,0,0,1,1.423,1.423,4.486,4.486,0,0,1,0,4.154,3.631,3.631,0,0,1-1.419,1.428,4.5,4.5,0,0,1-4.159,0Zm3.627-.838a2.853,2.853,0,0,0,1.068-1.108,3.178,3.178,0,0,0,.381-1.561,3.227,3.227,0,0,0-.381-1.561,2.85,2.85,0,0,0-1.064-1.1,3.2,3.2,0,0,0-3.095,0,2.85,2.85,0,0,0-1.064,1.1,3.178,3.178,0,0,0-.381,1.561,3.214,3.214,0,0,0,.381,1.561,2.883,2.883,0,0,0,1.068,1.108,3.122,3.122,0,0,0,3.086,0Z" transform="translate(-8.599 -152.396)"/>
      <path id="Tracé_12" data-name="Tracé 12" class="cls-2" d="M36.866,160.3a.512.512,0,0,1-.146-.372v-6.779a.505.505,0,0,1,.151-.372.492.492,0,0,1,.364-.151.5.5,0,0,1,.372.151.5.5,0,0,1,.151.372v6.26h3.649a.5.5,0,0,1,.372.151.535.535,0,0,1,0,.745.5.5,0,0,1-.372.151H37.23A.516.516,0,0,1,36.866,160.3Z" transform="translate(-20.467 -152.524)"/>
      <path id="Tracé_13" data-name="Tracé 13" class="cls-2" d="M52.457,160.25a2.794,2.794,0,0,1-1.17-.989,2.543,2.543,0,0,1-.417-1.441v-4.677a.494.494,0,0,1,.151-.377.519.519,0,0,1,.372-.146.5.5,0,0,1,.523.523v4.677a1.666,1.666,0,0,0,.288.953,1.891,1.891,0,0,0,.8.656,2.779,2.779,0,0,0,1.166.235,2.617,2.617,0,0,0,1.122-.235,1.868,1.868,0,0,0,.771-.656,1.682,1.682,0,0,0,.279-.953v-4.677a.494.494,0,0,1,.151-.377.519.519,0,0,1,.372-.146.5.5,0,0,1,.368.146.508.508,0,0,1,.146.377v4.677a2.6,2.6,0,0,1-.408,1.436,2.773,2.773,0,0,1-1.139.993,3.778,3.778,0,0,1-1.658.355A3.857,3.857,0,0,1,52.457,160.25Z" transform="translate(-28.343 -152.518)"/>
      <path id="Tracé_14" data-name="Tracé 14" class="cls-2" d="M73.935,152.773a.471.471,0,0,1,.137.346.454.454,0,0,1-.137.346.485.485,0,0,1-.35.133H71.416v6.34a.527.527,0,0,1-.9.372.5.5,0,0,1-.151-.372V153.6H68.193a.468.468,0,0,1-.346-.133.5.5,0,0,1,0-.692.475.475,0,0,1,.346-.133h5.4A.448.448,0,0,1,73.935,152.773Z" transform="translate(-37.717 -152.529)"/>
      <path id="Tracé_15" data-name="Tracé 15" class="cls-2" d="M84.361,160.3a.5.5,0,0,1-.151-.372v-6.779a.494.494,0,0,1,.151-.377.519.519,0,0,1,.372-.146.5.5,0,0,1,.523.523v6.779a.519.519,0,0,1-.146.372.494.494,0,0,1-.377.151A.523.523,0,0,1,84.361,160.3Z" transform="translate(-46.902 -152.524)"/>
      <path id="Tracé_16" data-name="Tracé 16" class="cls-2" d="M91.774,159.915a3.6,3.6,0,0,1-1.419-1.428,4.521,4.521,0,0,1,0-4.154,3.591,3.591,0,0,1,1.419-1.423,4.486,4.486,0,0,1,4.154,0,3.66,3.66,0,0,1,1.423,1.423,4.486,4.486,0,0,1,0,4.154,3.631,3.631,0,0,1-1.419,1.428,4.5,4.5,0,0,1-4.159,0Zm3.622-.838a2.853,2.853,0,0,0,1.068-1.108,3.178,3.178,0,0,0,.381-1.561,3.227,3.227,0,0,0-.381-1.561,2.85,2.85,0,0,0-1.064-1.1,3.2,3.2,0,0,0-3.095,0,2.85,2.85,0,0,0-1.064,1.1,3.178,3.178,0,0,0-.381,1.561,3.215,3.215,0,0,0,.381,1.561,2.883,2.883,0,0,0,1.068,1.108,3.122,3.122,0,0,0,3.086,0Z" transform="translate(-50.041 -152.396)"/>
      <path id="Tracé_17" data-name="Tracé 17" class="cls-2" d="M111.316,160.3a.508.508,0,0,1-.146-.377v-6.779a.508.508,0,0,1,.146-.377.5.5,0,0,1,.368-.146.508.508,0,0,1,.222.053.519.519,0,0,1,.182.137l4.4,5.808v-5.48a.494.494,0,0,1,.151-.377.519.519,0,0,1,.372-.146.5.5,0,0,1,.368.146.508.508,0,0,1,.146.377v6.779a.508.508,0,0,1-.146.377.5.5,0,0,1-.368.146.586.586,0,0,1-.226-.044.392.392,0,0,1-.177-.133l-4.4-5.808v5.467a.519.519,0,0,1-.146.372.541.541,0,0,1-.745,0Z" transform="translate(-61.909 -152.518)"/>
      <path id="Tracé_18" data-name="Tracé 18" class="cls-2" d="M129.773,160.008a2.365,2.365,0,0,1-1.1-1.153.5.5,0,0,1-.049-.2.362.362,0,0,1,.111-.266.577.577,0,0,1,.3-.155.471.471,0,0,1,.1-.009.58.58,0,0,1,.523.35,1.467,1.467,0,0,0,.718.661,2.55,2.55,0,0,0,1.179.27,2.276,2.276,0,0,0,1.281-.346,1.074,1.074,0,0,0,.523-.944,1.269,1.269,0,0,0-.443-.975,2.314,2.314,0,0,0-1.352-.5,3.5,3.5,0,0,1-1.969-.727,1.9,1.9,0,0,1-.718-1.516,1.748,1.748,0,0,1,.368-1.108,2.281,2.281,0,0,1,1.011-.709,3.968,3.968,0,0,1,1.436-.244,2.837,2.837,0,0,1,1.463.35,3.028,3.028,0,0,1,1.011,1,.69.69,0,0,1,.12.359.417.417,0,0,1-.2.359.463.463,0,0,1-.262.071.578.578,0,0,1-.284-.075.53.53,0,0,1-.2-.2,1.914,1.914,0,0,0-.683-.687,2.059,2.059,0,0,0-1.033-.235,2.308,2.308,0,0,0-1.241.3.947.947,0,0,0-.474.856,1.078,1.078,0,0,0,.426.869,2.915,2.915,0,0,0,1.512.461,3.174,3.174,0,0,1,1.875.727,2.055,2.055,0,0,1,.665,1.6,1.993,1.993,0,0,1-.395,1.237,2.352,2.352,0,0,1-1.042.771,3.831,3.831,0,0,1-1.4.257A3.679,3.679,0,0,1,129.773,160.008Z" transform="translate(-71.622 -152.418)"/>
      <path id="Tracé_19" data-name="Tracé 19" class="cls-2" d="M155.295,152.773a.471.471,0,0,1,.137.346.454.454,0,0,1-.137.346.485.485,0,0,1-.35.133h-2.168v6.34a.527.527,0,0,1-.9.372.5.5,0,0,1-.151-.372V153.6h-2.177a.468.468,0,0,1-.346-.133.5.5,0,0,1,0-.692.475.475,0,0,1,.346-.133h5.4A.448.448,0,0,1,155.295,152.773Z" transform="translate(-83.005 -152.529)"/>
      <path id="Tracé_20" data-name="Tracé 20" class="cls-2" d="M165.534,159.915a3.6,3.6,0,0,1-1.419-1.428,4.521,4.521,0,0,1,0-4.154,3.591,3.591,0,0,1,1.419-1.423,4.486,4.486,0,0,1,4.154,0,3.66,3.66,0,0,1,1.423,1.423,4.486,4.486,0,0,1,0,4.154,3.63,3.63,0,0,1-1.419,1.428,4.5,4.5,0,0,1-4.159,0Zm3.627-.838a2.854,2.854,0,0,0,1.069-1.108,3.178,3.178,0,0,0,.381-1.561,3.227,3.227,0,0,0-.381-1.561,2.85,2.85,0,0,0-1.064-1.1,3.2,3.2,0,0,0-3.095,0,2.85,2.85,0,0,0-1.064,1.1,3.178,3.178,0,0,0-.381,1.561,3.214,3.214,0,0,0,.381,1.561,2.883,2.883,0,0,0,1.068,1.108,3.122,3.122,0,0,0,3.086,0Z" transform="translate(-91.099 -152.396)"/>
      <path id="Tracé_21" data-name="Tracé 21" class="cls-2" d="M196.705,156.407a.508.508,0,0,1,.146.377v2.394a.458.458,0,0,1-.16.372,3.935,3.935,0,0,1-4.442.337,3.818,3.818,0,0,1-1.405-1.454,4.118,4.118,0,0,1-.514-2.035,4.064,4.064,0,0,1,.514-2.017,3.882,3.882,0,0,1,1.405-1.454,3.776,3.776,0,0,1,1.973-.536,3.953,3.953,0,0,1,1.326.2,4.042,4.042,0,0,1,1.135.661.5.5,0,0,1,.16.186.573.573,0,0,1,.04.226.431.431,0,0,1-.146.333.493.493,0,0,1-.346.129.546.546,0,0,1-.341-.129,2.444,2.444,0,0,0-1.827-.661,2.673,2.673,0,0,0-1.445.412,3.032,3.032,0,0,0-1.051,1.117,3.161,3.161,0,0,0-.39,1.538,3.117,3.117,0,0,0,.39,1.543,2.981,2.981,0,0,0,1.051,1.113,2.674,2.674,0,0,0,1.445.412,2.966,2.966,0,0,0,1.623-.5v-1.782h-1.392a.554.554,0,0,1-.377-.129.424.424,0,0,1-.146-.333.431.431,0,0,1,.146-.333.533.533,0,0,1,.377-.129h1.884A.509.509,0,0,1,196.705,156.407Z" transform="translate(-105.973 -152.39)"/>
      <path id="Tracé_22" data-name="Tracé 22" class="cls-2" d="M213.579,159.975a.455.455,0,0,1-.137.337.5.5,0,0,1-.368.133.511.511,0,0,1-.452-.248l-1.734-2.767h-1.472v2.492a.519.519,0,0,1-.146.372.5.5,0,0,1-.377.151.5.5,0,0,1-.372-.151.5.5,0,0,1-.151-.372v-6.779a.494.494,0,0,1,.151-.377.519.519,0,0,1,.372-.146h1.813a2.8,2.8,0,0,1,1.335.31,2.236,2.236,0,0,1,.918.873,2.517,2.517,0,0,1,.328,1.281,2.233,2.233,0,0,1-.364,1.264,2.3,2.3,0,0,1-.989.833l1.543,2.465A.582.582,0,0,1,213.579,159.975Zm-2.873-3.5a1.665,1.665,0,0,0,1.131-.386,1.256,1.256,0,0,0,.443-1,1.421,1.421,0,0,0-.443-1.082,1.586,1.586,0,0,0-1.131-.421h-1.29v2.886Z" transform="translate(-116.014 -152.518)"/>
      <path id="Tracé_23" data-name="Tracé 23" class="cls-2" d="M223.384,159.915a3.6,3.6,0,0,1-1.419-1.428,4.521,4.521,0,0,1,0-4.154,3.591,3.591,0,0,1,1.419-1.423,4.486,4.486,0,0,1,4.154,0,3.66,3.66,0,0,1,1.423,1.423,4.486,4.486,0,0,1,0,4.154,3.631,3.631,0,0,1-1.419,1.428,4.5,4.5,0,0,1-4.159,0Zm3.627-.838a2.853,2.853,0,0,0,1.068-1.108,3.178,3.178,0,0,0,.381-1.561,3.227,3.227,0,0,0-.381-1.561,2.85,2.85,0,0,0-1.064-1.1,3.2,3.2,0,0,0-3.095,0,2.85,2.85,0,0,0-1.064,1.1,3.178,3.178,0,0,0-.381,1.561,3.214,3.214,0,0,0,.381,1.561,2.883,2.883,0,0,0,1.068,1.108,3.122,3.122,0,0,0,3.086,0Z" transform="translate(-123.301 -152.396)"/>
      <path id="Tracé_24" data-name="Tracé 24" class="cls-2" d="M249.624,152.739a.484.484,0,0,1,.1.319.924.924,0,0,1-.04.279l-2.026,6.681a.7.7,0,0,1-.208.306.487.487,0,0,1-.319.115.507.507,0,0,1-.324-.115.675.675,0,0,1-.2-.3l-1.5-5.768-1.521,5.759a.7.7,0,0,1-.208.306.487.487,0,0,1-.319.115.5.5,0,0,1-.324-.111.641.641,0,0,1-.2-.3l-2.026-6.69a.93.93,0,0,1-.04-.27.473.473,0,0,1,.115-.333.418.418,0,0,1,.319-.12.522.522,0,0,1,.514.39l1.654,5.71,1.521-5.648a.437.437,0,0,1,.182-.248.541.541,0,0,1,.324-.1.6.6,0,0,1,.315.089.41.41,0,0,1,.182.248l1.543,5.7,1.676-5.8a.441.441,0,0,1,.177-.262.622.622,0,0,1,.337-.08A.4.4,0,0,1,249.624,152.739Z" transform="translate(-133.877 -152.512)"/>
      <path id="Tracé_25" data-name="Tracé 25" class="cls-2" d="M269.791,160.3a.5.5,0,0,1-.151-.372v-6.779a.494.494,0,0,1,.151-.377.519.519,0,0,1,.372-.146h2.412a2.62,2.62,0,0,1,1.2.266,2.013,2.013,0,0,1,.82.74,1.989,1.989,0,0,1,.3,1.077,1.533,1.533,0,0,1-.266.882,1.923,1.923,0,0,1-.732.63,1.8,1.8,0,0,1,1.472,1.867,2.341,2.341,0,0,1-.328,1.224,2.222,2.222,0,0,1-.918.842,2.912,2.912,0,0,1-1.335.3h-2.625A.545.545,0,0,1,269.791,160.3Zm2.784-4.46a1.457,1.457,0,0,0,.953-.293,1.022,1.022,0,0,0,.359-.842,1.007,1.007,0,0,0-.359-.838,1.48,1.48,0,0,0-.953-.284h-1.884v2.252h1.884Zm.213,3.649a1.706,1.706,0,0,0,1.139-.364,1.285,1.285,0,0,0,.435-1.037,1.131,1.131,0,0,0-.43-.953,1.818,1.818,0,0,0-1.144-.333h-2.1v2.682h2.1Z" transform="translate(-150.12 -152.524)"/>
      <path id="Tracé_26" data-name="Tracé 26" class="cls-2" d="M290.849,159.975a.455.455,0,0,1-.137.337.5.5,0,0,1-.368.133.511.511,0,0,1-.452-.248l-1.734-2.767h-1.472v2.492a.519.519,0,0,1-.146.372.494.494,0,0,1-.377.151.5.5,0,0,1-.372-.151.5.5,0,0,1-.151-.372v-6.779a.494.494,0,0,1,.151-.377.519.519,0,0,1,.372-.146h1.813a2.8,2.8,0,0,1,1.335.31,2.236,2.236,0,0,1,.918.873,2.516,2.516,0,0,1,.328,1.281,2.233,2.233,0,0,1-.364,1.264,2.3,2.3,0,0,1-.989.833l1.543,2.465A.582.582,0,0,1,290.849,159.975Zm-2.873-3.5a1.665,1.665,0,0,0,1.131-.386,1.256,1.256,0,0,0,.443-1,1.421,1.421,0,0,0-.443-1.082,1.587,1.587,0,0,0-1.131-.421h-1.29v2.886Z" transform="translate(-159.026 -152.518)"/>
      <path id="Tracé_27" data-name="Tracé 27" class="cls-2" d="M304.45,159.941a.476.476,0,0,1-.151.359.522.522,0,0,1-.372.151.531.531,0,0,1-.288-.084.462.462,0,0,1-.2-.235l-.563-1.4h-3.622l-.576,1.4a.556.556,0,0,1-.2.235.505.505,0,0,1-.284.084.492.492,0,0,1-.368-.155.513.513,0,0,1-.146-.364.718.718,0,0,1,.049-.231l2.833-6.721a.51.51,0,0,1,.492-.35.49.49,0,0,1,.5.35l2.842,6.739A.564.564,0,0,1,304.45,159.941Zm-4.841-2.07h2.913l-1.441-3.565Z" transform="translate(-165.728 -152.524)"/>
      <path id="Tracé_28" data-name="Tracé 28" class="cls-2" d="M315.236,160.3a.508.508,0,0,1-.146-.377v-6.779a.508.508,0,0,1,.146-.377.5.5,0,0,1,.368-.146.508.508,0,0,1,.222.053.518.518,0,0,1,.182.137l4.4,5.808v-5.48a.494.494,0,0,1,.151-.377.519.519,0,0,1,.372-.146.5.5,0,0,1,.368.146.508.508,0,0,1,.146.377v6.779a.508.508,0,0,1-.146.377.5.5,0,0,1-.368.146.587.587,0,0,1-.226-.044.392.392,0,0,1-.177-.133l-4.4-5.808v5.467a.519.519,0,0,1-.146.372.494.494,0,0,1-.377.151A.5.5,0,0,1,315.236,160.3Z" transform="translate(-175.419 -152.518)"/>
      <path id="Tracé_29" data-name="Tracé 29" class="cls-2" d="M333.671,160.3a.5.5,0,0,1-.151-.372v-6.779a.494.494,0,0,1,.151-.377.519.519,0,0,1,.372-.146h1.827a4.063,4.063,0,0,1,2.026.5,3.587,3.587,0,0,1,1.383,1.388,4.355,4.355,0,0,1,0,4.039,3.54,3.54,0,0,1-1.383,1.392,4.062,4.062,0,0,1-2.026.5h-1.827A.488.488,0,0,1,333.671,160.3Zm2.195-.771a2.965,2.965,0,0,0,1.5-.381,2.6,2.6,0,0,0,1.029-1.068,3.428,3.428,0,0,0,0-3.09,2.7,2.7,0,0,0-1.029-1.064,2.953,2.953,0,0,0-1.5-.381h-1.3v5.981h1.3Z" transform="translate(-185.678 -152.524)"/>
      <path id="Tracé_30" data-name="Tracé 30" class="cls-2" d="M357.226,160.3a.512.512,0,0,1-.146-.372v-6.779a.505.505,0,0,1,.151-.372.492.492,0,0,1,.364-.151.5.5,0,0,1,.372.151.5.5,0,0,1,.151.372v6.26h3.649a.5.5,0,0,1,.372.151.535.535,0,0,1,0,.745.5.5,0,0,1-.372.151H357.59A.525.525,0,0,1,357.226,160.3Z" transform="translate(-198.793 -152.524)"/>
      <path id="Tracé_31" data-name="Tracé 31" class="cls-2" d="M370.734,159.915a3.6,3.6,0,0,1-1.419-1.428,4.521,4.521,0,0,1,0-4.154,3.592,3.592,0,0,1,1.419-1.423,4.486,4.486,0,0,1,4.154,0,3.661,3.661,0,0,1,1.423,1.423,4.486,4.486,0,0,1,0,4.154,3.631,3.631,0,0,1-1.419,1.428,4.5,4.5,0,0,1-4.159,0Zm3.627-.838a2.854,2.854,0,0,0,1.069-1.108,3.179,3.179,0,0,0,.381-1.561,3.227,3.227,0,0,0-.381-1.561,2.85,2.85,0,0,0-1.064-1.1,3.2,3.2,0,0,0-3.095,0,2.849,2.849,0,0,0-1.064,1.1,3.178,3.178,0,0,0-.381,1.561,3.214,3.214,0,0,0,.381,1.561,2.883,2.883,0,0,0,1.068,1.108,3.122,3.122,0,0,0,3.086,0Z" transform="translate(-205.322 -152.396)"/>
      <path id="Tracé_32" data-name="Tracé 32" class="cls-2" d="M394.977,152.75a.4.4,0,0,1,.124.31.676.676,0,0,1-.062.262l-2.984,6.8a.475.475,0,0,1-.474.333.5.5,0,0,1-.474-.333l-2.957-6.712a1.04,1.04,0,0,1-.08-.35.4.4,0,0,1,.124-.315.5.5,0,0,1,.35-.115.48.48,0,0,1,.483.31l2.54,6.052,2.58-6.052a.454.454,0,0,1,.182-.244.572.572,0,0,1,.293-.067A.491.491,0,0,1,394.977,152.75Z" transform="translate(-216.043 -152.524)"/>
      <path id="Tracé_33" data-name="Tracé 33" class="cls-2" d="M406.361,160.3a.5.5,0,0,1-.151-.372v-6.779a.494.494,0,0,1,.151-.377.519.519,0,0,1,.372-.146h4.558a.517.517,0,0,1,.372.133.471.471,0,0,1,.142.355.448.448,0,0,1-.142.341.515.515,0,0,1-.372.129h-4.034v2.434h2.9a.512.512,0,0,1,.368.137.482.482,0,0,1,0,.692.529.529,0,0,1-.368.133h-2.9v2.5h4.034a.535.535,0,0,1,.372.129.448.448,0,0,1,.142.341.471.471,0,0,1-.142.355.517.517,0,0,1-.372.133h-4.553A.484.484,0,0,1,406.361,160.3Z" transform="translate(-226.141 -152.524)"/>
    </g>
    <path id="Tracé_34" data-name="Tracé 34" class="cls-2" d="M431.889,3.128l8.934,5.994a.328.328,0,0,0,.434-.067.971.971,0,0,0,.071-.825c-.3-1.326-2.013-4.176-6.562-6.433a.324.324,0,0,0-.288.581c4.416,2.195,5.936,4.85,6.225,5.888L429.109.481a.315.315,0,0,0-.435.071c-.222.284-.222.284,2.576,2.864C434.629,6.538,443.6,14.828,443.4,16.234c-.022.133-.058.2-.084.208-.763.257-4.19-3.56-6.934-6.6C432.554,5.6,428.635,1.279,426.329.65a.336.336,0,0,0-.071-.027,1.279,1.279,0,0,0-.129-.018,2.255,2.255,0,0,0-.346-.08h-.044a1.239,1.239,0,0,0-.958.474c-.727.918,1.556,3.174,7.785,8.92.146.133.3.275.452.417,1.073.993,2.146,1.986,3.206,3l.306.293c.621.594,1.232,1.188,1.84,1.8.04.04.08.075.115.115.674.678,1.335,1.366,1.964,2.075a14.016,14.016,0,0,1,1.707,2.252,2.664,2.664,0,0,1,.248.59.907.907,0,0,1,.031.253.255.255,0,0,1-.044.142.629.629,0,0,1-.39.244,1.281,1.281,0,0,1-.55-.053,4.6,4.6,0,0,1-1.179-.625,12.19,12.19,0,0,1-1.1-.882c-.714-.63-1.388-1.317-2.048-2.017-2.625-2.824-5.019-5.879-7.479-8.88-1.232-1.5-2.461-3.006-3.786-4.451A17.969,17.969,0,0,0,423.7,2.122a4.166,4.166,0,0,0-.683-.43,1.884,1.884,0,0,0-.439-.155,1.049,1.049,0,0,0-.607.044.809.809,0,0,0-.284.2,1.657,1.657,0,0,0-.368.638,2.276,2.276,0,0,0-.08.887,4.793,4.793,0,0,0,.47,1.525c.009.018.018.031.027.049-.08-.1-.16-.191-.239-.288-.315-.377-.621-.745-.962-1.126l-.146-.151a.708.708,0,0,0-.124-.106c-.075-.177-1.268.257-.785.137a2.114,2.114,0,0,0-.244.426,2.217,2.217,0,0,0-.155.927c0,.1.022.191.031.284-.049-.022-.093-.044-.142-.062a2.045,2.045,0,0,0-1.006-.124,1.7,1.7,0,0,0-.967.5c-.062.058-.111.124-.168.186a1.44,1.44,0,0,0-.164.262,1.581,1.581,0,0,0-.155.559,2.6,2.6,0,0,0,.106.94,5.2,5.2,0,0,0,.3.767,1.012,1.012,0,0,1,.062.12c-.075-.022-.151-.049-.23-.067a1.774,1.774,0,0,0-1.547.417,1.758,1.758,0,0,0-.182.182l-.08.093a.877.877,0,0,0-.164.341,1.021,1.021,0,0,0,.022.488,1.708,1.708,0,0,0,.106.275,3.13,3.13,0,0,0,.231.39c.155.231.319.43.483.63.328.39.665.754,1,1.108,1.361,1.419,2.766,2.753,4.159,4.105s2.775,2.7,4.128,4.074c.771.789,1.534,1.587,2.279,2.4.231.341.465.683.7,1.02a51.472,51.472,0,0,0,3.551,4.7c.1.111.2.222.31.328.071.146.142.293.2.439a2.411,2.411,0,0,1,.129,2.177c-.08.1-.089.093-.142.106a.8.8,0,0,1-.368-.1,4.68,4.68,0,0,1-1.02-.749,20.283,20.283,0,0,1-1.893-2.079c-.6-.74-1.179-1.507-1.747-2.283-2.274-3.112-4.389-6.367-6.677-9.528-.576-.789-1.162-1.574-1.787-2.341-.315-.381-.634-.763-.98-1.131a8.2,8.2,0,0,0-1.166-1.06,2.479,2.479,0,0,0-.882-.421,1.228,1.228,0,0,0-.714.053,1.078,1.078,0,0,0-.328.2c.013-.018.031-.031.044-.049,0,.053.2-.346.142-.319a1.146,1.146,0,0,0,0-.208c0-.044-.009-.084-.013-.12-.009-.075-.022-.142-.035-.208a11.013,11.013,0,0,0-1.086-2.74,15.316,15.316,0,0,0-3.675-4.442A17.028,17.028,0,0,0,404.742.974a.561.561,0,0,0-.745.634q-.273-.239-.559-.466A8.01,8.01,0,0,0,402.2.3a2.475,2.475,0,0,0-.842-.284,1.185,1.185,0,0,0-.6.071,1,1,0,0,0-.3.182,1.11,1.11,0,0,0-.2.217,2.616,2.616,0,0,0-.412.834c-.239-.155-.483-.31-.736-.452a5.838,5.838,0,0,0-1.374-.576A2.654,2.654,0,0,0,396.926.2a1.675,1.675,0,0,0-.847.27,1.692,1.692,0,0,0-.337.3l-.035.044a.806.806,0,0,0-.071.111.574.574,0,0,0-.053.239.9.9,0,0,0,.058.31,2.859,2.859,0,0,0,.43.687,14.067,14.067,0,0,0,.971,1.064c.665.669,1.357,1.3,2.048,1.929.944.847,1.9,1.68,2.86,2.509.075.115.155.222.235.337-4.54-3.981-8.3-6.566-9.408-5.963a.389.389,0,0,0-.2.386c.093,1.268,9.47,11.532,15.358,17.7,3.086,3.237,12.263,12.733,17.02,16.3a2.882,2.882,0,0,1-.2,2.523,1.083,1.083,0,0,1-.9.412H423.8a5.038,5.038,0,0,1-2.328-.9c-.594-.834-1.206-1.658-1.84-2.461q-2.66-3.691-5.4-7.315c-3.148-4.145-6.384-8.229-9.8-12.166-1.716-1.964-3.471-3.893-5.338-5.733-.935-.918-1.893-1.813-2.9-2.656a23,23,0,0,0-2.651-1.924c-1.295-1.769-2.088-2.882-2.133-2.944a.328.328,0,0,0-.257-.137.284.284,0,0,0-.262.129,4.112,4.112,0,0,0-.8,1.782,1.877,1.877,0,0,0-.222.022,2.3,2.3,0,0,0-1.1.488,2.281,2.281,0,0,0-.417.434,1.536,1.536,0,0,0-.279.612,2.394,2.394,0,0,0,.058,1.2,5.751,5.751,0,0,0,.532,1.237,4.527,4.527,0,0,0-.732-.191,1.973,1.973,0,0,0-1.273.213,1.79,1.79,0,0,0-.51.452,1.448,1.448,0,0,0-.284.678,2.593,2.593,0,0,0,.16,1.2,6.4,6.4,0,0,0,.452.962,13.967,13.967,0,0,0,1.139,1.667,60.575,60.575,0,0,0,5.369,5.746c1.875,1.813,3.8,3.569,5.733,5.316,3.866,3.485,7.79,6.9,11.625,10.4,1.911,1.756,3.813,3.525,5.6,5.387a25.728,25.728,0,0,1,2.465,2.917,6.774,6.774,0,0,1,.461.78,1.526,1.526,0,0,1,.191.692.3.3,0,0,1-.018.084c0,.013-.009.018-.013.027s-.031.035-.049.058a1.043,1.043,0,0,1-.257.2,1.468,1.468,0,0,1-.718.151,5.028,5.028,0,0,1-1.725-.408,14.558,14.558,0,0,1-1.7-.82c-.709-.4-1.4-.838-2.075-1.3-1.982-2.305-4.8-5.484-8.81-9.922-.257-.288-.51-.581-.771-.869-.647-.718-1.312-1.428-1.96-2.146-2.323-2.558-4.638-5.085-6.739-7.373-2.8-3.064-5.586-6.149-8.406-9.2l-.009-.009a.41.41,0,0,0-.2-.115.383.383,0,0,0-.461.284,2.348,2.348,0,0,0,.075,1.17,6.81,6.81,0,0,0,.368.967,18.566,18.566,0,0,0,.953,1.756c.692,1.126,1.45,2.195,2.234,3.241,1.091,1.45,2.257,2.837,3.432,4.216a28.155,28.155,0,0,0-4.4-3.471.328.328,0,0,0-.412.084c-.177.222-.137.266.505,1.02a85.938,85.938,0,0,1,8.051,10.844.325.325,0,1,0,.554-.341,84.281,84.281,0,0,0-6.987-9.6c2.23,1.813,5.507,4.939,8.982,8.366.971,1,1.96,1.973,2.962,2.944,1.556,1.556,3.1,3.117,4.575,4.6,4.416,4.46,8.233,8.308,9.608,9.355a2.172,2.172,0,0,0,1.015.554.367.367,0,0,0,.279-.129c.186-.208.364-.457-2.549-3.977a14.361,14.361,0,0,0,1.534.732,5.925,5.925,0,0,0,2.053.474,2.4,2.4,0,0,0,1.166-.262,1.9,1.9,0,0,0,.505-.395c.035-.044.067-.071.111-.133a1.08,1.08,0,0,0,.106-.182,1.163,1.163,0,0,0,.1-.386,2.344,2.344,0,0,0-.275-1.179,6.859,6.859,0,0,0-.528-.9c-.129-.186-.266-.368-.4-.545a11.328,11.328,0,0,0,.9.709,4.065,4.065,0,0,0,.474.284,1.979,1.979,0,0,0,.63.208.986.986,0,0,0,.479-.049.88.88,0,0,0,.426-.324,1.835,1.835,0,0,0,.3-.6,2.419,2.419,0,0,0,.009-1.219,5.273,5.273,0,0,0-.363-1.024,11.444,11.444,0,0,0-1.06-1.747c-.222-.306-.457-.594-.692-.887.262.2.528.408.771.576q1.1,1.536,2.19,3.086l0,0a.356.356,0,0,0,.474.1.351.351,0,0,0,.111-.483c-.368-.594-.758-1.17-1.153-1.747a4.053,4.053,0,0,0,1.525.421,1.682,1.682,0,0,0,1.476-.656,3.009,3.009,0,0,0,.461-2.376,6.612,6.612,0,0,0,1.33.74.883.883,0,0,0,1.02-.115,3.127,3.127,0,0,0,.567-2.434l.009.009a.01.01,0,0,0,.009.009.6.6,0,0,0,.838.111h0a2.255,2.255,0,0,0,.191-.168,2.9,2.9,0,0,0,.257.177,1.736,1.736,0,0,0,.443.2.811.811,0,0,0,.43,0,.659.659,0,0,0,.266-.16c-.058.231.217-.4.111-.559a.792.792,0,0,0-.08-.133,2.508,2.508,0,0,0-.293-.306l-.266-.244c-.1-.089-.2-.177-.3-.262a2.726,2.726,0,0,0,.009-.328,4.742,4.742,0,0,0-.4-1.6c-.084-.2-.177-.4-.275-.6.035.035.071.071.106.1a5.889,5.889,0,0,0,1.326.958,1.978,1.978,0,0,0,1.029.222,1.4,1.4,0,0,0,.625-.208,1.581,1.581,0,0,0,.434-.421,2.637,2.637,0,0,0,.434-1.809l-.013-.093a2.257,2.257,0,0,0,.514.177,1.547,1.547,0,0,0,.607,0,1.415,1.415,0,0,0,.594-.279,1.885,1.885,0,0,0,.213-.208.784.784,0,0,0,.106-.146,1,1,0,0,0,.093-.182,1.316,1.316,0,0,0,.075-.656,2.826,2.826,0,0,0-.275-.887c-.053-.111-.111-.217-.168-.324a5.418,5.418,0,0,0,.7.47,2.851,2.851,0,0,0,.851.315,1.67,1.67,0,0,0,1.49-.443,2.141,2.141,0,0,0,.168-.182,1.608,1.608,0,0,0,.16-.231,1.7,1.7,0,0,0,.191-1.042,4.119,4.119,0,0,0-.6-1.569,9.315,9.315,0,0,0-.607-.9c.262.213.532.421.811.616a6.233,6.233,0,0,0,1.379.767,1.808,1.808,0,0,0,.971.111,1.064,1.064,0,0,0,.554-.306,1.164,1.164,0,0,0,.1-.12,1.37,1.37,0,0,0,.089-.146.736.736,0,0,0,.035-.514,1.9,1.9,0,0,0-.222-.457c-.08-.12-.16-.226-.239-.328-.164-.2-.328-.395-.5-.576-.337-.368-.687-.714-1.037-1.055-.7-.683-1.419-1.343-2.132-2-2.869-2.62-5.772-5.183-8.543-7.883-1.379-1.348-2.736-2.727-3.986-4.181a24.183,24.183,0,0,1-1.742-2.261,10.007,10.007,0,0,1-.7-1.206,3.9,3.9,0,0,1-.395-1.237,1.385,1.385,0,0,1,.044-.55.88.88,0,0,1,.106-.226.8.8,0,0,1,.058-.08l.009-.009a.567.567,0,0,1,.35.093,3.583,3.583,0,0,1,.545.346,17.645,17.645,0,0,1,2.053,1.951c1.3,1.41,2.54,2.9,3.773,4.4,2.47,2.984,4.881,6.034,7.555,8.885.674.709,1.361,1.405,2.106,2.057a14.137,14.137,0,0,0,1.171.927,5.136,5.136,0,0,0,1.388.718,1.833,1.833,0,0,0,.887.067,1.372,1.372,0,0,0,.816-.51c.053-.067.049-.146.08-.226a1.167,1.167,0,0,0,.049-.133,1.7,1.7,0,0,0,.062-.177,1.573,1.573,0,0,0-.053-.47,3.335,3.335,0,0,0-.319-.745,14.652,14.652,0,0,0-1.8-2.372c-.2-.217-.4-.417-.6-.63s-.43-.452-.656-.687q-1.4-1.443-2.86-2.824c-.262-.248-.528-.483-.789-.732q-1.41-1.33-3.041-2.829c-.426-.39-.869-.8-1.317-1.219q-.9-.838-1.8-1.685c-1.525-1.441-2.939-2.833-3.786-3.826a8.219,8.219,0,0,1-.576-.749c-.018-.027-.053-.067-.067-.093s-.027-.049-.04-.075a.725.725,0,0,1-.133-.4.584.584,0,0,1,.465-.231h.058c1.9.027,6.438,5.054,10.086,9.1,4.119,4.567,6.526,7.125,7.6,6.788a.8.8,0,0,0,.536-.736C444.25,14.886,439.55,10.213,431.889,3.128Zm8.49,21.068c.067.089.133.177.186.257a.5.5,0,0,1,.053.093c-.009,0-.009,0-.022,0a.921.921,0,0,1-.452-.075,5.423,5.423,0,0,1-1.153-.652A21.485,21.485,0,0,1,436.81,22c-1.4-1.308-2.731-2.709-4.039-4.132s-2.58-2.882-3.84-4.349c-.235-.275-.465-.554-.7-.829a.5.5,0,0,1,.049.049c2.78,2.727,5.688,5.307,8.539,7.927.714.656,1.419,1.312,2.106,1.986.341.337.678.674,1,1.024C440.087,23.846,440.242,24.024,440.379,24.2ZM416.185,9.331a.569.569,0,0,1,.346-.027,2.773,2.773,0,0,1,1.024.523,13.415,13.415,0,0,1,1.964,1.929c0,.009.013.013.018.022.612.714,1.2,1.468,1.769,2.23.647.873,1.277,1.765,1.9,2.665l-1.543-1.5c-1.388-1.352-2.8-2.691-4.123-4.07-.328-.346-.652-.7-.949-1.046-.146-.177-.288-.355-.4-.528a1.362,1.362,0,0,1-.093-.146A.572.572,0,0,1,416.185,9.331Zm18.1,19.689a1.51,1.51,0,0,1-.452-.208,4.248,4.248,0,0,1-.505-.386q-.259-.226-.505-.479A16.376,16.376,0,0,0,431.6,25.93c-.572-.816-1.188-1.587-1.818-2.341-.536-.638-1.091-1.255-1.649-1.867q-.752-1.111-1.494-2.226c1.264,1.312,2.523,2.62,3.751,3.955.652.709,1.3,1.423,1.915,2.155a20.909,20.909,0,0,1,1.7,2.243,5.744,5.744,0,0,1,.319.572,1.625,1.625,0,0,1,.164.492.1.1,0,0,1,0,.053l-.035.035C434.412,29.029,434.412,29.038,434.287,29.02ZM421.723,12.47c-.4-.519-.807-1.033-1.237-1.534-.222-.257-.452-.505-.683-.758-.093-.12-.2-.239-.288-.359a14.273,14.273,0,0,1-1.507-2.332,2.375,2.375,0,0,1-.3-1.082.367.367,0,0,1,.035-.142.159.159,0,0,1,.031-.044c.027-.027.049-.062.075-.084a.493.493,0,0,1,.3-.164,1.544,1.544,0,0,1,.94.333,6.378,6.378,0,0,1,.789.63c.133.231.275.452.421.669a30.607,30.607,0,0,0,3.29,3.888c.581.829,1.153,1.671,1.72,2.514l3.2,4.855q.911,1.383,1.853,2.753-1.536-1.629-3.081-3.228c-1.348-1.4-2.691-2.789-4-4.207C422.751,13.618,422.233,13.046,421.723,12.47Zm3.223-1.1c-.652-.949-1.326-1.889-2.035-2.806a23.348,23.348,0,0,0-1.96-2.257c-.146-.146-.3-.288-.457-.426-.009-.018-.018-.031-.027-.049a3.243,3.243,0,0,1-.346-1.188c0-.035,0-.062,0-.1.2.226.39.457.585.687,2.474,2.979,4.934,5.985,7.475,8.929q.8.924,1.609,1.844C428.156,14.483,426.52,12.953,424.946,11.37ZM432.745,23c-1.135-1.547-2.208-3.157-3.272-4.775l-1.765-2.7c1.627,1.538,3.268,3.055,4.864,4.6a45.772,45.772,0,0,1,3.924,4.185,11.111,11.111,0,0,1,.789,1.135,3.1,3.1,0,0,1,.448,1.122.578.578,0,0,1-.053.364.4.4,0,0,1-.049.071.744.744,0,0,1-.08.084.562.562,0,0,1-.155.111.589.589,0,0,1-.364.04,1.865,1.865,0,0,1-.505-.2,8.733,8.733,0,0,1-2.008-1.8C433.9,24.534,433.317,23.775,432.745,23ZM398.739,1.532c.333.191.656.4.975.625a6.627,6.627,0,0,0,.714,2.855c.093.2.2.4.3.6-.377-.337-.758-.669-1.135-1.011-.687-.625-1.366-1.255-2.013-1.906-.319-.328-.638-.661-.909-1a2.256,2.256,0,0,1-.306-.47A.775.775,0,0,1,396.5,1.1a1.3,1.3,0,0,1,1.046-.071A5.171,5.171,0,0,1,398.739,1.532Zm28.854,35.637s-.177.053-.789-.275a11.828,11.828,0,0,1-1.29-.847c-.869-3.059-3.786-7.222-6.77-10.915.9.8,1.8,1.6,2.7,2.394q2.108,1.842,4.238,3.649c.009,0,.013.013.022.018l1.942,2.638C428.191,35.21,428.236,36.358,427.593,37.169Zm-34.285-34.6c1.335,0,5.866,3.463,11.146,8.357.288.35.576.7.873,1.046,2.469,2.829,5.121,5.467,7.825,8.042.594.563,1.193,1.113,1.791,1.667.745.842,1.5,1.689,2.208,2.532,3.871,4.638,6.411,8.455,7.448,11.133-8.508-6.8-29.789-29.944-31.292-32.777Zm14.241,9.909q1.875,1.623,3.733,3.259c.217.191.426.372.643.567.332.3.661.6.993.9,1.986,1.791,3.946,3.627,5.795,5.449q1.776,2.148,3.556,4.292c-.058-.053-.12-.1-.177-.155-2.8-2.456-5.555-4.948-8.246-7.51-.856-.82-1.689-1.663-2.532-2.5-.763-.794-1.512-1.565-2.288-2.336-.989-1.037-1.977-2.075-2.917-3.157-.053-.062-.1-.124-.155-.182Q406.757,11.783,407.549,12.474Zm4.81-2.438c-1.086-.993-2.119-2.088-3.152-3.183l-2.957-4a15.218,15.218,0,0,1,2.789,1.818,14.108,14.108,0,0,1,3.414,4.11,10.921,10.921,0,0,1,.865,2.026A9.183,9.183,0,0,1,412.359,10.036ZM401.705,1.253A11.6,11.6,0,0,1,403.8,2.871c1.343,1.246,2.611,2.607,3.888,3.959l.412.439,7.958,10.818c-2.177-2.585-4.376-5.152-6.641-7.67-1.25-1.388-2.523-2.753-3.835-4.088A52.766,52.766,0,0,0,401.452,2.5c-.217-.173-.434-.346-.656-.514a1.736,1.736,0,0,1,.324-.865.374.374,0,0,1,.031-.04.2.2,0,0,1,.084,0A1.378,1.378,0,0,1,401.705,1.253Zm-.745,1.853a51.67,51.67,0,0,1,4.048,3.786c1.295,1.326,2.554,2.7,3.791,4.079,2.133,2.39,4.208,4.828,6.26,7.284-1.973-1.809-4-3.6-5.99-5.338-.359-.315-.714-.643-1.073-.958-1.472-1.286-2.957-2.563-4.434-3.844-.284-.39-.563-.785-.833-1.188a18.013,18.013,0,0,1-1.339-2.354,7.666,7.666,0,0,1-.532-1.543A.608.608,0,0,1,400.96,3.106Zm17.273,15.97c.585.669,1.175,1.33,1.76,1.991,1.29,1.45,2.585,2.891,3.835,4.358a54.219,54.219,0,0,1,3.547,4.522,14.521,14.521,0,0,1,1.374,2.416c.036.084.067.173.1.257q-.831-.718-1.667-1.428Zm-3-6.2a1.784,1.784,0,0,1,.341.2,7,7,0,0,1,.975.9c.315.337.621.7.922,1.068.6.74,1.175,1.507,1.738,2.288,1.122,1.556,2.208,3.143,3.3,4.735-.536-.6-1.073-1.21-1.6-1.809-1.286-1.45-2.576-2.9-3.773-4.385a17.6,17.6,0,0,1-1.609-2.288,3.378,3.378,0,0,1-.253-.559A.655.655,0,0,1,415.232,12.873Zm-1.122-.652a1.261,1.261,0,0,0-.12.683,2.441,2.441,0,0,0,.1.5c.018.053.04.093.058.142l-1.259-1.707a2.989,2.989,0,0,0,.266.142,1.535,1.535,0,0,0,.523.151.937.937,0,0,0,.43-.067.77.77,0,0,0,.222-.137A1.181,1.181,0,0,0,414.11,12.222ZM390.976,5.092c-.08-.013-.16-.027-.244-.035a3.294,3.294,0,0,1,.4-1.037c.235.324.607.847,1.073,1.49A5.931,5.931,0,0,0,390.976,5.092Zm7.488,6.327c1.849,1.8,3.6,3.711,5.32,5.657,3.418,3.9,6.664,7.958,9.825,12.081.115.151.226.3.341.452-2.882-2.948-5.87-5.639-8.708-8.091C401.4,16.761,397.8,12,395.228,8.528c.124.1.253.2.377.3C396.593,9.641,397.542,10.519,398.464,11.419Zm-9.111-.9c.191.12.377.248.559.377.51.647,1.046,1.268,1.6,1.871.887.967,1.813,1.893,2.749,2.806,1.676,1.618,3.392,3.183,5.125,4.731,2.008,2.3,3.968,4.655,5.928,7.009l4.979,6.007c1.1,1.312,2.2,2.625,3.316,3.924-.873-.834-1.756-1.654-2.642-2.469-3.839-3.52-7.759-6.939-11.611-10.423-1.924-1.742-3.835-3.5-5.7-5.3a59.569,59.569,0,0,1-5.267-5.648,13.491,13.491,0,0,1-1.055-1.552,5.169,5.169,0,0,1-.377-.8,1.563,1.563,0,0,1-.111-.709.467.467,0,0,1,.084-.213.777.777,0,0,1,.213-.191.978.978,0,0,1,.621-.084A4.461,4.461,0,0,1,389.353,10.519ZM420.6,42.773a2.87,2.87,0,0,1-.359-.217,12.623,12.623,0,0,1-1.423-1.2c-.918-.882-1.8-1.835-2.66-2.8-3.436-3.87-6.69-7.932-10.024-11.926-.4-.483-.807-.967-1.21-1.445.319.279.634.559.953.834,1.951,1.716,3.9,3.432,5.812,5.183s3.8,3.534,5.56,5.413a31.4,31.4,0,0,1,2.465,2.935,10.342,10.342,0,0,1,.962,1.583,2.388,2.388,0,0,1,.3,1.516.963.963,0,0,1-.106.226A.984.984,0,0,1,420.6,42.773Zm-12.84-18.182c1.459,1.308,2.926,2.7,4.38,4.128.709.7,1.41,1.405,2.093,2.128.386.4.772.811,1.153,1.224.971,1.06,1.92,2.137,2.829,3.245.031.035.058.071.089.106.372.505.74,1.02,1.108,1.53A102.21,102.21,0,0,1,407.757,24.591Zm-5.174-5.351c-.217-.182-.43-.364-.643-.545-6.216-5.28-11.031-9.381-11.257-12.711A1.112,1.112,0,0,1,390.8,6a6.1,6.1,0,0,1,1.685.643c.341.182.665.395.993.612C395.64,10.2,398.917,14.6,402.583,19.24Zm-1.064-.049c1.037.882,2.115,1.8,3.214,2.744,1.9,2.345,3.844,4.66,5.764,6.845q-1.975-1.769-3.959-3.511c-2.031-1.782-4.074-3.556-6.1-5.351-1.494-1.716-3.019-3.409-4.6-5.059-.909-.94-1.836-1.867-2.811-2.753a24.328,24.328,0,0,0-2.589-2.088c-.217-.284-.43-.576-.625-.869a6.044,6.044,0,0,1-.8-1.6,1.518,1.518,0,0,1-.053-.732.712.712,0,0,1,.12-.27,1.583,1.583,0,0,1,.253-.266,1.378,1.378,0,0,1,.678-.288C390.231,9.584,395.166,13.8,401.519,19.191Zm8.6,22.332c-1.64-1.264-3.232-2.607-4.779-3.995a144.43,144.43,0,0,1-10.96-11.022c-1.725-1.933-3.4-3.915-4.961-5.972-.78-1.029-1.53-2.079-2.208-3.166a16.6,16.6,0,0,1-.918-1.667c-.08-.173-.151-.35-.217-.523Q394.286,23.99,402.4,32.9q3.5,3.864,6.961,7.768C409.615,40.951,409.876,41.248,410.116,41.523Zm2.563,2.948c1.49,1.742,2.62,3.121,3.219,3.946-1.131-.9-3.649-3.392-6.73-6.491.536.426,1.073.847,1.627,1.25C411.41,43.629,412.035,44.059,412.678,44.471Z" transform="translate(471.639 554.81)"/>
  </g>
</svg>
