<svg width="21" height="20" viewBox="0 0 21 20" fill="none" xmlns="http://www.w3.org/2000/svg">
<path d="M15.1816 4.97334L16.3924 3.7625L17.5707 4.94084L16.3599 6.15167C17.5564 7.64931 18.134 9.54823 17.9741 11.4584C17.8143 13.3687 16.929 15.1452 15.5003 16.4231C14.0715 17.701 12.2077 18.3834 10.2915 18.3301C8.37539 18.2767 6.55239 17.4917 5.19695 16.1363C3.8415 14.7808 3.05649 12.9578 3.00315 11.0417C2.94981 9.12553 3.63218 7.26168 4.91012 5.83293C6.18806 4.40417 7.96456 3.51896 9.87478 3.3591C11.785 3.19924 13.6839 3.77686 15.1816 4.97334ZM10.4999 16.6667C11.2659 16.6667 12.0245 16.5158 12.7322 16.2226C13.4399 15.9295 14.083 15.4998 14.6247 14.9581C15.1663 14.4165 15.596 13.7734 15.8892 13.0657C16.1823 12.3579 16.3332 11.5994 16.3332 10.8333C16.3332 10.0673 16.1823 9.30875 15.8892 8.60102C15.596 7.89328 15.1663 7.25022 14.6247 6.70855C14.083 6.16687 13.4399 5.73719 12.7322 5.44404C12.0245 5.15089 11.2659 5 10.4999 5C8.95279 5 7.46906 5.61458 6.3751 6.70855C5.28113 7.80251 4.66655 9.28624 4.66655 10.8333C4.66655 12.3804 5.28113 13.8642 6.3751 14.9581C7.46906 16.0521 8.95279 16.6667 10.4999 16.6667ZM9.66655 6.66667H11.3332V11.6667H9.66655V6.66667ZM7.16655 0.833336H13.8332V2.5H7.16655V0.833336Z" fill="#89B9C8"/>
</svg>
