<svg xmlns="http://www.w3.org/2000/svg" width="140.596" height="88.37" viewBox="0 0 140.596 88.37">
  <g id="undraw_experts_re_i40h" transform="translate(0 0)">
    <path id="Path_1545" data-name="Path 1545" d="M258.186,345.064H203.271a.566.566,0,0,1-.565-.565V290.966a.566.566,0,0,1,.565-.566h54.915a.566.566,0,0,1,.565.566V344.5A.566.566,0,0,1,258.186,345.064Z" transform="translate(-202.706 -274.455)" fill="#f0f0f0"/>
    <path id="Path_1546" data-name="Path 1546" d="M279.983,318.1H237.006a.566.566,0,0,0-.565.565v33.3a.566.566,0,0,0,.565.565h42.977a.566.566,0,0,0,.565-.565v-33.3A.566.566,0,0,0,279.983,318.1Z" transform="translate(-230.471 -297.252)" fill="#fff"/>
    <path id="Path_1547" data-name="Path 1547" d="M290.1,538.517H252.024a.315.315,0,0,1-.314-.314v-1.759a.315.315,0,0,1,.314-.314H290.1a.315.315,0,0,1,.314.314V538.2a.314.314,0,0,1-.314.314Z" transform="translate(-243.039 -476.704)" fill="#fff"/>
    <path id="Path_1548" data-name="Path 1548" d="M276.9,562.664H252.024a.314.314,0,0,1-.314-.314V560.59a.315.315,0,0,1,.314-.314H276.9a.315.315,0,0,1,.314.314v1.759A.314.314,0,0,1,276.9,562.664Z" transform="translate(-243.039 -496.579)" fill="#fff"/>
    <circle id="Ellipse_306" data-name="Ellipse 306" cx="5.464" cy="5.464" r="5.464" transform="translate(21.497 32.483)" fill="#ffb8b8"/>
    <path id="Path_1549" data-name="Path 1549" d="M141.2,263.833H129.086l.4-8.907.094-.1,1.36-1.436h4.327l1.6,1.553.13.126,3.414,3.272Z" transform="translate(-106.245 -208.555)" fill="#77e96f"/>
    <path id="Path_1550" data-name="Path 1550" d="M300.767,470.472H291.6c-.023-2.011-.035-3.214-.035-3.214l.53-.323h0l5.841-3.546,1.226-1.992.006.07.361,4.2S300.13,467.589,300.767,470.472Z" transform="translate(-275.843 -415.194)" fill="#2f2e41"/>
    <path id="Path_1551" data-name="Path 1551" d="M383.816,470.472h-9.709c.147-5.863-.645-9.077-.237-9.077l.237.187,2.861,2.259,3.771,1.384h0l2.6.954.456.167v.215C383.8,467.076,383.8,468.485,383.816,470.472Z" transform="translate(-343.487 -415.194)" fill="#2f2e41"/>
    <path id="Path_1552" data-name="Path 1552" d="M319.334,380.457s.464-.815.356-3.539,4.04-1.183,7.505-1.443,2.732,4.547,2.732,4.547a9.061,9.061,0,0,0,.785-2.606,7.574,7.574,0,0,0-.68-4.632c-.358-2.438-2.287-1.657-2.287-1.657a1.012,1.012,0,0,1,.751,1.135c-.786-1.379-2.716-.6-2.716-.6-2.573-1.615-5.181.512-5.181.512-3.108.705-1.285,3.177-1.285,3.177C316.189,376.934,319.334,380.457,319.334,380.457Z" transform="translate(-297.543 -340.8)" fill="#2f2e41"/>
    <path id="Path_1553" data-name="Path 1553" d="M281.122,496.232h-3.766a11.361,11.361,0,0,0,0-1.394c-.225-.9,2.939-2.107,3.035-2.144h0l.6.324Z" transform="translate(-264.14 -440.954)" fill="#2f2e41"/>
    <path id="Path_1554" data-name="Path 1554" d="M413.774,488.13h-3.956l-.494-4.876.554-.4.139.034h0a10.853,10.853,0,0,1,2.6.954,1.612,1.612,0,0,1,.456.382.471.471,0,0,1,.108.334C413.164,484.736,413.4,486.078,413.774,488.13Z" transform="translate(-372.765 -432.853)" fill="#2f2e41"/>
    <path id="Path_1555" data-name="Path 1555" d="M736.026,254.949H681.111a.566.566,0,0,1-.565-.565V200.851a.566.566,0,0,1,.565-.565h54.915a.566.566,0,0,1,.565.565v53.533a.566.566,0,0,1-.565.565Z" transform="translate(-595.996 -200.285)" fill="#f0f0f0"/>
    <path id="Path_1556" data-name="Path 1556" d="M757.823,227.984H714.846a.566.566,0,0,0-.565.565v33.3a.566.566,0,0,0,.565.566h42.977a.566.566,0,0,0,.566-.565v-33.3A.566.566,0,0,0,757.823,227.984Z" transform="translate(-623.761 -223.083)" fill="#fff"/>
    <path id="Path_1557" data-name="Path 1557" d="M767.94,448.4H729.863a.314.314,0,0,1-.314-.314v-1.759a.314.314,0,0,1,.314-.314H767.94a.314.314,0,0,1,.314.314v1.759a.314.314,0,0,1-.314.314Z" transform="translate(-636.329 -402.535)" fill="#fff"/>
    <path id="Path_1558" data-name="Path 1558" d="M754.745,472.549H729.863a.314.314,0,0,1-.314-.314v-1.759a.314.314,0,0,1,.314-.314h24.881a.315.315,0,0,1,.314.314v1.759A.315.315,0,0,1,754.745,472.549Z" transform="translate(-636.329 -422.409)" fill="#fff"/>
    <path id="Path_1559" data-name="Path 1559" d="M803.008,372.32c.242-.873.431-1.626.528-2.159a1.535,1.535,0,0,0,.009-.5c-.362-2.575-6.9-4.751-7.737-5.02l-.2-2.242-8.228-.886-1.042,2.868-2.953,1.107a1.406,1.406,0,0,0-.3.156,1.462,1.462,0,0,0-.6,1.56l1.258,5.115Z" transform="translate(-679.857 -332.987)" fill="#77e96f"/>
    <path id="Path_1560" data-name="Path 1560" d="M772.6,391.522h-6.385c.229-1.425.434-2.685.567-3.487.488-2.918,2.614-3.167,2.947-3.187l.044,0h1.343Z" transform="translate(-666.508 -352.189)" fill="#77e96f"/>
    <path id="Path_1561" data-name="Path 1561" d="M889.177,405.7h1.548a5.038,5.038,0,0,0-1.012-2.657,3.173,3.173,0,0,0-1.107-.921l-.117-.05-1.361,3.628Z" transform="translate(-766.026 -366.37)" fill="#77e96f"/>
    <circle id="Ellipse_109" data-name="Ellipse 109" cx="5.925" cy="5.925" r="5.925" transform="translate(105.388 15.26)" fill="#a0616a"/>
    <path id="Path_696" data-name="Path 696" d="M797.138,277.833a3.742,3.742,0,0,0,2.609,1.014,24.569,24.569,0,0,0,6.672-.545c.136,1.314-.234,2.732.54,3.813a17.7,17.7,0,0,0,.629-4.013,3.843,3.843,0,0,0-.222-1.719,1.581,1.581,0,0,0-1.347-.993,3.375,3.375,0,0,1,1.506-.643l-1.881-.945.483-.5-3.406-.208.986-.627a21.391,21.391,0,0,0-4.483-.141,3.845,3.845,0,0,0-1.982.551,1.431,1.431,0,0,0-.538,1.792,2.6,2.6,0,0,0-1.983,1.573,4.2,4.2,0,0,0-.151,2.019,14.31,14.31,0,0,0,.75,3.174" transform="translate(-689.802 -259.535)" fill="#2f2e41"/>
    <path id="Path_1562" data-name="Path 1562" d="M503.011,445.442H448.1a.566.566,0,0,1-.565-.565V391.343a.566.566,0,0,1,.565-.565h54.915a.566.566,0,0,1,.565.565v53.533A.566.566,0,0,1,503.011,445.442Z" transform="translate(-404.211 -357.072)" fill="#e4e4e4"/>
    <path id="Path_1563" data-name="Path 1563" d="M524.808,418.476H481.831a.566.566,0,0,0-.566.565v33.3a.566.566,0,0,0,.565.565h42.977a.566.566,0,0,0,.565-.565v-33.3A.566.566,0,0,0,524.808,418.476Z" transform="translate(-431.976 -379.869)" fill="#fff"/>
    <path id="Path_1564" data-name="Path 1564" d="M534.925,638.894H496.848a.314.314,0,0,1-.314-.314v-1.759a.314.314,0,0,1,.314-.314h38.076a.315.315,0,0,1,.314.314v1.759a.314.314,0,0,1-.314.314Z" transform="translate(-444.544 -559.321)" fill="#fff"/>
    <path id="Path_1565" data-name="Path 1565" d="M521.73,663.041H496.848a.315.315,0,0,1-.314-.314v-1.759a.315.315,0,0,1,.314-.314H521.73a.314.314,0,0,1,.314.314v1.759A.314.314,0,0,1,521.73,663.041Z" transform="translate(-444.544 -579.195)" fill="#fff"/>
    <path id="Path_1566" data-name="Path 1566" d="M589.57,573.206H580.92l.539-8.09,3.12.72,3.035-1.167.08-.03.005,0a.034.034,0,0,1,0,.008C587.75,564.835,588.7,568.649,589.57,573.206Z" transform="translate(-513.999 -500.167)" fill="#77e96f"/>
    <path id="Path_1567" data-name="Path 1567" d="M418.89,365.917l-.808,6.769h-7.29l.93-8.537.009-.083.072.053.007,0,1.8,1.312Z" transform="translate(-338.106 -299.648)" fill="#2f2e41"/>
    <path id="Path_1568" data-name="Path 1568" d="M557.345,575.438h-6.528l-.094-5.329,4.8-1.593,1.078-1.167S556.946,570.861,557.345,575.438Z" transform="translate(-489.144 -502.4)" fill="#2f2e41"/>
    <path id="Path_1569" data-name="Path 1569" d="M651.86,581.582h-5.41l.347-4.849,1.92-1.92S650.237,578,651.86,581.582Z" transform="translate(-567.933 -508.543)" fill="#2f2e41"/>
    <path id="Path_1570" data-name="Path 1570" d="M546.681,588.281h-2.854c.013-1.553.02-2.626.02-2.929a2.829,2.829,0,0,1,1.2-2.4l1.441.48Z" transform="translate(-483.468 -515.242)" fill="#2f2e41"/>
    <path id="Path_1571" data-name="Path 1571" d="M557.439,485.1a7.6,7.6,0,0,1,3.729-6.516,7.869,7.869,0,0,1,7.963.07,7.362,7.362,0,0,1,3.43,5.854v6.374H557.439Z" transform="translate(-494.672 -428.482)" fill="#2f2e41"/>
    <circle id="Ellipse_307" data-name="Ellipse 307" cx="5.462" cy="5.462" r="5.462" transform="translate(62.616 54.611) rotate(-28.663)" fill="#ffb8b8"/>
    <path id="Path_1572" data-name="Path 1572" d="M566.149,490.233c-.041-.048-.138-.16.535-5.344l.021-.085h.061a11.408,11.408,0,0,1,10.3-.126.673.673,0,0,1,.381.544c.4,4.871.3,4.977.261,5.022a.669.669,0,0,1-.494.218H575.7l-.032-.057a15.632,15.632,0,0,0-.855-1.406,12.482,12.482,0,0,0-.349,1.375l-.018.089h-7.792A.667.667,0,0,1,566.149,490.233Z" transform="translate(-501.816 -433.397)" fill="#2f2e41"/>
  </g>
</svg>
