<svg id="undraw_product_iteration_kjok" xmlns="http://www.w3.org/2000/svg" width="119.602" height="98.184" viewBox="0 0 119.602 98.184">
  <path id="Path_1514" data-name="Path 1514" d="M842.949,720.031c.037,3.825-24.069,4.176-24.528,0C818.384,716.206,842.489,715.856,842.949,720.031Z" transform="translate(-723.346 -624.849)" fill="#e6e6e6"/>
  <path id="Path_1515" data-name="Path 1515" d="M614.656,507.569l-1.792.977,1.14,3.746,1.791.163.977-2.117Z" transform="translate(-513.914 -425.667)" fill="#9f616a"/>
  <path id="Path_1516" data-name="Path 1516" d="M658.28,553.994v1.791l2.769-.163-.039-1.475Z" transform="translate(-552.001 -464.6)" fill="#9f616a"/>
  <path id="Path_1517" data-name="Path 1517" d="M619.929,374.348l.977,12.215L624,404.478l4.886-.651-1.629-14.169.651-13.029Z" transform="translate(-519.838 -313.944)" fill="#2f2e41"/>
  <path id="Path_1518" data-name="Path 1518" d="M862.538,463.6l-11.726.163-1.3,8.958,7.98,3.746,1.954,7.166-9.935,10.586,3.909,4.886a150.922,150.922,0,0,1,9.609-11.726c4.072-4.234,2.117-17.1,2.117-17.1Z" transform="translate(-749.418 -412.314)" fill="#2f2e41"/>
  <circle id="Ellipse_300" data-name="Ellipse 300" cx="3.583" cy="3.583" r="3.583" transform="translate(102.533 20.991)" fill="#9f616a"/>
  <path id="Path_1519" data-name="Path 1519" d="M878.777,304.757v3.583l2.443,3.909s3.746-2.769,2.932-3.42-.977-5.7-.977-5.7Z" transform="translate(-773.963 -277.74)" fill="#9f616a"/>
  <path id="Path_1520" data-name="Path 1520" d="M636.5,181.953l-2.443,2.931.977,20.358,7.654-.163,1.3-17.752-1.629-4.56-1.117-1.52-1.977,2.986Z" transform="translate(-531.687 -152.004)" fill="#d0cde1"/>
  <path id="Path_1521" data-name="Path 1521" d="M825.778,358.9l-1.792,6.84,1.792,6.84-2.932,3.909-2.606-12.378s1.954-10.1,2.117-11.238.489-1.3.489-1.3l1.3.163Z" transform="translate(-724.873 -318.366)" fill="#2f2e41"/>
  <path id="Path_1522" data-name="Path 1522" d="M705.714,215.739l1.14,2.117.326,3.583-.651,4.072,2.28,3.746,2.28-10.26L708.646,205.8h-.977Z" transform="translate(-591.78 -172.598)" fill="#2f2e41"/>
  <path id="Path_1523" data-name="Path 1523" d="M832.036,652.327s-2.28.651-3.094.814.489,3.257.489,3.257.814,4.234.977,5.049,1.3,3.583,2.769,3.909.489-5.7.489-5.7a14.778,14.778,0,0,0,.651-2.606c0-.651-.977-.326-.977-.326C830.733,656.4,832.036,652.327,832.036,652.327Z" transform="translate(-731.945 -570.588)" fill="#2f2e41"/>
  <path id="Path_1524" data-name="Path 1524" d="M882.7,709.639c.163.977-.163.977,2.443,1.3s1.954-1.791,1.954-1.791a13.684,13.684,0,0,0-.651-2.932c-.489-1.3-3.094.326-3.094.326A8.873,8.873,0,0,0,882.7,709.639Z" transform="translate(-777.237 -615.359)" fill="#2f2e41"/>
  <path id="Path_1525" data-name="Path 1525" d="M867.943,270.152l.085,1.448a16.4,16.4,0,0,0,1.214-4.819c.163-2.443-2.606-2.932-4.234-3.094s-4.4.977-4.4,2.28,2.932.977,4.072.651,1.629,2.443,1.629,2.443l.651.163Z" transform="translate(-758.728 -244.65)" fill="#2f2e41"/>
  <path id="Path_1526" data-name="Path 1526" d="M643.24,186.773l.961-1.153,2.769,2.28-2.769,1.954Z" transform="translate(-539.388 -155.671)" fill="#d0cde1"/>
  <path id="Path_1527" data-name="Path 1527" d="M669.448,183.049l-1.14-1.466-1.954,2.931,2.443,1.792Z" transform="translate(-558.772 -152.286)" fill="#d0cde1"/>
  <path id="Path_1528" data-name="Path 1528" d="M839.678,342.984l.651,6.189-1.3,3.746-.814,3.583s0,3.42,3.257,3.583,6.026-10.26,6.026-10.26.489,2.28.814,3.583,5.863,6.515,5.863,6.515,1.3-.163,2.443-2.769-2.28-5.049-2.28-5.049l-.977-3.42.326-4.234,2.28-11.075-6.759-3.5.733,9.365-2.443,7.329-3.664-16.2-1.222.9-5.212,2.117Z" transform="translate(-739.262 -300.169)" fill="#2f2e41"/>
  <path id="Path_1529" data-name="Path 1529" d="M294.932,248.514c-.322,0-.648,0-.968-.015l.01-.323c.317.01.64.014.958.014s.644-.005.966-.016l.01.322C295.583,248.508,295.254,248.514,294.932,248.514Zm-2.908-.136c-.642-.061-1.291-.143-1.928-.245l.051-.319c.63.1,1.272.182,1.908.242Zm5.824,0-.031-.321c.635-.061,1.277-.143,1.908-.245l.051.319C299.139,248.229,298.491,248.313,297.848,248.374Zm-9.662-.61c-.629-.143-1.262-.308-1.881-.491l.091-.31c.613.181,1.239.344,1.861.485Zm13.5-.008-.072-.315c.624-.142,1.25-.306,1.861-.488l.092.31C302.948,247.447,302.316,247.613,301.685,247.756Zm-17.226-1.093c-.607-.223-1.214-.469-1.805-.73l.131-.295c.584.258,1.185.5,1.786.722Zm20.951-.013-.112-.3c.6-.22,1.2-.463,1.78-.722l.131.3C306.619,246.182,306.014,246.428,305.411,246.65Zm-24.51-1.562c-.571-.3-1.142-.62-1.7-.955l.167-.276c.548.332,1.112.65,1.677.945Zm28.058-.012-.149-.286c.564-.295,1.127-.613,1.673-.945l.168.276C310.1,244.457,309.529,244.778,308.959,245.076Zm-31.384-2.005c-.529-.369-1.053-.761-1.559-1.164l.2-.252c.5.4,1.019.786,1.542,1.151Zm34.7-.012-.185-.264c.523-.366,1.042-.753,1.54-1.151l.2.252C313.33,242.3,312.807,242.69,312.278,243.06Zm-37.743-2.413c-.478-.434-.949-.889-1.4-1.352l.232-.225c.444.458.909.908,1.383,1.338Zm40.779-.011-.217-.239c.472-.429.937-.879,1.382-1.338l.232.224C316.261,239.747,315.791,240.2,315.314,240.635Zm-43.485-2.779c-.419-.491-.827-1-1.214-1.518l.258-.194c.383.511.787,1.016,1.2,1.5Zm46.189-.013-.246-.209c.414-.486.818-.992,1.2-1.5l.258.193c-.387.517-.795,1.028-1.214,1.52Zm-48.517-3.1c-.353-.541-.693-1.1-1.01-1.66l.281-.159c.314.555.65,1.107,1,1.642Zm50.845-.018-.27-.176c.35-.536.686-1.089,1-1.645l.281.159C321.04,233.628,320.7,234.187,320.347,234.729Zm-52.757-3.363c-.281-.581-.546-1.178-.789-1.774l.3-.121c.24.59.5,1.181.78,1.755Zm54.668-.025-.291-.14c.278-.576.54-1.168.78-1.761l.3.121C322.8,230.16,322.539,230.759,322.258,231.341Zm-56.131-3.573c-.2-.613-.391-1.24-.554-1.864l.312-.082c.162.617.346,1.237.548,1.844Zm57.592-.034-.306-.1c.2-.606.385-1.226.546-1.844l.312.082C324.109,226.494,323.923,227.122,323.72,227.734Zm-58.579-3.725c-.123-.633-.228-1.279-.31-1.919l.32-.041c.082.634.185,1.272.307,1.9Zm59.562-.035-.317-.061c.121-.626.224-1.265.3-1.9l.32.041c-.082.641-.185,1.287-.308,1.919Zm-60.059-3.819c-.041-.643-.063-1.3-.063-1.943h.323c0,.639.022,1.286.063,1.923Zm60.551-.036-.322-.02c.04-.636.061-1.283.061-1.922v-.071h.323v.07C325.256,218.822,325.235,219.476,325.195,220.119Zm-60.234-3.83-.322-.02c.04-.645.1-1.3.182-1.936l.32.04C265.062,215.007,265,215.651,264.961,216.289Zm59.907-.106c-.042-.638-.1-1.282-.187-1.914l.32-.042c.083.639.147,1.29.189,1.935Zm-59.425-3.708-.317-.061c.122-.633.266-1.271.428-1.9l.312.081C265.707,211.216,265.564,211.848,265.444,212.474Zm58.928-.1c-.123-.627-.268-1.258-.431-1.875l.312-.082c.164.624.311,1.261.435,1.895Zm-57.96-3.617-.306-.1c.2-.613.428-1.228.67-1.828l.3.121C266.835,207.538,266.612,208.147,266.412,208.753Zm56.98-.1c-.2-.606-.428-1.213-.668-1.8l.3-.122c.244.6.471,1.211.676,1.823Zm-55.538-3.47-.291-.14c.28-.582.583-1.163.9-1.726l.281.158C268.43,204.032,268.13,204.607,267.853,205.183Zm54.087-.088c-.278-.573-.579-1.145-.894-1.7l.281-.159c.319.562.622,1.14.9,1.72Zm-52.2-3.266-.271-.176c.352-.541.726-1.078,1.113-1.6l.259.193C270.46,200.762,270.089,201.293,269.741,201.829Zm50.3-.076c-.349-.533-.721-1.063-1.1-1.574l.258-.194c.388.517.763,1.052,1.116,1.591Zm-48-3.008-.246-.209c.418-.492.857-.977,1.306-1.441l.232.224C272.889,197.778,272.455,198.258,272.041,198.745Zm45.7-.066c-.415-.485-.851-.963-1.3-1.421l.231-.225c.45.463.891.946,1.31,1.436Zm-43.025-2.7-.217-.239c.478-.435.975-.86,1.478-1.262l.2.252C275.678,195.128,275.186,195.549,274.714,195.979Zm40.345-.059c-.473-.428-.967-.847-1.467-1.245l.2-.253c.505.4,1,.826,1.482,1.259Zm-37.343-2.344-.185-.264c.528-.37,1.075-.728,1.626-1.064l.168.276C278.779,192.857,278.237,193.211,277.715,193.577Zm34.333-.051c-.525-.366-1.068-.719-1.614-1.049l.167-.276c.552.334,1.1.69,1.632,1.06ZM281,191.578l-.15-.286c.571-.3,1.159-.584,1.748-.846l.131.295C282.142,191,281.561,191.282,281,191.578Zm27.759-.044c-.567-.3-1.151-.575-1.736-.834l.13-.3c.591.261,1.182.544,1.755.843ZM284.5,190.017l-.112-.3c.605-.224,1.226-.431,1.844-.615l.092.309C285.717,189.59,285.1,189.8,284.5,190.017Zm20.728-.037c-.6-.219-1.214-.422-1.827-.6l.091-.31c.619.182,1.24.387,1.847.609Zm-17.044-1.062-.072-.315c.628-.144,1.27-.269,1.908-.373l.052.319C289.445,188.652,288.81,188.776,288.189,188.918Zm13.356-.023c-.622-.14-1.258-.262-1.889-.362l.051-.319c.638.1,1.28.224,1.909.366Zm-9.56-.592-.031-.321c.641-.062,1.293-.1,1.94-.126l.011.323c-.64.021-1.285.063-1.919.125Zm5.763-.01c-.635-.059-1.281-.1-1.92-.118l.01-.323c.646.019,1.3.059,1.94.119Z" transform="translate(-258.881 -181.066)" fill="#412b76"/>
  <ellipse id="Ellipse_301" data-name="Ellipse 301" cx="7.87" cy="7.432" rx="7.87" ry="7.432" transform="translate(27.106 0)" fill="#77e96f"/>
  <circle id="Ellipse_302" data-name="Ellipse 302" cx="7.432" cy="7.432" r="7.432" transform="translate(56.835 20.985)" fill="#77e96f"/>
  <ellipse id="Ellipse_303" data-name="Ellipse 303" cx="7.87" cy="7.432" rx="7.87" ry="7.432" transform="translate(47.217 52.464)" fill="#77e96f"/>
  <ellipse id="Ellipse_304" data-name="Ellipse 304" cx="7.432" cy="7.87" rx="7.432" ry="7.87" transform="translate(11.367 53.338)" fill="#77e96f"/>
  <circle id="Ellipse_305" data-name="Ellipse 305" cx="7.432" cy="7.432" r="7.432" transform="translate(0 20.985)" fill="#77e96f"/>
  <path id="Path_1530" data-name="Path 1530" d="M431.546,170.165H428.9a.907.907,0,0,1-.907-.907v-2.646a.076.076,0,0,0-.076-.076H426.18a1.209,1.209,0,0,0-1.209,1.209v6.047A1.209,1.209,0,0,0,426.18,175h4.233a1.209,1.209,0,0,0,1.209-1.209v-3.553A.076.076,0,0,0,431.546,170.165Zm-1.738,3.023h-3.023a.3.3,0,1,1,0-.6h3.023a.3.3,0,1,1,0,.6Zm0-1.512h-3.023a.3.3,0,1,1,0-.6h3.023a.3.3,0,1,1,0,.6Z" transform="translate(-393.389 -163.191)" fill="#fff"/>
  <path id="Path_1531" data-name="Path 1531" d="M450.235,170.694l-2.718-2.717a.038.038,0,0,0-.064.027v2.453a.3.3,0,0,0,.3.3h2.453a.038.038,0,0,0,.027-.064Z" transform="translate(-412.243 -164.388)" fill="#fff"/>
  <path id="Path_1532" data-name="Path 1532" d="M575.29,507.508a.4.4,0,1,0,.284.118A.4.4,0,0,0,575.29,507.508Z" transform="translate(-519.114 -449.139)" fill="#fff"/>
  <path id="Path_1533" data-name="Path 1533" d="M556.384,496.135h0a.307.307,0,0,0-.228-.23,3.533,3.533,0,0,0-1.937.32,6.23,6.23,0,0,0-2.027,1.283,4.822,4.822,0,0,0-.445.509,1.974,1.974,0,0,0-.882.142,2.3,2.3,0,0,0-1.184,1.764.376.376,0,0,0,.409.437h0l.969-.106,0,.034a.518.518,0,0,0,.149.312l.473.473a.516.516,0,0,0,.312.149l.032,0-.105.967v0a.377.377,0,0,0,.336.413l.035,0a.377.377,0,0,0,.063-.005,2.283,2.283,0,0,0,1.765-1.185,1.991,1.991,0,0,0,.142-.879,4.732,4.732,0,0,0,.511-.445,6.184,6.184,0,0,0,1.285-2.011A3.591,3.591,0,0,0,556.384,496.135Zm-1.612,2.634a.885.885,0,1,1,0-1.252h0a.878.878,0,0,1,.009,1.242Z" transform="translate(-497.97 -439.372)" fill="#fff"/>
  <path id="Path_1534" data-name="Path 1534" d="M552.883,524.991a.241.241,0,0,0-.166.04c-.1.066-.193.131-.29.194a.225.225,0,0,1-.316-.3l.183-.316a.241.241,0,0,0-.228-.375.922.922,0,0,0-.537.263c-.055.055-.223.223-.313.862a5.375,5.375,0,0,0-.048.554.241.241,0,0,0,.235.247h.012a5.4,5.4,0,0,0,.554-.048c.64-.09.807-.258.862-.313a.911.911,0,0,0,.262-.538A.241.241,0,0,0,552.883,524.991Z" transform="translate(-499.221 -463.163)" fill="#fff"/>
  <path id="Path_1535" data-name="Path 1535" d="M323.407,533.172h-.55a.412.412,0,0,1-.412-.412v-2.473a.412.412,0,0,1,.412-.412h.55a.412.412,0,0,1,.412.412v2.473A.412.412,0,0,1,323.407,533.172Z" transform="translate(-307.408 -467.896)" fill="#fff"/>
  <path id="Path_1536" data-name="Path 1536" d="M347.244,524.6h-.55a.412.412,0,0,1-.412-.412v-4.121a.412.412,0,0,1,.412-.412h.55a.412.412,0,0,1,.412.412v4.121A.412.412,0,0,1,347.244,524.6Z" transform="translate(-327.399 -459.329)" fill="#fff"/>
  <path id="Path_1537" data-name="Path 1537" d="M359.163,514.61h-.549a.412.412,0,0,1-.412-.412v-6.045a.412.412,0,0,1,.412-.412h.549a.412.412,0,0,1,.412.412V514.2A.412.412,0,0,1,359.163,514.61Z" transform="translate(-337.394 -449.333)" fill="#fff"/>
  <path id="Path_1538" data-name="Path 1538" d="M335.326,507.47h-.549a.412.412,0,0,1-.412-.412v-7.419a.412.412,0,0,1,.412-.412h.549a.412.412,0,0,1,.412.412v7.419A.412.412,0,0,1,335.326,507.47Z" transform="translate(-317.403 -442.194)" fill="#fff"/>
  <path id="Path_1539" data-name="Path 1539" d="M609.189,316.763l-.393-.393a.481.481,0,0,0-.679,0l-2.73,2.519a.51.51,0,0,0-.171.347.482.482,0,0,0,.138.36l.586.593h0a.486.486,0,0,0,.341.142h.018a.5.5,0,0,0,.348-.168l2.537-2.717a.481.481,0,0,0,0-.68Z" transform="translate(-544.548 -288.726)" fill="#fff"/>
  <path id="Path_1540" data-name="Path 1540" d="M624.815,302.27l0,0-.515-.51a.323.323,0,0,0-.23-.094.329.329,0,0,0-.192.062c0-.007,0-.013,0-.018a.55.55,0,0,0-.078-.379,3.878,3.878,0,0,0-.373-.432h0a4.069,4.069,0,0,0-1.3-.841,2.1,2.1,0,0,0-.8-.157,1.521,1.521,0,0,0-.974.341,1.8,1.8,0,0,0-.213.244.241.241,0,0,0,.28.366,1.12,1.12,0,0,1,.129-.04.955.955,0,0,1,.277-.017,1.167,1.167,0,0,1,.537.2.773.773,0,0,1,.275.618,1.6,1.6,0,0,1-.3.518.241.241,0,0,0,.022.316l.517.517a.241.241,0,0,0,.331.009c.146-.131.369-.328.447-.376a.56.56,0,0,1,.221-.087.288.288,0,0,1,.17.036.019.019,0,0,1,0,.014l-.027.026,0,0a.324.324,0,0,0,0,.458l0,0,.515.51a.322.322,0,0,0,.23.094.326.326,0,0,0,.229-.093l.835-.824.008-.009A.329.329,0,0,0,624.815,302.27Z" transform="translate(-557.019 -275.028)" fill="#fff"/>
  <path id="Path_1541" data-name="Path 1541" d="M282.478,305.452a.3.3,0,0,1-.213-.514l.69-.69-.69-.69a.3.3,0,1,1,.426-.426l.9.9a.3.3,0,0,1,0,.426l-.9.9A.3.3,0,0,1,282.478,305.452Z" transform="translate(-273.638 -277.669)" fill="#fff"/>
  <path id="Path_1542" data-name="Path 1542" d="M252.628,311.049a.3.3,0,0,1-.3-.3v-.3a1.815,1.815,0,0,1,1.805-1.806h3.915a.3.3,0,1,1,0,.6h-3.914a1.211,1.211,0,0,0-1.2,1.205v.3A.3.3,0,0,1,252.628,311.049Z" transform="translate(-248.605 -282.363)" fill="#fff"/>
  <path id="Path_1543" data-name="Path 1543" d="M262.859,325.974a.3.3,0,0,1-.213-.088l-.9-.9a.3.3,0,0,1,0-.426l.9-.9a.3.3,0,1,1,.426.426l-.69.69.69.69a.3.3,0,0,1-.213.514Z" transform="translate(-256.428 -294.879)" fill="#fff"/>
  <path id="Path_1544" data-name="Path 1544" d="M263.822,320.377a.3.3,0,0,1,0-.6h3.914a1.211,1.211,0,0,0,1.2-1.205v-.3a.3.3,0,0,1,.6,0v.3a1.815,1.815,0,0,1-1.805,1.806Z" transform="translate(-257.992 -290.185)" fill="#fff"/>
</svg>
