<svg width="54" height="57" viewBox="0 0 54 57" fill="none" xmlns="http://www.w3.org/2000/svg">
<path d="M5.58425 44.8722C5.61949 44.8413 5.63479 44.8225 5.65427 44.8118C6.34848 44.4265 6.70045 43.8221 6.75494 43.0433C6.82171 42.0926 6.41038 41.2287 5.45858 40.8192C5.06278 40.6491 4.64589 40.5769 4.21671 40.5764C2.88046 40.5748 1.54399 40.5755 0.207751 40.5764C0.14051 40.5764 0.0732695 40.5845 0 40.5894V47.2899H1.74247V45.1681C1.79788 45.1588 1.82756 45.1493 1.85701 45.1493C2.49047 45.1482 3.12392 45.1512 3.75715 45.1449C3.88143 45.1437 3.9336 45.2071 3.98414 45.3011C4.3018 45.8937 4.62201 46.4849 4.94198 47.0763C4.98209 47.1504 5.02522 47.223 5.06325 47.2894H6.98564C6.5073 46.4645 6.0452 45.6676 5.58425 44.8724V44.8722ZM4.38411 43.7023C4.26215 43.7452 4.12883 43.7757 4.00037 43.777C3.28971 43.7847 2.57881 43.7819 1.86814 43.7815C1.83151 43.7815 1.7951 43.7712 1.74711 43.7638V41.9577C1.80809 41.9498 1.86652 41.9361 1.92472 41.9359C2.55817 41.9343 3.19186 41.9292 3.82508 41.9387C4.00803 41.9415 4.19746 41.9656 4.37159 42.0197C4.74443 42.1355 4.95914 42.4514 4.9654 42.8446C4.97189 43.2511 4.76182 43.5695 4.38388 43.7023H4.38411Z" fill="#163055"/>
<path d="M16.3454 54.455C16.8084 55.2489 17.2698 56.0397 17.7465 56.8572H15.8264C15.7928 56.7999 15.749 56.7291 15.7091 56.656C15.3908 56.0724 15.0699 55.4903 14.7585 54.903C14.6917 54.7772 14.6147 54.7285 14.4719 54.7303C13.8848 54.738 13.2977 54.7331 12.7106 54.734C12.6499 54.734 12.5891 54.7403 12.5052 54.7449V56.8261C12.3239 56.882 11.1467 56.8973 10.7838 56.8553C10.7386 56.6864 10.728 50.4692 10.7753 50.1976C10.8388 50.1934 10.906 50.1853 10.9735 50.1853C12.3021 50.1846 13.6307 50.1844 14.9595 50.185C15.3963 50.185 15.8216 50.2549 16.2246 50.4283C17.2297 50.8605 17.6127 51.7885 17.5079 52.7455C17.4286 53.4699 17.0776 54.0245 16.4379 54.3866C16.4119 54.4012 16.3894 54.4221 16.3451 54.455H16.3454ZM12.5145 53.3671C12.5678 53.3727 12.6054 53.3796 12.6429 53.3799C13.3218 53.3806 14.001 53.3827 14.6799 53.378C14.8021 53.3771 14.9268 53.3588 15.046 53.3295C15.4749 53.2241 15.7265 52.8945 15.7249 52.4535C15.7233 52.0155 15.4657 51.6859 15.0346 51.5868C14.9004 51.5559 14.7599 51.5413 14.6221 51.5401C13.9817 51.5353 13.3413 51.5376 12.7009 51.5385C12.6418 51.5385 12.5824 51.5476 12.5147 51.5529V53.3669L12.5145 53.3671Z" fill="#163055"/>
<path d="M21.797 44.9095V40.5927H23.3528V47.2792C23.3175 47.2864 23.2816 47.3003 23.2457 47.3003C22.8285 47.3019 22.4112 47.2964 21.9943 47.3052C21.8658 47.308 21.7995 47.2388 21.7263 47.1571C21.1325 46.4953 20.5375 45.8347 19.9427 45.1739C19.3274 44.4899 18.7122 43.8058 18.0966 43.122C18.0456 43.0654 17.9921 43.0113 17.9422 42.9586C17.9255 42.9663 17.9176 42.9684 17.9118 42.973C17.9065 42.9772 17.9002 42.9841 17.9002 42.9899C17.8998 44.4128 17.8998 45.8357 17.8998 47.2518C17.7245 47.3126 16.6338 47.3256 16.3345 47.2746V40.5757C16.4395 40.5757 16.5373 40.5757 16.6354 40.5757C16.9598 40.5757 17.2846 40.5834 17.6088 40.5722C17.7549 40.5674 17.8502 40.6161 17.9471 40.7233C19.1273 42.0327 20.3121 43.3379 21.4958 44.644C21.5816 44.7387 21.6683 44.8327 21.7545 44.9269C21.7689 44.9211 21.7831 44.9153 21.7974 44.9095H21.797Z" fill="#163055"/>
<path d="M50.3129 52.2091H48.6614C48.6526 52.2014 48.6338 52.1933 48.6312 52.1815C48.5508 51.8275 48.2964 51.6567 47.9737 51.5689C47.3643 51.4034 46.7513 51.4164 46.1424 51.5689C46.019 51.5998 45.8941 51.6632 45.7946 51.7425C45.5646 51.9259 45.5613 52.2242 45.7988 52.3962C45.9513 52.5067 46.1343 52.5958 46.3167 52.6406C46.7132 52.7379 47.1188 52.7961 47.5192 52.8783C48.078 52.9927 48.6366 53.1097 49.1928 53.2362C49.3417 53.2701 49.487 53.3316 49.625 53.3991C50.3204 53.7392 50.6482 54.4005 50.5151 55.1644C50.4178 55.724 50.1251 56.1485 49.6489 56.4491C49.2705 56.688 48.8524 56.8219 48.4137 56.8883C47.4807 57.0294 46.5514 57.0206 45.6344 56.7748C45.1349 56.6409 44.6791 56.4204 44.3178 56.0364C43.9923 55.6904 43.8328 55.2779 43.8182 54.7879H45.6527C45.7375 55.2753 46.1099 55.4392 46.5366 55.5293C47.0645 55.6409 47.5948 55.6409 48.1225 55.5262C48.2419 55.5002 48.3611 55.4589 48.4712 55.406C48.6679 55.3113 48.8211 55.1739 48.8211 54.9311C48.8211 54.6809 48.6767 54.5256 48.461 54.4413C48.2753 54.3689 48.0817 54.3062 47.8858 54.2719C47.3084 54.1702 46.7258 54.0966 46.1498 53.9885C45.7795 53.9188 45.4143 53.8167 45.0519 53.7118C44.7978 53.6382 44.5743 53.4971 44.3726 53.3237C43.8529 52.8776 43.7001 52.2961 43.935 51.6502C44.0832 51.2426 44.3549 50.9336 44.7071 50.6913C45.1155 50.4102 45.572 50.2496 46.0566 50.1683C46.9124 50.0249 47.7641 50.0383 48.6027 50.2802C49.0771 50.4172 49.5074 50.6388 49.8462 51.0095C50.1488 51.341 50.3183 51.7265 50.3127 52.2091H50.3129Z" fill="#163055"/>
<path d="M10.4298 44.5495V45.9176C11.1126 45.9406 11.7887 45.9246 12.4646 45.9276C13.134 45.9306 13.8032 45.9283 14.4867 45.9283V47.2855H8.68475V40.6122C8.84984 40.5641 13.7872 40.5421 14.343 40.588C14.393 40.7456 14.4079 41.5631 14.3636 41.9489C14.0473 41.9505 13.726 41.9526 13.4048 41.9536C13.0728 41.9542 12.7408 41.9536 12.4085 41.9536H10.4676C10.4131 42.1204 10.3987 42.9029 10.4439 43.2534H14.0323V44.5495H10.4298Z" fill="#163055"/>
<path d="M26.8512 46.0613C26.6743 46.4805 26.5034 46.8855 26.3325 47.2901H24.5339C25.501 45.0405 26.4579 42.8145 27.4165 40.5845H29.6959C30.6503 42.8038 31.6072 45.0288 32.565 47.2565C32.3798 47.3122 31.2624 47.3291 30.779 47.2871C30.6097 46.8865 30.4361 46.4756 30.261 46.0611H26.8509L26.8512 46.0613ZM29.6612 44.6647C29.5028 44.1524 28.6458 42.155 28.5394 42.0413C28.2579 42.5967 27.4918 44.4864 27.4779 44.6647H29.6612Z" fill="#163055"/>
<path d="M37.9986 52.8769C38.2399 52.8769 38.4403 52.8885 38.6383 52.8709C38.7099 52.8646 38.7869 52.7994 38.8414 52.742C39.2291 52.3321 39.6117 51.9173 39.9959 51.5042C40.3485 51.1249 40.701 50.7454 41.0536 50.3661C41.1165 50.2986 41.1723 50.2329 41.2829 50.2338C41.9391 50.2384 42.5953 50.2361 43.2979 50.2361C43.158 50.4394 43.0018 50.5827 42.862 50.7386C42.7226 50.8939 42.5795 51.046 42.4379 51.1992C42.2911 51.3582 42.1441 51.5172 41.9973 51.6762C41.8557 51.8296 41.7142 51.983 41.5728 52.1364C41.426 52.2957 41.2792 52.4547 41.1327 52.6139C40.9913 52.7673 40.8498 52.9208 40.7086 53.0746C40.5635 53.2327 40.4186 53.3913 40.2616 53.5628C41.2725 54.6598 42.2719 55.744 43.2904 56.8491C43.2288 56.8642 43.1893 56.882 43.1499 56.8823C42.5397 56.8841 41.9294 56.8802 41.3194 56.8864C41.1958 56.8876 41.1213 56.8326 41.0444 56.7497C40.32 55.9666 39.5913 55.1876 38.8697 54.4023C38.7619 54.2851 38.6527 54.222 38.4906 54.2352C38.339 54.2478 38.1855 54.2378 38.0046 54.2378V56.8616H36.2925C36.245 56.701 36.2283 50.5467 36.2765 50.202H37.9983V52.8778L37.9986 52.8769Z" fill="#163055"/>
<path d="M33.3606 40.5889H35.1214C35.1244 40.6823 35.1297 40.7723 35.1297 40.8626C35.1302 42.0534 35.1274 43.2441 35.1327 44.4349C35.1336 44.6342 35.1492 44.8376 35.1905 45.0323C35.2753 45.4311 35.5199 45.7168 35.899 45.858C36.5063 46.084 37.1268 46.0882 37.7347 45.8649C38.2719 45.6676 38.482 45.2289 38.5224 44.6876C38.5282 44.6108 38.5251 44.533 38.5251 44.4558C38.5251 43.2573 38.5251 42.0587 38.5251 40.8603C38.5251 40.7765 38.5251 40.6925 38.5251 40.5924H40.2685C40.2748 40.6426 40.2882 40.7008 40.2885 40.7589C40.2896 42.0657 40.2982 43.3725 40.2864 44.6793C40.2757 45.8647 39.6355 46.7446 38.521 47.1423C37.7713 47.4096 36.9962 47.4452 36.2127 47.3762C35.7882 47.3391 35.3741 47.2493 34.979 47.0826C33.9857 46.6636 33.458 45.9107 33.3773 44.8392C33.365 44.6774 33.3615 44.5149 33.3613 44.3527C33.3599 43.1928 33.3606 42.0329 33.3606 40.8731C33.3606 40.7828 33.3606 40.6925 33.3606 40.5889Z" fill="#163055"/>
<path d="M33.0216 52.8277C33.0026 52.7901 32.9866 52.7636 32.9754 52.7353C32.7246 52.0967 32.2335 51.7458 31.5887 51.5891C31.2378 51.5039 30.8831 51.5185 30.533 51.6049C29.6609 51.8198 29.1135 52.5104 29.0871 53.4425C29.0676 54.1315 29.2821 54.722 29.8566 55.1426C30.2679 55.4438 30.7403 55.5413 31.2381 55.513C31.8096 55.4805 32.3067 55.2654 32.6782 54.8202C32.824 54.6454 32.9228 54.4311 33.0482 54.2266H34.7409C34.6919 54.4119 34.6602 54.5788 34.6038 54.7371C34.3045 55.5787 33.7589 56.2184 32.9467 56.5833C31.6775 57.1536 30.3892 57.1473 29.148 56.51C28.1844 56.0153 27.554 55.2222 27.368 54.1303C27.0942 52.522 27.8953 51.0529 29.411 50.4128C30.504 49.9511 31.6278 49.9406 32.7292 50.3745C33.7847 50.7902 34.4473 51.5759 34.7061 52.69C34.7147 52.7269 34.7151 52.7657 34.7193 52.8024C34.5521 52.8534 33.444 52.8697 33.0214 52.8274L33.0216 52.8277Z" fill="#163055"/>
<path d="M18.9754 50.1932H20.7179C20.7209 50.289 20.7262 50.3784 20.7265 50.468C20.7269 51.6671 20.7255 52.866 20.7285 54.0651C20.729 54.2187 20.7415 54.3745 20.7677 54.5258C20.8505 55.0035 21.1297 55.3245 21.5867 55.4729C22.1299 55.6493 22.6822 55.6504 23.2285 55.4842C23.7695 55.3197 24.0479 54.9325 24.1089 54.3801C24.1217 54.2652 24.1193 54.1484 24.1193 54.0324C24.12 52.8488 24.1198 51.6652 24.1198 50.4817C24.1198 50.3972 24.1198 50.3125 24.1198 50.1994C24.7048 50.1695 25.2782 50.192 25.8676 50.1846C25.8748 50.27 25.8855 50.3366 25.8855 50.4032C25.8864 51.6564 25.8859 52.9096 25.8864 54.1628C25.8864 54.4662 25.8532 54.7654 25.7658 55.0562C25.5606 55.7375 25.1319 56.2312 24.5005 56.552C24.0679 56.7718 23.6055 56.8904 23.126 56.9377C22.3279 57.0167 21.5359 56.9939 20.7684 56.7281C19.8553 56.412 19.2418 55.8111 19.035 54.8443C18.99 54.6342 18.9671 54.4153 18.9659 54.2004C18.9596 52.9319 18.9627 51.6632 18.9631 50.3944C18.9631 50.3341 18.9703 50.2737 18.9754 50.1934V50.1932Z" fill="#163055"/>
<path d="M49.6577 41.9464H47.0784V40.5924H53.9556C54.0082 40.7475 54.0182 41.6748 53.9632 41.9422H51.4067V47.2876H49.6579V41.9461L49.6577 41.9464Z" fill="#163055"/>
<path d="M6.76769 51.5432V56.8595H5.01989V51.5425H2.44363V50.2261C2.60849 50.176 9.04229 50.1611 9.35044 50.211V51.5432H6.76769Z" fill="#163055"/>
<path d="M47.8018 45.9283V47.2869H42.2774V40.5922H44.0055V45.9283H47.8018Z" fill="#163055"/>
<path d="M23.7488 31.3798C23.8047 31.2816 23.8439 31.2161 23.8798 31.1488C26.3784 26.4717 28.8756 21.7937 31.379 17.1193C31.4646 16.9599 31.4507 16.8468 31.3707 16.6973C29.9429 14.0336 28.522 11.3659 27.0912 8.70354C26.9945 8.52388 26.9959 8.3932 27.0932 8.21795C27.4461 7.58289 27.7821 6.93854 28.1248 6.2979C28.1642 6.22432 28.2062 6.15236 28.2651 6.04675C30.2107 9.68956 32.1398 13.3015 34.0687 16.913C33.7865 17.4427 33.5108 17.9612 33.2342 18.4791C30.5469 23.5111 27.8591 28.5431 25.1715 33.5749C25.1532 33.609 25.1321 33.642 25.1178 33.6775C25.0746 33.7838 25.0004 33.8256 24.8836 33.8214C24.6675 33.814 24.4509 33.8195 24.2346 33.8195C23.7247 33.8195 23.2146 33.8105 22.705 33.8242C22.5144 33.8293 22.4207 33.7606 22.3328 33.5956C20.2289 29.6452 18.1191 25.6981 16.0105 21.7503C15.1874 20.2092 14.3671 18.6668 13.5386 17.1288C13.4561 16.9759 13.4498 16.8633 13.5344 16.7052C16.478 11.2053 19.4157 5.70229 22.3546 0.200004C22.3873 0.138957 22.423 0.0795361 22.4601 0.0140796H24.9932C25.0208 0.109711 24.9534 0.173775 24.9163 0.243409C24.0546 1.86009 23.1914 3.47608 22.3284 5.09206C20.2602 8.9649 18.1926 12.8382 16.1207 16.7092C16.0435 16.8536 16.0372 16.9634 16.117 17.1121C18.6227 21.7941 21.1236 26.4789 23.6255 31.1632C23.6577 31.2236 23.6929 31.2823 23.7484 31.3796L23.7488 31.3798Z" fill="#163055"/>
<path d="M25.6847 25.3699C25.259 26.1669 24.8404 26.9506 24.4004 27.7746C24.3449 27.6815 24.3018 27.6156 24.2647 27.5464C23.1026 25.3715 21.9412 23.1963 20.7796 21.0212C20.084 19.7188 19.3909 18.4152 18.6895 17.1161C18.6109 16.9703 18.6091 16.8622 18.6881 16.7143C21.6275 11.2208 24.562 5.72457 27.4972 0.229018C27.5336 0.161008 27.572 0.0941593 27.6212 0.00549136H27.8647C28.56 0.00549136 29.2554 0.0138475 29.9505 0.000152713C30.1439 -0.00379324 30.2348 0.0686267 30.3206 0.229482C32.946 5.1545 35.5758 10.0772 38.2049 15.0004C38.5145 15.5799 38.8191 16.1621 39.1373 16.737C39.211 16.8705 39.2017 16.9682 39.1329 17.0971C36.1875 22.6049 33.2451 28.1142 30.3057 33.6253C30.2315 33.7643 30.1509 33.8258 29.9862 33.8237C29.2756 33.8142 28.5647 33.82 27.854 33.8191C27.7879 33.8191 27.7218 33.81 27.6286 33.8031C27.6815 33.6986 27.7209 33.6169 27.7636 33.5371C30.6691 28.0956 33.575 22.6543 36.4808 17.2131C36.5063 17.1653 36.526 17.1135 36.5578 17.0704C36.6382 16.962 36.6183 16.8668 36.5564 16.7521C35.966 15.6565 35.3815 14.5579 34.7951 13.46C32.8869 9.88709 30.9788 6.31415 29.0704 2.7412C29.0233 2.65323 28.9748 2.56595 28.9094 2.44641C28.855 2.54065 28.8128 2.60913 28.775 2.67969C26.8043 6.36823 24.8342 10.057 22.864 13.7458C22.3395 14.7276 21.8183 15.7111 21.2873 16.6895C21.2011 16.8485 21.196 16.9692 21.2841 17.1335C22.7175 19.8033 24.1435 22.477 25.5708 25.1498C25.6072 25.2178 25.6415 25.2868 25.6842 25.3696L25.6847 25.3699Z" fill="#163055"/>
</svg>
