<svg width="82" height="38" viewBox="0 0 82 38" fill="none" xmlns="http://www.w3.org/2000/svg">
<path d="M82 31.9415H71.7017V0H71.0653V11.3459C70.6985 7.11918 68.0498 5.23682 63.2038 5.24716C56.4475 5.2621 54.4619 8.52348 54.4619 12.6353C54.4619 20.4531 65.628 20.745 65.628 25.4774C65.628 27.262 64.7093 28.4606 62.8382 28.4606C59.7915 28.4606 59.6816 26.353 59.6816 23.8386H54.1344C53.903 27.4792 54.6748 30.7693 58.5118 31.9392H50.1678C51.2162 31.7887 52.1418 31.6312 52.7331 31.5175V18.1996H44.1774V22.2367H47.1859V28.0584C46.3436 28.3503 45.3542 28.5698 44.4343 28.5698C41.2777 28.5698 40.4677 27.1126 40.4677 18.8914C40.4677 13.7971 40.4677 9.17737 43.9194 9.17737C46.8573 9.17737 47.2623 11.3217 47.2241 13.7603H52.7331C53.0606 8.26607 49.6864 5.24602 44.248 5.24602C35.1843 5.24602 34.8499 11.9756 34.8499 18.6018C34.8499 26.6277 35.5373 30.6682 40.6806 31.9392H28.73C31.4816 31.2026 33.731 29.3375 33.731 24.7867C33.731 16.5264 22.5718 16.9631 22.5718 11.9756C22.5718 10.1588 23.6387 9.17737 25.4322 9.17737C27.6758 9.17737 28.0033 11.1746 28.0033 13.1397H33.4035C33.7704 7.64781 31.0893 5.24602 25.6891 5.24602C18.9327 5.24602 16.9529 8.52233 16.9529 12.6341C16.9529 20.452 28.1121 20.7439 28.1121 25.4762C28.1121 27.2609 27.1933 28.4595 25.3223 28.4595C22.2756 28.4595 22.1657 26.3519 22.1657 23.8375H16.6185C16.387 27.4781 17.1588 30.7682 20.9958 31.9381H0V32.5713H71.0653V38H71.7017V32.5713H82V31.9381V31.9415ZM60.0796 11.9779C60.0796 10.1611 61.1465 9.17966 62.947 9.17966C65.1906 9.17966 65.6731 11.2275 65.6662 13.142H71.0664V23.056C69.62 16.5632 60.0808 16.5873 60.0808 11.9779H60.0796ZM66.2447 31.9415C68.5335 31.329 70.4752 29.935 71.0664 26.8621V31.9415H66.2447Z" fill="#163055"/>
</svg>
